M48
; DRILL file {KiCad 5.1.5-52549c5~84~ubuntu18.04.1} date Tue 21 Apr 2020 12:23:05 BST
; FORMAT={-:-/ absolute / inch / decimal}
; #@! TF.CreationDate,2020-04-21T12:23:05+01:00
; #@! TF.GenerationSoftware,Kicad,Pcbnew,5.1.5-52549c5~84~ubuntu18.04.1
; #@! TF.FileFunction,Plated,1,4,PTH
FMAT,2
INCH
T1C0.0100
T2C0.0120
T3C0.0160
T4C0.0200
T5C0.0256
T6C0.0276
T7C0.0280
T8C0.0390
T9C0.0512
%
G90
G05
T1
X3.76Y-3.805
X3.8375Y-3.6475
X3.8661Y-2.8661
X3.8675Y-3.8575
X3.8735Y-3.7919
X3.9088Y-3.8114
X3.9158Y-3.7062
X3.92Y-3.515
X3.928Y-3.302
X3.9291Y-2.8681
X3.932Y-3.3967
X3.936Y-3.3538
X3.938Y-3.7
X3.945Y-3.375
X3.9508Y-3.0965
X3.9606Y-2.8169
X3.968Y-3.524
X3.986Y-3.256
X4.0248Y-3.8798
X4.0294Y-3.1372
X4.0295Y-2.8701
X4.06Y-3.26
X4.06Y-3.605
X4.06Y-3.815
X4.066Y-3.849
X4.07Y-3.524
X4.0782Y-3.3332
X4.083Y-3.815
X4.0945Y-2.8169
X4.1004Y-3.4796
X4.1061Y-3.1657
X4.1115Y-2.9109
X4.115Y-3.996
X4.115Y-4.035
X4.141Y-3.1674
X4.142Y-3.524
X4.16Y-3.395
X4.16Y-3.745
X4.16Y-3.935
X4.1634Y-2.7874
X4.2448Y-3.7465
X4.2589Y-3.0153
X4.2589Y-3.0383
X4.2589Y-3.0619
X4.2677Y-3.1063
X4.275Y-3.935
X4.2756Y-3.4783
X4.28Y-3.745
X4.2933Y-2.8799
X4.3032Y-3.2347
X4.3135Y-3.8475
X4.3487Y-3.6291
X4.351Y-3.3743
X4.351Y-3.6887
X4.3513Y-3.5945
X4.3825Y-3.4682
X4.4137Y-3.626
X4.414Y-3.4997
X4.43Y-3.76
X4.4339Y-3.8941
X4.437Y-3.148
X4.4373Y-3.79
X4.4452Y-3.5
X4.4454Y-3.4054
X4.4455Y-3.4367
X4.4461Y-3.5306
X4.4475Y-3.5919
X4.476Y-3.4062
X4.4775Y-4.1925
X4.4775Y-4.2155
X4.478Y-3.4678
X4.4786Y-3.5933
X4.5078Y-3.9366
X4.5092Y-3.5941
X4.525Y-3.025
X4.54Y-3.4052
X4.54Y-3.3428
X4.54Y-3.47
X4.54Y-3.53
X4.54Y-3.5945
X4.54Y-3.6578
X4.5401Y-3.7201
X4.5406Y-3.688
X4.5408Y-3.7725
X4.5695Y-3.4396
X4.5712Y-3.4055
X4.5715Y-3.5948
X4.5725Y-3.4671
X4.575Y-3.53
X4.575Y-4.225
X4.575Y-4.2525
X4.5773Y-3.7727
X4.5949Y-3.895
X4.6033Y-3.6575
X4.6033Y-3.689
X4.6033Y-3.7205
X4.604Y-3.4062
X4.605Y-3.83
X4.6115Y-3.055
X4.6115Y-3.095
X4.622Y-2.7854
X4.6283Y-3.8467
X4.6338Y-3.564
X4.6341Y-3.5308
X4.6345Y-3.3422
X4.6345Y-3.4688
X4.6348Y-3.5
X4.6483Y-3.8667
X4.65Y-2.94
X4.6657Y-3.437
X4.6657Y-3.6575
X4.6659Y-3.7205
X4.685Y-4.4125
X4.6885Y-4.0412
X4.6885Y-4.0645
X4.6897Y-3.8153
X4.6898Y-3.8852
X4.6923Y-4.0926
X4.695Y-3.75
X4.6963Y-3.6882
X4.6975Y-3.6575
X4.6975Y-4.02
X4.71Y-3.785
X4.7185Y-2.8169
X4.7238Y-4.0188
X4.724Y-4.25
X4.725Y-2.94
X4.725Y-2.98
X4.7287Y-3.5
X4.7287Y-3.5315
X4.729Y-3.3422
X4.729Y-3.3107
X4.7305Y-3.6554
X4.747Y-4.02
X4.747Y-4.25
X4.76Y-3.4057
X4.7602Y-3.4685
X4.765Y-3.02
X4.77Y-4.02
X4.77Y-4.25
X4.7756Y-3.2362
X4.7883Y-4.0617
X4.805Y-3.485
X4.805Y-3.735
X4.805Y-4.4125
X4.81Y-4.02
X4.8225Y-4.1885
X4.8327Y-3.3898
X4.8327Y-3.4259
X4.8327Y-3.4528
X4.8406Y-2.8169
X4.8775Y-3.75
X4.937Y-3.2303
X4.9425Y-3.74
X4.9446Y-4.0504
X4.95Y-4.115
X4.9744Y-3.2303
X4.975Y-4.145
X4.975Y-4.1825
X4.9803Y-3.2894
X5.0217Y-2.7598
X5.0256Y-3.5118
X5.0394Y-3.0866
X5.0571Y-3.4606
X5.0591Y-2.7598
X5.0591Y-3.4322
X5.0709Y-3.0315
X5.0906Y-3.5098
X5.1083Y-3.0315
X5.1161Y-3.4587
X5.128Y-3.0906
X5.1476Y-2.9843
X5.1496Y-3.0866
X5.1496Y-3.4331
X5.1693Y-3.4528
X5.189Y-3.4744
X5.2055Y-3.4567
X5.2076Y-3.0591
X5.2283Y-3.0059
X5.2283Y-3.5118
X5.2598Y-2.9744
X5.2598Y-2.9331
X5.2657Y-3.0059
X5.2677Y-3.5118
X5.2933Y-3.124
X5.3307Y-3.25
X5.3327Y-3.1654
X5.3386Y-3.3524
X5.3622Y-3.3465
X5.4016Y-3.3465
X5.4094Y-2.9055
X5.4094Y-2.9528
X5.4094Y-3.0787
X5.4331Y-3.189
X5.4331Y-3.2283
X5.4409Y-3.3465
X5.441Y-4.226
X5.4488Y-2.9921
X5.4488Y-3.0394
X5.4567Y-3.126
X5.4567Y-3.2992
X5.4646Y-2.874
X5.4646Y-3.189
X5.4803Y-2.8504
X5.4882Y-3.4646
X5.4961Y-3.2205
X5.5118Y-2.9291
X5.5118Y-2.9764
X5.5118Y-3.0157
X5.5118Y-3.0551
X5.5118Y-3.0945
X5.5118Y-3.1339
X5.5118Y-3.1732
X5.5276Y-2.8504
X5.5276Y-2.8976
X5.5335Y-3.2992
X5.5354Y-3.2283
X5.5354Y-3.3937
X5.5354Y-3.4331
X5.5354Y-3.4961
X5.5354Y-3.5276
X5.5354Y-3.5591
X5.5433Y-3.6693
X5.5669Y-2.8504
X5.5669Y-2.8976
X5.5827Y-3.2362
X5.5827Y-3.685
X5.5906Y-3.2756
X5.5906Y-3.315
X5.5906Y-3.3543
X5.5906Y-3.3937
X5.5906Y-3.4331
X5.5906Y-3.4724
X5.5906Y-3.5118
X5.5906Y-3.5512
X5.5906Y-3.5906
X5.5906Y-3.6299
X5.6063Y-2.8504
X5.6063Y-2.8976
T2
X5.6457Y-3.5472
X5.6457Y-3.5748
X5.6457Y-3.748
X5.6457Y-3.7756
X5.685Y-3.5472
X5.685Y-3.5748
X5.685Y-3.748
X5.685Y-3.7756
X5.7244Y-3.5472
X5.7244Y-3.5748
X5.7244Y-3.748
X5.7244Y-3.7756
X3.8869Y-2.683
X3.8869Y-2.7224
X3.8869Y-2.7617
X3.9145Y-2.683
X3.9145Y-2.7224
X3.9145Y-2.7617
X4.0877Y-2.683
X4.0877Y-2.7224
X4.0877Y-2.7617
X4.1153Y-2.683
X4.1153Y-2.7224
X4.1153Y-2.7617
X5.6457Y-2.7598
X5.6457Y-2.7874
X5.6457Y-2.9606
X5.6457Y-2.9882
X5.685Y-2.7598
X5.685Y-2.7874
X5.685Y-2.9606
X5.685Y-2.9882
X5.7244Y-2.7598
X5.7244Y-2.7874
X5.7244Y-2.9606
X5.7244Y-2.9882
X4.6781Y-2.683
X4.6781Y-2.7224
X4.6781Y-2.7617
X4.7057Y-2.683
X4.7057Y-2.7224
X4.7057Y-2.7617
X4.8789Y-2.683
X4.8789Y-2.7224
X4.8789Y-2.7617
X4.9065Y-2.683
X4.9065Y-2.7224
X4.9065Y-2.7617
T3
X3.857Y-3.019
X3.865Y-4.485
X3.935Y-4.485
X4.005Y-4.485
X4.05Y-3.71
X4.075Y-4.485
X4.0925Y-2.955
X4.145Y-4.485
X4.2031Y-3.1068
X4.4154Y-2.935
X4.4764Y-2.935
T4
X3.7323Y-2.8642
X3.7325Y-2.9941
X3.7725Y-3.5925
X3.9178Y-3.0154
X3.995Y-4.085
X4.2028Y-3.0217
X4.4275Y-4.26
X4.7625Y-4.42
X4.915Y-3.895
X4.98Y-3.895
X5.045Y-3.895
X5.11Y-3.895
X5.175Y-3.895
X5.24Y-3.895
T7
X5.13Y-4.225
X5.13Y-4.275
X5.18Y-4.225
X5.18Y-4.275
X5.23Y-4.225
X5.23Y-4.275
X5.28Y-4.225
X5.28Y-4.275
X5.33Y-4.225
X5.33Y-4.275
X5.13Y-3.99
X5.13Y-4.04
X5.18Y-3.99
X5.18Y-4.04
X5.23Y-3.99
X5.23Y-4.04
X5.28Y-3.99
X5.28Y-4.04
X5.33Y-3.99
X5.33Y-4.04
T8
X4.2859Y-4.523
X4.4631Y-4.523
X4.6619Y-4.5225
X4.8391Y-4.5225
X5.0419Y-4.523
X5.2191Y-4.523
T9
X4.2365Y-4.425
X4.5125Y-4.425
X4.6125Y-4.4245
X4.8885Y-4.4245
X4.9925Y-4.425
X5.2685Y-4.425
T5
G00X3.8038Y-3.7612
M15
G01X3.8196Y-3.7612
M16
G05
G00X3.8038Y-3.9518
M15
G01X3.8196Y-3.9518
M16
G05
G00X3.8063Y-3.2462
M15
G01X3.8221Y-3.2462
M16
G05
G00X3.8063Y-3.4368
M15
G01X3.8221Y-3.4368
M16
G05
T6
G00X3.6838Y-3.749
M15
G01X3.7034Y-3.749
M16
G05
G00X3.6838Y-3.964
M15
G01X3.7034Y-3.964
M16
G05
G00X3.6863Y-3.234
M15
G01X3.7059Y-3.234
M16
G05
G00X3.6863Y-3.449
M15
G01X3.7059Y-3.449
M16
G05
T0
M30
