G04 #@! TF.GenerationSoftware,KiCad,Pcbnew,5.1.5-52549c5~84~ubuntu18.04.1*
G04 #@! TF.CreationDate,2020-04-21T12:23:25+01:00*
G04 #@! TF.ProjectId,amalthea_rev0,616d616c-7468-4656-915f-726576302e6b,rev?*
G04 #@! TF.SameCoordinates,Original*
G04 #@! TF.FileFunction,Soldermask,Bot*
G04 #@! TF.FilePolarity,Negative*
%FSLAX46Y46*%
G04 Gerber Fmt 4.6, Leading zero omitted, Abs format (unit mm)*
G04 Created by KiCad (PCBNEW 5.1.5-52549c5~84~ubuntu18.04.1) date 2020-04-21 12:23:25*
%MOMM*%
%LPD*%
G04 APERTURE LIST*
%ADD10C,0.100000*%
%ADD11C,1.016000*%
%ADD12R,4.318000X1.778000*%
%ADD13C,1.254000*%
%ADD14O,1.954000X1.604000*%
%ADD15O,1.754000X1.354000*%
%ADD16R,1.320800X1.320800*%
%ADD17C,1.320800*%
%ADD18R,1.778000X4.318000*%
%ADD19C,1.754000*%
%ADD20C,2.254000*%
G04 APERTURE END LIST*
D10*
G36*
X118261682Y-71054016D02*
G01*
X118282164Y-71057054D01*
X118302250Y-71062086D01*
X118321746Y-71069061D01*
X118340465Y-71077915D01*
X118358225Y-71088560D01*
X118374857Y-71100895D01*
X118390200Y-71114800D01*
X118404105Y-71130143D01*
X118416440Y-71146775D01*
X118427085Y-71164535D01*
X118435939Y-71183254D01*
X118442914Y-71202750D01*
X118447946Y-71222836D01*
X118450984Y-71243318D01*
X118452000Y-71264000D01*
X118452000Y-71736000D01*
X118450984Y-71756682D01*
X118447946Y-71777164D01*
X118442914Y-71797250D01*
X118435939Y-71816746D01*
X118427085Y-71835465D01*
X118416440Y-71853225D01*
X118404105Y-71869857D01*
X118390200Y-71885200D01*
X118374857Y-71899105D01*
X118358225Y-71911440D01*
X118340465Y-71922085D01*
X118321746Y-71930939D01*
X118302250Y-71937914D01*
X118282164Y-71942946D01*
X118261682Y-71945984D01*
X118241000Y-71947000D01*
X117819000Y-71947000D01*
X117798318Y-71945984D01*
X117777836Y-71942946D01*
X117757750Y-71937914D01*
X117738254Y-71930939D01*
X117719535Y-71922085D01*
X117701775Y-71911440D01*
X117685143Y-71899105D01*
X117669800Y-71885200D01*
X117655895Y-71869857D01*
X117643560Y-71853225D01*
X117632915Y-71835465D01*
X117624061Y-71816746D01*
X117617086Y-71797250D01*
X117612054Y-71777164D01*
X117609016Y-71756682D01*
X117608000Y-71736000D01*
X117608000Y-71264000D01*
X117609016Y-71243318D01*
X117612054Y-71222836D01*
X117617086Y-71202750D01*
X117624061Y-71183254D01*
X117632915Y-71164535D01*
X117643560Y-71146775D01*
X117655895Y-71130143D01*
X117669800Y-71114800D01*
X117685143Y-71100895D01*
X117701775Y-71088560D01*
X117719535Y-71077915D01*
X117738254Y-71069061D01*
X117757750Y-71062086D01*
X117777836Y-71057054D01*
X117798318Y-71054016D01*
X117819000Y-71053000D01*
X118241000Y-71053000D01*
X118261682Y-71054016D01*
G37*
G36*
X119231682Y-71054016D02*
G01*
X119252164Y-71057054D01*
X119272250Y-71062086D01*
X119291746Y-71069061D01*
X119310465Y-71077915D01*
X119328225Y-71088560D01*
X119344857Y-71100895D01*
X119360200Y-71114800D01*
X119374105Y-71130143D01*
X119386440Y-71146775D01*
X119397085Y-71164535D01*
X119405939Y-71183254D01*
X119412914Y-71202750D01*
X119417946Y-71222836D01*
X119420984Y-71243318D01*
X119422000Y-71264000D01*
X119422000Y-71736000D01*
X119420984Y-71756682D01*
X119417946Y-71777164D01*
X119412914Y-71797250D01*
X119405939Y-71816746D01*
X119397085Y-71835465D01*
X119386440Y-71853225D01*
X119374105Y-71869857D01*
X119360200Y-71885200D01*
X119344857Y-71899105D01*
X119328225Y-71911440D01*
X119310465Y-71922085D01*
X119291746Y-71930939D01*
X119272250Y-71937914D01*
X119252164Y-71942946D01*
X119231682Y-71945984D01*
X119211000Y-71947000D01*
X118789000Y-71947000D01*
X118768318Y-71945984D01*
X118747836Y-71942946D01*
X118727750Y-71937914D01*
X118708254Y-71930939D01*
X118689535Y-71922085D01*
X118671775Y-71911440D01*
X118655143Y-71899105D01*
X118639800Y-71885200D01*
X118625895Y-71869857D01*
X118613560Y-71853225D01*
X118602915Y-71835465D01*
X118594061Y-71816746D01*
X118587086Y-71797250D01*
X118582054Y-71777164D01*
X118579016Y-71756682D01*
X118578000Y-71736000D01*
X118578000Y-71264000D01*
X118579016Y-71243318D01*
X118582054Y-71222836D01*
X118587086Y-71202750D01*
X118594061Y-71183254D01*
X118602915Y-71164535D01*
X118613560Y-71146775D01*
X118625895Y-71130143D01*
X118639800Y-71114800D01*
X118655143Y-71100895D01*
X118671775Y-71088560D01*
X118689535Y-71077915D01*
X118708254Y-71069061D01*
X118727750Y-71062086D01*
X118747836Y-71057054D01*
X118768318Y-71054016D01*
X118789000Y-71053000D01*
X119211000Y-71053000D01*
X119231682Y-71054016D01*
G37*
G36*
X105981682Y-71104016D02*
G01*
X106002164Y-71107054D01*
X106022250Y-71112086D01*
X106041746Y-71119061D01*
X106060465Y-71127915D01*
X106078225Y-71138560D01*
X106094857Y-71150895D01*
X106110200Y-71164800D01*
X106124105Y-71180143D01*
X106136440Y-71196775D01*
X106147085Y-71214535D01*
X106155939Y-71233254D01*
X106162914Y-71252750D01*
X106167946Y-71272836D01*
X106170984Y-71293318D01*
X106172000Y-71314000D01*
X106172000Y-71786000D01*
X106170984Y-71806682D01*
X106167946Y-71827164D01*
X106162914Y-71847250D01*
X106155939Y-71866746D01*
X106147085Y-71885465D01*
X106136440Y-71903225D01*
X106124105Y-71919857D01*
X106110200Y-71935200D01*
X106094857Y-71949105D01*
X106078225Y-71961440D01*
X106060465Y-71972085D01*
X106041746Y-71980939D01*
X106022250Y-71987914D01*
X106002164Y-71992946D01*
X105981682Y-71995984D01*
X105961000Y-71997000D01*
X105539000Y-71997000D01*
X105518318Y-71995984D01*
X105497836Y-71992946D01*
X105477750Y-71987914D01*
X105458254Y-71980939D01*
X105439535Y-71972085D01*
X105421775Y-71961440D01*
X105405143Y-71949105D01*
X105389800Y-71935200D01*
X105375895Y-71919857D01*
X105363560Y-71903225D01*
X105352915Y-71885465D01*
X105344061Y-71866746D01*
X105337086Y-71847250D01*
X105332054Y-71827164D01*
X105329016Y-71806682D01*
X105328000Y-71786000D01*
X105328000Y-71314000D01*
X105329016Y-71293318D01*
X105332054Y-71272836D01*
X105337086Y-71252750D01*
X105344061Y-71233254D01*
X105352915Y-71214535D01*
X105363560Y-71196775D01*
X105375895Y-71180143D01*
X105389800Y-71164800D01*
X105405143Y-71150895D01*
X105421775Y-71138560D01*
X105439535Y-71127915D01*
X105458254Y-71119061D01*
X105477750Y-71112086D01*
X105497836Y-71107054D01*
X105518318Y-71104016D01*
X105539000Y-71103000D01*
X105961000Y-71103000D01*
X105981682Y-71104016D01*
G37*
G36*
X105011682Y-71104016D02*
G01*
X105032164Y-71107054D01*
X105052250Y-71112086D01*
X105071746Y-71119061D01*
X105090465Y-71127915D01*
X105108225Y-71138560D01*
X105124857Y-71150895D01*
X105140200Y-71164800D01*
X105154105Y-71180143D01*
X105166440Y-71196775D01*
X105177085Y-71214535D01*
X105185939Y-71233254D01*
X105192914Y-71252750D01*
X105197946Y-71272836D01*
X105200984Y-71293318D01*
X105202000Y-71314000D01*
X105202000Y-71786000D01*
X105200984Y-71806682D01*
X105197946Y-71827164D01*
X105192914Y-71847250D01*
X105185939Y-71866746D01*
X105177085Y-71885465D01*
X105166440Y-71903225D01*
X105154105Y-71919857D01*
X105140200Y-71935200D01*
X105124857Y-71949105D01*
X105108225Y-71961440D01*
X105090465Y-71972085D01*
X105071746Y-71980939D01*
X105052250Y-71987914D01*
X105032164Y-71992946D01*
X105011682Y-71995984D01*
X104991000Y-71997000D01*
X104569000Y-71997000D01*
X104548318Y-71995984D01*
X104527836Y-71992946D01*
X104507750Y-71987914D01*
X104488254Y-71980939D01*
X104469535Y-71972085D01*
X104451775Y-71961440D01*
X104435143Y-71949105D01*
X104419800Y-71935200D01*
X104405895Y-71919857D01*
X104393560Y-71903225D01*
X104382915Y-71885465D01*
X104374061Y-71866746D01*
X104367086Y-71847250D01*
X104362054Y-71827164D01*
X104359016Y-71806682D01*
X104358000Y-71786000D01*
X104358000Y-71314000D01*
X104359016Y-71293318D01*
X104362054Y-71272836D01*
X104367086Y-71252750D01*
X104374061Y-71233254D01*
X104382915Y-71214535D01*
X104393560Y-71196775D01*
X104405895Y-71180143D01*
X104419800Y-71164800D01*
X104435143Y-71150895D01*
X104451775Y-71138560D01*
X104469535Y-71127915D01*
X104488254Y-71119061D01*
X104507750Y-71112086D01*
X104527836Y-71107054D01*
X104548318Y-71104016D01*
X104569000Y-71103000D01*
X104991000Y-71103000D01*
X105011682Y-71104016D01*
G37*
G36*
X121901682Y-71104016D02*
G01*
X121922164Y-71107054D01*
X121942250Y-71112086D01*
X121961746Y-71119061D01*
X121980465Y-71127915D01*
X121998225Y-71138560D01*
X122014857Y-71150895D01*
X122030200Y-71164800D01*
X122044105Y-71180143D01*
X122056440Y-71196775D01*
X122067085Y-71214535D01*
X122075939Y-71233254D01*
X122082914Y-71252750D01*
X122087946Y-71272836D01*
X122090984Y-71293318D01*
X122092000Y-71314000D01*
X122092000Y-71786000D01*
X122090984Y-71806682D01*
X122087946Y-71827164D01*
X122082914Y-71847250D01*
X122075939Y-71866746D01*
X122067085Y-71885465D01*
X122056440Y-71903225D01*
X122044105Y-71919857D01*
X122030200Y-71935200D01*
X122014857Y-71949105D01*
X121998225Y-71961440D01*
X121980465Y-71972085D01*
X121961746Y-71980939D01*
X121942250Y-71987914D01*
X121922164Y-71992946D01*
X121901682Y-71995984D01*
X121881000Y-71997000D01*
X121459000Y-71997000D01*
X121438318Y-71995984D01*
X121417836Y-71992946D01*
X121397750Y-71987914D01*
X121378254Y-71980939D01*
X121359535Y-71972085D01*
X121341775Y-71961440D01*
X121325143Y-71949105D01*
X121309800Y-71935200D01*
X121295895Y-71919857D01*
X121283560Y-71903225D01*
X121272915Y-71885465D01*
X121264061Y-71866746D01*
X121257086Y-71847250D01*
X121252054Y-71827164D01*
X121249016Y-71806682D01*
X121248000Y-71786000D01*
X121248000Y-71314000D01*
X121249016Y-71293318D01*
X121252054Y-71272836D01*
X121257086Y-71252750D01*
X121264061Y-71233254D01*
X121272915Y-71214535D01*
X121283560Y-71196775D01*
X121295895Y-71180143D01*
X121309800Y-71164800D01*
X121325143Y-71150895D01*
X121341775Y-71138560D01*
X121359535Y-71127915D01*
X121378254Y-71119061D01*
X121397750Y-71112086D01*
X121417836Y-71107054D01*
X121438318Y-71104016D01*
X121459000Y-71103000D01*
X121881000Y-71103000D01*
X121901682Y-71104016D01*
G37*
G36*
X120931682Y-71104016D02*
G01*
X120952164Y-71107054D01*
X120972250Y-71112086D01*
X120991746Y-71119061D01*
X121010465Y-71127915D01*
X121028225Y-71138560D01*
X121044857Y-71150895D01*
X121060200Y-71164800D01*
X121074105Y-71180143D01*
X121086440Y-71196775D01*
X121097085Y-71214535D01*
X121105939Y-71233254D01*
X121112914Y-71252750D01*
X121117946Y-71272836D01*
X121120984Y-71293318D01*
X121122000Y-71314000D01*
X121122000Y-71786000D01*
X121120984Y-71806682D01*
X121117946Y-71827164D01*
X121112914Y-71847250D01*
X121105939Y-71866746D01*
X121097085Y-71885465D01*
X121086440Y-71903225D01*
X121074105Y-71919857D01*
X121060200Y-71935200D01*
X121044857Y-71949105D01*
X121028225Y-71961440D01*
X121010465Y-71972085D01*
X120991746Y-71980939D01*
X120972250Y-71987914D01*
X120952164Y-71992946D01*
X120931682Y-71995984D01*
X120911000Y-71997000D01*
X120489000Y-71997000D01*
X120468318Y-71995984D01*
X120447836Y-71992946D01*
X120427750Y-71987914D01*
X120408254Y-71980939D01*
X120389535Y-71972085D01*
X120371775Y-71961440D01*
X120355143Y-71949105D01*
X120339800Y-71935200D01*
X120325895Y-71919857D01*
X120313560Y-71903225D01*
X120302915Y-71885465D01*
X120294061Y-71866746D01*
X120287086Y-71847250D01*
X120282054Y-71827164D01*
X120279016Y-71806682D01*
X120278000Y-71786000D01*
X120278000Y-71314000D01*
X120279016Y-71293318D01*
X120282054Y-71272836D01*
X120287086Y-71252750D01*
X120294061Y-71233254D01*
X120302915Y-71214535D01*
X120313560Y-71196775D01*
X120325895Y-71180143D01*
X120339800Y-71164800D01*
X120355143Y-71150895D01*
X120371775Y-71138560D01*
X120389535Y-71127915D01*
X120408254Y-71119061D01*
X120427750Y-71112086D01*
X120447836Y-71107054D01*
X120468318Y-71104016D01*
X120489000Y-71103000D01*
X120911000Y-71103000D01*
X120931682Y-71104016D01*
G37*
G36*
X102411682Y-71104016D02*
G01*
X102432164Y-71107054D01*
X102452250Y-71112086D01*
X102471746Y-71119061D01*
X102490465Y-71127915D01*
X102508225Y-71138560D01*
X102524857Y-71150895D01*
X102540200Y-71164800D01*
X102554105Y-71180143D01*
X102566440Y-71196775D01*
X102577085Y-71214535D01*
X102585939Y-71233254D01*
X102592914Y-71252750D01*
X102597946Y-71272836D01*
X102600984Y-71293318D01*
X102602000Y-71314000D01*
X102602000Y-71786000D01*
X102600984Y-71806682D01*
X102597946Y-71827164D01*
X102592914Y-71847250D01*
X102585939Y-71866746D01*
X102577085Y-71885465D01*
X102566440Y-71903225D01*
X102554105Y-71919857D01*
X102540200Y-71935200D01*
X102524857Y-71949105D01*
X102508225Y-71961440D01*
X102490465Y-71972085D01*
X102471746Y-71980939D01*
X102452250Y-71987914D01*
X102432164Y-71992946D01*
X102411682Y-71995984D01*
X102391000Y-71997000D01*
X101969000Y-71997000D01*
X101948318Y-71995984D01*
X101927836Y-71992946D01*
X101907750Y-71987914D01*
X101888254Y-71980939D01*
X101869535Y-71972085D01*
X101851775Y-71961440D01*
X101835143Y-71949105D01*
X101819800Y-71935200D01*
X101805895Y-71919857D01*
X101793560Y-71903225D01*
X101782915Y-71885465D01*
X101774061Y-71866746D01*
X101767086Y-71847250D01*
X101762054Y-71827164D01*
X101759016Y-71806682D01*
X101758000Y-71786000D01*
X101758000Y-71314000D01*
X101759016Y-71293318D01*
X101762054Y-71272836D01*
X101767086Y-71252750D01*
X101774061Y-71233254D01*
X101782915Y-71214535D01*
X101793560Y-71196775D01*
X101805895Y-71180143D01*
X101819800Y-71164800D01*
X101835143Y-71150895D01*
X101851775Y-71138560D01*
X101869535Y-71127915D01*
X101888254Y-71119061D01*
X101907750Y-71112086D01*
X101927836Y-71107054D01*
X101948318Y-71104016D01*
X101969000Y-71103000D01*
X102391000Y-71103000D01*
X102411682Y-71104016D01*
G37*
G36*
X103381682Y-71104016D02*
G01*
X103402164Y-71107054D01*
X103422250Y-71112086D01*
X103441746Y-71119061D01*
X103460465Y-71127915D01*
X103478225Y-71138560D01*
X103494857Y-71150895D01*
X103510200Y-71164800D01*
X103524105Y-71180143D01*
X103536440Y-71196775D01*
X103547085Y-71214535D01*
X103555939Y-71233254D01*
X103562914Y-71252750D01*
X103567946Y-71272836D01*
X103570984Y-71293318D01*
X103572000Y-71314000D01*
X103572000Y-71786000D01*
X103570984Y-71806682D01*
X103567946Y-71827164D01*
X103562914Y-71847250D01*
X103555939Y-71866746D01*
X103547085Y-71885465D01*
X103536440Y-71903225D01*
X103524105Y-71919857D01*
X103510200Y-71935200D01*
X103494857Y-71949105D01*
X103478225Y-71961440D01*
X103460465Y-71972085D01*
X103441746Y-71980939D01*
X103422250Y-71987914D01*
X103402164Y-71992946D01*
X103381682Y-71995984D01*
X103361000Y-71997000D01*
X102939000Y-71997000D01*
X102918318Y-71995984D01*
X102897836Y-71992946D01*
X102877750Y-71987914D01*
X102858254Y-71980939D01*
X102839535Y-71972085D01*
X102821775Y-71961440D01*
X102805143Y-71949105D01*
X102789800Y-71935200D01*
X102775895Y-71919857D01*
X102763560Y-71903225D01*
X102752915Y-71885465D01*
X102744061Y-71866746D01*
X102737086Y-71847250D01*
X102732054Y-71827164D01*
X102729016Y-71806682D01*
X102728000Y-71786000D01*
X102728000Y-71314000D01*
X102729016Y-71293318D01*
X102732054Y-71272836D01*
X102737086Y-71252750D01*
X102744061Y-71233254D01*
X102752915Y-71214535D01*
X102763560Y-71196775D01*
X102775895Y-71180143D01*
X102789800Y-71164800D01*
X102805143Y-71150895D01*
X102821775Y-71138560D01*
X102839535Y-71127915D01*
X102858254Y-71119061D01*
X102877750Y-71112086D01*
X102897836Y-71107054D01*
X102918318Y-71104016D01*
X102939000Y-71103000D01*
X103361000Y-71103000D01*
X103381682Y-71104016D01*
G37*
D11*
X143400000Y-90100000D03*
X144400000Y-90100000D03*
X145400000Y-90100000D03*
X145400000Y-90800000D03*
X144400000Y-90800000D03*
X143400000Y-90800000D03*
X144400000Y-95900000D03*
X145400000Y-95900000D03*
X145400000Y-95200000D03*
X144400000Y-95200000D03*
X143400000Y-95900000D03*
X143400000Y-95200000D03*
D12*
X144968000Y-95540000D03*
X144968000Y-90460000D03*
D11*
X143400000Y-70100000D03*
X144400000Y-70100000D03*
X145400000Y-70100000D03*
X145400000Y-70800000D03*
X144400000Y-70800000D03*
X143400000Y-70800000D03*
X144400000Y-75900000D03*
X145400000Y-75900000D03*
X145400000Y-75200000D03*
X144400000Y-75200000D03*
X143400000Y-75900000D03*
X143400000Y-75200000D03*
D12*
X144968000Y-75540000D03*
X144968000Y-70460000D03*
D10*
G36*
X125611682Y-80854016D02*
G01*
X125632164Y-80857054D01*
X125652250Y-80862086D01*
X125671746Y-80869061D01*
X125690465Y-80877915D01*
X125708225Y-80888560D01*
X125724857Y-80900895D01*
X125740200Y-80914800D01*
X125754105Y-80930143D01*
X125766440Y-80946775D01*
X125777085Y-80964535D01*
X125785939Y-80983254D01*
X125792914Y-81002750D01*
X125797946Y-81022836D01*
X125800984Y-81043318D01*
X125802000Y-81064000D01*
X125802000Y-81536000D01*
X125800984Y-81556682D01*
X125797946Y-81577164D01*
X125792914Y-81597250D01*
X125785939Y-81616746D01*
X125777085Y-81635465D01*
X125766440Y-81653225D01*
X125754105Y-81669857D01*
X125740200Y-81685200D01*
X125724857Y-81699105D01*
X125708225Y-81711440D01*
X125690465Y-81722085D01*
X125671746Y-81730939D01*
X125652250Y-81737914D01*
X125632164Y-81742946D01*
X125611682Y-81745984D01*
X125591000Y-81747000D01*
X125169000Y-81747000D01*
X125148318Y-81745984D01*
X125127836Y-81742946D01*
X125107750Y-81737914D01*
X125088254Y-81730939D01*
X125069535Y-81722085D01*
X125051775Y-81711440D01*
X125035143Y-81699105D01*
X125019800Y-81685200D01*
X125005895Y-81669857D01*
X124993560Y-81653225D01*
X124982915Y-81635465D01*
X124974061Y-81616746D01*
X124967086Y-81597250D01*
X124962054Y-81577164D01*
X124959016Y-81556682D01*
X124958000Y-81536000D01*
X124958000Y-81064000D01*
X124959016Y-81043318D01*
X124962054Y-81022836D01*
X124967086Y-81002750D01*
X124974061Y-80983254D01*
X124982915Y-80964535D01*
X124993560Y-80946775D01*
X125005895Y-80930143D01*
X125019800Y-80914800D01*
X125035143Y-80900895D01*
X125051775Y-80888560D01*
X125069535Y-80877915D01*
X125088254Y-80869061D01*
X125107750Y-80862086D01*
X125127836Y-80857054D01*
X125148318Y-80854016D01*
X125169000Y-80853000D01*
X125591000Y-80853000D01*
X125611682Y-80854016D01*
G37*
G36*
X126581682Y-80854016D02*
G01*
X126602164Y-80857054D01*
X126622250Y-80862086D01*
X126641746Y-80869061D01*
X126660465Y-80877915D01*
X126678225Y-80888560D01*
X126694857Y-80900895D01*
X126710200Y-80914800D01*
X126724105Y-80930143D01*
X126736440Y-80946775D01*
X126747085Y-80964535D01*
X126755939Y-80983254D01*
X126762914Y-81002750D01*
X126767946Y-81022836D01*
X126770984Y-81043318D01*
X126772000Y-81064000D01*
X126772000Y-81536000D01*
X126770984Y-81556682D01*
X126767946Y-81577164D01*
X126762914Y-81597250D01*
X126755939Y-81616746D01*
X126747085Y-81635465D01*
X126736440Y-81653225D01*
X126724105Y-81669857D01*
X126710200Y-81685200D01*
X126694857Y-81699105D01*
X126678225Y-81711440D01*
X126660465Y-81722085D01*
X126641746Y-81730939D01*
X126622250Y-81737914D01*
X126602164Y-81742946D01*
X126581682Y-81745984D01*
X126561000Y-81747000D01*
X126139000Y-81747000D01*
X126118318Y-81745984D01*
X126097836Y-81742946D01*
X126077750Y-81737914D01*
X126058254Y-81730939D01*
X126039535Y-81722085D01*
X126021775Y-81711440D01*
X126005143Y-81699105D01*
X125989800Y-81685200D01*
X125975895Y-81669857D01*
X125963560Y-81653225D01*
X125952915Y-81635465D01*
X125944061Y-81616746D01*
X125937086Y-81597250D01*
X125932054Y-81577164D01*
X125929016Y-81556682D01*
X125928000Y-81536000D01*
X125928000Y-81064000D01*
X125929016Y-81043318D01*
X125932054Y-81022836D01*
X125937086Y-81002750D01*
X125944061Y-80983254D01*
X125952915Y-80964535D01*
X125963560Y-80946775D01*
X125975895Y-80930143D01*
X125989800Y-80914800D01*
X126005143Y-80900895D01*
X126021775Y-80888560D01*
X126039535Y-80877915D01*
X126058254Y-80869061D01*
X126077750Y-80862086D01*
X126097836Y-80857054D01*
X126118318Y-80854016D01*
X126139000Y-80853000D01*
X126561000Y-80853000D01*
X126581682Y-80854016D01*
G37*
D13*
X105410000Y-76835000D03*
X113030000Y-76835000D03*
X110109000Y-72644000D03*
D10*
G36*
X114139415Y-80615359D02*
G01*
X114166814Y-80619423D01*
X114193683Y-80626154D01*
X114219762Y-80635485D01*
X114244802Y-80647328D01*
X114268560Y-80661568D01*
X114290808Y-80678068D01*
X114311331Y-80696669D01*
X114329932Y-80717192D01*
X114346432Y-80739440D01*
X114360672Y-80763198D01*
X114372515Y-80788238D01*
X114381846Y-80814317D01*
X114388577Y-80841186D01*
X114392641Y-80868585D01*
X114394000Y-80896250D01*
X114394000Y-81460750D01*
X114392641Y-81488415D01*
X114388577Y-81515814D01*
X114381846Y-81542683D01*
X114372515Y-81568762D01*
X114360672Y-81593802D01*
X114346432Y-81617560D01*
X114329932Y-81639808D01*
X114311331Y-81660331D01*
X114290808Y-81678932D01*
X114268560Y-81695432D01*
X114244802Y-81709672D01*
X114219762Y-81721515D01*
X114193683Y-81730846D01*
X114166814Y-81737577D01*
X114139415Y-81741641D01*
X114111750Y-81743000D01*
X113472250Y-81743000D01*
X113444585Y-81741641D01*
X113417186Y-81737577D01*
X113390317Y-81730846D01*
X113364238Y-81721515D01*
X113339198Y-81709672D01*
X113315440Y-81695432D01*
X113293192Y-81678932D01*
X113272669Y-81660331D01*
X113254068Y-81639808D01*
X113237568Y-81617560D01*
X113223328Y-81593802D01*
X113211485Y-81568762D01*
X113202154Y-81542683D01*
X113195423Y-81515814D01*
X113191359Y-81488415D01*
X113190000Y-81460750D01*
X113190000Y-80896250D01*
X113191359Y-80868585D01*
X113195423Y-80841186D01*
X113202154Y-80814317D01*
X113211485Y-80788238D01*
X113223328Y-80763198D01*
X113237568Y-80739440D01*
X113254068Y-80717192D01*
X113272669Y-80696669D01*
X113293192Y-80678068D01*
X113315440Y-80661568D01*
X113339198Y-80647328D01*
X113364238Y-80635485D01*
X113390317Y-80626154D01*
X113417186Y-80619423D01*
X113444585Y-80615359D01*
X113472250Y-80614000D01*
X114111750Y-80614000D01*
X114139415Y-80615359D01*
G37*
G36*
X114139415Y-79040359D02*
G01*
X114166814Y-79044423D01*
X114193683Y-79051154D01*
X114219762Y-79060485D01*
X114244802Y-79072328D01*
X114268560Y-79086568D01*
X114290808Y-79103068D01*
X114311331Y-79121669D01*
X114329932Y-79142192D01*
X114346432Y-79164440D01*
X114360672Y-79188198D01*
X114372515Y-79213238D01*
X114381846Y-79239317D01*
X114388577Y-79266186D01*
X114392641Y-79293585D01*
X114394000Y-79321250D01*
X114394000Y-79885750D01*
X114392641Y-79913415D01*
X114388577Y-79940814D01*
X114381846Y-79967683D01*
X114372515Y-79993762D01*
X114360672Y-80018802D01*
X114346432Y-80042560D01*
X114329932Y-80064808D01*
X114311331Y-80085331D01*
X114290808Y-80103932D01*
X114268560Y-80120432D01*
X114244802Y-80134672D01*
X114219762Y-80146515D01*
X114193683Y-80155846D01*
X114166814Y-80162577D01*
X114139415Y-80166641D01*
X114111750Y-80168000D01*
X113472250Y-80168000D01*
X113444585Y-80166641D01*
X113417186Y-80162577D01*
X113390317Y-80155846D01*
X113364238Y-80146515D01*
X113339198Y-80134672D01*
X113315440Y-80120432D01*
X113293192Y-80103932D01*
X113272669Y-80085331D01*
X113254068Y-80064808D01*
X113237568Y-80042560D01*
X113223328Y-80018802D01*
X113211485Y-79993762D01*
X113202154Y-79967683D01*
X113195423Y-79940814D01*
X113191359Y-79913415D01*
X113190000Y-79885750D01*
X113190000Y-79321250D01*
X113191359Y-79293585D01*
X113195423Y-79266186D01*
X113202154Y-79239317D01*
X113211485Y-79213238D01*
X113223328Y-79188198D01*
X113237568Y-79164440D01*
X113254068Y-79142192D01*
X113272669Y-79121669D01*
X113293192Y-79103068D01*
X113315440Y-79086568D01*
X113339198Y-79072328D01*
X113364238Y-79060485D01*
X113390317Y-79051154D01*
X113417186Y-79044423D01*
X113444585Y-79040359D01*
X113472250Y-79039000D01*
X114111750Y-79039000D01*
X114139415Y-79040359D01*
G37*
G36*
X108576815Y-91308759D02*
G01*
X108604214Y-91312823D01*
X108631083Y-91319554D01*
X108657162Y-91328885D01*
X108682202Y-91340728D01*
X108705960Y-91354968D01*
X108728208Y-91371468D01*
X108748731Y-91390069D01*
X108767332Y-91410592D01*
X108783832Y-91432840D01*
X108798072Y-91456598D01*
X108809915Y-91481638D01*
X108819246Y-91507717D01*
X108825977Y-91534586D01*
X108830041Y-91561985D01*
X108831400Y-91589650D01*
X108831400Y-92154150D01*
X108830041Y-92181815D01*
X108825977Y-92209214D01*
X108819246Y-92236083D01*
X108809915Y-92262162D01*
X108798072Y-92287202D01*
X108783832Y-92310960D01*
X108767332Y-92333208D01*
X108748731Y-92353731D01*
X108728208Y-92372332D01*
X108705960Y-92388832D01*
X108682202Y-92403072D01*
X108657162Y-92414915D01*
X108631083Y-92424246D01*
X108604214Y-92430977D01*
X108576815Y-92435041D01*
X108549150Y-92436400D01*
X107909650Y-92436400D01*
X107881985Y-92435041D01*
X107854586Y-92430977D01*
X107827717Y-92424246D01*
X107801638Y-92414915D01*
X107776598Y-92403072D01*
X107752840Y-92388832D01*
X107730592Y-92372332D01*
X107710069Y-92353731D01*
X107691468Y-92333208D01*
X107674968Y-92310960D01*
X107660728Y-92287202D01*
X107648885Y-92262162D01*
X107639554Y-92236083D01*
X107632823Y-92209214D01*
X107628759Y-92181815D01*
X107627400Y-92154150D01*
X107627400Y-91589650D01*
X107628759Y-91561985D01*
X107632823Y-91534586D01*
X107639554Y-91507717D01*
X107648885Y-91481638D01*
X107660728Y-91456598D01*
X107674968Y-91432840D01*
X107691468Y-91410592D01*
X107710069Y-91390069D01*
X107730592Y-91371468D01*
X107752840Y-91354968D01*
X107776598Y-91340728D01*
X107801638Y-91328885D01*
X107827717Y-91319554D01*
X107854586Y-91312823D01*
X107881985Y-91308759D01*
X107909650Y-91307400D01*
X108549150Y-91307400D01*
X108576815Y-91308759D01*
G37*
G36*
X108576815Y-89733759D02*
G01*
X108604214Y-89737823D01*
X108631083Y-89744554D01*
X108657162Y-89753885D01*
X108682202Y-89765728D01*
X108705960Y-89779968D01*
X108728208Y-89796468D01*
X108748731Y-89815069D01*
X108767332Y-89835592D01*
X108783832Y-89857840D01*
X108798072Y-89881598D01*
X108809915Y-89906638D01*
X108819246Y-89932717D01*
X108825977Y-89959586D01*
X108830041Y-89986985D01*
X108831400Y-90014650D01*
X108831400Y-90579150D01*
X108830041Y-90606815D01*
X108825977Y-90634214D01*
X108819246Y-90661083D01*
X108809915Y-90687162D01*
X108798072Y-90712202D01*
X108783832Y-90735960D01*
X108767332Y-90758208D01*
X108748731Y-90778731D01*
X108728208Y-90797332D01*
X108705960Y-90813832D01*
X108682202Y-90828072D01*
X108657162Y-90839915D01*
X108631083Y-90849246D01*
X108604214Y-90855977D01*
X108576815Y-90860041D01*
X108549150Y-90861400D01*
X107909650Y-90861400D01*
X107881985Y-90860041D01*
X107854586Y-90855977D01*
X107827717Y-90849246D01*
X107801638Y-90839915D01*
X107776598Y-90828072D01*
X107752840Y-90813832D01*
X107730592Y-90797332D01*
X107710069Y-90778731D01*
X107691468Y-90758208D01*
X107674968Y-90735960D01*
X107660728Y-90712202D01*
X107648885Y-90687162D01*
X107639554Y-90661083D01*
X107632823Y-90634214D01*
X107628759Y-90606815D01*
X107627400Y-90579150D01*
X107627400Y-90014650D01*
X107628759Y-89986985D01*
X107632823Y-89959586D01*
X107639554Y-89932717D01*
X107648885Y-89906638D01*
X107660728Y-89881598D01*
X107674968Y-89857840D01*
X107691468Y-89835592D01*
X107710069Y-89815069D01*
X107730592Y-89796468D01*
X107752840Y-89779968D01*
X107776598Y-89765728D01*
X107801638Y-89753885D01*
X107827717Y-89744554D01*
X107854586Y-89737823D01*
X107881985Y-89733759D01*
X107909650Y-89732400D01*
X108549150Y-89732400D01*
X108576815Y-89733759D01*
G37*
G36*
X99877915Y-74583359D02*
G01*
X99905314Y-74587423D01*
X99932183Y-74594154D01*
X99958262Y-74603485D01*
X99983302Y-74615328D01*
X100007060Y-74629568D01*
X100029308Y-74646068D01*
X100049831Y-74664669D01*
X100068432Y-74685192D01*
X100084932Y-74707440D01*
X100099172Y-74731198D01*
X100111015Y-74756238D01*
X100120346Y-74782317D01*
X100127077Y-74809186D01*
X100131141Y-74836585D01*
X100132500Y-74864250D01*
X100132500Y-75503750D01*
X100131141Y-75531415D01*
X100127077Y-75558814D01*
X100120346Y-75585683D01*
X100111015Y-75611762D01*
X100099172Y-75636802D01*
X100084932Y-75660560D01*
X100068432Y-75682808D01*
X100049831Y-75703331D01*
X100029308Y-75721932D01*
X100007060Y-75738432D01*
X99983302Y-75752672D01*
X99958262Y-75764515D01*
X99932183Y-75773846D01*
X99905314Y-75780577D01*
X99877915Y-75784641D01*
X99850250Y-75786000D01*
X99285750Y-75786000D01*
X99258085Y-75784641D01*
X99230686Y-75780577D01*
X99203817Y-75773846D01*
X99177738Y-75764515D01*
X99152698Y-75752672D01*
X99128940Y-75738432D01*
X99106692Y-75721932D01*
X99086169Y-75703331D01*
X99067568Y-75682808D01*
X99051068Y-75660560D01*
X99036828Y-75636802D01*
X99024985Y-75611762D01*
X99015654Y-75585683D01*
X99008923Y-75558814D01*
X99004859Y-75531415D01*
X99003500Y-75503750D01*
X99003500Y-74864250D01*
X99004859Y-74836585D01*
X99008923Y-74809186D01*
X99015654Y-74782317D01*
X99024985Y-74756238D01*
X99036828Y-74731198D01*
X99051068Y-74707440D01*
X99067568Y-74685192D01*
X99086169Y-74664669D01*
X99106692Y-74646068D01*
X99128940Y-74629568D01*
X99152698Y-74615328D01*
X99177738Y-74603485D01*
X99203817Y-74594154D01*
X99230686Y-74587423D01*
X99258085Y-74583359D01*
X99285750Y-74582000D01*
X99850250Y-74582000D01*
X99877915Y-74583359D01*
G37*
G36*
X98302915Y-74583359D02*
G01*
X98330314Y-74587423D01*
X98357183Y-74594154D01*
X98383262Y-74603485D01*
X98408302Y-74615328D01*
X98432060Y-74629568D01*
X98454308Y-74646068D01*
X98474831Y-74664669D01*
X98493432Y-74685192D01*
X98509932Y-74707440D01*
X98524172Y-74731198D01*
X98536015Y-74756238D01*
X98545346Y-74782317D01*
X98552077Y-74809186D01*
X98556141Y-74836585D01*
X98557500Y-74864250D01*
X98557500Y-75503750D01*
X98556141Y-75531415D01*
X98552077Y-75558814D01*
X98545346Y-75585683D01*
X98536015Y-75611762D01*
X98524172Y-75636802D01*
X98509932Y-75660560D01*
X98493432Y-75682808D01*
X98474831Y-75703331D01*
X98454308Y-75721932D01*
X98432060Y-75738432D01*
X98408302Y-75752672D01*
X98383262Y-75764515D01*
X98357183Y-75773846D01*
X98330314Y-75780577D01*
X98302915Y-75784641D01*
X98275250Y-75786000D01*
X97710750Y-75786000D01*
X97683085Y-75784641D01*
X97655686Y-75780577D01*
X97628817Y-75773846D01*
X97602738Y-75764515D01*
X97577698Y-75752672D01*
X97553940Y-75738432D01*
X97531692Y-75721932D01*
X97511169Y-75703331D01*
X97492568Y-75682808D01*
X97476068Y-75660560D01*
X97461828Y-75636802D01*
X97449985Y-75611762D01*
X97440654Y-75585683D01*
X97433923Y-75558814D01*
X97429859Y-75531415D01*
X97428500Y-75503750D01*
X97428500Y-74864250D01*
X97429859Y-74836585D01*
X97433923Y-74809186D01*
X97440654Y-74782317D01*
X97449985Y-74756238D01*
X97461828Y-74731198D01*
X97476068Y-74707440D01*
X97492568Y-74685192D01*
X97511169Y-74664669D01*
X97531692Y-74646068D01*
X97553940Y-74629568D01*
X97577698Y-74615328D01*
X97602738Y-74603485D01*
X97628817Y-74594154D01*
X97655686Y-74587423D01*
X97683085Y-74583359D01*
X97710750Y-74582000D01*
X98275250Y-74582000D01*
X98302915Y-74583359D01*
G37*
G36*
X113266682Y-87754016D02*
G01*
X113287164Y-87757054D01*
X113307250Y-87762086D01*
X113326746Y-87769061D01*
X113345465Y-87777915D01*
X113363225Y-87788560D01*
X113379857Y-87800895D01*
X113395200Y-87814800D01*
X113409105Y-87830143D01*
X113421440Y-87846775D01*
X113432085Y-87864535D01*
X113440939Y-87883254D01*
X113447914Y-87902750D01*
X113452946Y-87922836D01*
X113455984Y-87943318D01*
X113457000Y-87964000D01*
X113457000Y-88436000D01*
X113455984Y-88456682D01*
X113452946Y-88477164D01*
X113447914Y-88497250D01*
X113440939Y-88516746D01*
X113432085Y-88535465D01*
X113421440Y-88553225D01*
X113409105Y-88569857D01*
X113395200Y-88585200D01*
X113379857Y-88599105D01*
X113363225Y-88611440D01*
X113345465Y-88622085D01*
X113326746Y-88630939D01*
X113307250Y-88637914D01*
X113287164Y-88642946D01*
X113266682Y-88645984D01*
X113246000Y-88647000D01*
X112824000Y-88647000D01*
X112803318Y-88645984D01*
X112782836Y-88642946D01*
X112762750Y-88637914D01*
X112743254Y-88630939D01*
X112724535Y-88622085D01*
X112706775Y-88611440D01*
X112690143Y-88599105D01*
X112674800Y-88585200D01*
X112660895Y-88569857D01*
X112648560Y-88553225D01*
X112637915Y-88535465D01*
X112629061Y-88516746D01*
X112622086Y-88497250D01*
X112617054Y-88477164D01*
X112614016Y-88456682D01*
X112613000Y-88436000D01*
X112613000Y-87964000D01*
X112614016Y-87943318D01*
X112617054Y-87922836D01*
X112622086Y-87902750D01*
X112629061Y-87883254D01*
X112637915Y-87864535D01*
X112648560Y-87846775D01*
X112660895Y-87830143D01*
X112674800Y-87814800D01*
X112690143Y-87800895D01*
X112706775Y-87788560D01*
X112724535Y-87777915D01*
X112743254Y-87769061D01*
X112762750Y-87762086D01*
X112782836Y-87757054D01*
X112803318Y-87754016D01*
X112824000Y-87753000D01*
X113246000Y-87753000D01*
X113266682Y-87754016D01*
G37*
G36*
X112296682Y-87754016D02*
G01*
X112317164Y-87757054D01*
X112337250Y-87762086D01*
X112356746Y-87769061D01*
X112375465Y-87777915D01*
X112393225Y-87788560D01*
X112409857Y-87800895D01*
X112425200Y-87814800D01*
X112439105Y-87830143D01*
X112451440Y-87846775D01*
X112462085Y-87864535D01*
X112470939Y-87883254D01*
X112477914Y-87902750D01*
X112482946Y-87922836D01*
X112485984Y-87943318D01*
X112487000Y-87964000D01*
X112487000Y-88436000D01*
X112485984Y-88456682D01*
X112482946Y-88477164D01*
X112477914Y-88497250D01*
X112470939Y-88516746D01*
X112462085Y-88535465D01*
X112451440Y-88553225D01*
X112439105Y-88569857D01*
X112425200Y-88585200D01*
X112409857Y-88599105D01*
X112393225Y-88611440D01*
X112375465Y-88622085D01*
X112356746Y-88630939D01*
X112337250Y-88637914D01*
X112317164Y-88642946D01*
X112296682Y-88645984D01*
X112276000Y-88647000D01*
X111854000Y-88647000D01*
X111833318Y-88645984D01*
X111812836Y-88642946D01*
X111792750Y-88637914D01*
X111773254Y-88630939D01*
X111754535Y-88622085D01*
X111736775Y-88611440D01*
X111720143Y-88599105D01*
X111704800Y-88585200D01*
X111690895Y-88569857D01*
X111678560Y-88553225D01*
X111667915Y-88535465D01*
X111659061Y-88516746D01*
X111652086Y-88497250D01*
X111647054Y-88477164D01*
X111644016Y-88456682D01*
X111643000Y-88436000D01*
X111643000Y-87964000D01*
X111644016Y-87943318D01*
X111647054Y-87922836D01*
X111652086Y-87902750D01*
X111659061Y-87883254D01*
X111667915Y-87864535D01*
X111678560Y-87846775D01*
X111690895Y-87830143D01*
X111704800Y-87814800D01*
X111720143Y-87800895D01*
X111736775Y-87788560D01*
X111754535Y-87777915D01*
X111773254Y-87769061D01*
X111792750Y-87762086D01*
X111812836Y-87757054D01*
X111833318Y-87754016D01*
X111854000Y-87753000D01*
X112276000Y-87753000D01*
X112296682Y-87754016D01*
G37*
G36*
X117406682Y-85164016D02*
G01*
X117427164Y-85167054D01*
X117447250Y-85172086D01*
X117466746Y-85179061D01*
X117485465Y-85187915D01*
X117503225Y-85198560D01*
X117519857Y-85210895D01*
X117535200Y-85224800D01*
X117549105Y-85240143D01*
X117561440Y-85256775D01*
X117572085Y-85274535D01*
X117580939Y-85293254D01*
X117587914Y-85312750D01*
X117592946Y-85332836D01*
X117595984Y-85353318D01*
X117597000Y-85374000D01*
X117597000Y-85796000D01*
X117595984Y-85816682D01*
X117592946Y-85837164D01*
X117587914Y-85857250D01*
X117580939Y-85876746D01*
X117572085Y-85895465D01*
X117561440Y-85913225D01*
X117549105Y-85929857D01*
X117535200Y-85945200D01*
X117519857Y-85959105D01*
X117503225Y-85971440D01*
X117485465Y-85982085D01*
X117466746Y-85990939D01*
X117447250Y-85997914D01*
X117427164Y-86002946D01*
X117406682Y-86005984D01*
X117386000Y-86007000D01*
X116914000Y-86007000D01*
X116893318Y-86005984D01*
X116872836Y-86002946D01*
X116852750Y-85997914D01*
X116833254Y-85990939D01*
X116814535Y-85982085D01*
X116796775Y-85971440D01*
X116780143Y-85959105D01*
X116764800Y-85945200D01*
X116750895Y-85929857D01*
X116738560Y-85913225D01*
X116727915Y-85895465D01*
X116719061Y-85876746D01*
X116712086Y-85857250D01*
X116707054Y-85837164D01*
X116704016Y-85816682D01*
X116703000Y-85796000D01*
X116703000Y-85374000D01*
X116704016Y-85353318D01*
X116707054Y-85332836D01*
X116712086Y-85312750D01*
X116719061Y-85293254D01*
X116727915Y-85274535D01*
X116738560Y-85256775D01*
X116750895Y-85240143D01*
X116764800Y-85224800D01*
X116780143Y-85210895D01*
X116796775Y-85198560D01*
X116814535Y-85187915D01*
X116833254Y-85179061D01*
X116852750Y-85172086D01*
X116872836Y-85167054D01*
X116893318Y-85164016D01*
X116914000Y-85163000D01*
X117386000Y-85163000D01*
X117406682Y-85164016D01*
G37*
G36*
X117406682Y-84194016D02*
G01*
X117427164Y-84197054D01*
X117447250Y-84202086D01*
X117466746Y-84209061D01*
X117485465Y-84217915D01*
X117503225Y-84228560D01*
X117519857Y-84240895D01*
X117535200Y-84254800D01*
X117549105Y-84270143D01*
X117561440Y-84286775D01*
X117572085Y-84304535D01*
X117580939Y-84323254D01*
X117587914Y-84342750D01*
X117592946Y-84362836D01*
X117595984Y-84383318D01*
X117597000Y-84404000D01*
X117597000Y-84826000D01*
X117595984Y-84846682D01*
X117592946Y-84867164D01*
X117587914Y-84887250D01*
X117580939Y-84906746D01*
X117572085Y-84925465D01*
X117561440Y-84943225D01*
X117549105Y-84959857D01*
X117535200Y-84975200D01*
X117519857Y-84989105D01*
X117503225Y-85001440D01*
X117485465Y-85012085D01*
X117466746Y-85020939D01*
X117447250Y-85027914D01*
X117427164Y-85032946D01*
X117406682Y-85035984D01*
X117386000Y-85037000D01*
X116914000Y-85037000D01*
X116893318Y-85035984D01*
X116872836Y-85032946D01*
X116852750Y-85027914D01*
X116833254Y-85020939D01*
X116814535Y-85012085D01*
X116796775Y-85001440D01*
X116780143Y-84989105D01*
X116764800Y-84975200D01*
X116750895Y-84959857D01*
X116738560Y-84943225D01*
X116727915Y-84925465D01*
X116719061Y-84906746D01*
X116712086Y-84887250D01*
X116707054Y-84867164D01*
X116704016Y-84846682D01*
X116703000Y-84826000D01*
X116703000Y-84404000D01*
X116704016Y-84383318D01*
X116707054Y-84362836D01*
X116712086Y-84342750D01*
X116719061Y-84323254D01*
X116727915Y-84304535D01*
X116738560Y-84286775D01*
X116750895Y-84270143D01*
X116764800Y-84254800D01*
X116780143Y-84240895D01*
X116796775Y-84228560D01*
X116814535Y-84217915D01*
X116833254Y-84209061D01*
X116852750Y-84202086D01*
X116872836Y-84197054D01*
X116893318Y-84194016D01*
X116914000Y-84193000D01*
X117386000Y-84193000D01*
X117406682Y-84194016D01*
G37*
G36*
X116009682Y-88390516D02*
G01*
X116030164Y-88393554D01*
X116050250Y-88398586D01*
X116069746Y-88405561D01*
X116088465Y-88414415D01*
X116106225Y-88425060D01*
X116122857Y-88437395D01*
X116138200Y-88451300D01*
X116152105Y-88466643D01*
X116164440Y-88483275D01*
X116175085Y-88501035D01*
X116183939Y-88519754D01*
X116190914Y-88539250D01*
X116195946Y-88559336D01*
X116198984Y-88579818D01*
X116200000Y-88600500D01*
X116200000Y-89072500D01*
X116198984Y-89093182D01*
X116195946Y-89113664D01*
X116190914Y-89133750D01*
X116183939Y-89153246D01*
X116175085Y-89171965D01*
X116164440Y-89189725D01*
X116152105Y-89206357D01*
X116138200Y-89221700D01*
X116122857Y-89235605D01*
X116106225Y-89247940D01*
X116088465Y-89258585D01*
X116069746Y-89267439D01*
X116050250Y-89274414D01*
X116030164Y-89279446D01*
X116009682Y-89282484D01*
X115989000Y-89283500D01*
X115567000Y-89283500D01*
X115546318Y-89282484D01*
X115525836Y-89279446D01*
X115505750Y-89274414D01*
X115486254Y-89267439D01*
X115467535Y-89258585D01*
X115449775Y-89247940D01*
X115433143Y-89235605D01*
X115417800Y-89221700D01*
X115403895Y-89206357D01*
X115391560Y-89189725D01*
X115380915Y-89171965D01*
X115372061Y-89153246D01*
X115365086Y-89133750D01*
X115360054Y-89113664D01*
X115357016Y-89093182D01*
X115356000Y-89072500D01*
X115356000Y-88600500D01*
X115357016Y-88579818D01*
X115360054Y-88559336D01*
X115365086Y-88539250D01*
X115372061Y-88519754D01*
X115380915Y-88501035D01*
X115391560Y-88483275D01*
X115403895Y-88466643D01*
X115417800Y-88451300D01*
X115433143Y-88437395D01*
X115449775Y-88425060D01*
X115467535Y-88414415D01*
X115486254Y-88405561D01*
X115505750Y-88398586D01*
X115525836Y-88393554D01*
X115546318Y-88390516D01*
X115567000Y-88389500D01*
X115989000Y-88389500D01*
X116009682Y-88390516D01*
G37*
G36*
X115039682Y-88390516D02*
G01*
X115060164Y-88393554D01*
X115080250Y-88398586D01*
X115099746Y-88405561D01*
X115118465Y-88414415D01*
X115136225Y-88425060D01*
X115152857Y-88437395D01*
X115168200Y-88451300D01*
X115182105Y-88466643D01*
X115194440Y-88483275D01*
X115205085Y-88501035D01*
X115213939Y-88519754D01*
X115220914Y-88539250D01*
X115225946Y-88559336D01*
X115228984Y-88579818D01*
X115230000Y-88600500D01*
X115230000Y-89072500D01*
X115228984Y-89093182D01*
X115225946Y-89113664D01*
X115220914Y-89133750D01*
X115213939Y-89153246D01*
X115205085Y-89171965D01*
X115194440Y-89189725D01*
X115182105Y-89206357D01*
X115168200Y-89221700D01*
X115152857Y-89235605D01*
X115136225Y-89247940D01*
X115118465Y-89258585D01*
X115099746Y-89267439D01*
X115080250Y-89274414D01*
X115060164Y-89279446D01*
X115039682Y-89282484D01*
X115019000Y-89283500D01*
X114597000Y-89283500D01*
X114576318Y-89282484D01*
X114555836Y-89279446D01*
X114535750Y-89274414D01*
X114516254Y-89267439D01*
X114497535Y-89258585D01*
X114479775Y-89247940D01*
X114463143Y-89235605D01*
X114447800Y-89221700D01*
X114433895Y-89206357D01*
X114421560Y-89189725D01*
X114410915Y-89171965D01*
X114402061Y-89153246D01*
X114395086Y-89133750D01*
X114390054Y-89113664D01*
X114387016Y-89093182D01*
X114386000Y-89072500D01*
X114386000Y-88600500D01*
X114387016Y-88579818D01*
X114390054Y-88559336D01*
X114395086Y-88539250D01*
X114402061Y-88519754D01*
X114410915Y-88501035D01*
X114421560Y-88483275D01*
X114433895Y-88466643D01*
X114447800Y-88451300D01*
X114463143Y-88437395D01*
X114479775Y-88425060D01*
X114497535Y-88414415D01*
X114516254Y-88405561D01*
X114535750Y-88398586D01*
X114555836Y-88393554D01*
X114576318Y-88390516D01*
X114597000Y-88389500D01*
X115019000Y-88389500D01*
X115039682Y-88390516D01*
G37*
G36*
X98321682Y-73468016D02*
G01*
X98342164Y-73471054D01*
X98362250Y-73476086D01*
X98381746Y-73483061D01*
X98400465Y-73491915D01*
X98418225Y-73502560D01*
X98434857Y-73514895D01*
X98450200Y-73528800D01*
X98464105Y-73544143D01*
X98476440Y-73560775D01*
X98487085Y-73578535D01*
X98495939Y-73597254D01*
X98502914Y-73616750D01*
X98507946Y-73636836D01*
X98510984Y-73657318D01*
X98512000Y-73678000D01*
X98512000Y-74150000D01*
X98510984Y-74170682D01*
X98507946Y-74191164D01*
X98502914Y-74211250D01*
X98495939Y-74230746D01*
X98487085Y-74249465D01*
X98476440Y-74267225D01*
X98464105Y-74283857D01*
X98450200Y-74299200D01*
X98434857Y-74313105D01*
X98418225Y-74325440D01*
X98400465Y-74336085D01*
X98381746Y-74344939D01*
X98362250Y-74351914D01*
X98342164Y-74356946D01*
X98321682Y-74359984D01*
X98301000Y-74361000D01*
X97879000Y-74361000D01*
X97858318Y-74359984D01*
X97837836Y-74356946D01*
X97817750Y-74351914D01*
X97798254Y-74344939D01*
X97779535Y-74336085D01*
X97761775Y-74325440D01*
X97745143Y-74313105D01*
X97729800Y-74299200D01*
X97715895Y-74283857D01*
X97703560Y-74267225D01*
X97692915Y-74249465D01*
X97684061Y-74230746D01*
X97677086Y-74211250D01*
X97672054Y-74191164D01*
X97669016Y-74170682D01*
X97668000Y-74150000D01*
X97668000Y-73678000D01*
X97669016Y-73657318D01*
X97672054Y-73636836D01*
X97677086Y-73616750D01*
X97684061Y-73597254D01*
X97692915Y-73578535D01*
X97703560Y-73560775D01*
X97715895Y-73544143D01*
X97729800Y-73528800D01*
X97745143Y-73514895D01*
X97761775Y-73502560D01*
X97779535Y-73491915D01*
X97798254Y-73483061D01*
X97817750Y-73476086D01*
X97837836Y-73471054D01*
X97858318Y-73468016D01*
X97879000Y-73467000D01*
X98301000Y-73467000D01*
X98321682Y-73468016D01*
G37*
G36*
X99291682Y-73468016D02*
G01*
X99312164Y-73471054D01*
X99332250Y-73476086D01*
X99351746Y-73483061D01*
X99370465Y-73491915D01*
X99388225Y-73502560D01*
X99404857Y-73514895D01*
X99420200Y-73528800D01*
X99434105Y-73544143D01*
X99446440Y-73560775D01*
X99457085Y-73578535D01*
X99465939Y-73597254D01*
X99472914Y-73616750D01*
X99477946Y-73636836D01*
X99480984Y-73657318D01*
X99482000Y-73678000D01*
X99482000Y-74150000D01*
X99480984Y-74170682D01*
X99477946Y-74191164D01*
X99472914Y-74211250D01*
X99465939Y-74230746D01*
X99457085Y-74249465D01*
X99446440Y-74267225D01*
X99434105Y-74283857D01*
X99420200Y-74299200D01*
X99404857Y-74313105D01*
X99388225Y-74325440D01*
X99370465Y-74336085D01*
X99351746Y-74344939D01*
X99332250Y-74351914D01*
X99312164Y-74356946D01*
X99291682Y-74359984D01*
X99271000Y-74361000D01*
X98849000Y-74361000D01*
X98828318Y-74359984D01*
X98807836Y-74356946D01*
X98787750Y-74351914D01*
X98768254Y-74344939D01*
X98749535Y-74336085D01*
X98731775Y-74325440D01*
X98715143Y-74313105D01*
X98699800Y-74299200D01*
X98685895Y-74283857D01*
X98673560Y-74267225D01*
X98662915Y-74249465D01*
X98654061Y-74230746D01*
X98647086Y-74211250D01*
X98642054Y-74191164D01*
X98639016Y-74170682D01*
X98638000Y-74150000D01*
X98638000Y-73678000D01*
X98639016Y-73657318D01*
X98642054Y-73636836D01*
X98647086Y-73616750D01*
X98654061Y-73597254D01*
X98662915Y-73578535D01*
X98673560Y-73560775D01*
X98685895Y-73544143D01*
X98699800Y-73528800D01*
X98715143Y-73514895D01*
X98731775Y-73502560D01*
X98749535Y-73491915D01*
X98768254Y-73483061D01*
X98787750Y-73476086D01*
X98807836Y-73471054D01*
X98828318Y-73468016D01*
X98849000Y-73467000D01*
X99271000Y-73467000D01*
X99291682Y-73468016D01*
G37*
G36*
X114546682Y-85154016D02*
G01*
X114567164Y-85157054D01*
X114587250Y-85162086D01*
X114606746Y-85169061D01*
X114625465Y-85177915D01*
X114643225Y-85188560D01*
X114659857Y-85200895D01*
X114675200Y-85214800D01*
X114689105Y-85230143D01*
X114701440Y-85246775D01*
X114712085Y-85264535D01*
X114720939Y-85283254D01*
X114727914Y-85302750D01*
X114732946Y-85322836D01*
X114735984Y-85343318D01*
X114737000Y-85364000D01*
X114737000Y-85836000D01*
X114735984Y-85856682D01*
X114732946Y-85877164D01*
X114727914Y-85897250D01*
X114720939Y-85916746D01*
X114712085Y-85935465D01*
X114701440Y-85953225D01*
X114689105Y-85969857D01*
X114675200Y-85985200D01*
X114659857Y-85999105D01*
X114643225Y-86011440D01*
X114625465Y-86022085D01*
X114606746Y-86030939D01*
X114587250Y-86037914D01*
X114567164Y-86042946D01*
X114546682Y-86045984D01*
X114526000Y-86047000D01*
X114104000Y-86047000D01*
X114083318Y-86045984D01*
X114062836Y-86042946D01*
X114042750Y-86037914D01*
X114023254Y-86030939D01*
X114004535Y-86022085D01*
X113986775Y-86011440D01*
X113970143Y-85999105D01*
X113954800Y-85985200D01*
X113940895Y-85969857D01*
X113928560Y-85953225D01*
X113917915Y-85935465D01*
X113909061Y-85916746D01*
X113902086Y-85897250D01*
X113897054Y-85877164D01*
X113894016Y-85856682D01*
X113893000Y-85836000D01*
X113893000Y-85364000D01*
X113894016Y-85343318D01*
X113897054Y-85322836D01*
X113902086Y-85302750D01*
X113909061Y-85283254D01*
X113917915Y-85264535D01*
X113928560Y-85246775D01*
X113940895Y-85230143D01*
X113954800Y-85214800D01*
X113970143Y-85200895D01*
X113986775Y-85188560D01*
X114004535Y-85177915D01*
X114023254Y-85169061D01*
X114042750Y-85162086D01*
X114062836Y-85157054D01*
X114083318Y-85154016D01*
X114104000Y-85153000D01*
X114526000Y-85153000D01*
X114546682Y-85154016D01*
G37*
G36*
X115516682Y-85154016D02*
G01*
X115537164Y-85157054D01*
X115557250Y-85162086D01*
X115576746Y-85169061D01*
X115595465Y-85177915D01*
X115613225Y-85188560D01*
X115629857Y-85200895D01*
X115645200Y-85214800D01*
X115659105Y-85230143D01*
X115671440Y-85246775D01*
X115682085Y-85264535D01*
X115690939Y-85283254D01*
X115697914Y-85302750D01*
X115702946Y-85322836D01*
X115705984Y-85343318D01*
X115707000Y-85364000D01*
X115707000Y-85836000D01*
X115705984Y-85856682D01*
X115702946Y-85877164D01*
X115697914Y-85897250D01*
X115690939Y-85916746D01*
X115682085Y-85935465D01*
X115671440Y-85953225D01*
X115659105Y-85969857D01*
X115645200Y-85985200D01*
X115629857Y-85999105D01*
X115613225Y-86011440D01*
X115595465Y-86022085D01*
X115576746Y-86030939D01*
X115557250Y-86037914D01*
X115537164Y-86042946D01*
X115516682Y-86045984D01*
X115496000Y-86047000D01*
X115074000Y-86047000D01*
X115053318Y-86045984D01*
X115032836Y-86042946D01*
X115012750Y-86037914D01*
X114993254Y-86030939D01*
X114974535Y-86022085D01*
X114956775Y-86011440D01*
X114940143Y-85999105D01*
X114924800Y-85985200D01*
X114910895Y-85969857D01*
X114898560Y-85953225D01*
X114887915Y-85935465D01*
X114879061Y-85916746D01*
X114872086Y-85897250D01*
X114867054Y-85877164D01*
X114864016Y-85856682D01*
X114863000Y-85836000D01*
X114863000Y-85364000D01*
X114864016Y-85343318D01*
X114867054Y-85322836D01*
X114872086Y-85302750D01*
X114879061Y-85283254D01*
X114887915Y-85264535D01*
X114898560Y-85246775D01*
X114910895Y-85230143D01*
X114924800Y-85214800D01*
X114940143Y-85200895D01*
X114956775Y-85188560D01*
X114974535Y-85177915D01*
X114993254Y-85169061D01*
X115012750Y-85162086D01*
X115032836Y-85157054D01*
X115053318Y-85154016D01*
X115074000Y-85153000D01*
X115496000Y-85153000D01*
X115516682Y-85154016D01*
G37*
G36*
X112416682Y-85754016D02*
G01*
X112437164Y-85757054D01*
X112457250Y-85762086D01*
X112476746Y-85769061D01*
X112495465Y-85777915D01*
X112513225Y-85788560D01*
X112529857Y-85800895D01*
X112545200Y-85814800D01*
X112559105Y-85830143D01*
X112571440Y-85846775D01*
X112582085Y-85864535D01*
X112590939Y-85883254D01*
X112597914Y-85902750D01*
X112602946Y-85922836D01*
X112605984Y-85943318D01*
X112607000Y-85964000D01*
X112607000Y-86436000D01*
X112605984Y-86456682D01*
X112602946Y-86477164D01*
X112597914Y-86497250D01*
X112590939Y-86516746D01*
X112582085Y-86535465D01*
X112571440Y-86553225D01*
X112559105Y-86569857D01*
X112545200Y-86585200D01*
X112529857Y-86599105D01*
X112513225Y-86611440D01*
X112495465Y-86622085D01*
X112476746Y-86630939D01*
X112457250Y-86637914D01*
X112437164Y-86642946D01*
X112416682Y-86645984D01*
X112396000Y-86647000D01*
X111974000Y-86647000D01*
X111953318Y-86645984D01*
X111932836Y-86642946D01*
X111912750Y-86637914D01*
X111893254Y-86630939D01*
X111874535Y-86622085D01*
X111856775Y-86611440D01*
X111840143Y-86599105D01*
X111824800Y-86585200D01*
X111810895Y-86569857D01*
X111798560Y-86553225D01*
X111787915Y-86535465D01*
X111779061Y-86516746D01*
X111772086Y-86497250D01*
X111767054Y-86477164D01*
X111764016Y-86456682D01*
X111763000Y-86436000D01*
X111763000Y-85964000D01*
X111764016Y-85943318D01*
X111767054Y-85922836D01*
X111772086Y-85902750D01*
X111779061Y-85883254D01*
X111787915Y-85864535D01*
X111798560Y-85846775D01*
X111810895Y-85830143D01*
X111824800Y-85814800D01*
X111840143Y-85800895D01*
X111856775Y-85788560D01*
X111874535Y-85777915D01*
X111893254Y-85769061D01*
X111912750Y-85762086D01*
X111932836Y-85757054D01*
X111953318Y-85754016D01*
X111974000Y-85753000D01*
X112396000Y-85753000D01*
X112416682Y-85754016D01*
G37*
G36*
X111446682Y-85754016D02*
G01*
X111467164Y-85757054D01*
X111487250Y-85762086D01*
X111506746Y-85769061D01*
X111525465Y-85777915D01*
X111543225Y-85788560D01*
X111559857Y-85800895D01*
X111575200Y-85814800D01*
X111589105Y-85830143D01*
X111601440Y-85846775D01*
X111612085Y-85864535D01*
X111620939Y-85883254D01*
X111627914Y-85902750D01*
X111632946Y-85922836D01*
X111635984Y-85943318D01*
X111637000Y-85964000D01*
X111637000Y-86436000D01*
X111635984Y-86456682D01*
X111632946Y-86477164D01*
X111627914Y-86497250D01*
X111620939Y-86516746D01*
X111612085Y-86535465D01*
X111601440Y-86553225D01*
X111589105Y-86569857D01*
X111575200Y-86585200D01*
X111559857Y-86599105D01*
X111543225Y-86611440D01*
X111525465Y-86622085D01*
X111506746Y-86630939D01*
X111487250Y-86637914D01*
X111467164Y-86642946D01*
X111446682Y-86645984D01*
X111426000Y-86647000D01*
X111004000Y-86647000D01*
X110983318Y-86645984D01*
X110962836Y-86642946D01*
X110942750Y-86637914D01*
X110923254Y-86630939D01*
X110904535Y-86622085D01*
X110886775Y-86611440D01*
X110870143Y-86599105D01*
X110854800Y-86585200D01*
X110840895Y-86569857D01*
X110828560Y-86553225D01*
X110817915Y-86535465D01*
X110809061Y-86516746D01*
X110802086Y-86497250D01*
X110797054Y-86477164D01*
X110794016Y-86456682D01*
X110793000Y-86436000D01*
X110793000Y-85964000D01*
X110794016Y-85943318D01*
X110797054Y-85922836D01*
X110802086Y-85902750D01*
X110809061Y-85883254D01*
X110817915Y-85864535D01*
X110828560Y-85846775D01*
X110840895Y-85830143D01*
X110854800Y-85814800D01*
X110870143Y-85800895D01*
X110886775Y-85788560D01*
X110904535Y-85777915D01*
X110923254Y-85769061D01*
X110942750Y-85762086D01*
X110962836Y-85757054D01*
X110983318Y-85754016D01*
X111004000Y-85753000D01*
X111426000Y-85753000D01*
X111446682Y-85754016D01*
G37*
G36*
X111396682Y-86754016D02*
G01*
X111417164Y-86757054D01*
X111437250Y-86762086D01*
X111456746Y-86769061D01*
X111475465Y-86777915D01*
X111493225Y-86788560D01*
X111509857Y-86800895D01*
X111525200Y-86814800D01*
X111539105Y-86830143D01*
X111551440Y-86846775D01*
X111562085Y-86864535D01*
X111570939Y-86883254D01*
X111577914Y-86902750D01*
X111582946Y-86922836D01*
X111585984Y-86943318D01*
X111587000Y-86964000D01*
X111587000Y-87436000D01*
X111585984Y-87456682D01*
X111582946Y-87477164D01*
X111577914Y-87497250D01*
X111570939Y-87516746D01*
X111562085Y-87535465D01*
X111551440Y-87553225D01*
X111539105Y-87569857D01*
X111525200Y-87585200D01*
X111509857Y-87599105D01*
X111493225Y-87611440D01*
X111475465Y-87622085D01*
X111456746Y-87630939D01*
X111437250Y-87637914D01*
X111417164Y-87642946D01*
X111396682Y-87645984D01*
X111376000Y-87647000D01*
X110954000Y-87647000D01*
X110933318Y-87645984D01*
X110912836Y-87642946D01*
X110892750Y-87637914D01*
X110873254Y-87630939D01*
X110854535Y-87622085D01*
X110836775Y-87611440D01*
X110820143Y-87599105D01*
X110804800Y-87585200D01*
X110790895Y-87569857D01*
X110778560Y-87553225D01*
X110767915Y-87535465D01*
X110759061Y-87516746D01*
X110752086Y-87497250D01*
X110747054Y-87477164D01*
X110744016Y-87456682D01*
X110743000Y-87436000D01*
X110743000Y-86964000D01*
X110744016Y-86943318D01*
X110747054Y-86922836D01*
X110752086Y-86902750D01*
X110759061Y-86883254D01*
X110767915Y-86864535D01*
X110778560Y-86846775D01*
X110790895Y-86830143D01*
X110804800Y-86814800D01*
X110820143Y-86800895D01*
X110836775Y-86788560D01*
X110854535Y-86777915D01*
X110873254Y-86769061D01*
X110892750Y-86762086D01*
X110912836Y-86757054D01*
X110933318Y-86754016D01*
X110954000Y-86753000D01*
X111376000Y-86753000D01*
X111396682Y-86754016D01*
G37*
G36*
X112366682Y-86754016D02*
G01*
X112387164Y-86757054D01*
X112407250Y-86762086D01*
X112426746Y-86769061D01*
X112445465Y-86777915D01*
X112463225Y-86788560D01*
X112479857Y-86800895D01*
X112495200Y-86814800D01*
X112509105Y-86830143D01*
X112521440Y-86846775D01*
X112532085Y-86864535D01*
X112540939Y-86883254D01*
X112547914Y-86902750D01*
X112552946Y-86922836D01*
X112555984Y-86943318D01*
X112557000Y-86964000D01*
X112557000Y-87436000D01*
X112555984Y-87456682D01*
X112552946Y-87477164D01*
X112547914Y-87497250D01*
X112540939Y-87516746D01*
X112532085Y-87535465D01*
X112521440Y-87553225D01*
X112509105Y-87569857D01*
X112495200Y-87585200D01*
X112479857Y-87599105D01*
X112463225Y-87611440D01*
X112445465Y-87622085D01*
X112426746Y-87630939D01*
X112407250Y-87637914D01*
X112387164Y-87642946D01*
X112366682Y-87645984D01*
X112346000Y-87647000D01*
X111924000Y-87647000D01*
X111903318Y-87645984D01*
X111882836Y-87642946D01*
X111862750Y-87637914D01*
X111843254Y-87630939D01*
X111824535Y-87622085D01*
X111806775Y-87611440D01*
X111790143Y-87599105D01*
X111774800Y-87585200D01*
X111760895Y-87569857D01*
X111748560Y-87553225D01*
X111737915Y-87535465D01*
X111729061Y-87516746D01*
X111722086Y-87497250D01*
X111717054Y-87477164D01*
X111714016Y-87456682D01*
X111713000Y-87436000D01*
X111713000Y-86964000D01*
X111714016Y-86943318D01*
X111717054Y-86922836D01*
X111722086Y-86902750D01*
X111729061Y-86883254D01*
X111737915Y-86864535D01*
X111748560Y-86846775D01*
X111760895Y-86830143D01*
X111774800Y-86814800D01*
X111790143Y-86800895D01*
X111806775Y-86788560D01*
X111824535Y-86777915D01*
X111843254Y-86769061D01*
X111862750Y-86762086D01*
X111882836Y-86757054D01*
X111903318Y-86754016D01*
X111924000Y-86753000D01*
X112346000Y-86753000D01*
X112366682Y-86754016D01*
G37*
G36*
X116456682Y-84209016D02*
G01*
X116477164Y-84212054D01*
X116497250Y-84217086D01*
X116516746Y-84224061D01*
X116535465Y-84232915D01*
X116553225Y-84243560D01*
X116569857Y-84255895D01*
X116585200Y-84269800D01*
X116599105Y-84285143D01*
X116611440Y-84301775D01*
X116622085Y-84319535D01*
X116630939Y-84338254D01*
X116637914Y-84357750D01*
X116642946Y-84377836D01*
X116645984Y-84398318D01*
X116647000Y-84419000D01*
X116647000Y-84841000D01*
X116645984Y-84861682D01*
X116642946Y-84882164D01*
X116637914Y-84902250D01*
X116630939Y-84921746D01*
X116622085Y-84940465D01*
X116611440Y-84958225D01*
X116599105Y-84974857D01*
X116585200Y-84990200D01*
X116569857Y-85004105D01*
X116553225Y-85016440D01*
X116535465Y-85027085D01*
X116516746Y-85035939D01*
X116497250Y-85042914D01*
X116477164Y-85047946D01*
X116456682Y-85050984D01*
X116436000Y-85052000D01*
X115964000Y-85052000D01*
X115943318Y-85050984D01*
X115922836Y-85047946D01*
X115902750Y-85042914D01*
X115883254Y-85035939D01*
X115864535Y-85027085D01*
X115846775Y-85016440D01*
X115830143Y-85004105D01*
X115814800Y-84990200D01*
X115800895Y-84974857D01*
X115788560Y-84958225D01*
X115777915Y-84940465D01*
X115769061Y-84921746D01*
X115762086Y-84902250D01*
X115757054Y-84882164D01*
X115754016Y-84861682D01*
X115753000Y-84841000D01*
X115753000Y-84419000D01*
X115754016Y-84398318D01*
X115757054Y-84377836D01*
X115762086Y-84357750D01*
X115769061Y-84338254D01*
X115777915Y-84319535D01*
X115788560Y-84301775D01*
X115800895Y-84285143D01*
X115814800Y-84269800D01*
X115830143Y-84255895D01*
X115846775Y-84243560D01*
X115864535Y-84232915D01*
X115883254Y-84224061D01*
X115902750Y-84217086D01*
X115922836Y-84212054D01*
X115943318Y-84209016D01*
X115964000Y-84208000D01*
X116436000Y-84208000D01*
X116456682Y-84209016D01*
G37*
G36*
X116456682Y-85179016D02*
G01*
X116477164Y-85182054D01*
X116497250Y-85187086D01*
X116516746Y-85194061D01*
X116535465Y-85202915D01*
X116553225Y-85213560D01*
X116569857Y-85225895D01*
X116585200Y-85239800D01*
X116599105Y-85255143D01*
X116611440Y-85271775D01*
X116622085Y-85289535D01*
X116630939Y-85308254D01*
X116637914Y-85327750D01*
X116642946Y-85347836D01*
X116645984Y-85368318D01*
X116647000Y-85389000D01*
X116647000Y-85811000D01*
X116645984Y-85831682D01*
X116642946Y-85852164D01*
X116637914Y-85872250D01*
X116630939Y-85891746D01*
X116622085Y-85910465D01*
X116611440Y-85928225D01*
X116599105Y-85944857D01*
X116585200Y-85960200D01*
X116569857Y-85974105D01*
X116553225Y-85986440D01*
X116535465Y-85997085D01*
X116516746Y-86005939D01*
X116497250Y-86012914D01*
X116477164Y-86017946D01*
X116456682Y-86020984D01*
X116436000Y-86022000D01*
X115964000Y-86022000D01*
X115943318Y-86020984D01*
X115922836Y-86017946D01*
X115902750Y-86012914D01*
X115883254Y-86005939D01*
X115864535Y-85997085D01*
X115846775Y-85986440D01*
X115830143Y-85974105D01*
X115814800Y-85960200D01*
X115800895Y-85944857D01*
X115788560Y-85928225D01*
X115777915Y-85910465D01*
X115769061Y-85891746D01*
X115762086Y-85872250D01*
X115757054Y-85852164D01*
X115754016Y-85831682D01*
X115753000Y-85811000D01*
X115753000Y-85389000D01*
X115754016Y-85368318D01*
X115757054Y-85347836D01*
X115762086Y-85327750D01*
X115769061Y-85308254D01*
X115777915Y-85289535D01*
X115788560Y-85271775D01*
X115800895Y-85255143D01*
X115814800Y-85239800D01*
X115830143Y-85225895D01*
X115846775Y-85213560D01*
X115864535Y-85202915D01*
X115883254Y-85194061D01*
X115902750Y-85187086D01*
X115922836Y-85182054D01*
X115943318Y-85179016D01*
X115964000Y-85178000D01*
X116436000Y-85178000D01*
X116456682Y-85179016D01*
G37*
G36*
X118016682Y-86804016D02*
G01*
X118037164Y-86807054D01*
X118057250Y-86812086D01*
X118076746Y-86819061D01*
X118095465Y-86827915D01*
X118113225Y-86838560D01*
X118129857Y-86850895D01*
X118145200Y-86864800D01*
X118159105Y-86880143D01*
X118171440Y-86896775D01*
X118182085Y-86914535D01*
X118190939Y-86933254D01*
X118197914Y-86952750D01*
X118202946Y-86972836D01*
X118205984Y-86993318D01*
X118207000Y-87014000D01*
X118207000Y-87486000D01*
X118205984Y-87506682D01*
X118202946Y-87527164D01*
X118197914Y-87547250D01*
X118190939Y-87566746D01*
X118182085Y-87585465D01*
X118171440Y-87603225D01*
X118159105Y-87619857D01*
X118145200Y-87635200D01*
X118129857Y-87649105D01*
X118113225Y-87661440D01*
X118095465Y-87672085D01*
X118076746Y-87680939D01*
X118057250Y-87687914D01*
X118037164Y-87692946D01*
X118016682Y-87695984D01*
X117996000Y-87697000D01*
X117574000Y-87697000D01*
X117553318Y-87695984D01*
X117532836Y-87692946D01*
X117512750Y-87687914D01*
X117493254Y-87680939D01*
X117474535Y-87672085D01*
X117456775Y-87661440D01*
X117440143Y-87649105D01*
X117424800Y-87635200D01*
X117410895Y-87619857D01*
X117398560Y-87603225D01*
X117387915Y-87585465D01*
X117379061Y-87566746D01*
X117372086Y-87547250D01*
X117367054Y-87527164D01*
X117364016Y-87506682D01*
X117363000Y-87486000D01*
X117363000Y-87014000D01*
X117364016Y-86993318D01*
X117367054Y-86972836D01*
X117372086Y-86952750D01*
X117379061Y-86933254D01*
X117387915Y-86914535D01*
X117398560Y-86896775D01*
X117410895Y-86880143D01*
X117424800Y-86864800D01*
X117440143Y-86850895D01*
X117456775Y-86838560D01*
X117474535Y-86827915D01*
X117493254Y-86819061D01*
X117512750Y-86812086D01*
X117532836Y-86807054D01*
X117553318Y-86804016D01*
X117574000Y-86803000D01*
X117996000Y-86803000D01*
X118016682Y-86804016D01*
G37*
G36*
X117046682Y-86804016D02*
G01*
X117067164Y-86807054D01*
X117087250Y-86812086D01*
X117106746Y-86819061D01*
X117125465Y-86827915D01*
X117143225Y-86838560D01*
X117159857Y-86850895D01*
X117175200Y-86864800D01*
X117189105Y-86880143D01*
X117201440Y-86896775D01*
X117212085Y-86914535D01*
X117220939Y-86933254D01*
X117227914Y-86952750D01*
X117232946Y-86972836D01*
X117235984Y-86993318D01*
X117237000Y-87014000D01*
X117237000Y-87486000D01*
X117235984Y-87506682D01*
X117232946Y-87527164D01*
X117227914Y-87547250D01*
X117220939Y-87566746D01*
X117212085Y-87585465D01*
X117201440Y-87603225D01*
X117189105Y-87619857D01*
X117175200Y-87635200D01*
X117159857Y-87649105D01*
X117143225Y-87661440D01*
X117125465Y-87672085D01*
X117106746Y-87680939D01*
X117087250Y-87687914D01*
X117067164Y-87692946D01*
X117046682Y-87695984D01*
X117026000Y-87697000D01*
X116604000Y-87697000D01*
X116583318Y-87695984D01*
X116562836Y-87692946D01*
X116542750Y-87687914D01*
X116523254Y-87680939D01*
X116504535Y-87672085D01*
X116486775Y-87661440D01*
X116470143Y-87649105D01*
X116454800Y-87635200D01*
X116440895Y-87619857D01*
X116428560Y-87603225D01*
X116417915Y-87585465D01*
X116409061Y-87566746D01*
X116402086Y-87547250D01*
X116397054Y-87527164D01*
X116394016Y-87506682D01*
X116393000Y-87486000D01*
X116393000Y-87014000D01*
X116394016Y-86993318D01*
X116397054Y-86972836D01*
X116402086Y-86952750D01*
X116409061Y-86933254D01*
X116417915Y-86914535D01*
X116428560Y-86896775D01*
X116440895Y-86880143D01*
X116454800Y-86864800D01*
X116470143Y-86850895D01*
X116486775Y-86838560D01*
X116504535Y-86827915D01*
X116523254Y-86819061D01*
X116542750Y-86812086D01*
X116562836Y-86807054D01*
X116583318Y-86804016D01*
X116604000Y-86803000D01*
X117026000Y-86803000D01*
X117046682Y-86804016D01*
G37*
G36*
X109921182Y-90701516D02*
G01*
X109941664Y-90704554D01*
X109961750Y-90709586D01*
X109981246Y-90716561D01*
X109999965Y-90725415D01*
X110017725Y-90736060D01*
X110034357Y-90748395D01*
X110049700Y-90762300D01*
X110063605Y-90777643D01*
X110075940Y-90794275D01*
X110086585Y-90812035D01*
X110095439Y-90830754D01*
X110102414Y-90850250D01*
X110107446Y-90870336D01*
X110110484Y-90890818D01*
X110111500Y-90911500D01*
X110111500Y-91333500D01*
X110110484Y-91354182D01*
X110107446Y-91374664D01*
X110102414Y-91394750D01*
X110095439Y-91414246D01*
X110086585Y-91432965D01*
X110075940Y-91450725D01*
X110063605Y-91467357D01*
X110049700Y-91482700D01*
X110034357Y-91496605D01*
X110017725Y-91508940D01*
X109999965Y-91519585D01*
X109981246Y-91528439D01*
X109961750Y-91535414D01*
X109941664Y-91540446D01*
X109921182Y-91543484D01*
X109900500Y-91544500D01*
X109428500Y-91544500D01*
X109407818Y-91543484D01*
X109387336Y-91540446D01*
X109367250Y-91535414D01*
X109347754Y-91528439D01*
X109329035Y-91519585D01*
X109311275Y-91508940D01*
X109294643Y-91496605D01*
X109279300Y-91482700D01*
X109265395Y-91467357D01*
X109253060Y-91450725D01*
X109242415Y-91432965D01*
X109233561Y-91414246D01*
X109226586Y-91394750D01*
X109221554Y-91374664D01*
X109218516Y-91354182D01*
X109217500Y-91333500D01*
X109217500Y-90911500D01*
X109218516Y-90890818D01*
X109221554Y-90870336D01*
X109226586Y-90850250D01*
X109233561Y-90830754D01*
X109242415Y-90812035D01*
X109253060Y-90794275D01*
X109265395Y-90777643D01*
X109279300Y-90762300D01*
X109294643Y-90748395D01*
X109311275Y-90736060D01*
X109329035Y-90725415D01*
X109347754Y-90716561D01*
X109367250Y-90709586D01*
X109387336Y-90704554D01*
X109407818Y-90701516D01*
X109428500Y-90700500D01*
X109900500Y-90700500D01*
X109921182Y-90701516D01*
G37*
G36*
X109921182Y-91671516D02*
G01*
X109941664Y-91674554D01*
X109961750Y-91679586D01*
X109981246Y-91686561D01*
X109999965Y-91695415D01*
X110017725Y-91706060D01*
X110034357Y-91718395D01*
X110049700Y-91732300D01*
X110063605Y-91747643D01*
X110075940Y-91764275D01*
X110086585Y-91782035D01*
X110095439Y-91800754D01*
X110102414Y-91820250D01*
X110107446Y-91840336D01*
X110110484Y-91860818D01*
X110111500Y-91881500D01*
X110111500Y-92303500D01*
X110110484Y-92324182D01*
X110107446Y-92344664D01*
X110102414Y-92364750D01*
X110095439Y-92384246D01*
X110086585Y-92402965D01*
X110075940Y-92420725D01*
X110063605Y-92437357D01*
X110049700Y-92452700D01*
X110034357Y-92466605D01*
X110017725Y-92478940D01*
X109999965Y-92489585D01*
X109981246Y-92498439D01*
X109961750Y-92505414D01*
X109941664Y-92510446D01*
X109921182Y-92513484D01*
X109900500Y-92514500D01*
X109428500Y-92514500D01*
X109407818Y-92513484D01*
X109387336Y-92510446D01*
X109367250Y-92505414D01*
X109347754Y-92498439D01*
X109329035Y-92489585D01*
X109311275Y-92478940D01*
X109294643Y-92466605D01*
X109279300Y-92452700D01*
X109265395Y-92437357D01*
X109253060Y-92420725D01*
X109242415Y-92402965D01*
X109233561Y-92384246D01*
X109226586Y-92364750D01*
X109221554Y-92344664D01*
X109218516Y-92324182D01*
X109217500Y-92303500D01*
X109217500Y-91881500D01*
X109218516Y-91860818D01*
X109221554Y-91840336D01*
X109226586Y-91820250D01*
X109233561Y-91800754D01*
X109242415Y-91782035D01*
X109253060Y-91764275D01*
X109265395Y-91747643D01*
X109279300Y-91732300D01*
X109294643Y-91718395D01*
X109311275Y-91706060D01*
X109329035Y-91695415D01*
X109347754Y-91686561D01*
X109367250Y-91679586D01*
X109387336Y-91674554D01*
X109407818Y-91671516D01*
X109428500Y-91670500D01*
X109900500Y-91670500D01*
X109921182Y-91671516D01*
G37*
G36*
X111446682Y-90654016D02*
G01*
X111467164Y-90657054D01*
X111487250Y-90662086D01*
X111506746Y-90669061D01*
X111525465Y-90677915D01*
X111543225Y-90688560D01*
X111559857Y-90700895D01*
X111575200Y-90714800D01*
X111589105Y-90730143D01*
X111601440Y-90746775D01*
X111612085Y-90764535D01*
X111620939Y-90783254D01*
X111627914Y-90802750D01*
X111632946Y-90822836D01*
X111635984Y-90843318D01*
X111637000Y-90864000D01*
X111637000Y-91336000D01*
X111635984Y-91356682D01*
X111632946Y-91377164D01*
X111627914Y-91397250D01*
X111620939Y-91416746D01*
X111612085Y-91435465D01*
X111601440Y-91453225D01*
X111589105Y-91469857D01*
X111575200Y-91485200D01*
X111559857Y-91499105D01*
X111543225Y-91511440D01*
X111525465Y-91522085D01*
X111506746Y-91530939D01*
X111487250Y-91537914D01*
X111467164Y-91542946D01*
X111446682Y-91545984D01*
X111426000Y-91547000D01*
X111004000Y-91547000D01*
X110983318Y-91545984D01*
X110962836Y-91542946D01*
X110942750Y-91537914D01*
X110923254Y-91530939D01*
X110904535Y-91522085D01*
X110886775Y-91511440D01*
X110870143Y-91499105D01*
X110854800Y-91485200D01*
X110840895Y-91469857D01*
X110828560Y-91453225D01*
X110817915Y-91435465D01*
X110809061Y-91416746D01*
X110802086Y-91397250D01*
X110797054Y-91377164D01*
X110794016Y-91356682D01*
X110793000Y-91336000D01*
X110793000Y-90864000D01*
X110794016Y-90843318D01*
X110797054Y-90822836D01*
X110802086Y-90802750D01*
X110809061Y-90783254D01*
X110817915Y-90764535D01*
X110828560Y-90746775D01*
X110840895Y-90730143D01*
X110854800Y-90714800D01*
X110870143Y-90700895D01*
X110886775Y-90688560D01*
X110904535Y-90677915D01*
X110923254Y-90669061D01*
X110942750Y-90662086D01*
X110962836Y-90657054D01*
X110983318Y-90654016D01*
X111004000Y-90653000D01*
X111426000Y-90653000D01*
X111446682Y-90654016D01*
G37*
G36*
X112416682Y-90654016D02*
G01*
X112437164Y-90657054D01*
X112457250Y-90662086D01*
X112476746Y-90669061D01*
X112495465Y-90677915D01*
X112513225Y-90688560D01*
X112529857Y-90700895D01*
X112545200Y-90714800D01*
X112559105Y-90730143D01*
X112571440Y-90746775D01*
X112582085Y-90764535D01*
X112590939Y-90783254D01*
X112597914Y-90802750D01*
X112602946Y-90822836D01*
X112605984Y-90843318D01*
X112607000Y-90864000D01*
X112607000Y-91336000D01*
X112605984Y-91356682D01*
X112602946Y-91377164D01*
X112597914Y-91397250D01*
X112590939Y-91416746D01*
X112582085Y-91435465D01*
X112571440Y-91453225D01*
X112559105Y-91469857D01*
X112545200Y-91485200D01*
X112529857Y-91499105D01*
X112513225Y-91511440D01*
X112495465Y-91522085D01*
X112476746Y-91530939D01*
X112457250Y-91537914D01*
X112437164Y-91542946D01*
X112416682Y-91545984D01*
X112396000Y-91547000D01*
X111974000Y-91547000D01*
X111953318Y-91545984D01*
X111932836Y-91542946D01*
X111912750Y-91537914D01*
X111893254Y-91530939D01*
X111874535Y-91522085D01*
X111856775Y-91511440D01*
X111840143Y-91499105D01*
X111824800Y-91485200D01*
X111810895Y-91469857D01*
X111798560Y-91453225D01*
X111787915Y-91435465D01*
X111779061Y-91416746D01*
X111772086Y-91397250D01*
X111767054Y-91377164D01*
X111764016Y-91356682D01*
X111763000Y-91336000D01*
X111763000Y-90864000D01*
X111764016Y-90843318D01*
X111767054Y-90822836D01*
X111772086Y-90802750D01*
X111779061Y-90783254D01*
X111787915Y-90764535D01*
X111798560Y-90746775D01*
X111810895Y-90730143D01*
X111824800Y-90714800D01*
X111840143Y-90700895D01*
X111856775Y-90688560D01*
X111874535Y-90677915D01*
X111893254Y-90669061D01*
X111912750Y-90662086D01*
X111932836Y-90657054D01*
X111953318Y-90654016D01*
X111974000Y-90653000D01*
X112396000Y-90653000D01*
X112416682Y-90654016D01*
G37*
G36*
X118794082Y-73518816D02*
G01*
X118814564Y-73521854D01*
X118834650Y-73526886D01*
X118854146Y-73533861D01*
X118872865Y-73542715D01*
X118890625Y-73553360D01*
X118907257Y-73565695D01*
X118922600Y-73579600D01*
X118936505Y-73594943D01*
X118948840Y-73611575D01*
X118959485Y-73629335D01*
X118968339Y-73648054D01*
X118975314Y-73667550D01*
X118980346Y-73687636D01*
X118983384Y-73708118D01*
X118984400Y-73728800D01*
X118984400Y-74200800D01*
X118983384Y-74221482D01*
X118980346Y-74241964D01*
X118975314Y-74262050D01*
X118968339Y-74281546D01*
X118959485Y-74300265D01*
X118948840Y-74318025D01*
X118936505Y-74334657D01*
X118922600Y-74350000D01*
X118907257Y-74363905D01*
X118890625Y-74376240D01*
X118872865Y-74386885D01*
X118854146Y-74395739D01*
X118834650Y-74402714D01*
X118814564Y-74407746D01*
X118794082Y-74410784D01*
X118773400Y-74411800D01*
X118351400Y-74411800D01*
X118330718Y-74410784D01*
X118310236Y-74407746D01*
X118290150Y-74402714D01*
X118270654Y-74395739D01*
X118251935Y-74386885D01*
X118234175Y-74376240D01*
X118217543Y-74363905D01*
X118202200Y-74350000D01*
X118188295Y-74334657D01*
X118175960Y-74318025D01*
X118165315Y-74300265D01*
X118156461Y-74281546D01*
X118149486Y-74262050D01*
X118144454Y-74241964D01*
X118141416Y-74221482D01*
X118140400Y-74200800D01*
X118140400Y-73728800D01*
X118141416Y-73708118D01*
X118144454Y-73687636D01*
X118149486Y-73667550D01*
X118156461Y-73648054D01*
X118165315Y-73629335D01*
X118175960Y-73611575D01*
X118188295Y-73594943D01*
X118202200Y-73579600D01*
X118217543Y-73565695D01*
X118234175Y-73553360D01*
X118251935Y-73542715D01*
X118270654Y-73533861D01*
X118290150Y-73526886D01*
X118310236Y-73521854D01*
X118330718Y-73518816D01*
X118351400Y-73517800D01*
X118773400Y-73517800D01*
X118794082Y-73518816D01*
G37*
G36*
X119764082Y-73518816D02*
G01*
X119784564Y-73521854D01*
X119804650Y-73526886D01*
X119824146Y-73533861D01*
X119842865Y-73542715D01*
X119860625Y-73553360D01*
X119877257Y-73565695D01*
X119892600Y-73579600D01*
X119906505Y-73594943D01*
X119918840Y-73611575D01*
X119929485Y-73629335D01*
X119938339Y-73648054D01*
X119945314Y-73667550D01*
X119950346Y-73687636D01*
X119953384Y-73708118D01*
X119954400Y-73728800D01*
X119954400Y-74200800D01*
X119953384Y-74221482D01*
X119950346Y-74241964D01*
X119945314Y-74262050D01*
X119938339Y-74281546D01*
X119929485Y-74300265D01*
X119918840Y-74318025D01*
X119906505Y-74334657D01*
X119892600Y-74350000D01*
X119877257Y-74363905D01*
X119860625Y-74376240D01*
X119842865Y-74386885D01*
X119824146Y-74395739D01*
X119804650Y-74402714D01*
X119784564Y-74407746D01*
X119764082Y-74410784D01*
X119743400Y-74411800D01*
X119321400Y-74411800D01*
X119300718Y-74410784D01*
X119280236Y-74407746D01*
X119260150Y-74402714D01*
X119240654Y-74395739D01*
X119221935Y-74386885D01*
X119204175Y-74376240D01*
X119187543Y-74363905D01*
X119172200Y-74350000D01*
X119158295Y-74334657D01*
X119145960Y-74318025D01*
X119135315Y-74300265D01*
X119126461Y-74281546D01*
X119119486Y-74262050D01*
X119114454Y-74241964D01*
X119111416Y-74221482D01*
X119110400Y-74200800D01*
X119110400Y-73728800D01*
X119111416Y-73708118D01*
X119114454Y-73687636D01*
X119119486Y-73667550D01*
X119126461Y-73648054D01*
X119135315Y-73629335D01*
X119145960Y-73611575D01*
X119158295Y-73594943D01*
X119172200Y-73579600D01*
X119187543Y-73565695D01*
X119204175Y-73553360D01*
X119221935Y-73542715D01*
X119240654Y-73533861D01*
X119260150Y-73526886D01*
X119280236Y-73521854D01*
X119300718Y-73518816D01*
X119321400Y-73517800D01*
X119743400Y-73517800D01*
X119764082Y-73518816D01*
G37*
G36*
X114016682Y-91654016D02*
G01*
X114037164Y-91657054D01*
X114057250Y-91662086D01*
X114076746Y-91669061D01*
X114095465Y-91677915D01*
X114113225Y-91688560D01*
X114129857Y-91700895D01*
X114145200Y-91714800D01*
X114159105Y-91730143D01*
X114171440Y-91746775D01*
X114182085Y-91764535D01*
X114190939Y-91783254D01*
X114197914Y-91802750D01*
X114202946Y-91822836D01*
X114205984Y-91843318D01*
X114207000Y-91864000D01*
X114207000Y-92336000D01*
X114205984Y-92356682D01*
X114202946Y-92377164D01*
X114197914Y-92397250D01*
X114190939Y-92416746D01*
X114182085Y-92435465D01*
X114171440Y-92453225D01*
X114159105Y-92469857D01*
X114145200Y-92485200D01*
X114129857Y-92499105D01*
X114113225Y-92511440D01*
X114095465Y-92522085D01*
X114076746Y-92530939D01*
X114057250Y-92537914D01*
X114037164Y-92542946D01*
X114016682Y-92545984D01*
X113996000Y-92547000D01*
X113574000Y-92547000D01*
X113553318Y-92545984D01*
X113532836Y-92542946D01*
X113512750Y-92537914D01*
X113493254Y-92530939D01*
X113474535Y-92522085D01*
X113456775Y-92511440D01*
X113440143Y-92499105D01*
X113424800Y-92485200D01*
X113410895Y-92469857D01*
X113398560Y-92453225D01*
X113387915Y-92435465D01*
X113379061Y-92416746D01*
X113372086Y-92397250D01*
X113367054Y-92377164D01*
X113364016Y-92356682D01*
X113363000Y-92336000D01*
X113363000Y-91864000D01*
X113364016Y-91843318D01*
X113367054Y-91822836D01*
X113372086Y-91802750D01*
X113379061Y-91783254D01*
X113387915Y-91764535D01*
X113398560Y-91746775D01*
X113410895Y-91730143D01*
X113424800Y-91714800D01*
X113440143Y-91700895D01*
X113456775Y-91688560D01*
X113474535Y-91677915D01*
X113493254Y-91669061D01*
X113512750Y-91662086D01*
X113532836Y-91657054D01*
X113553318Y-91654016D01*
X113574000Y-91653000D01*
X113996000Y-91653000D01*
X114016682Y-91654016D01*
G37*
G36*
X113046682Y-91654016D02*
G01*
X113067164Y-91657054D01*
X113087250Y-91662086D01*
X113106746Y-91669061D01*
X113125465Y-91677915D01*
X113143225Y-91688560D01*
X113159857Y-91700895D01*
X113175200Y-91714800D01*
X113189105Y-91730143D01*
X113201440Y-91746775D01*
X113212085Y-91764535D01*
X113220939Y-91783254D01*
X113227914Y-91802750D01*
X113232946Y-91822836D01*
X113235984Y-91843318D01*
X113237000Y-91864000D01*
X113237000Y-92336000D01*
X113235984Y-92356682D01*
X113232946Y-92377164D01*
X113227914Y-92397250D01*
X113220939Y-92416746D01*
X113212085Y-92435465D01*
X113201440Y-92453225D01*
X113189105Y-92469857D01*
X113175200Y-92485200D01*
X113159857Y-92499105D01*
X113143225Y-92511440D01*
X113125465Y-92522085D01*
X113106746Y-92530939D01*
X113087250Y-92537914D01*
X113067164Y-92542946D01*
X113046682Y-92545984D01*
X113026000Y-92547000D01*
X112604000Y-92547000D01*
X112583318Y-92545984D01*
X112562836Y-92542946D01*
X112542750Y-92537914D01*
X112523254Y-92530939D01*
X112504535Y-92522085D01*
X112486775Y-92511440D01*
X112470143Y-92499105D01*
X112454800Y-92485200D01*
X112440895Y-92469857D01*
X112428560Y-92453225D01*
X112417915Y-92435465D01*
X112409061Y-92416746D01*
X112402086Y-92397250D01*
X112397054Y-92377164D01*
X112394016Y-92356682D01*
X112393000Y-92336000D01*
X112393000Y-91864000D01*
X112394016Y-91843318D01*
X112397054Y-91822836D01*
X112402086Y-91802750D01*
X112409061Y-91783254D01*
X112417915Y-91764535D01*
X112428560Y-91746775D01*
X112440895Y-91730143D01*
X112454800Y-91714800D01*
X112470143Y-91700895D01*
X112486775Y-91688560D01*
X112504535Y-91677915D01*
X112523254Y-91669061D01*
X112542750Y-91662086D01*
X112562836Y-91657054D01*
X112583318Y-91654016D01*
X112604000Y-91653000D01*
X113026000Y-91653000D01*
X113046682Y-91654016D01*
G37*
G36*
X118366682Y-78169016D02*
G01*
X118387164Y-78172054D01*
X118407250Y-78177086D01*
X118426746Y-78184061D01*
X118445465Y-78192915D01*
X118463225Y-78203560D01*
X118479857Y-78215895D01*
X118495200Y-78229800D01*
X118509105Y-78245143D01*
X118521440Y-78261775D01*
X118532085Y-78279535D01*
X118540939Y-78298254D01*
X118547914Y-78317750D01*
X118552946Y-78337836D01*
X118555984Y-78358318D01*
X118557000Y-78379000D01*
X118557000Y-78801000D01*
X118555984Y-78821682D01*
X118552946Y-78842164D01*
X118547914Y-78862250D01*
X118540939Y-78881746D01*
X118532085Y-78900465D01*
X118521440Y-78918225D01*
X118509105Y-78934857D01*
X118495200Y-78950200D01*
X118479857Y-78964105D01*
X118463225Y-78976440D01*
X118445465Y-78987085D01*
X118426746Y-78995939D01*
X118407250Y-79002914D01*
X118387164Y-79007946D01*
X118366682Y-79010984D01*
X118346000Y-79012000D01*
X117874000Y-79012000D01*
X117853318Y-79010984D01*
X117832836Y-79007946D01*
X117812750Y-79002914D01*
X117793254Y-78995939D01*
X117774535Y-78987085D01*
X117756775Y-78976440D01*
X117740143Y-78964105D01*
X117724800Y-78950200D01*
X117710895Y-78934857D01*
X117698560Y-78918225D01*
X117687915Y-78900465D01*
X117679061Y-78881746D01*
X117672086Y-78862250D01*
X117667054Y-78842164D01*
X117664016Y-78821682D01*
X117663000Y-78801000D01*
X117663000Y-78379000D01*
X117664016Y-78358318D01*
X117667054Y-78337836D01*
X117672086Y-78317750D01*
X117679061Y-78298254D01*
X117687915Y-78279535D01*
X117698560Y-78261775D01*
X117710895Y-78245143D01*
X117724800Y-78229800D01*
X117740143Y-78215895D01*
X117756775Y-78203560D01*
X117774535Y-78192915D01*
X117793254Y-78184061D01*
X117812750Y-78177086D01*
X117832836Y-78172054D01*
X117853318Y-78169016D01*
X117874000Y-78168000D01*
X118346000Y-78168000D01*
X118366682Y-78169016D01*
G37*
G36*
X118366682Y-77199016D02*
G01*
X118387164Y-77202054D01*
X118407250Y-77207086D01*
X118426746Y-77214061D01*
X118445465Y-77222915D01*
X118463225Y-77233560D01*
X118479857Y-77245895D01*
X118495200Y-77259800D01*
X118509105Y-77275143D01*
X118521440Y-77291775D01*
X118532085Y-77309535D01*
X118540939Y-77328254D01*
X118547914Y-77347750D01*
X118552946Y-77367836D01*
X118555984Y-77388318D01*
X118557000Y-77409000D01*
X118557000Y-77831000D01*
X118555984Y-77851682D01*
X118552946Y-77872164D01*
X118547914Y-77892250D01*
X118540939Y-77911746D01*
X118532085Y-77930465D01*
X118521440Y-77948225D01*
X118509105Y-77964857D01*
X118495200Y-77980200D01*
X118479857Y-77994105D01*
X118463225Y-78006440D01*
X118445465Y-78017085D01*
X118426746Y-78025939D01*
X118407250Y-78032914D01*
X118387164Y-78037946D01*
X118366682Y-78040984D01*
X118346000Y-78042000D01*
X117874000Y-78042000D01*
X117853318Y-78040984D01*
X117832836Y-78037946D01*
X117812750Y-78032914D01*
X117793254Y-78025939D01*
X117774535Y-78017085D01*
X117756775Y-78006440D01*
X117740143Y-77994105D01*
X117724800Y-77980200D01*
X117710895Y-77964857D01*
X117698560Y-77948225D01*
X117687915Y-77930465D01*
X117679061Y-77911746D01*
X117672086Y-77892250D01*
X117667054Y-77872164D01*
X117664016Y-77851682D01*
X117663000Y-77831000D01*
X117663000Y-77409000D01*
X117664016Y-77388318D01*
X117667054Y-77367836D01*
X117672086Y-77347750D01*
X117679061Y-77328254D01*
X117687915Y-77309535D01*
X117698560Y-77291775D01*
X117710895Y-77275143D01*
X117724800Y-77259800D01*
X117740143Y-77245895D01*
X117756775Y-77233560D01*
X117774535Y-77222915D01*
X117793254Y-77214061D01*
X117812750Y-77207086D01*
X117832836Y-77202054D01*
X117853318Y-77199016D01*
X117874000Y-77198000D01*
X118346000Y-77198000D01*
X118366682Y-77199016D01*
G37*
G36*
X119966682Y-87565016D02*
G01*
X119987164Y-87568054D01*
X120007250Y-87573086D01*
X120026746Y-87580061D01*
X120045465Y-87588915D01*
X120063225Y-87599560D01*
X120079857Y-87611895D01*
X120095200Y-87625800D01*
X120109105Y-87641143D01*
X120121440Y-87657775D01*
X120132085Y-87675535D01*
X120140939Y-87694254D01*
X120147914Y-87713750D01*
X120152946Y-87733836D01*
X120155984Y-87754318D01*
X120157000Y-87775000D01*
X120157000Y-88247000D01*
X120155984Y-88267682D01*
X120152946Y-88288164D01*
X120147914Y-88308250D01*
X120140939Y-88327746D01*
X120132085Y-88346465D01*
X120121440Y-88364225D01*
X120109105Y-88380857D01*
X120095200Y-88396200D01*
X120079857Y-88410105D01*
X120063225Y-88422440D01*
X120045465Y-88433085D01*
X120026746Y-88441939D01*
X120007250Y-88448914D01*
X119987164Y-88453946D01*
X119966682Y-88456984D01*
X119946000Y-88458000D01*
X119524000Y-88458000D01*
X119503318Y-88456984D01*
X119482836Y-88453946D01*
X119462750Y-88448914D01*
X119443254Y-88441939D01*
X119424535Y-88433085D01*
X119406775Y-88422440D01*
X119390143Y-88410105D01*
X119374800Y-88396200D01*
X119360895Y-88380857D01*
X119348560Y-88364225D01*
X119337915Y-88346465D01*
X119329061Y-88327746D01*
X119322086Y-88308250D01*
X119317054Y-88288164D01*
X119314016Y-88267682D01*
X119313000Y-88247000D01*
X119313000Y-87775000D01*
X119314016Y-87754318D01*
X119317054Y-87733836D01*
X119322086Y-87713750D01*
X119329061Y-87694254D01*
X119337915Y-87675535D01*
X119348560Y-87657775D01*
X119360895Y-87641143D01*
X119374800Y-87625800D01*
X119390143Y-87611895D01*
X119406775Y-87599560D01*
X119424535Y-87588915D01*
X119443254Y-87580061D01*
X119462750Y-87573086D01*
X119482836Y-87568054D01*
X119503318Y-87565016D01*
X119524000Y-87564000D01*
X119946000Y-87564000D01*
X119966682Y-87565016D01*
G37*
G36*
X118996682Y-87565016D02*
G01*
X119017164Y-87568054D01*
X119037250Y-87573086D01*
X119056746Y-87580061D01*
X119075465Y-87588915D01*
X119093225Y-87599560D01*
X119109857Y-87611895D01*
X119125200Y-87625800D01*
X119139105Y-87641143D01*
X119151440Y-87657775D01*
X119162085Y-87675535D01*
X119170939Y-87694254D01*
X119177914Y-87713750D01*
X119182946Y-87733836D01*
X119185984Y-87754318D01*
X119187000Y-87775000D01*
X119187000Y-88247000D01*
X119185984Y-88267682D01*
X119182946Y-88288164D01*
X119177914Y-88308250D01*
X119170939Y-88327746D01*
X119162085Y-88346465D01*
X119151440Y-88364225D01*
X119139105Y-88380857D01*
X119125200Y-88396200D01*
X119109857Y-88410105D01*
X119093225Y-88422440D01*
X119075465Y-88433085D01*
X119056746Y-88441939D01*
X119037250Y-88448914D01*
X119017164Y-88453946D01*
X118996682Y-88456984D01*
X118976000Y-88458000D01*
X118554000Y-88458000D01*
X118533318Y-88456984D01*
X118512836Y-88453946D01*
X118492750Y-88448914D01*
X118473254Y-88441939D01*
X118454535Y-88433085D01*
X118436775Y-88422440D01*
X118420143Y-88410105D01*
X118404800Y-88396200D01*
X118390895Y-88380857D01*
X118378560Y-88364225D01*
X118367915Y-88346465D01*
X118359061Y-88327746D01*
X118352086Y-88308250D01*
X118347054Y-88288164D01*
X118344016Y-88267682D01*
X118343000Y-88247000D01*
X118343000Y-87775000D01*
X118344016Y-87754318D01*
X118347054Y-87733836D01*
X118352086Y-87713750D01*
X118359061Y-87694254D01*
X118367915Y-87675535D01*
X118378560Y-87657775D01*
X118390895Y-87641143D01*
X118404800Y-87625800D01*
X118420143Y-87611895D01*
X118436775Y-87599560D01*
X118454535Y-87588915D01*
X118473254Y-87580061D01*
X118492750Y-87573086D01*
X118512836Y-87568054D01*
X118533318Y-87565016D01*
X118554000Y-87564000D01*
X118976000Y-87564000D01*
X118996682Y-87565016D01*
G37*
G36*
X107038682Y-90359016D02*
G01*
X107059164Y-90362054D01*
X107079250Y-90367086D01*
X107098746Y-90374061D01*
X107117465Y-90382915D01*
X107135225Y-90393560D01*
X107151857Y-90405895D01*
X107167200Y-90419800D01*
X107181105Y-90435143D01*
X107193440Y-90451775D01*
X107204085Y-90469535D01*
X107212939Y-90488254D01*
X107219914Y-90507750D01*
X107224946Y-90527836D01*
X107227984Y-90548318D01*
X107229000Y-90569000D01*
X107229000Y-91041000D01*
X107227984Y-91061682D01*
X107224946Y-91082164D01*
X107219914Y-91102250D01*
X107212939Y-91121746D01*
X107204085Y-91140465D01*
X107193440Y-91158225D01*
X107181105Y-91174857D01*
X107167200Y-91190200D01*
X107151857Y-91204105D01*
X107135225Y-91216440D01*
X107117465Y-91227085D01*
X107098746Y-91235939D01*
X107079250Y-91242914D01*
X107059164Y-91247946D01*
X107038682Y-91250984D01*
X107018000Y-91252000D01*
X106596000Y-91252000D01*
X106575318Y-91250984D01*
X106554836Y-91247946D01*
X106534750Y-91242914D01*
X106515254Y-91235939D01*
X106496535Y-91227085D01*
X106478775Y-91216440D01*
X106462143Y-91204105D01*
X106446800Y-91190200D01*
X106432895Y-91174857D01*
X106420560Y-91158225D01*
X106409915Y-91140465D01*
X106401061Y-91121746D01*
X106394086Y-91102250D01*
X106389054Y-91082164D01*
X106386016Y-91061682D01*
X106385000Y-91041000D01*
X106385000Y-90569000D01*
X106386016Y-90548318D01*
X106389054Y-90527836D01*
X106394086Y-90507750D01*
X106401061Y-90488254D01*
X106409915Y-90469535D01*
X106420560Y-90451775D01*
X106432895Y-90435143D01*
X106446800Y-90419800D01*
X106462143Y-90405895D01*
X106478775Y-90393560D01*
X106496535Y-90382915D01*
X106515254Y-90374061D01*
X106534750Y-90367086D01*
X106554836Y-90362054D01*
X106575318Y-90359016D01*
X106596000Y-90358000D01*
X107018000Y-90358000D01*
X107038682Y-90359016D01*
G37*
G36*
X106068682Y-90359016D02*
G01*
X106089164Y-90362054D01*
X106109250Y-90367086D01*
X106128746Y-90374061D01*
X106147465Y-90382915D01*
X106165225Y-90393560D01*
X106181857Y-90405895D01*
X106197200Y-90419800D01*
X106211105Y-90435143D01*
X106223440Y-90451775D01*
X106234085Y-90469535D01*
X106242939Y-90488254D01*
X106249914Y-90507750D01*
X106254946Y-90527836D01*
X106257984Y-90548318D01*
X106259000Y-90569000D01*
X106259000Y-91041000D01*
X106257984Y-91061682D01*
X106254946Y-91082164D01*
X106249914Y-91102250D01*
X106242939Y-91121746D01*
X106234085Y-91140465D01*
X106223440Y-91158225D01*
X106211105Y-91174857D01*
X106197200Y-91190200D01*
X106181857Y-91204105D01*
X106165225Y-91216440D01*
X106147465Y-91227085D01*
X106128746Y-91235939D01*
X106109250Y-91242914D01*
X106089164Y-91247946D01*
X106068682Y-91250984D01*
X106048000Y-91252000D01*
X105626000Y-91252000D01*
X105605318Y-91250984D01*
X105584836Y-91247946D01*
X105564750Y-91242914D01*
X105545254Y-91235939D01*
X105526535Y-91227085D01*
X105508775Y-91216440D01*
X105492143Y-91204105D01*
X105476800Y-91190200D01*
X105462895Y-91174857D01*
X105450560Y-91158225D01*
X105439915Y-91140465D01*
X105431061Y-91121746D01*
X105424086Y-91102250D01*
X105419054Y-91082164D01*
X105416016Y-91061682D01*
X105415000Y-91041000D01*
X105415000Y-90569000D01*
X105416016Y-90548318D01*
X105419054Y-90527836D01*
X105424086Y-90507750D01*
X105431061Y-90488254D01*
X105439915Y-90469535D01*
X105450560Y-90451775D01*
X105462895Y-90435143D01*
X105476800Y-90419800D01*
X105492143Y-90405895D01*
X105508775Y-90393560D01*
X105526535Y-90382915D01*
X105545254Y-90374061D01*
X105564750Y-90367086D01*
X105584836Y-90362054D01*
X105605318Y-90359016D01*
X105626000Y-90358000D01*
X106048000Y-90358000D01*
X106068682Y-90359016D01*
G37*
G36*
X107068755Y-78312079D02*
G01*
X107096154Y-78316143D01*
X107123023Y-78322874D01*
X107149102Y-78332205D01*
X107174142Y-78344048D01*
X107197900Y-78358288D01*
X107220148Y-78374788D01*
X107240671Y-78393389D01*
X107259272Y-78413912D01*
X107275772Y-78436160D01*
X107290012Y-78459918D01*
X107301855Y-78484958D01*
X107311186Y-78511037D01*
X107317917Y-78537906D01*
X107321981Y-78565305D01*
X107323340Y-78592970D01*
X107323340Y-79232470D01*
X107321981Y-79260135D01*
X107317917Y-79287534D01*
X107311186Y-79314403D01*
X107301855Y-79340482D01*
X107290012Y-79365522D01*
X107275772Y-79389280D01*
X107259272Y-79411528D01*
X107240671Y-79432051D01*
X107220148Y-79450652D01*
X107197900Y-79467152D01*
X107174142Y-79481392D01*
X107149102Y-79493235D01*
X107123023Y-79502566D01*
X107096154Y-79509297D01*
X107068755Y-79513361D01*
X107041090Y-79514720D01*
X106476590Y-79514720D01*
X106448925Y-79513361D01*
X106421526Y-79509297D01*
X106394657Y-79502566D01*
X106368578Y-79493235D01*
X106343538Y-79481392D01*
X106319780Y-79467152D01*
X106297532Y-79450652D01*
X106277009Y-79432051D01*
X106258408Y-79411528D01*
X106241908Y-79389280D01*
X106227668Y-79365522D01*
X106215825Y-79340482D01*
X106206494Y-79314403D01*
X106199763Y-79287534D01*
X106195699Y-79260135D01*
X106194340Y-79232470D01*
X106194340Y-78592970D01*
X106195699Y-78565305D01*
X106199763Y-78537906D01*
X106206494Y-78511037D01*
X106215825Y-78484958D01*
X106227668Y-78459918D01*
X106241908Y-78436160D01*
X106258408Y-78413912D01*
X106277009Y-78393389D01*
X106297532Y-78374788D01*
X106319780Y-78358288D01*
X106343538Y-78344048D01*
X106368578Y-78332205D01*
X106394657Y-78322874D01*
X106421526Y-78316143D01*
X106448925Y-78312079D01*
X106476590Y-78310720D01*
X107041090Y-78310720D01*
X107068755Y-78312079D01*
G37*
G36*
X105493755Y-78312079D02*
G01*
X105521154Y-78316143D01*
X105548023Y-78322874D01*
X105574102Y-78332205D01*
X105599142Y-78344048D01*
X105622900Y-78358288D01*
X105645148Y-78374788D01*
X105665671Y-78393389D01*
X105684272Y-78413912D01*
X105700772Y-78436160D01*
X105715012Y-78459918D01*
X105726855Y-78484958D01*
X105736186Y-78511037D01*
X105742917Y-78537906D01*
X105746981Y-78565305D01*
X105748340Y-78592970D01*
X105748340Y-79232470D01*
X105746981Y-79260135D01*
X105742917Y-79287534D01*
X105736186Y-79314403D01*
X105726855Y-79340482D01*
X105715012Y-79365522D01*
X105700772Y-79389280D01*
X105684272Y-79411528D01*
X105665671Y-79432051D01*
X105645148Y-79450652D01*
X105622900Y-79467152D01*
X105599142Y-79481392D01*
X105574102Y-79493235D01*
X105548023Y-79502566D01*
X105521154Y-79509297D01*
X105493755Y-79513361D01*
X105466090Y-79514720D01*
X104901590Y-79514720D01*
X104873925Y-79513361D01*
X104846526Y-79509297D01*
X104819657Y-79502566D01*
X104793578Y-79493235D01*
X104768538Y-79481392D01*
X104744780Y-79467152D01*
X104722532Y-79450652D01*
X104702009Y-79432051D01*
X104683408Y-79411528D01*
X104666908Y-79389280D01*
X104652668Y-79365522D01*
X104640825Y-79340482D01*
X104631494Y-79314403D01*
X104624763Y-79287534D01*
X104620699Y-79260135D01*
X104619340Y-79232470D01*
X104619340Y-78592970D01*
X104620699Y-78565305D01*
X104624763Y-78537906D01*
X104631494Y-78511037D01*
X104640825Y-78484958D01*
X104652668Y-78459918D01*
X104666908Y-78436160D01*
X104683408Y-78413912D01*
X104702009Y-78393389D01*
X104722532Y-78374788D01*
X104744780Y-78358288D01*
X104768538Y-78344048D01*
X104793578Y-78332205D01*
X104819657Y-78322874D01*
X104846526Y-78316143D01*
X104873925Y-78312079D01*
X104901590Y-78310720D01*
X105466090Y-78310720D01*
X105493755Y-78312079D01*
G37*
D13*
X114935000Y-76835000D03*
D14*
X93881000Y-87604500D03*
X93881000Y-82144500D03*
D15*
X96881000Y-87294500D03*
X96881000Y-82454500D03*
X96817500Y-95535500D03*
X96817500Y-100375500D03*
D14*
X93817500Y-95225500D03*
X93817500Y-100685500D03*
D10*
G36*
X120366682Y-100454016D02*
G01*
X120387164Y-100457054D01*
X120407250Y-100462086D01*
X120426746Y-100469061D01*
X120445465Y-100477915D01*
X120463225Y-100488560D01*
X120479857Y-100500895D01*
X120495200Y-100514800D01*
X120509105Y-100530143D01*
X120521440Y-100546775D01*
X120532085Y-100564535D01*
X120540939Y-100583254D01*
X120547914Y-100602750D01*
X120552946Y-100622836D01*
X120555984Y-100643318D01*
X120557000Y-100664000D01*
X120557000Y-101136000D01*
X120555984Y-101156682D01*
X120552946Y-101177164D01*
X120547914Y-101197250D01*
X120540939Y-101216746D01*
X120532085Y-101235465D01*
X120521440Y-101253225D01*
X120509105Y-101269857D01*
X120495200Y-101285200D01*
X120479857Y-101299105D01*
X120463225Y-101311440D01*
X120445465Y-101322085D01*
X120426746Y-101330939D01*
X120407250Y-101337914D01*
X120387164Y-101342946D01*
X120366682Y-101345984D01*
X120346000Y-101347000D01*
X119924000Y-101347000D01*
X119903318Y-101345984D01*
X119882836Y-101342946D01*
X119862750Y-101337914D01*
X119843254Y-101330939D01*
X119824535Y-101322085D01*
X119806775Y-101311440D01*
X119790143Y-101299105D01*
X119774800Y-101285200D01*
X119760895Y-101269857D01*
X119748560Y-101253225D01*
X119737915Y-101235465D01*
X119729061Y-101216746D01*
X119722086Y-101197250D01*
X119717054Y-101177164D01*
X119714016Y-101156682D01*
X119713000Y-101136000D01*
X119713000Y-100664000D01*
X119714016Y-100643318D01*
X119717054Y-100622836D01*
X119722086Y-100602750D01*
X119729061Y-100583254D01*
X119737915Y-100564535D01*
X119748560Y-100546775D01*
X119760895Y-100530143D01*
X119774800Y-100514800D01*
X119790143Y-100500895D01*
X119806775Y-100488560D01*
X119824535Y-100477915D01*
X119843254Y-100469061D01*
X119862750Y-100462086D01*
X119882836Y-100457054D01*
X119903318Y-100454016D01*
X119924000Y-100453000D01*
X120346000Y-100453000D01*
X120366682Y-100454016D01*
G37*
G36*
X119396682Y-100454016D02*
G01*
X119417164Y-100457054D01*
X119437250Y-100462086D01*
X119456746Y-100469061D01*
X119475465Y-100477915D01*
X119493225Y-100488560D01*
X119509857Y-100500895D01*
X119525200Y-100514800D01*
X119539105Y-100530143D01*
X119551440Y-100546775D01*
X119562085Y-100564535D01*
X119570939Y-100583254D01*
X119577914Y-100602750D01*
X119582946Y-100622836D01*
X119585984Y-100643318D01*
X119587000Y-100664000D01*
X119587000Y-101136000D01*
X119585984Y-101156682D01*
X119582946Y-101177164D01*
X119577914Y-101197250D01*
X119570939Y-101216746D01*
X119562085Y-101235465D01*
X119551440Y-101253225D01*
X119539105Y-101269857D01*
X119525200Y-101285200D01*
X119509857Y-101299105D01*
X119493225Y-101311440D01*
X119475465Y-101322085D01*
X119456746Y-101330939D01*
X119437250Y-101337914D01*
X119417164Y-101342946D01*
X119396682Y-101345984D01*
X119376000Y-101347000D01*
X118954000Y-101347000D01*
X118933318Y-101345984D01*
X118912836Y-101342946D01*
X118892750Y-101337914D01*
X118873254Y-101330939D01*
X118854535Y-101322085D01*
X118836775Y-101311440D01*
X118820143Y-101299105D01*
X118804800Y-101285200D01*
X118790895Y-101269857D01*
X118778560Y-101253225D01*
X118767915Y-101235465D01*
X118759061Y-101216746D01*
X118752086Y-101197250D01*
X118747054Y-101177164D01*
X118744016Y-101156682D01*
X118743000Y-101136000D01*
X118743000Y-100664000D01*
X118744016Y-100643318D01*
X118747054Y-100622836D01*
X118752086Y-100602750D01*
X118759061Y-100583254D01*
X118767915Y-100564535D01*
X118778560Y-100546775D01*
X118790895Y-100530143D01*
X118804800Y-100514800D01*
X118820143Y-100500895D01*
X118836775Y-100488560D01*
X118854535Y-100477915D01*
X118873254Y-100469061D01*
X118892750Y-100462086D01*
X118912836Y-100457054D01*
X118933318Y-100454016D01*
X118954000Y-100453000D01*
X119376000Y-100453000D01*
X119396682Y-100454016D01*
G37*
G36*
X118745682Y-89597016D02*
G01*
X118766164Y-89600054D01*
X118786250Y-89605086D01*
X118805746Y-89612061D01*
X118824465Y-89620915D01*
X118842225Y-89631560D01*
X118858857Y-89643895D01*
X118874200Y-89657800D01*
X118888105Y-89673143D01*
X118900440Y-89689775D01*
X118911085Y-89707535D01*
X118919939Y-89726254D01*
X118926914Y-89745750D01*
X118931946Y-89765836D01*
X118934984Y-89786318D01*
X118936000Y-89807000D01*
X118936000Y-90279000D01*
X118934984Y-90299682D01*
X118931946Y-90320164D01*
X118926914Y-90340250D01*
X118919939Y-90359746D01*
X118911085Y-90378465D01*
X118900440Y-90396225D01*
X118888105Y-90412857D01*
X118874200Y-90428200D01*
X118858857Y-90442105D01*
X118842225Y-90454440D01*
X118824465Y-90465085D01*
X118805746Y-90473939D01*
X118786250Y-90480914D01*
X118766164Y-90485946D01*
X118745682Y-90488984D01*
X118725000Y-90490000D01*
X118303000Y-90490000D01*
X118282318Y-90488984D01*
X118261836Y-90485946D01*
X118241750Y-90480914D01*
X118222254Y-90473939D01*
X118203535Y-90465085D01*
X118185775Y-90454440D01*
X118169143Y-90442105D01*
X118153800Y-90428200D01*
X118139895Y-90412857D01*
X118127560Y-90396225D01*
X118116915Y-90378465D01*
X118108061Y-90359746D01*
X118101086Y-90340250D01*
X118096054Y-90320164D01*
X118093016Y-90299682D01*
X118092000Y-90279000D01*
X118092000Y-89807000D01*
X118093016Y-89786318D01*
X118096054Y-89765836D01*
X118101086Y-89745750D01*
X118108061Y-89726254D01*
X118116915Y-89707535D01*
X118127560Y-89689775D01*
X118139895Y-89673143D01*
X118153800Y-89657800D01*
X118169143Y-89643895D01*
X118185775Y-89631560D01*
X118203535Y-89620915D01*
X118222254Y-89612061D01*
X118241750Y-89605086D01*
X118261836Y-89600054D01*
X118282318Y-89597016D01*
X118303000Y-89596000D01*
X118725000Y-89596000D01*
X118745682Y-89597016D01*
G37*
G36*
X119715682Y-89597016D02*
G01*
X119736164Y-89600054D01*
X119756250Y-89605086D01*
X119775746Y-89612061D01*
X119794465Y-89620915D01*
X119812225Y-89631560D01*
X119828857Y-89643895D01*
X119844200Y-89657800D01*
X119858105Y-89673143D01*
X119870440Y-89689775D01*
X119881085Y-89707535D01*
X119889939Y-89726254D01*
X119896914Y-89745750D01*
X119901946Y-89765836D01*
X119904984Y-89786318D01*
X119906000Y-89807000D01*
X119906000Y-90279000D01*
X119904984Y-90299682D01*
X119901946Y-90320164D01*
X119896914Y-90340250D01*
X119889939Y-90359746D01*
X119881085Y-90378465D01*
X119870440Y-90396225D01*
X119858105Y-90412857D01*
X119844200Y-90428200D01*
X119828857Y-90442105D01*
X119812225Y-90454440D01*
X119794465Y-90465085D01*
X119775746Y-90473939D01*
X119756250Y-90480914D01*
X119736164Y-90485946D01*
X119715682Y-90488984D01*
X119695000Y-90490000D01*
X119273000Y-90490000D01*
X119252318Y-90488984D01*
X119231836Y-90485946D01*
X119211750Y-90480914D01*
X119192254Y-90473939D01*
X119173535Y-90465085D01*
X119155775Y-90454440D01*
X119139143Y-90442105D01*
X119123800Y-90428200D01*
X119109895Y-90412857D01*
X119097560Y-90396225D01*
X119086915Y-90378465D01*
X119078061Y-90359746D01*
X119071086Y-90340250D01*
X119066054Y-90320164D01*
X119063016Y-90299682D01*
X119062000Y-90279000D01*
X119062000Y-89807000D01*
X119063016Y-89786318D01*
X119066054Y-89765836D01*
X119071086Y-89745750D01*
X119078061Y-89726254D01*
X119086915Y-89707535D01*
X119097560Y-89689775D01*
X119109895Y-89673143D01*
X119123800Y-89657800D01*
X119139143Y-89643895D01*
X119155775Y-89631560D01*
X119173535Y-89620915D01*
X119192254Y-89612061D01*
X119211750Y-89605086D01*
X119231836Y-89600054D01*
X119252318Y-89597016D01*
X119273000Y-89596000D01*
X119695000Y-89596000D01*
X119715682Y-89597016D01*
G37*
G36*
X106996682Y-99504016D02*
G01*
X107017164Y-99507054D01*
X107037250Y-99512086D01*
X107056746Y-99519061D01*
X107075465Y-99527915D01*
X107093225Y-99538560D01*
X107109857Y-99550895D01*
X107125200Y-99564800D01*
X107139105Y-99580143D01*
X107151440Y-99596775D01*
X107162085Y-99614535D01*
X107170939Y-99633254D01*
X107177914Y-99652750D01*
X107182946Y-99672836D01*
X107185984Y-99693318D01*
X107187000Y-99714000D01*
X107187000Y-100186000D01*
X107185984Y-100206682D01*
X107182946Y-100227164D01*
X107177914Y-100247250D01*
X107170939Y-100266746D01*
X107162085Y-100285465D01*
X107151440Y-100303225D01*
X107139105Y-100319857D01*
X107125200Y-100335200D01*
X107109857Y-100349105D01*
X107093225Y-100361440D01*
X107075465Y-100372085D01*
X107056746Y-100380939D01*
X107037250Y-100387914D01*
X107017164Y-100392946D01*
X106996682Y-100395984D01*
X106976000Y-100397000D01*
X106554000Y-100397000D01*
X106533318Y-100395984D01*
X106512836Y-100392946D01*
X106492750Y-100387914D01*
X106473254Y-100380939D01*
X106454535Y-100372085D01*
X106436775Y-100361440D01*
X106420143Y-100349105D01*
X106404800Y-100335200D01*
X106390895Y-100319857D01*
X106378560Y-100303225D01*
X106367915Y-100285465D01*
X106359061Y-100266746D01*
X106352086Y-100247250D01*
X106347054Y-100227164D01*
X106344016Y-100206682D01*
X106343000Y-100186000D01*
X106343000Y-99714000D01*
X106344016Y-99693318D01*
X106347054Y-99672836D01*
X106352086Y-99652750D01*
X106359061Y-99633254D01*
X106367915Y-99614535D01*
X106378560Y-99596775D01*
X106390895Y-99580143D01*
X106404800Y-99564800D01*
X106420143Y-99550895D01*
X106436775Y-99538560D01*
X106454535Y-99527915D01*
X106473254Y-99519061D01*
X106492750Y-99512086D01*
X106512836Y-99507054D01*
X106533318Y-99504016D01*
X106554000Y-99503000D01*
X106976000Y-99503000D01*
X106996682Y-99504016D01*
G37*
G36*
X107966682Y-99504016D02*
G01*
X107987164Y-99507054D01*
X108007250Y-99512086D01*
X108026746Y-99519061D01*
X108045465Y-99527915D01*
X108063225Y-99538560D01*
X108079857Y-99550895D01*
X108095200Y-99564800D01*
X108109105Y-99580143D01*
X108121440Y-99596775D01*
X108132085Y-99614535D01*
X108140939Y-99633254D01*
X108147914Y-99652750D01*
X108152946Y-99672836D01*
X108155984Y-99693318D01*
X108157000Y-99714000D01*
X108157000Y-100186000D01*
X108155984Y-100206682D01*
X108152946Y-100227164D01*
X108147914Y-100247250D01*
X108140939Y-100266746D01*
X108132085Y-100285465D01*
X108121440Y-100303225D01*
X108109105Y-100319857D01*
X108095200Y-100335200D01*
X108079857Y-100349105D01*
X108063225Y-100361440D01*
X108045465Y-100372085D01*
X108026746Y-100380939D01*
X108007250Y-100387914D01*
X107987164Y-100392946D01*
X107966682Y-100395984D01*
X107946000Y-100397000D01*
X107524000Y-100397000D01*
X107503318Y-100395984D01*
X107482836Y-100392946D01*
X107462750Y-100387914D01*
X107443254Y-100380939D01*
X107424535Y-100372085D01*
X107406775Y-100361440D01*
X107390143Y-100349105D01*
X107374800Y-100335200D01*
X107360895Y-100319857D01*
X107348560Y-100303225D01*
X107337915Y-100285465D01*
X107329061Y-100266746D01*
X107322086Y-100247250D01*
X107317054Y-100227164D01*
X107314016Y-100206682D01*
X107313000Y-100186000D01*
X107313000Y-99714000D01*
X107314016Y-99693318D01*
X107317054Y-99672836D01*
X107322086Y-99652750D01*
X107329061Y-99633254D01*
X107337915Y-99614535D01*
X107348560Y-99596775D01*
X107360895Y-99580143D01*
X107374800Y-99564800D01*
X107390143Y-99550895D01*
X107406775Y-99538560D01*
X107424535Y-99527915D01*
X107443254Y-99519061D01*
X107462750Y-99512086D01*
X107482836Y-99507054D01*
X107503318Y-99504016D01*
X107524000Y-99503000D01*
X107946000Y-99503000D01*
X107966682Y-99504016D01*
G37*
G36*
X100335115Y-92007759D02*
G01*
X100362514Y-92011823D01*
X100389383Y-92018554D01*
X100415462Y-92027885D01*
X100440502Y-92039728D01*
X100464260Y-92053968D01*
X100486508Y-92070468D01*
X100507031Y-92089069D01*
X100525632Y-92109592D01*
X100542132Y-92131840D01*
X100556372Y-92155598D01*
X100568215Y-92180638D01*
X100577546Y-92206717D01*
X100584277Y-92233586D01*
X100588341Y-92260985D01*
X100589700Y-92288650D01*
X100589700Y-92928150D01*
X100588341Y-92955815D01*
X100584277Y-92983214D01*
X100577546Y-93010083D01*
X100568215Y-93036162D01*
X100556372Y-93061202D01*
X100542132Y-93084960D01*
X100525632Y-93107208D01*
X100507031Y-93127731D01*
X100486508Y-93146332D01*
X100464260Y-93162832D01*
X100440502Y-93177072D01*
X100415462Y-93188915D01*
X100389383Y-93198246D01*
X100362514Y-93204977D01*
X100335115Y-93209041D01*
X100307450Y-93210400D01*
X99742950Y-93210400D01*
X99715285Y-93209041D01*
X99687886Y-93204977D01*
X99661017Y-93198246D01*
X99634938Y-93188915D01*
X99609898Y-93177072D01*
X99586140Y-93162832D01*
X99563892Y-93146332D01*
X99543369Y-93127731D01*
X99524768Y-93107208D01*
X99508268Y-93084960D01*
X99494028Y-93061202D01*
X99482185Y-93036162D01*
X99472854Y-93010083D01*
X99466123Y-92983214D01*
X99462059Y-92955815D01*
X99460700Y-92928150D01*
X99460700Y-92288650D01*
X99462059Y-92260985D01*
X99466123Y-92233586D01*
X99472854Y-92206717D01*
X99482185Y-92180638D01*
X99494028Y-92155598D01*
X99508268Y-92131840D01*
X99524768Y-92109592D01*
X99543369Y-92089069D01*
X99563892Y-92070468D01*
X99586140Y-92053968D01*
X99609898Y-92039728D01*
X99634938Y-92027885D01*
X99661017Y-92018554D01*
X99687886Y-92011823D01*
X99715285Y-92007759D01*
X99742950Y-92006400D01*
X100307450Y-92006400D01*
X100335115Y-92007759D01*
G37*
G36*
X98760115Y-92007759D02*
G01*
X98787514Y-92011823D01*
X98814383Y-92018554D01*
X98840462Y-92027885D01*
X98865502Y-92039728D01*
X98889260Y-92053968D01*
X98911508Y-92070468D01*
X98932031Y-92089069D01*
X98950632Y-92109592D01*
X98967132Y-92131840D01*
X98981372Y-92155598D01*
X98993215Y-92180638D01*
X99002546Y-92206717D01*
X99009277Y-92233586D01*
X99013341Y-92260985D01*
X99014700Y-92288650D01*
X99014700Y-92928150D01*
X99013341Y-92955815D01*
X99009277Y-92983214D01*
X99002546Y-93010083D01*
X98993215Y-93036162D01*
X98981372Y-93061202D01*
X98967132Y-93084960D01*
X98950632Y-93107208D01*
X98932031Y-93127731D01*
X98911508Y-93146332D01*
X98889260Y-93162832D01*
X98865502Y-93177072D01*
X98840462Y-93188915D01*
X98814383Y-93198246D01*
X98787514Y-93204977D01*
X98760115Y-93209041D01*
X98732450Y-93210400D01*
X98167950Y-93210400D01*
X98140285Y-93209041D01*
X98112886Y-93204977D01*
X98086017Y-93198246D01*
X98059938Y-93188915D01*
X98034898Y-93177072D01*
X98011140Y-93162832D01*
X97988892Y-93146332D01*
X97968369Y-93127731D01*
X97949768Y-93107208D01*
X97933268Y-93084960D01*
X97919028Y-93061202D01*
X97907185Y-93036162D01*
X97897854Y-93010083D01*
X97891123Y-92983214D01*
X97887059Y-92955815D01*
X97885700Y-92928150D01*
X97885700Y-92288650D01*
X97887059Y-92260985D01*
X97891123Y-92233586D01*
X97897854Y-92206717D01*
X97907185Y-92180638D01*
X97919028Y-92155598D01*
X97933268Y-92131840D01*
X97949768Y-92109592D01*
X97968369Y-92089069D01*
X97988892Y-92070468D01*
X98011140Y-92053968D01*
X98034898Y-92039728D01*
X98059938Y-92027885D01*
X98086017Y-92018554D01*
X98112886Y-92011823D01*
X98140285Y-92007759D01*
X98167950Y-92006400D01*
X98732450Y-92006400D01*
X98760115Y-92007759D01*
G37*
G36*
X103179715Y-94852559D02*
G01*
X103207114Y-94856623D01*
X103233983Y-94863354D01*
X103260062Y-94872685D01*
X103285102Y-94884528D01*
X103308860Y-94898768D01*
X103331108Y-94915268D01*
X103351631Y-94933869D01*
X103370232Y-94954392D01*
X103386732Y-94976640D01*
X103400972Y-95000398D01*
X103412815Y-95025438D01*
X103422146Y-95051517D01*
X103428877Y-95078386D01*
X103432941Y-95105785D01*
X103434300Y-95133450D01*
X103434300Y-95772950D01*
X103432941Y-95800615D01*
X103428877Y-95828014D01*
X103422146Y-95854883D01*
X103412815Y-95880962D01*
X103400972Y-95906002D01*
X103386732Y-95929760D01*
X103370232Y-95952008D01*
X103351631Y-95972531D01*
X103331108Y-95991132D01*
X103308860Y-96007632D01*
X103285102Y-96021872D01*
X103260062Y-96033715D01*
X103233983Y-96043046D01*
X103207114Y-96049777D01*
X103179715Y-96053841D01*
X103152050Y-96055200D01*
X102587550Y-96055200D01*
X102559885Y-96053841D01*
X102532486Y-96049777D01*
X102505617Y-96043046D01*
X102479538Y-96033715D01*
X102454498Y-96021872D01*
X102430740Y-96007632D01*
X102408492Y-95991132D01*
X102387969Y-95972531D01*
X102369368Y-95952008D01*
X102352868Y-95929760D01*
X102338628Y-95906002D01*
X102326785Y-95880962D01*
X102317454Y-95854883D01*
X102310723Y-95828014D01*
X102306659Y-95800615D01*
X102305300Y-95772950D01*
X102305300Y-95133450D01*
X102306659Y-95105785D01*
X102310723Y-95078386D01*
X102317454Y-95051517D01*
X102326785Y-95025438D01*
X102338628Y-95000398D01*
X102352868Y-94976640D01*
X102369368Y-94954392D01*
X102387969Y-94933869D01*
X102408492Y-94915268D01*
X102430740Y-94898768D01*
X102454498Y-94884528D01*
X102479538Y-94872685D01*
X102505617Y-94863354D01*
X102532486Y-94856623D01*
X102559885Y-94852559D01*
X102587550Y-94851200D01*
X103152050Y-94851200D01*
X103179715Y-94852559D01*
G37*
G36*
X104754715Y-94852559D02*
G01*
X104782114Y-94856623D01*
X104808983Y-94863354D01*
X104835062Y-94872685D01*
X104860102Y-94884528D01*
X104883860Y-94898768D01*
X104906108Y-94915268D01*
X104926631Y-94933869D01*
X104945232Y-94954392D01*
X104961732Y-94976640D01*
X104975972Y-95000398D01*
X104987815Y-95025438D01*
X104997146Y-95051517D01*
X105003877Y-95078386D01*
X105007941Y-95105785D01*
X105009300Y-95133450D01*
X105009300Y-95772950D01*
X105007941Y-95800615D01*
X105003877Y-95828014D01*
X104997146Y-95854883D01*
X104987815Y-95880962D01*
X104975972Y-95906002D01*
X104961732Y-95929760D01*
X104945232Y-95952008D01*
X104926631Y-95972531D01*
X104906108Y-95991132D01*
X104883860Y-96007632D01*
X104860102Y-96021872D01*
X104835062Y-96033715D01*
X104808983Y-96043046D01*
X104782114Y-96049777D01*
X104754715Y-96053841D01*
X104727050Y-96055200D01*
X104162550Y-96055200D01*
X104134885Y-96053841D01*
X104107486Y-96049777D01*
X104080617Y-96043046D01*
X104054538Y-96033715D01*
X104029498Y-96021872D01*
X104005740Y-96007632D01*
X103983492Y-95991132D01*
X103962969Y-95972531D01*
X103944368Y-95952008D01*
X103927868Y-95929760D01*
X103913628Y-95906002D01*
X103901785Y-95880962D01*
X103892454Y-95854883D01*
X103885723Y-95828014D01*
X103881659Y-95800615D01*
X103880300Y-95772950D01*
X103880300Y-95133450D01*
X103881659Y-95105785D01*
X103885723Y-95078386D01*
X103892454Y-95051517D01*
X103901785Y-95025438D01*
X103913628Y-95000398D01*
X103927868Y-94976640D01*
X103944368Y-94954392D01*
X103962969Y-94933869D01*
X103983492Y-94915268D01*
X104005740Y-94898768D01*
X104029498Y-94884528D01*
X104054538Y-94872685D01*
X104080617Y-94863354D01*
X104107486Y-94856623D01*
X104134885Y-94852559D01*
X104162550Y-94851200D01*
X104727050Y-94851200D01*
X104754715Y-94852559D01*
G37*
G36*
X101729682Y-92947016D02*
G01*
X101750164Y-92950054D01*
X101770250Y-92955086D01*
X101789746Y-92962061D01*
X101808465Y-92970915D01*
X101826225Y-92981560D01*
X101842857Y-92993895D01*
X101858200Y-93007800D01*
X101872105Y-93023143D01*
X101884440Y-93039775D01*
X101895085Y-93057535D01*
X101903939Y-93076254D01*
X101910914Y-93095750D01*
X101915946Y-93115836D01*
X101918984Y-93136318D01*
X101920000Y-93157000D01*
X101920000Y-93579000D01*
X101918984Y-93599682D01*
X101915946Y-93620164D01*
X101910914Y-93640250D01*
X101903939Y-93659746D01*
X101895085Y-93678465D01*
X101884440Y-93696225D01*
X101872105Y-93712857D01*
X101858200Y-93728200D01*
X101842857Y-93742105D01*
X101826225Y-93754440D01*
X101808465Y-93765085D01*
X101789746Y-93773939D01*
X101770250Y-93780914D01*
X101750164Y-93785946D01*
X101729682Y-93788984D01*
X101709000Y-93790000D01*
X101237000Y-93790000D01*
X101216318Y-93788984D01*
X101195836Y-93785946D01*
X101175750Y-93780914D01*
X101156254Y-93773939D01*
X101137535Y-93765085D01*
X101119775Y-93754440D01*
X101103143Y-93742105D01*
X101087800Y-93728200D01*
X101073895Y-93712857D01*
X101061560Y-93696225D01*
X101050915Y-93678465D01*
X101042061Y-93659746D01*
X101035086Y-93640250D01*
X101030054Y-93620164D01*
X101027016Y-93599682D01*
X101026000Y-93579000D01*
X101026000Y-93157000D01*
X101027016Y-93136318D01*
X101030054Y-93115836D01*
X101035086Y-93095750D01*
X101042061Y-93076254D01*
X101050915Y-93057535D01*
X101061560Y-93039775D01*
X101073895Y-93023143D01*
X101087800Y-93007800D01*
X101103143Y-92993895D01*
X101119775Y-92981560D01*
X101137535Y-92970915D01*
X101156254Y-92962061D01*
X101175750Y-92955086D01*
X101195836Y-92950054D01*
X101216318Y-92947016D01*
X101237000Y-92946000D01*
X101709000Y-92946000D01*
X101729682Y-92947016D01*
G37*
G36*
X101729682Y-93917016D02*
G01*
X101750164Y-93920054D01*
X101770250Y-93925086D01*
X101789746Y-93932061D01*
X101808465Y-93940915D01*
X101826225Y-93951560D01*
X101842857Y-93963895D01*
X101858200Y-93977800D01*
X101872105Y-93993143D01*
X101884440Y-94009775D01*
X101895085Y-94027535D01*
X101903939Y-94046254D01*
X101910914Y-94065750D01*
X101915946Y-94085836D01*
X101918984Y-94106318D01*
X101920000Y-94127000D01*
X101920000Y-94549000D01*
X101918984Y-94569682D01*
X101915946Y-94590164D01*
X101910914Y-94610250D01*
X101903939Y-94629746D01*
X101895085Y-94648465D01*
X101884440Y-94666225D01*
X101872105Y-94682857D01*
X101858200Y-94698200D01*
X101842857Y-94712105D01*
X101826225Y-94724440D01*
X101808465Y-94735085D01*
X101789746Y-94743939D01*
X101770250Y-94750914D01*
X101750164Y-94755946D01*
X101729682Y-94758984D01*
X101709000Y-94760000D01*
X101237000Y-94760000D01*
X101216318Y-94758984D01*
X101195836Y-94755946D01*
X101175750Y-94750914D01*
X101156254Y-94743939D01*
X101137535Y-94735085D01*
X101119775Y-94724440D01*
X101103143Y-94712105D01*
X101087800Y-94698200D01*
X101073895Y-94682857D01*
X101061560Y-94666225D01*
X101050915Y-94648465D01*
X101042061Y-94629746D01*
X101035086Y-94610250D01*
X101030054Y-94590164D01*
X101027016Y-94569682D01*
X101026000Y-94549000D01*
X101026000Y-94127000D01*
X101027016Y-94106318D01*
X101030054Y-94085836D01*
X101035086Y-94065750D01*
X101042061Y-94046254D01*
X101050915Y-94027535D01*
X101061560Y-94009775D01*
X101073895Y-93993143D01*
X101087800Y-93977800D01*
X101103143Y-93963895D01*
X101119775Y-93951560D01*
X101137535Y-93940915D01*
X101156254Y-93932061D01*
X101175750Y-93925086D01*
X101195836Y-93920054D01*
X101216318Y-93917016D01*
X101237000Y-93916000D01*
X101709000Y-93916000D01*
X101729682Y-93917016D01*
G37*
G36*
X118745682Y-88581016D02*
G01*
X118766164Y-88584054D01*
X118786250Y-88589086D01*
X118805746Y-88596061D01*
X118824465Y-88604915D01*
X118842225Y-88615560D01*
X118858857Y-88627895D01*
X118874200Y-88641800D01*
X118888105Y-88657143D01*
X118900440Y-88673775D01*
X118911085Y-88691535D01*
X118919939Y-88710254D01*
X118926914Y-88729750D01*
X118931946Y-88749836D01*
X118934984Y-88770318D01*
X118936000Y-88791000D01*
X118936000Y-89263000D01*
X118934984Y-89283682D01*
X118931946Y-89304164D01*
X118926914Y-89324250D01*
X118919939Y-89343746D01*
X118911085Y-89362465D01*
X118900440Y-89380225D01*
X118888105Y-89396857D01*
X118874200Y-89412200D01*
X118858857Y-89426105D01*
X118842225Y-89438440D01*
X118824465Y-89449085D01*
X118805746Y-89457939D01*
X118786250Y-89464914D01*
X118766164Y-89469946D01*
X118745682Y-89472984D01*
X118725000Y-89474000D01*
X118303000Y-89474000D01*
X118282318Y-89472984D01*
X118261836Y-89469946D01*
X118241750Y-89464914D01*
X118222254Y-89457939D01*
X118203535Y-89449085D01*
X118185775Y-89438440D01*
X118169143Y-89426105D01*
X118153800Y-89412200D01*
X118139895Y-89396857D01*
X118127560Y-89380225D01*
X118116915Y-89362465D01*
X118108061Y-89343746D01*
X118101086Y-89324250D01*
X118096054Y-89304164D01*
X118093016Y-89283682D01*
X118092000Y-89263000D01*
X118092000Y-88791000D01*
X118093016Y-88770318D01*
X118096054Y-88749836D01*
X118101086Y-88729750D01*
X118108061Y-88710254D01*
X118116915Y-88691535D01*
X118127560Y-88673775D01*
X118139895Y-88657143D01*
X118153800Y-88641800D01*
X118169143Y-88627895D01*
X118185775Y-88615560D01*
X118203535Y-88604915D01*
X118222254Y-88596061D01*
X118241750Y-88589086D01*
X118261836Y-88584054D01*
X118282318Y-88581016D01*
X118303000Y-88580000D01*
X118725000Y-88580000D01*
X118745682Y-88581016D01*
G37*
G36*
X119715682Y-88581016D02*
G01*
X119736164Y-88584054D01*
X119756250Y-88589086D01*
X119775746Y-88596061D01*
X119794465Y-88604915D01*
X119812225Y-88615560D01*
X119828857Y-88627895D01*
X119844200Y-88641800D01*
X119858105Y-88657143D01*
X119870440Y-88673775D01*
X119881085Y-88691535D01*
X119889939Y-88710254D01*
X119896914Y-88729750D01*
X119901946Y-88749836D01*
X119904984Y-88770318D01*
X119906000Y-88791000D01*
X119906000Y-89263000D01*
X119904984Y-89283682D01*
X119901946Y-89304164D01*
X119896914Y-89324250D01*
X119889939Y-89343746D01*
X119881085Y-89362465D01*
X119870440Y-89380225D01*
X119858105Y-89396857D01*
X119844200Y-89412200D01*
X119828857Y-89426105D01*
X119812225Y-89438440D01*
X119794465Y-89449085D01*
X119775746Y-89457939D01*
X119756250Y-89464914D01*
X119736164Y-89469946D01*
X119715682Y-89472984D01*
X119695000Y-89474000D01*
X119273000Y-89474000D01*
X119252318Y-89472984D01*
X119231836Y-89469946D01*
X119211750Y-89464914D01*
X119192254Y-89457939D01*
X119173535Y-89449085D01*
X119155775Y-89438440D01*
X119139143Y-89426105D01*
X119123800Y-89412200D01*
X119109895Y-89396857D01*
X119097560Y-89380225D01*
X119086915Y-89362465D01*
X119078061Y-89343746D01*
X119071086Y-89324250D01*
X119066054Y-89304164D01*
X119063016Y-89283682D01*
X119062000Y-89263000D01*
X119062000Y-88791000D01*
X119063016Y-88770318D01*
X119066054Y-88749836D01*
X119071086Y-88729750D01*
X119078061Y-88710254D01*
X119086915Y-88691535D01*
X119097560Y-88673775D01*
X119109895Y-88657143D01*
X119123800Y-88641800D01*
X119139143Y-88627895D01*
X119155775Y-88615560D01*
X119173535Y-88604915D01*
X119192254Y-88596061D01*
X119211750Y-88589086D01*
X119231836Y-88584054D01*
X119252318Y-88581016D01*
X119273000Y-88580000D01*
X119695000Y-88580000D01*
X119715682Y-88581016D01*
G37*
G36*
X101246682Y-86004016D02*
G01*
X101267164Y-86007054D01*
X101287250Y-86012086D01*
X101306746Y-86019061D01*
X101325465Y-86027915D01*
X101343225Y-86038560D01*
X101359857Y-86050895D01*
X101375200Y-86064800D01*
X101389105Y-86080143D01*
X101401440Y-86096775D01*
X101412085Y-86114535D01*
X101420939Y-86133254D01*
X101427914Y-86152750D01*
X101432946Y-86172836D01*
X101435984Y-86193318D01*
X101437000Y-86214000D01*
X101437000Y-86686000D01*
X101435984Y-86706682D01*
X101432946Y-86727164D01*
X101427914Y-86747250D01*
X101420939Y-86766746D01*
X101412085Y-86785465D01*
X101401440Y-86803225D01*
X101389105Y-86819857D01*
X101375200Y-86835200D01*
X101359857Y-86849105D01*
X101343225Y-86861440D01*
X101325465Y-86872085D01*
X101306746Y-86880939D01*
X101287250Y-86887914D01*
X101267164Y-86892946D01*
X101246682Y-86895984D01*
X101226000Y-86897000D01*
X100804000Y-86897000D01*
X100783318Y-86895984D01*
X100762836Y-86892946D01*
X100742750Y-86887914D01*
X100723254Y-86880939D01*
X100704535Y-86872085D01*
X100686775Y-86861440D01*
X100670143Y-86849105D01*
X100654800Y-86835200D01*
X100640895Y-86819857D01*
X100628560Y-86803225D01*
X100617915Y-86785465D01*
X100609061Y-86766746D01*
X100602086Y-86747250D01*
X100597054Y-86727164D01*
X100594016Y-86706682D01*
X100593000Y-86686000D01*
X100593000Y-86214000D01*
X100594016Y-86193318D01*
X100597054Y-86172836D01*
X100602086Y-86152750D01*
X100609061Y-86133254D01*
X100617915Y-86114535D01*
X100628560Y-86096775D01*
X100640895Y-86080143D01*
X100654800Y-86064800D01*
X100670143Y-86050895D01*
X100686775Y-86038560D01*
X100704535Y-86027915D01*
X100723254Y-86019061D01*
X100742750Y-86012086D01*
X100762836Y-86007054D01*
X100783318Y-86004016D01*
X100804000Y-86003000D01*
X101226000Y-86003000D01*
X101246682Y-86004016D01*
G37*
G36*
X102216682Y-86004016D02*
G01*
X102237164Y-86007054D01*
X102257250Y-86012086D01*
X102276746Y-86019061D01*
X102295465Y-86027915D01*
X102313225Y-86038560D01*
X102329857Y-86050895D01*
X102345200Y-86064800D01*
X102359105Y-86080143D01*
X102371440Y-86096775D01*
X102382085Y-86114535D01*
X102390939Y-86133254D01*
X102397914Y-86152750D01*
X102402946Y-86172836D01*
X102405984Y-86193318D01*
X102407000Y-86214000D01*
X102407000Y-86686000D01*
X102405984Y-86706682D01*
X102402946Y-86727164D01*
X102397914Y-86747250D01*
X102390939Y-86766746D01*
X102382085Y-86785465D01*
X102371440Y-86803225D01*
X102359105Y-86819857D01*
X102345200Y-86835200D01*
X102329857Y-86849105D01*
X102313225Y-86861440D01*
X102295465Y-86872085D01*
X102276746Y-86880939D01*
X102257250Y-86887914D01*
X102237164Y-86892946D01*
X102216682Y-86895984D01*
X102196000Y-86897000D01*
X101774000Y-86897000D01*
X101753318Y-86895984D01*
X101732836Y-86892946D01*
X101712750Y-86887914D01*
X101693254Y-86880939D01*
X101674535Y-86872085D01*
X101656775Y-86861440D01*
X101640143Y-86849105D01*
X101624800Y-86835200D01*
X101610895Y-86819857D01*
X101598560Y-86803225D01*
X101587915Y-86785465D01*
X101579061Y-86766746D01*
X101572086Y-86747250D01*
X101567054Y-86727164D01*
X101564016Y-86706682D01*
X101563000Y-86686000D01*
X101563000Y-86214000D01*
X101564016Y-86193318D01*
X101567054Y-86172836D01*
X101572086Y-86152750D01*
X101579061Y-86133254D01*
X101587915Y-86114535D01*
X101598560Y-86096775D01*
X101610895Y-86080143D01*
X101624800Y-86064800D01*
X101640143Y-86050895D01*
X101656775Y-86038560D01*
X101674535Y-86027915D01*
X101693254Y-86019061D01*
X101712750Y-86012086D01*
X101732836Y-86007054D01*
X101753318Y-86004016D01*
X101774000Y-86003000D01*
X102196000Y-86003000D01*
X102216682Y-86004016D01*
G37*
G36*
X101591815Y-83053459D02*
G01*
X101619214Y-83057523D01*
X101646083Y-83064254D01*
X101672162Y-83073585D01*
X101697202Y-83085428D01*
X101720960Y-83099668D01*
X101743208Y-83116168D01*
X101763731Y-83134769D01*
X101782332Y-83155292D01*
X101798832Y-83177540D01*
X101813072Y-83201298D01*
X101824915Y-83226338D01*
X101834246Y-83252417D01*
X101840977Y-83279286D01*
X101845041Y-83306685D01*
X101846400Y-83334350D01*
X101846400Y-83898850D01*
X101845041Y-83926515D01*
X101840977Y-83953914D01*
X101834246Y-83980783D01*
X101824915Y-84006862D01*
X101813072Y-84031902D01*
X101798832Y-84055660D01*
X101782332Y-84077908D01*
X101763731Y-84098431D01*
X101743208Y-84117032D01*
X101720960Y-84133532D01*
X101697202Y-84147772D01*
X101672162Y-84159615D01*
X101646083Y-84168946D01*
X101619214Y-84175677D01*
X101591815Y-84179741D01*
X101564150Y-84181100D01*
X100924650Y-84181100D01*
X100896985Y-84179741D01*
X100869586Y-84175677D01*
X100842717Y-84168946D01*
X100816638Y-84159615D01*
X100791598Y-84147772D01*
X100767840Y-84133532D01*
X100745592Y-84117032D01*
X100725069Y-84098431D01*
X100706468Y-84077908D01*
X100689968Y-84055660D01*
X100675728Y-84031902D01*
X100663885Y-84006862D01*
X100654554Y-83980783D01*
X100647823Y-83953914D01*
X100643759Y-83926515D01*
X100642400Y-83898850D01*
X100642400Y-83334350D01*
X100643759Y-83306685D01*
X100647823Y-83279286D01*
X100654554Y-83252417D01*
X100663885Y-83226338D01*
X100675728Y-83201298D01*
X100689968Y-83177540D01*
X100706468Y-83155292D01*
X100725069Y-83134769D01*
X100745592Y-83116168D01*
X100767840Y-83099668D01*
X100791598Y-83085428D01*
X100816638Y-83073585D01*
X100842717Y-83064254D01*
X100869586Y-83057523D01*
X100896985Y-83053459D01*
X100924650Y-83052100D01*
X101564150Y-83052100D01*
X101591815Y-83053459D01*
G37*
G36*
X101591815Y-84628459D02*
G01*
X101619214Y-84632523D01*
X101646083Y-84639254D01*
X101672162Y-84648585D01*
X101697202Y-84660428D01*
X101720960Y-84674668D01*
X101743208Y-84691168D01*
X101763731Y-84709769D01*
X101782332Y-84730292D01*
X101798832Y-84752540D01*
X101813072Y-84776298D01*
X101824915Y-84801338D01*
X101834246Y-84827417D01*
X101840977Y-84854286D01*
X101845041Y-84881685D01*
X101846400Y-84909350D01*
X101846400Y-85473850D01*
X101845041Y-85501515D01*
X101840977Y-85528914D01*
X101834246Y-85555783D01*
X101824915Y-85581862D01*
X101813072Y-85606902D01*
X101798832Y-85630660D01*
X101782332Y-85652908D01*
X101763731Y-85673431D01*
X101743208Y-85692032D01*
X101720960Y-85708532D01*
X101697202Y-85722772D01*
X101672162Y-85734615D01*
X101646083Y-85743946D01*
X101619214Y-85750677D01*
X101591815Y-85754741D01*
X101564150Y-85756100D01*
X100924650Y-85756100D01*
X100896985Y-85754741D01*
X100869586Y-85750677D01*
X100842717Y-85743946D01*
X100816638Y-85734615D01*
X100791598Y-85722772D01*
X100767840Y-85708532D01*
X100745592Y-85692032D01*
X100725069Y-85673431D01*
X100706468Y-85652908D01*
X100689968Y-85630660D01*
X100675728Y-85606902D01*
X100663885Y-85581862D01*
X100654554Y-85555783D01*
X100647823Y-85528914D01*
X100643759Y-85501515D01*
X100642400Y-85473850D01*
X100642400Y-84909350D01*
X100643759Y-84881685D01*
X100647823Y-84854286D01*
X100654554Y-84827417D01*
X100663885Y-84801338D01*
X100675728Y-84776298D01*
X100689968Y-84752540D01*
X100706468Y-84730292D01*
X100725069Y-84709769D01*
X100745592Y-84691168D01*
X100767840Y-84674668D01*
X100791598Y-84660428D01*
X100816638Y-84648585D01*
X100842717Y-84639254D01*
X100869586Y-84632523D01*
X100896985Y-84628459D01*
X100924650Y-84627100D01*
X101564150Y-84627100D01*
X101591815Y-84628459D01*
G37*
G36*
X103816682Y-84904016D02*
G01*
X103837164Y-84907054D01*
X103857250Y-84912086D01*
X103876746Y-84919061D01*
X103895465Y-84927915D01*
X103913225Y-84938560D01*
X103929857Y-84950895D01*
X103945200Y-84964800D01*
X103959105Y-84980143D01*
X103971440Y-84996775D01*
X103982085Y-85014535D01*
X103990939Y-85033254D01*
X103997914Y-85052750D01*
X104002946Y-85072836D01*
X104005984Y-85093318D01*
X104007000Y-85114000D01*
X104007000Y-85586000D01*
X104005984Y-85606682D01*
X104002946Y-85627164D01*
X103997914Y-85647250D01*
X103990939Y-85666746D01*
X103982085Y-85685465D01*
X103971440Y-85703225D01*
X103959105Y-85719857D01*
X103945200Y-85735200D01*
X103929857Y-85749105D01*
X103913225Y-85761440D01*
X103895465Y-85772085D01*
X103876746Y-85780939D01*
X103857250Y-85787914D01*
X103837164Y-85792946D01*
X103816682Y-85795984D01*
X103796000Y-85797000D01*
X103374000Y-85797000D01*
X103353318Y-85795984D01*
X103332836Y-85792946D01*
X103312750Y-85787914D01*
X103293254Y-85780939D01*
X103274535Y-85772085D01*
X103256775Y-85761440D01*
X103240143Y-85749105D01*
X103224800Y-85735200D01*
X103210895Y-85719857D01*
X103198560Y-85703225D01*
X103187915Y-85685465D01*
X103179061Y-85666746D01*
X103172086Y-85647250D01*
X103167054Y-85627164D01*
X103164016Y-85606682D01*
X103163000Y-85586000D01*
X103163000Y-85114000D01*
X103164016Y-85093318D01*
X103167054Y-85072836D01*
X103172086Y-85052750D01*
X103179061Y-85033254D01*
X103187915Y-85014535D01*
X103198560Y-84996775D01*
X103210895Y-84980143D01*
X103224800Y-84964800D01*
X103240143Y-84950895D01*
X103256775Y-84938560D01*
X103274535Y-84927915D01*
X103293254Y-84919061D01*
X103312750Y-84912086D01*
X103332836Y-84907054D01*
X103353318Y-84904016D01*
X103374000Y-84903000D01*
X103796000Y-84903000D01*
X103816682Y-84904016D01*
G37*
G36*
X102846682Y-84904016D02*
G01*
X102867164Y-84907054D01*
X102887250Y-84912086D01*
X102906746Y-84919061D01*
X102925465Y-84927915D01*
X102943225Y-84938560D01*
X102959857Y-84950895D01*
X102975200Y-84964800D01*
X102989105Y-84980143D01*
X103001440Y-84996775D01*
X103012085Y-85014535D01*
X103020939Y-85033254D01*
X103027914Y-85052750D01*
X103032946Y-85072836D01*
X103035984Y-85093318D01*
X103037000Y-85114000D01*
X103037000Y-85586000D01*
X103035984Y-85606682D01*
X103032946Y-85627164D01*
X103027914Y-85647250D01*
X103020939Y-85666746D01*
X103012085Y-85685465D01*
X103001440Y-85703225D01*
X102989105Y-85719857D01*
X102975200Y-85735200D01*
X102959857Y-85749105D01*
X102943225Y-85761440D01*
X102925465Y-85772085D01*
X102906746Y-85780939D01*
X102887250Y-85787914D01*
X102867164Y-85792946D01*
X102846682Y-85795984D01*
X102826000Y-85797000D01*
X102404000Y-85797000D01*
X102383318Y-85795984D01*
X102362836Y-85792946D01*
X102342750Y-85787914D01*
X102323254Y-85780939D01*
X102304535Y-85772085D01*
X102286775Y-85761440D01*
X102270143Y-85749105D01*
X102254800Y-85735200D01*
X102240895Y-85719857D01*
X102228560Y-85703225D01*
X102217915Y-85685465D01*
X102209061Y-85666746D01*
X102202086Y-85647250D01*
X102197054Y-85627164D01*
X102194016Y-85606682D01*
X102193000Y-85586000D01*
X102193000Y-85114000D01*
X102194016Y-85093318D01*
X102197054Y-85072836D01*
X102202086Y-85052750D01*
X102209061Y-85033254D01*
X102217915Y-85014535D01*
X102228560Y-84996775D01*
X102240895Y-84980143D01*
X102254800Y-84964800D01*
X102270143Y-84950895D01*
X102286775Y-84938560D01*
X102304535Y-84927915D01*
X102323254Y-84919061D01*
X102342750Y-84912086D01*
X102362836Y-84907054D01*
X102383318Y-84904016D01*
X102404000Y-84903000D01*
X102826000Y-84903000D01*
X102846682Y-84904016D01*
G37*
G36*
X103197415Y-87899359D02*
G01*
X103224814Y-87903423D01*
X103251683Y-87910154D01*
X103277762Y-87919485D01*
X103302802Y-87931328D01*
X103326560Y-87945568D01*
X103348808Y-87962068D01*
X103369331Y-87980669D01*
X103387932Y-88001192D01*
X103404432Y-88023440D01*
X103418672Y-88047198D01*
X103430515Y-88072238D01*
X103439846Y-88098317D01*
X103446577Y-88125186D01*
X103450641Y-88152585D01*
X103452000Y-88180250D01*
X103452000Y-88819750D01*
X103450641Y-88847415D01*
X103446577Y-88874814D01*
X103439846Y-88901683D01*
X103430515Y-88927762D01*
X103418672Y-88952802D01*
X103404432Y-88976560D01*
X103387932Y-88998808D01*
X103369331Y-89019331D01*
X103348808Y-89037932D01*
X103326560Y-89054432D01*
X103302802Y-89068672D01*
X103277762Y-89080515D01*
X103251683Y-89089846D01*
X103224814Y-89096577D01*
X103197415Y-89100641D01*
X103169750Y-89102000D01*
X102605250Y-89102000D01*
X102577585Y-89100641D01*
X102550186Y-89096577D01*
X102523317Y-89089846D01*
X102497238Y-89080515D01*
X102472198Y-89068672D01*
X102448440Y-89054432D01*
X102426192Y-89037932D01*
X102405669Y-89019331D01*
X102387068Y-88998808D01*
X102370568Y-88976560D01*
X102356328Y-88952802D01*
X102344485Y-88927762D01*
X102335154Y-88901683D01*
X102328423Y-88874814D01*
X102324359Y-88847415D01*
X102323000Y-88819750D01*
X102323000Y-88180250D01*
X102324359Y-88152585D01*
X102328423Y-88125186D01*
X102335154Y-88098317D01*
X102344485Y-88072238D01*
X102356328Y-88047198D01*
X102370568Y-88023440D01*
X102387068Y-88001192D01*
X102405669Y-87980669D01*
X102426192Y-87962068D01*
X102448440Y-87945568D01*
X102472198Y-87931328D01*
X102497238Y-87919485D01*
X102523317Y-87910154D01*
X102550186Y-87903423D01*
X102577585Y-87899359D01*
X102605250Y-87898000D01*
X103169750Y-87898000D01*
X103197415Y-87899359D01*
G37*
G36*
X101622415Y-87899359D02*
G01*
X101649814Y-87903423D01*
X101676683Y-87910154D01*
X101702762Y-87919485D01*
X101727802Y-87931328D01*
X101751560Y-87945568D01*
X101773808Y-87962068D01*
X101794331Y-87980669D01*
X101812932Y-88001192D01*
X101829432Y-88023440D01*
X101843672Y-88047198D01*
X101855515Y-88072238D01*
X101864846Y-88098317D01*
X101871577Y-88125186D01*
X101875641Y-88152585D01*
X101877000Y-88180250D01*
X101877000Y-88819750D01*
X101875641Y-88847415D01*
X101871577Y-88874814D01*
X101864846Y-88901683D01*
X101855515Y-88927762D01*
X101843672Y-88952802D01*
X101829432Y-88976560D01*
X101812932Y-88998808D01*
X101794331Y-89019331D01*
X101773808Y-89037932D01*
X101751560Y-89054432D01*
X101727802Y-89068672D01*
X101702762Y-89080515D01*
X101676683Y-89089846D01*
X101649814Y-89096577D01*
X101622415Y-89100641D01*
X101594750Y-89102000D01*
X101030250Y-89102000D01*
X101002585Y-89100641D01*
X100975186Y-89096577D01*
X100948317Y-89089846D01*
X100922238Y-89080515D01*
X100897198Y-89068672D01*
X100873440Y-89054432D01*
X100851192Y-89037932D01*
X100830669Y-89019331D01*
X100812068Y-88998808D01*
X100795568Y-88976560D01*
X100781328Y-88952802D01*
X100769485Y-88927762D01*
X100760154Y-88901683D01*
X100753423Y-88874814D01*
X100749359Y-88847415D01*
X100748000Y-88819750D01*
X100748000Y-88180250D01*
X100749359Y-88152585D01*
X100753423Y-88125186D01*
X100760154Y-88098317D01*
X100769485Y-88072238D01*
X100781328Y-88047198D01*
X100795568Y-88023440D01*
X100812068Y-88001192D01*
X100830669Y-87980669D01*
X100851192Y-87962068D01*
X100873440Y-87945568D01*
X100897198Y-87931328D01*
X100922238Y-87919485D01*
X100948317Y-87910154D01*
X100975186Y-87903423D01*
X101002585Y-87899359D01*
X101030250Y-87898000D01*
X101594750Y-87898000D01*
X101622415Y-87899359D01*
G37*
D16*
X135382000Y-101346000D03*
D17*
X135382000Y-102616000D03*
X134112000Y-101346000D03*
X134112000Y-102616000D03*
X132842000Y-101346000D03*
X132842000Y-102616000D03*
X131572000Y-101346000D03*
X131572000Y-102616000D03*
X130302000Y-101346000D03*
X130302000Y-102616000D03*
X135382000Y-107315000D03*
X135382000Y-108585000D03*
X134112000Y-107315000D03*
X134112000Y-108585000D03*
X132842000Y-107315000D03*
X132842000Y-108585000D03*
X131572000Y-107315000D03*
X131572000Y-108585000D03*
X130302000Y-107315000D03*
D16*
X130302000Y-108585000D03*
D11*
X118824000Y-70148000D03*
X118824000Y-69148000D03*
X118824000Y-68148000D03*
X119524000Y-68148000D03*
X119524000Y-69148000D03*
X119524000Y-70148000D03*
X124624000Y-69148000D03*
X124624000Y-68148000D03*
X123924000Y-68148000D03*
X123924000Y-69148000D03*
X124624000Y-70148000D03*
X123924000Y-70148000D03*
D18*
X124264000Y-68580000D03*
X119184000Y-68580000D03*
X99088000Y-68580000D03*
X104168000Y-68580000D03*
D11*
X103828000Y-70148000D03*
X104528000Y-70148000D03*
X103828000Y-69148000D03*
X103828000Y-68148000D03*
X104528000Y-68148000D03*
X104528000Y-69148000D03*
X99428000Y-70148000D03*
X99428000Y-69148000D03*
X99428000Y-68148000D03*
X98728000Y-68148000D03*
X98728000Y-69148000D03*
X98728000Y-70148000D03*
D10*
G36*
X124414682Y-91565516D02*
G01*
X124435164Y-91568554D01*
X124455250Y-91573586D01*
X124474746Y-91580561D01*
X124493465Y-91589415D01*
X124511225Y-91600060D01*
X124527857Y-91612395D01*
X124543200Y-91626300D01*
X124557105Y-91641643D01*
X124569440Y-91658275D01*
X124580085Y-91676035D01*
X124588939Y-91694754D01*
X124595914Y-91714250D01*
X124600946Y-91734336D01*
X124603984Y-91754818D01*
X124605000Y-91775500D01*
X124605000Y-92247500D01*
X124603984Y-92268182D01*
X124600946Y-92288664D01*
X124595914Y-92308750D01*
X124588939Y-92328246D01*
X124580085Y-92346965D01*
X124569440Y-92364725D01*
X124557105Y-92381357D01*
X124543200Y-92396700D01*
X124527857Y-92410605D01*
X124511225Y-92422940D01*
X124493465Y-92433585D01*
X124474746Y-92442439D01*
X124455250Y-92449414D01*
X124435164Y-92454446D01*
X124414682Y-92457484D01*
X124394000Y-92458500D01*
X123972000Y-92458500D01*
X123951318Y-92457484D01*
X123930836Y-92454446D01*
X123910750Y-92449414D01*
X123891254Y-92442439D01*
X123872535Y-92433585D01*
X123854775Y-92422940D01*
X123838143Y-92410605D01*
X123822800Y-92396700D01*
X123808895Y-92381357D01*
X123796560Y-92364725D01*
X123785915Y-92346965D01*
X123777061Y-92328246D01*
X123770086Y-92308750D01*
X123765054Y-92288664D01*
X123762016Y-92268182D01*
X123761000Y-92247500D01*
X123761000Y-91775500D01*
X123762016Y-91754818D01*
X123765054Y-91734336D01*
X123770086Y-91714250D01*
X123777061Y-91694754D01*
X123785915Y-91676035D01*
X123796560Y-91658275D01*
X123808895Y-91641643D01*
X123822800Y-91626300D01*
X123838143Y-91612395D01*
X123854775Y-91600060D01*
X123872535Y-91589415D01*
X123891254Y-91580561D01*
X123910750Y-91573586D01*
X123930836Y-91568554D01*
X123951318Y-91565516D01*
X123972000Y-91564500D01*
X124394000Y-91564500D01*
X124414682Y-91565516D01*
G37*
G36*
X123444682Y-91565516D02*
G01*
X123465164Y-91568554D01*
X123485250Y-91573586D01*
X123504746Y-91580561D01*
X123523465Y-91589415D01*
X123541225Y-91600060D01*
X123557857Y-91612395D01*
X123573200Y-91626300D01*
X123587105Y-91641643D01*
X123599440Y-91658275D01*
X123610085Y-91676035D01*
X123618939Y-91694754D01*
X123625914Y-91714250D01*
X123630946Y-91734336D01*
X123633984Y-91754818D01*
X123635000Y-91775500D01*
X123635000Y-92247500D01*
X123633984Y-92268182D01*
X123630946Y-92288664D01*
X123625914Y-92308750D01*
X123618939Y-92328246D01*
X123610085Y-92346965D01*
X123599440Y-92364725D01*
X123587105Y-92381357D01*
X123573200Y-92396700D01*
X123557857Y-92410605D01*
X123541225Y-92422940D01*
X123523465Y-92433585D01*
X123504746Y-92442439D01*
X123485250Y-92449414D01*
X123465164Y-92454446D01*
X123444682Y-92457484D01*
X123424000Y-92458500D01*
X123002000Y-92458500D01*
X122981318Y-92457484D01*
X122960836Y-92454446D01*
X122940750Y-92449414D01*
X122921254Y-92442439D01*
X122902535Y-92433585D01*
X122884775Y-92422940D01*
X122868143Y-92410605D01*
X122852800Y-92396700D01*
X122838895Y-92381357D01*
X122826560Y-92364725D01*
X122815915Y-92346965D01*
X122807061Y-92328246D01*
X122800086Y-92308750D01*
X122795054Y-92288664D01*
X122792016Y-92268182D01*
X122791000Y-92247500D01*
X122791000Y-91775500D01*
X122792016Y-91754818D01*
X122795054Y-91734336D01*
X122800086Y-91714250D01*
X122807061Y-91694754D01*
X122815915Y-91676035D01*
X122826560Y-91658275D01*
X122838895Y-91641643D01*
X122852800Y-91626300D01*
X122868143Y-91612395D01*
X122884775Y-91600060D01*
X122902535Y-91589415D01*
X122921254Y-91580561D01*
X122940750Y-91573586D01*
X122960836Y-91568554D01*
X122981318Y-91565516D01*
X123002000Y-91564500D01*
X123424000Y-91564500D01*
X123444682Y-91565516D01*
G37*
G36*
X124414682Y-92708516D02*
G01*
X124435164Y-92711554D01*
X124455250Y-92716586D01*
X124474746Y-92723561D01*
X124493465Y-92732415D01*
X124511225Y-92743060D01*
X124527857Y-92755395D01*
X124543200Y-92769300D01*
X124557105Y-92784643D01*
X124569440Y-92801275D01*
X124580085Y-92819035D01*
X124588939Y-92837754D01*
X124595914Y-92857250D01*
X124600946Y-92877336D01*
X124603984Y-92897818D01*
X124605000Y-92918500D01*
X124605000Y-93390500D01*
X124603984Y-93411182D01*
X124600946Y-93431664D01*
X124595914Y-93451750D01*
X124588939Y-93471246D01*
X124580085Y-93489965D01*
X124569440Y-93507725D01*
X124557105Y-93524357D01*
X124543200Y-93539700D01*
X124527857Y-93553605D01*
X124511225Y-93565940D01*
X124493465Y-93576585D01*
X124474746Y-93585439D01*
X124455250Y-93592414D01*
X124435164Y-93597446D01*
X124414682Y-93600484D01*
X124394000Y-93601500D01*
X123972000Y-93601500D01*
X123951318Y-93600484D01*
X123930836Y-93597446D01*
X123910750Y-93592414D01*
X123891254Y-93585439D01*
X123872535Y-93576585D01*
X123854775Y-93565940D01*
X123838143Y-93553605D01*
X123822800Y-93539700D01*
X123808895Y-93524357D01*
X123796560Y-93507725D01*
X123785915Y-93489965D01*
X123777061Y-93471246D01*
X123770086Y-93451750D01*
X123765054Y-93431664D01*
X123762016Y-93411182D01*
X123761000Y-93390500D01*
X123761000Y-92918500D01*
X123762016Y-92897818D01*
X123765054Y-92877336D01*
X123770086Y-92857250D01*
X123777061Y-92837754D01*
X123785915Y-92819035D01*
X123796560Y-92801275D01*
X123808895Y-92784643D01*
X123822800Y-92769300D01*
X123838143Y-92755395D01*
X123854775Y-92743060D01*
X123872535Y-92732415D01*
X123891254Y-92723561D01*
X123910750Y-92716586D01*
X123930836Y-92711554D01*
X123951318Y-92708516D01*
X123972000Y-92707500D01*
X124394000Y-92707500D01*
X124414682Y-92708516D01*
G37*
G36*
X123444682Y-92708516D02*
G01*
X123465164Y-92711554D01*
X123485250Y-92716586D01*
X123504746Y-92723561D01*
X123523465Y-92732415D01*
X123541225Y-92743060D01*
X123557857Y-92755395D01*
X123573200Y-92769300D01*
X123587105Y-92784643D01*
X123599440Y-92801275D01*
X123610085Y-92819035D01*
X123618939Y-92837754D01*
X123625914Y-92857250D01*
X123630946Y-92877336D01*
X123633984Y-92897818D01*
X123635000Y-92918500D01*
X123635000Y-93390500D01*
X123633984Y-93411182D01*
X123630946Y-93431664D01*
X123625914Y-93451750D01*
X123618939Y-93471246D01*
X123610085Y-93489965D01*
X123599440Y-93507725D01*
X123587105Y-93524357D01*
X123573200Y-93539700D01*
X123557857Y-93553605D01*
X123541225Y-93565940D01*
X123523465Y-93576585D01*
X123504746Y-93585439D01*
X123485250Y-93592414D01*
X123465164Y-93597446D01*
X123444682Y-93600484D01*
X123424000Y-93601500D01*
X123002000Y-93601500D01*
X122981318Y-93600484D01*
X122960836Y-93597446D01*
X122940750Y-93592414D01*
X122921254Y-93585439D01*
X122902535Y-93576585D01*
X122884775Y-93565940D01*
X122868143Y-93553605D01*
X122852800Y-93539700D01*
X122838895Y-93524357D01*
X122826560Y-93507725D01*
X122815915Y-93489965D01*
X122807061Y-93471246D01*
X122800086Y-93451750D01*
X122795054Y-93431664D01*
X122792016Y-93411182D01*
X122791000Y-93390500D01*
X122791000Y-92918500D01*
X122792016Y-92897818D01*
X122795054Y-92877336D01*
X122800086Y-92857250D01*
X122807061Y-92837754D01*
X122815915Y-92819035D01*
X122826560Y-92801275D01*
X122838895Y-92784643D01*
X122852800Y-92769300D01*
X122868143Y-92755395D01*
X122884775Y-92743060D01*
X122902535Y-92732415D01*
X122921254Y-92723561D01*
X122940750Y-92716586D01*
X122960836Y-92711554D01*
X122981318Y-92708516D01*
X123002000Y-92707500D01*
X123424000Y-92707500D01*
X123444682Y-92708516D01*
G37*
G36*
X124414682Y-93851516D02*
G01*
X124435164Y-93854554D01*
X124455250Y-93859586D01*
X124474746Y-93866561D01*
X124493465Y-93875415D01*
X124511225Y-93886060D01*
X124527857Y-93898395D01*
X124543200Y-93912300D01*
X124557105Y-93927643D01*
X124569440Y-93944275D01*
X124580085Y-93962035D01*
X124588939Y-93980754D01*
X124595914Y-94000250D01*
X124600946Y-94020336D01*
X124603984Y-94040818D01*
X124605000Y-94061500D01*
X124605000Y-94533500D01*
X124603984Y-94554182D01*
X124600946Y-94574664D01*
X124595914Y-94594750D01*
X124588939Y-94614246D01*
X124580085Y-94632965D01*
X124569440Y-94650725D01*
X124557105Y-94667357D01*
X124543200Y-94682700D01*
X124527857Y-94696605D01*
X124511225Y-94708940D01*
X124493465Y-94719585D01*
X124474746Y-94728439D01*
X124455250Y-94735414D01*
X124435164Y-94740446D01*
X124414682Y-94743484D01*
X124394000Y-94744500D01*
X123972000Y-94744500D01*
X123951318Y-94743484D01*
X123930836Y-94740446D01*
X123910750Y-94735414D01*
X123891254Y-94728439D01*
X123872535Y-94719585D01*
X123854775Y-94708940D01*
X123838143Y-94696605D01*
X123822800Y-94682700D01*
X123808895Y-94667357D01*
X123796560Y-94650725D01*
X123785915Y-94632965D01*
X123777061Y-94614246D01*
X123770086Y-94594750D01*
X123765054Y-94574664D01*
X123762016Y-94554182D01*
X123761000Y-94533500D01*
X123761000Y-94061500D01*
X123762016Y-94040818D01*
X123765054Y-94020336D01*
X123770086Y-94000250D01*
X123777061Y-93980754D01*
X123785915Y-93962035D01*
X123796560Y-93944275D01*
X123808895Y-93927643D01*
X123822800Y-93912300D01*
X123838143Y-93898395D01*
X123854775Y-93886060D01*
X123872535Y-93875415D01*
X123891254Y-93866561D01*
X123910750Y-93859586D01*
X123930836Y-93854554D01*
X123951318Y-93851516D01*
X123972000Y-93850500D01*
X124394000Y-93850500D01*
X124414682Y-93851516D01*
G37*
G36*
X123444682Y-93851516D02*
G01*
X123465164Y-93854554D01*
X123485250Y-93859586D01*
X123504746Y-93866561D01*
X123523465Y-93875415D01*
X123541225Y-93886060D01*
X123557857Y-93898395D01*
X123573200Y-93912300D01*
X123587105Y-93927643D01*
X123599440Y-93944275D01*
X123610085Y-93962035D01*
X123618939Y-93980754D01*
X123625914Y-94000250D01*
X123630946Y-94020336D01*
X123633984Y-94040818D01*
X123635000Y-94061500D01*
X123635000Y-94533500D01*
X123633984Y-94554182D01*
X123630946Y-94574664D01*
X123625914Y-94594750D01*
X123618939Y-94614246D01*
X123610085Y-94632965D01*
X123599440Y-94650725D01*
X123587105Y-94667357D01*
X123573200Y-94682700D01*
X123557857Y-94696605D01*
X123541225Y-94708940D01*
X123523465Y-94719585D01*
X123504746Y-94728439D01*
X123485250Y-94735414D01*
X123465164Y-94740446D01*
X123444682Y-94743484D01*
X123424000Y-94744500D01*
X123002000Y-94744500D01*
X122981318Y-94743484D01*
X122960836Y-94740446D01*
X122940750Y-94735414D01*
X122921254Y-94728439D01*
X122902535Y-94719585D01*
X122884775Y-94708940D01*
X122868143Y-94696605D01*
X122852800Y-94682700D01*
X122838895Y-94667357D01*
X122826560Y-94650725D01*
X122815915Y-94632965D01*
X122807061Y-94614246D01*
X122800086Y-94594750D01*
X122795054Y-94574664D01*
X122792016Y-94554182D01*
X122791000Y-94533500D01*
X122791000Y-94061500D01*
X122792016Y-94040818D01*
X122795054Y-94020336D01*
X122800086Y-94000250D01*
X122807061Y-93980754D01*
X122815915Y-93962035D01*
X122826560Y-93944275D01*
X122838895Y-93927643D01*
X122852800Y-93912300D01*
X122868143Y-93898395D01*
X122884775Y-93886060D01*
X122902535Y-93875415D01*
X122921254Y-93866561D01*
X122940750Y-93859586D01*
X122960836Y-93854554D01*
X122981318Y-93851516D01*
X123002000Y-93850500D01*
X123424000Y-93850500D01*
X123444682Y-93851516D01*
G37*
D19*
X108862500Y-114885000D03*
X113362500Y-114885000D03*
D20*
X114617500Y-112395000D03*
X107607500Y-112395000D03*
X117157500Y-112381500D03*
X124167500Y-112381500D03*
D19*
X122912500Y-114871500D03*
X118412500Y-114871500D03*
X128064500Y-114885000D03*
X132564500Y-114885000D03*
D20*
X133819500Y-112395000D03*
X126809500Y-112395000D03*
M02*
