G04 #@! TF.GenerationSoftware,KiCad,Pcbnew,5.1.5-52549c5~84~ubuntu18.04.1*
G04 #@! TF.CreationDate,2020-04-23T07:07:29+01:00*
G04 #@! TF.ProjectId,amalthea_rev0,616d616c-7468-4656-915f-726576302e6b,rev?*
G04 #@! TF.SameCoordinates,Original*
G04 #@! TF.FileFunction,Paste,Bot*
G04 #@! TF.FilePolarity,Positive*
%FSLAX46Y46*%
G04 Gerber Fmt 4.6, Leading zero omitted, Abs format (unit mm)*
G04 Created by KiCad (PCBNEW 5.1.5-52549c5~84~ubuntu18.04.1) date 2020-04-23 07:07:29*
%MOMM*%
%LPD*%
G04 APERTURE LIST*
%ADD10C,0.100000*%
G04 APERTURE END LIST*
D10*
G36*
X118191958Y-71180710D02*
G01*
X118206276Y-71182834D01*
X118220317Y-71186351D01*
X118233946Y-71191228D01*
X118247031Y-71197417D01*
X118259447Y-71204858D01*
X118271073Y-71213481D01*
X118281798Y-71223202D01*
X118291519Y-71233927D01*
X118300142Y-71245553D01*
X118307583Y-71257969D01*
X118313772Y-71271054D01*
X118318649Y-71284683D01*
X118322166Y-71298724D01*
X118324290Y-71313042D01*
X118325000Y-71327500D01*
X118325000Y-71672500D01*
X118324290Y-71686958D01*
X118322166Y-71701276D01*
X118318649Y-71715317D01*
X118313772Y-71728946D01*
X118307583Y-71742031D01*
X118300142Y-71754447D01*
X118291519Y-71766073D01*
X118281798Y-71776798D01*
X118271073Y-71786519D01*
X118259447Y-71795142D01*
X118247031Y-71802583D01*
X118233946Y-71808772D01*
X118220317Y-71813649D01*
X118206276Y-71817166D01*
X118191958Y-71819290D01*
X118177500Y-71820000D01*
X117882500Y-71820000D01*
X117868042Y-71819290D01*
X117853724Y-71817166D01*
X117839683Y-71813649D01*
X117826054Y-71808772D01*
X117812969Y-71802583D01*
X117800553Y-71795142D01*
X117788927Y-71786519D01*
X117778202Y-71776798D01*
X117768481Y-71766073D01*
X117759858Y-71754447D01*
X117752417Y-71742031D01*
X117746228Y-71728946D01*
X117741351Y-71715317D01*
X117737834Y-71701276D01*
X117735710Y-71686958D01*
X117735000Y-71672500D01*
X117735000Y-71327500D01*
X117735710Y-71313042D01*
X117737834Y-71298724D01*
X117741351Y-71284683D01*
X117746228Y-71271054D01*
X117752417Y-71257969D01*
X117759858Y-71245553D01*
X117768481Y-71233927D01*
X117778202Y-71223202D01*
X117788927Y-71213481D01*
X117800553Y-71204858D01*
X117812969Y-71197417D01*
X117826054Y-71191228D01*
X117839683Y-71186351D01*
X117853724Y-71182834D01*
X117868042Y-71180710D01*
X117882500Y-71180000D01*
X118177500Y-71180000D01*
X118191958Y-71180710D01*
G37*
G36*
X119161958Y-71180710D02*
G01*
X119176276Y-71182834D01*
X119190317Y-71186351D01*
X119203946Y-71191228D01*
X119217031Y-71197417D01*
X119229447Y-71204858D01*
X119241073Y-71213481D01*
X119251798Y-71223202D01*
X119261519Y-71233927D01*
X119270142Y-71245553D01*
X119277583Y-71257969D01*
X119283772Y-71271054D01*
X119288649Y-71284683D01*
X119292166Y-71298724D01*
X119294290Y-71313042D01*
X119295000Y-71327500D01*
X119295000Y-71672500D01*
X119294290Y-71686958D01*
X119292166Y-71701276D01*
X119288649Y-71715317D01*
X119283772Y-71728946D01*
X119277583Y-71742031D01*
X119270142Y-71754447D01*
X119261519Y-71766073D01*
X119251798Y-71776798D01*
X119241073Y-71786519D01*
X119229447Y-71795142D01*
X119217031Y-71802583D01*
X119203946Y-71808772D01*
X119190317Y-71813649D01*
X119176276Y-71817166D01*
X119161958Y-71819290D01*
X119147500Y-71820000D01*
X118852500Y-71820000D01*
X118838042Y-71819290D01*
X118823724Y-71817166D01*
X118809683Y-71813649D01*
X118796054Y-71808772D01*
X118782969Y-71802583D01*
X118770553Y-71795142D01*
X118758927Y-71786519D01*
X118748202Y-71776798D01*
X118738481Y-71766073D01*
X118729858Y-71754447D01*
X118722417Y-71742031D01*
X118716228Y-71728946D01*
X118711351Y-71715317D01*
X118707834Y-71701276D01*
X118705710Y-71686958D01*
X118705000Y-71672500D01*
X118705000Y-71327500D01*
X118705710Y-71313042D01*
X118707834Y-71298724D01*
X118711351Y-71284683D01*
X118716228Y-71271054D01*
X118722417Y-71257969D01*
X118729858Y-71245553D01*
X118738481Y-71233927D01*
X118748202Y-71223202D01*
X118758927Y-71213481D01*
X118770553Y-71204858D01*
X118782969Y-71197417D01*
X118796054Y-71191228D01*
X118809683Y-71186351D01*
X118823724Y-71182834D01*
X118838042Y-71180710D01*
X118852500Y-71180000D01*
X119147500Y-71180000D01*
X119161958Y-71180710D01*
G37*
G36*
X105911958Y-71230710D02*
G01*
X105926276Y-71232834D01*
X105940317Y-71236351D01*
X105953946Y-71241228D01*
X105967031Y-71247417D01*
X105979447Y-71254858D01*
X105991073Y-71263481D01*
X106001798Y-71273202D01*
X106011519Y-71283927D01*
X106020142Y-71295553D01*
X106027583Y-71307969D01*
X106033772Y-71321054D01*
X106038649Y-71334683D01*
X106042166Y-71348724D01*
X106044290Y-71363042D01*
X106045000Y-71377500D01*
X106045000Y-71722500D01*
X106044290Y-71736958D01*
X106042166Y-71751276D01*
X106038649Y-71765317D01*
X106033772Y-71778946D01*
X106027583Y-71792031D01*
X106020142Y-71804447D01*
X106011519Y-71816073D01*
X106001798Y-71826798D01*
X105991073Y-71836519D01*
X105979447Y-71845142D01*
X105967031Y-71852583D01*
X105953946Y-71858772D01*
X105940317Y-71863649D01*
X105926276Y-71867166D01*
X105911958Y-71869290D01*
X105897500Y-71870000D01*
X105602500Y-71870000D01*
X105588042Y-71869290D01*
X105573724Y-71867166D01*
X105559683Y-71863649D01*
X105546054Y-71858772D01*
X105532969Y-71852583D01*
X105520553Y-71845142D01*
X105508927Y-71836519D01*
X105498202Y-71826798D01*
X105488481Y-71816073D01*
X105479858Y-71804447D01*
X105472417Y-71792031D01*
X105466228Y-71778946D01*
X105461351Y-71765317D01*
X105457834Y-71751276D01*
X105455710Y-71736958D01*
X105455000Y-71722500D01*
X105455000Y-71377500D01*
X105455710Y-71363042D01*
X105457834Y-71348724D01*
X105461351Y-71334683D01*
X105466228Y-71321054D01*
X105472417Y-71307969D01*
X105479858Y-71295553D01*
X105488481Y-71283927D01*
X105498202Y-71273202D01*
X105508927Y-71263481D01*
X105520553Y-71254858D01*
X105532969Y-71247417D01*
X105546054Y-71241228D01*
X105559683Y-71236351D01*
X105573724Y-71232834D01*
X105588042Y-71230710D01*
X105602500Y-71230000D01*
X105897500Y-71230000D01*
X105911958Y-71230710D01*
G37*
G36*
X104941958Y-71230710D02*
G01*
X104956276Y-71232834D01*
X104970317Y-71236351D01*
X104983946Y-71241228D01*
X104997031Y-71247417D01*
X105009447Y-71254858D01*
X105021073Y-71263481D01*
X105031798Y-71273202D01*
X105041519Y-71283927D01*
X105050142Y-71295553D01*
X105057583Y-71307969D01*
X105063772Y-71321054D01*
X105068649Y-71334683D01*
X105072166Y-71348724D01*
X105074290Y-71363042D01*
X105075000Y-71377500D01*
X105075000Y-71722500D01*
X105074290Y-71736958D01*
X105072166Y-71751276D01*
X105068649Y-71765317D01*
X105063772Y-71778946D01*
X105057583Y-71792031D01*
X105050142Y-71804447D01*
X105041519Y-71816073D01*
X105031798Y-71826798D01*
X105021073Y-71836519D01*
X105009447Y-71845142D01*
X104997031Y-71852583D01*
X104983946Y-71858772D01*
X104970317Y-71863649D01*
X104956276Y-71867166D01*
X104941958Y-71869290D01*
X104927500Y-71870000D01*
X104632500Y-71870000D01*
X104618042Y-71869290D01*
X104603724Y-71867166D01*
X104589683Y-71863649D01*
X104576054Y-71858772D01*
X104562969Y-71852583D01*
X104550553Y-71845142D01*
X104538927Y-71836519D01*
X104528202Y-71826798D01*
X104518481Y-71816073D01*
X104509858Y-71804447D01*
X104502417Y-71792031D01*
X104496228Y-71778946D01*
X104491351Y-71765317D01*
X104487834Y-71751276D01*
X104485710Y-71736958D01*
X104485000Y-71722500D01*
X104485000Y-71377500D01*
X104485710Y-71363042D01*
X104487834Y-71348724D01*
X104491351Y-71334683D01*
X104496228Y-71321054D01*
X104502417Y-71307969D01*
X104509858Y-71295553D01*
X104518481Y-71283927D01*
X104528202Y-71273202D01*
X104538927Y-71263481D01*
X104550553Y-71254858D01*
X104562969Y-71247417D01*
X104576054Y-71241228D01*
X104589683Y-71236351D01*
X104603724Y-71232834D01*
X104618042Y-71230710D01*
X104632500Y-71230000D01*
X104927500Y-71230000D01*
X104941958Y-71230710D01*
G37*
G36*
X121831958Y-71230710D02*
G01*
X121846276Y-71232834D01*
X121860317Y-71236351D01*
X121873946Y-71241228D01*
X121887031Y-71247417D01*
X121899447Y-71254858D01*
X121911073Y-71263481D01*
X121921798Y-71273202D01*
X121931519Y-71283927D01*
X121940142Y-71295553D01*
X121947583Y-71307969D01*
X121953772Y-71321054D01*
X121958649Y-71334683D01*
X121962166Y-71348724D01*
X121964290Y-71363042D01*
X121965000Y-71377500D01*
X121965000Y-71722500D01*
X121964290Y-71736958D01*
X121962166Y-71751276D01*
X121958649Y-71765317D01*
X121953772Y-71778946D01*
X121947583Y-71792031D01*
X121940142Y-71804447D01*
X121931519Y-71816073D01*
X121921798Y-71826798D01*
X121911073Y-71836519D01*
X121899447Y-71845142D01*
X121887031Y-71852583D01*
X121873946Y-71858772D01*
X121860317Y-71863649D01*
X121846276Y-71867166D01*
X121831958Y-71869290D01*
X121817500Y-71870000D01*
X121522500Y-71870000D01*
X121508042Y-71869290D01*
X121493724Y-71867166D01*
X121479683Y-71863649D01*
X121466054Y-71858772D01*
X121452969Y-71852583D01*
X121440553Y-71845142D01*
X121428927Y-71836519D01*
X121418202Y-71826798D01*
X121408481Y-71816073D01*
X121399858Y-71804447D01*
X121392417Y-71792031D01*
X121386228Y-71778946D01*
X121381351Y-71765317D01*
X121377834Y-71751276D01*
X121375710Y-71736958D01*
X121375000Y-71722500D01*
X121375000Y-71377500D01*
X121375710Y-71363042D01*
X121377834Y-71348724D01*
X121381351Y-71334683D01*
X121386228Y-71321054D01*
X121392417Y-71307969D01*
X121399858Y-71295553D01*
X121408481Y-71283927D01*
X121418202Y-71273202D01*
X121428927Y-71263481D01*
X121440553Y-71254858D01*
X121452969Y-71247417D01*
X121466054Y-71241228D01*
X121479683Y-71236351D01*
X121493724Y-71232834D01*
X121508042Y-71230710D01*
X121522500Y-71230000D01*
X121817500Y-71230000D01*
X121831958Y-71230710D01*
G37*
G36*
X120861958Y-71230710D02*
G01*
X120876276Y-71232834D01*
X120890317Y-71236351D01*
X120903946Y-71241228D01*
X120917031Y-71247417D01*
X120929447Y-71254858D01*
X120941073Y-71263481D01*
X120951798Y-71273202D01*
X120961519Y-71283927D01*
X120970142Y-71295553D01*
X120977583Y-71307969D01*
X120983772Y-71321054D01*
X120988649Y-71334683D01*
X120992166Y-71348724D01*
X120994290Y-71363042D01*
X120995000Y-71377500D01*
X120995000Y-71722500D01*
X120994290Y-71736958D01*
X120992166Y-71751276D01*
X120988649Y-71765317D01*
X120983772Y-71778946D01*
X120977583Y-71792031D01*
X120970142Y-71804447D01*
X120961519Y-71816073D01*
X120951798Y-71826798D01*
X120941073Y-71836519D01*
X120929447Y-71845142D01*
X120917031Y-71852583D01*
X120903946Y-71858772D01*
X120890317Y-71863649D01*
X120876276Y-71867166D01*
X120861958Y-71869290D01*
X120847500Y-71870000D01*
X120552500Y-71870000D01*
X120538042Y-71869290D01*
X120523724Y-71867166D01*
X120509683Y-71863649D01*
X120496054Y-71858772D01*
X120482969Y-71852583D01*
X120470553Y-71845142D01*
X120458927Y-71836519D01*
X120448202Y-71826798D01*
X120438481Y-71816073D01*
X120429858Y-71804447D01*
X120422417Y-71792031D01*
X120416228Y-71778946D01*
X120411351Y-71765317D01*
X120407834Y-71751276D01*
X120405710Y-71736958D01*
X120405000Y-71722500D01*
X120405000Y-71377500D01*
X120405710Y-71363042D01*
X120407834Y-71348724D01*
X120411351Y-71334683D01*
X120416228Y-71321054D01*
X120422417Y-71307969D01*
X120429858Y-71295553D01*
X120438481Y-71283927D01*
X120448202Y-71273202D01*
X120458927Y-71263481D01*
X120470553Y-71254858D01*
X120482969Y-71247417D01*
X120496054Y-71241228D01*
X120509683Y-71236351D01*
X120523724Y-71232834D01*
X120538042Y-71230710D01*
X120552500Y-71230000D01*
X120847500Y-71230000D01*
X120861958Y-71230710D01*
G37*
G36*
X102341958Y-71230710D02*
G01*
X102356276Y-71232834D01*
X102370317Y-71236351D01*
X102383946Y-71241228D01*
X102397031Y-71247417D01*
X102409447Y-71254858D01*
X102421073Y-71263481D01*
X102431798Y-71273202D01*
X102441519Y-71283927D01*
X102450142Y-71295553D01*
X102457583Y-71307969D01*
X102463772Y-71321054D01*
X102468649Y-71334683D01*
X102472166Y-71348724D01*
X102474290Y-71363042D01*
X102475000Y-71377500D01*
X102475000Y-71722500D01*
X102474290Y-71736958D01*
X102472166Y-71751276D01*
X102468649Y-71765317D01*
X102463772Y-71778946D01*
X102457583Y-71792031D01*
X102450142Y-71804447D01*
X102441519Y-71816073D01*
X102431798Y-71826798D01*
X102421073Y-71836519D01*
X102409447Y-71845142D01*
X102397031Y-71852583D01*
X102383946Y-71858772D01*
X102370317Y-71863649D01*
X102356276Y-71867166D01*
X102341958Y-71869290D01*
X102327500Y-71870000D01*
X102032500Y-71870000D01*
X102018042Y-71869290D01*
X102003724Y-71867166D01*
X101989683Y-71863649D01*
X101976054Y-71858772D01*
X101962969Y-71852583D01*
X101950553Y-71845142D01*
X101938927Y-71836519D01*
X101928202Y-71826798D01*
X101918481Y-71816073D01*
X101909858Y-71804447D01*
X101902417Y-71792031D01*
X101896228Y-71778946D01*
X101891351Y-71765317D01*
X101887834Y-71751276D01*
X101885710Y-71736958D01*
X101885000Y-71722500D01*
X101885000Y-71377500D01*
X101885710Y-71363042D01*
X101887834Y-71348724D01*
X101891351Y-71334683D01*
X101896228Y-71321054D01*
X101902417Y-71307969D01*
X101909858Y-71295553D01*
X101918481Y-71283927D01*
X101928202Y-71273202D01*
X101938927Y-71263481D01*
X101950553Y-71254858D01*
X101962969Y-71247417D01*
X101976054Y-71241228D01*
X101989683Y-71236351D01*
X102003724Y-71232834D01*
X102018042Y-71230710D01*
X102032500Y-71230000D01*
X102327500Y-71230000D01*
X102341958Y-71230710D01*
G37*
G36*
X103311958Y-71230710D02*
G01*
X103326276Y-71232834D01*
X103340317Y-71236351D01*
X103353946Y-71241228D01*
X103367031Y-71247417D01*
X103379447Y-71254858D01*
X103391073Y-71263481D01*
X103401798Y-71273202D01*
X103411519Y-71283927D01*
X103420142Y-71295553D01*
X103427583Y-71307969D01*
X103433772Y-71321054D01*
X103438649Y-71334683D01*
X103442166Y-71348724D01*
X103444290Y-71363042D01*
X103445000Y-71377500D01*
X103445000Y-71722500D01*
X103444290Y-71736958D01*
X103442166Y-71751276D01*
X103438649Y-71765317D01*
X103433772Y-71778946D01*
X103427583Y-71792031D01*
X103420142Y-71804447D01*
X103411519Y-71816073D01*
X103401798Y-71826798D01*
X103391073Y-71836519D01*
X103379447Y-71845142D01*
X103367031Y-71852583D01*
X103353946Y-71858772D01*
X103340317Y-71863649D01*
X103326276Y-71867166D01*
X103311958Y-71869290D01*
X103297500Y-71870000D01*
X103002500Y-71870000D01*
X102988042Y-71869290D01*
X102973724Y-71867166D01*
X102959683Y-71863649D01*
X102946054Y-71858772D01*
X102932969Y-71852583D01*
X102920553Y-71845142D01*
X102908927Y-71836519D01*
X102898202Y-71826798D01*
X102888481Y-71816073D01*
X102879858Y-71804447D01*
X102872417Y-71792031D01*
X102866228Y-71778946D01*
X102861351Y-71765317D01*
X102857834Y-71751276D01*
X102855710Y-71736958D01*
X102855000Y-71722500D01*
X102855000Y-71377500D01*
X102855710Y-71363042D01*
X102857834Y-71348724D01*
X102861351Y-71334683D01*
X102866228Y-71321054D01*
X102872417Y-71307969D01*
X102879858Y-71295553D01*
X102888481Y-71283927D01*
X102898202Y-71273202D01*
X102908927Y-71263481D01*
X102920553Y-71254858D01*
X102932969Y-71247417D01*
X102946054Y-71241228D01*
X102959683Y-71236351D01*
X102973724Y-71232834D01*
X102988042Y-71230710D01*
X103002500Y-71230000D01*
X103297500Y-71230000D01*
X103311958Y-71230710D01*
G37*
G36*
X125541958Y-80980710D02*
G01*
X125556276Y-80982834D01*
X125570317Y-80986351D01*
X125583946Y-80991228D01*
X125597031Y-80997417D01*
X125609447Y-81004858D01*
X125621073Y-81013481D01*
X125631798Y-81023202D01*
X125641519Y-81033927D01*
X125650142Y-81045553D01*
X125657583Y-81057969D01*
X125663772Y-81071054D01*
X125668649Y-81084683D01*
X125672166Y-81098724D01*
X125674290Y-81113042D01*
X125675000Y-81127500D01*
X125675000Y-81472500D01*
X125674290Y-81486958D01*
X125672166Y-81501276D01*
X125668649Y-81515317D01*
X125663772Y-81528946D01*
X125657583Y-81542031D01*
X125650142Y-81554447D01*
X125641519Y-81566073D01*
X125631798Y-81576798D01*
X125621073Y-81586519D01*
X125609447Y-81595142D01*
X125597031Y-81602583D01*
X125583946Y-81608772D01*
X125570317Y-81613649D01*
X125556276Y-81617166D01*
X125541958Y-81619290D01*
X125527500Y-81620000D01*
X125232500Y-81620000D01*
X125218042Y-81619290D01*
X125203724Y-81617166D01*
X125189683Y-81613649D01*
X125176054Y-81608772D01*
X125162969Y-81602583D01*
X125150553Y-81595142D01*
X125138927Y-81586519D01*
X125128202Y-81576798D01*
X125118481Y-81566073D01*
X125109858Y-81554447D01*
X125102417Y-81542031D01*
X125096228Y-81528946D01*
X125091351Y-81515317D01*
X125087834Y-81501276D01*
X125085710Y-81486958D01*
X125085000Y-81472500D01*
X125085000Y-81127500D01*
X125085710Y-81113042D01*
X125087834Y-81098724D01*
X125091351Y-81084683D01*
X125096228Y-81071054D01*
X125102417Y-81057969D01*
X125109858Y-81045553D01*
X125118481Y-81033927D01*
X125128202Y-81023202D01*
X125138927Y-81013481D01*
X125150553Y-81004858D01*
X125162969Y-80997417D01*
X125176054Y-80991228D01*
X125189683Y-80986351D01*
X125203724Y-80982834D01*
X125218042Y-80980710D01*
X125232500Y-80980000D01*
X125527500Y-80980000D01*
X125541958Y-80980710D01*
G37*
G36*
X126511958Y-80980710D02*
G01*
X126526276Y-80982834D01*
X126540317Y-80986351D01*
X126553946Y-80991228D01*
X126567031Y-80997417D01*
X126579447Y-81004858D01*
X126591073Y-81013481D01*
X126601798Y-81023202D01*
X126611519Y-81033927D01*
X126620142Y-81045553D01*
X126627583Y-81057969D01*
X126633772Y-81071054D01*
X126638649Y-81084683D01*
X126642166Y-81098724D01*
X126644290Y-81113042D01*
X126645000Y-81127500D01*
X126645000Y-81472500D01*
X126644290Y-81486958D01*
X126642166Y-81501276D01*
X126638649Y-81515317D01*
X126633772Y-81528946D01*
X126627583Y-81542031D01*
X126620142Y-81554447D01*
X126611519Y-81566073D01*
X126601798Y-81576798D01*
X126591073Y-81586519D01*
X126579447Y-81595142D01*
X126567031Y-81602583D01*
X126553946Y-81608772D01*
X126540317Y-81613649D01*
X126526276Y-81617166D01*
X126511958Y-81619290D01*
X126497500Y-81620000D01*
X126202500Y-81620000D01*
X126188042Y-81619290D01*
X126173724Y-81617166D01*
X126159683Y-81613649D01*
X126146054Y-81608772D01*
X126132969Y-81602583D01*
X126120553Y-81595142D01*
X126108927Y-81586519D01*
X126098202Y-81576798D01*
X126088481Y-81566073D01*
X126079858Y-81554447D01*
X126072417Y-81542031D01*
X126066228Y-81528946D01*
X126061351Y-81515317D01*
X126057834Y-81501276D01*
X126055710Y-81486958D01*
X126055000Y-81472500D01*
X126055000Y-81127500D01*
X126055710Y-81113042D01*
X126057834Y-81098724D01*
X126061351Y-81084683D01*
X126066228Y-81071054D01*
X126072417Y-81057969D01*
X126079858Y-81045553D01*
X126088481Y-81033927D01*
X126098202Y-81023202D01*
X126108927Y-81013481D01*
X126120553Y-81004858D01*
X126132969Y-80997417D01*
X126146054Y-80991228D01*
X126159683Y-80986351D01*
X126173724Y-80982834D01*
X126188042Y-80980710D01*
X126202500Y-80980000D01*
X126497500Y-80980000D01*
X126511958Y-80980710D01*
G37*
G36*
X114069691Y-80742053D02*
G01*
X114090926Y-80745203D01*
X114111750Y-80750419D01*
X114131962Y-80757651D01*
X114151368Y-80766830D01*
X114169781Y-80777866D01*
X114187024Y-80790654D01*
X114202930Y-80805070D01*
X114217346Y-80820976D01*
X114230134Y-80838219D01*
X114241170Y-80856632D01*
X114250349Y-80876038D01*
X114257581Y-80896250D01*
X114262797Y-80917074D01*
X114265947Y-80938309D01*
X114267000Y-80959750D01*
X114267000Y-81397250D01*
X114265947Y-81418691D01*
X114262797Y-81439926D01*
X114257581Y-81460750D01*
X114250349Y-81480962D01*
X114241170Y-81500368D01*
X114230134Y-81518781D01*
X114217346Y-81536024D01*
X114202930Y-81551930D01*
X114187024Y-81566346D01*
X114169781Y-81579134D01*
X114151368Y-81590170D01*
X114131962Y-81599349D01*
X114111750Y-81606581D01*
X114090926Y-81611797D01*
X114069691Y-81614947D01*
X114048250Y-81616000D01*
X113535750Y-81616000D01*
X113514309Y-81614947D01*
X113493074Y-81611797D01*
X113472250Y-81606581D01*
X113452038Y-81599349D01*
X113432632Y-81590170D01*
X113414219Y-81579134D01*
X113396976Y-81566346D01*
X113381070Y-81551930D01*
X113366654Y-81536024D01*
X113353866Y-81518781D01*
X113342830Y-81500368D01*
X113333651Y-81480962D01*
X113326419Y-81460750D01*
X113321203Y-81439926D01*
X113318053Y-81418691D01*
X113317000Y-81397250D01*
X113317000Y-80959750D01*
X113318053Y-80938309D01*
X113321203Y-80917074D01*
X113326419Y-80896250D01*
X113333651Y-80876038D01*
X113342830Y-80856632D01*
X113353866Y-80838219D01*
X113366654Y-80820976D01*
X113381070Y-80805070D01*
X113396976Y-80790654D01*
X113414219Y-80777866D01*
X113432632Y-80766830D01*
X113452038Y-80757651D01*
X113472250Y-80750419D01*
X113493074Y-80745203D01*
X113514309Y-80742053D01*
X113535750Y-80741000D01*
X114048250Y-80741000D01*
X114069691Y-80742053D01*
G37*
G36*
X114069691Y-79167053D02*
G01*
X114090926Y-79170203D01*
X114111750Y-79175419D01*
X114131962Y-79182651D01*
X114151368Y-79191830D01*
X114169781Y-79202866D01*
X114187024Y-79215654D01*
X114202930Y-79230070D01*
X114217346Y-79245976D01*
X114230134Y-79263219D01*
X114241170Y-79281632D01*
X114250349Y-79301038D01*
X114257581Y-79321250D01*
X114262797Y-79342074D01*
X114265947Y-79363309D01*
X114267000Y-79384750D01*
X114267000Y-79822250D01*
X114265947Y-79843691D01*
X114262797Y-79864926D01*
X114257581Y-79885750D01*
X114250349Y-79905962D01*
X114241170Y-79925368D01*
X114230134Y-79943781D01*
X114217346Y-79961024D01*
X114202930Y-79976930D01*
X114187024Y-79991346D01*
X114169781Y-80004134D01*
X114151368Y-80015170D01*
X114131962Y-80024349D01*
X114111750Y-80031581D01*
X114090926Y-80036797D01*
X114069691Y-80039947D01*
X114048250Y-80041000D01*
X113535750Y-80041000D01*
X113514309Y-80039947D01*
X113493074Y-80036797D01*
X113472250Y-80031581D01*
X113452038Y-80024349D01*
X113432632Y-80015170D01*
X113414219Y-80004134D01*
X113396976Y-79991346D01*
X113381070Y-79976930D01*
X113366654Y-79961024D01*
X113353866Y-79943781D01*
X113342830Y-79925368D01*
X113333651Y-79905962D01*
X113326419Y-79885750D01*
X113321203Y-79864926D01*
X113318053Y-79843691D01*
X113317000Y-79822250D01*
X113317000Y-79384750D01*
X113318053Y-79363309D01*
X113321203Y-79342074D01*
X113326419Y-79321250D01*
X113333651Y-79301038D01*
X113342830Y-79281632D01*
X113353866Y-79263219D01*
X113366654Y-79245976D01*
X113381070Y-79230070D01*
X113396976Y-79215654D01*
X113414219Y-79202866D01*
X113432632Y-79191830D01*
X113452038Y-79182651D01*
X113472250Y-79175419D01*
X113493074Y-79170203D01*
X113514309Y-79167053D01*
X113535750Y-79166000D01*
X114048250Y-79166000D01*
X114069691Y-79167053D01*
G37*
G36*
X108507091Y-91435453D02*
G01*
X108528326Y-91438603D01*
X108549150Y-91443819D01*
X108569362Y-91451051D01*
X108588768Y-91460230D01*
X108607181Y-91471266D01*
X108624424Y-91484054D01*
X108640330Y-91498470D01*
X108654746Y-91514376D01*
X108667534Y-91531619D01*
X108678570Y-91550032D01*
X108687749Y-91569438D01*
X108694981Y-91589650D01*
X108700197Y-91610474D01*
X108703347Y-91631709D01*
X108704400Y-91653150D01*
X108704400Y-92090650D01*
X108703347Y-92112091D01*
X108700197Y-92133326D01*
X108694981Y-92154150D01*
X108687749Y-92174362D01*
X108678570Y-92193768D01*
X108667534Y-92212181D01*
X108654746Y-92229424D01*
X108640330Y-92245330D01*
X108624424Y-92259746D01*
X108607181Y-92272534D01*
X108588768Y-92283570D01*
X108569362Y-92292749D01*
X108549150Y-92299981D01*
X108528326Y-92305197D01*
X108507091Y-92308347D01*
X108485650Y-92309400D01*
X107973150Y-92309400D01*
X107951709Y-92308347D01*
X107930474Y-92305197D01*
X107909650Y-92299981D01*
X107889438Y-92292749D01*
X107870032Y-92283570D01*
X107851619Y-92272534D01*
X107834376Y-92259746D01*
X107818470Y-92245330D01*
X107804054Y-92229424D01*
X107791266Y-92212181D01*
X107780230Y-92193768D01*
X107771051Y-92174362D01*
X107763819Y-92154150D01*
X107758603Y-92133326D01*
X107755453Y-92112091D01*
X107754400Y-92090650D01*
X107754400Y-91653150D01*
X107755453Y-91631709D01*
X107758603Y-91610474D01*
X107763819Y-91589650D01*
X107771051Y-91569438D01*
X107780230Y-91550032D01*
X107791266Y-91531619D01*
X107804054Y-91514376D01*
X107818470Y-91498470D01*
X107834376Y-91484054D01*
X107851619Y-91471266D01*
X107870032Y-91460230D01*
X107889438Y-91451051D01*
X107909650Y-91443819D01*
X107930474Y-91438603D01*
X107951709Y-91435453D01*
X107973150Y-91434400D01*
X108485650Y-91434400D01*
X108507091Y-91435453D01*
G37*
G36*
X108507091Y-89860453D02*
G01*
X108528326Y-89863603D01*
X108549150Y-89868819D01*
X108569362Y-89876051D01*
X108588768Y-89885230D01*
X108607181Y-89896266D01*
X108624424Y-89909054D01*
X108640330Y-89923470D01*
X108654746Y-89939376D01*
X108667534Y-89956619D01*
X108678570Y-89975032D01*
X108687749Y-89994438D01*
X108694981Y-90014650D01*
X108700197Y-90035474D01*
X108703347Y-90056709D01*
X108704400Y-90078150D01*
X108704400Y-90515650D01*
X108703347Y-90537091D01*
X108700197Y-90558326D01*
X108694981Y-90579150D01*
X108687749Y-90599362D01*
X108678570Y-90618768D01*
X108667534Y-90637181D01*
X108654746Y-90654424D01*
X108640330Y-90670330D01*
X108624424Y-90684746D01*
X108607181Y-90697534D01*
X108588768Y-90708570D01*
X108569362Y-90717749D01*
X108549150Y-90724981D01*
X108528326Y-90730197D01*
X108507091Y-90733347D01*
X108485650Y-90734400D01*
X107973150Y-90734400D01*
X107951709Y-90733347D01*
X107930474Y-90730197D01*
X107909650Y-90724981D01*
X107889438Y-90717749D01*
X107870032Y-90708570D01*
X107851619Y-90697534D01*
X107834376Y-90684746D01*
X107818470Y-90670330D01*
X107804054Y-90654424D01*
X107791266Y-90637181D01*
X107780230Y-90618768D01*
X107771051Y-90599362D01*
X107763819Y-90579150D01*
X107758603Y-90558326D01*
X107755453Y-90537091D01*
X107754400Y-90515650D01*
X107754400Y-90078150D01*
X107755453Y-90056709D01*
X107758603Y-90035474D01*
X107763819Y-90014650D01*
X107771051Y-89994438D01*
X107780230Y-89975032D01*
X107791266Y-89956619D01*
X107804054Y-89939376D01*
X107818470Y-89923470D01*
X107834376Y-89909054D01*
X107851619Y-89896266D01*
X107870032Y-89885230D01*
X107889438Y-89876051D01*
X107909650Y-89868819D01*
X107930474Y-89863603D01*
X107951709Y-89860453D01*
X107973150Y-89859400D01*
X108485650Y-89859400D01*
X108507091Y-89860453D01*
G37*
G36*
X99808191Y-74710053D02*
G01*
X99829426Y-74713203D01*
X99850250Y-74718419D01*
X99870462Y-74725651D01*
X99889868Y-74734830D01*
X99908281Y-74745866D01*
X99925524Y-74758654D01*
X99941430Y-74773070D01*
X99955846Y-74788976D01*
X99968634Y-74806219D01*
X99979670Y-74824632D01*
X99988849Y-74844038D01*
X99996081Y-74864250D01*
X100001297Y-74885074D01*
X100004447Y-74906309D01*
X100005500Y-74927750D01*
X100005500Y-75440250D01*
X100004447Y-75461691D01*
X100001297Y-75482926D01*
X99996081Y-75503750D01*
X99988849Y-75523962D01*
X99979670Y-75543368D01*
X99968634Y-75561781D01*
X99955846Y-75579024D01*
X99941430Y-75594930D01*
X99925524Y-75609346D01*
X99908281Y-75622134D01*
X99889868Y-75633170D01*
X99870462Y-75642349D01*
X99850250Y-75649581D01*
X99829426Y-75654797D01*
X99808191Y-75657947D01*
X99786750Y-75659000D01*
X99349250Y-75659000D01*
X99327809Y-75657947D01*
X99306574Y-75654797D01*
X99285750Y-75649581D01*
X99265538Y-75642349D01*
X99246132Y-75633170D01*
X99227719Y-75622134D01*
X99210476Y-75609346D01*
X99194570Y-75594930D01*
X99180154Y-75579024D01*
X99167366Y-75561781D01*
X99156330Y-75543368D01*
X99147151Y-75523962D01*
X99139919Y-75503750D01*
X99134703Y-75482926D01*
X99131553Y-75461691D01*
X99130500Y-75440250D01*
X99130500Y-74927750D01*
X99131553Y-74906309D01*
X99134703Y-74885074D01*
X99139919Y-74864250D01*
X99147151Y-74844038D01*
X99156330Y-74824632D01*
X99167366Y-74806219D01*
X99180154Y-74788976D01*
X99194570Y-74773070D01*
X99210476Y-74758654D01*
X99227719Y-74745866D01*
X99246132Y-74734830D01*
X99265538Y-74725651D01*
X99285750Y-74718419D01*
X99306574Y-74713203D01*
X99327809Y-74710053D01*
X99349250Y-74709000D01*
X99786750Y-74709000D01*
X99808191Y-74710053D01*
G37*
G36*
X98233191Y-74710053D02*
G01*
X98254426Y-74713203D01*
X98275250Y-74718419D01*
X98295462Y-74725651D01*
X98314868Y-74734830D01*
X98333281Y-74745866D01*
X98350524Y-74758654D01*
X98366430Y-74773070D01*
X98380846Y-74788976D01*
X98393634Y-74806219D01*
X98404670Y-74824632D01*
X98413849Y-74844038D01*
X98421081Y-74864250D01*
X98426297Y-74885074D01*
X98429447Y-74906309D01*
X98430500Y-74927750D01*
X98430500Y-75440250D01*
X98429447Y-75461691D01*
X98426297Y-75482926D01*
X98421081Y-75503750D01*
X98413849Y-75523962D01*
X98404670Y-75543368D01*
X98393634Y-75561781D01*
X98380846Y-75579024D01*
X98366430Y-75594930D01*
X98350524Y-75609346D01*
X98333281Y-75622134D01*
X98314868Y-75633170D01*
X98295462Y-75642349D01*
X98275250Y-75649581D01*
X98254426Y-75654797D01*
X98233191Y-75657947D01*
X98211750Y-75659000D01*
X97774250Y-75659000D01*
X97752809Y-75657947D01*
X97731574Y-75654797D01*
X97710750Y-75649581D01*
X97690538Y-75642349D01*
X97671132Y-75633170D01*
X97652719Y-75622134D01*
X97635476Y-75609346D01*
X97619570Y-75594930D01*
X97605154Y-75579024D01*
X97592366Y-75561781D01*
X97581330Y-75543368D01*
X97572151Y-75523962D01*
X97564919Y-75503750D01*
X97559703Y-75482926D01*
X97556553Y-75461691D01*
X97555500Y-75440250D01*
X97555500Y-74927750D01*
X97556553Y-74906309D01*
X97559703Y-74885074D01*
X97564919Y-74864250D01*
X97572151Y-74844038D01*
X97581330Y-74824632D01*
X97592366Y-74806219D01*
X97605154Y-74788976D01*
X97619570Y-74773070D01*
X97635476Y-74758654D01*
X97652719Y-74745866D01*
X97671132Y-74734830D01*
X97690538Y-74725651D01*
X97710750Y-74718419D01*
X97731574Y-74713203D01*
X97752809Y-74710053D01*
X97774250Y-74709000D01*
X98211750Y-74709000D01*
X98233191Y-74710053D01*
G37*
G36*
X113196958Y-87880710D02*
G01*
X113211276Y-87882834D01*
X113225317Y-87886351D01*
X113238946Y-87891228D01*
X113252031Y-87897417D01*
X113264447Y-87904858D01*
X113276073Y-87913481D01*
X113286798Y-87923202D01*
X113296519Y-87933927D01*
X113305142Y-87945553D01*
X113312583Y-87957969D01*
X113318772Y-87971054D01*
X113323649Y-87984683D01*
X113327166Y-87998724D01*
X113329290Y-88013042D01*
X113330000Y-88027500D01*
X113330000Y-88372500D01*
X113329290Y-88386958D01*
X113327166Y-88401276D01*
X113323649Y-88415317D01*
X113318772Y-88428946D01*
X113312583Y-88442031D01*
X113305142Y-88454447D01*
X113296519Y-88466073D01*
X113286798Y-88476798D01*
X113276073Y-88486519D01*
X113264447Y-88495142D01*
X113252031Y-88502583D01*
X113238946Y-88508772D01*
X113225317Y-88513649D01*
X113211276Y-88517166D01*
X113196958Y-88519290D01*
X113182500Y-88520000D01*
X112887500Y-88520000D01*
X112873042Y-88519290D01*
X112858724Y-88517166D01*
X112844683Y-88513649D01*
X112831054Y-88508772D01*
X112817969Y-88502583D01*
X112805553Y-88495142D01*
X112793927Y-88486519D01*
X112783202Y-88476798D01*
X112773481Y-88466073D01*
X112764858Y-88454447D01*
X112757417Y-88442031D01*
X112751228Y-88428946D01*
X112746351Y-88415317D01*
X112742834Y-88401276D01*
X112740710Y-88386958D01*
X112740000Y-88372500D01*
X112740000Y-88027500D01*
X112740710Y-88013042D01*
X112742834Y-87998724D01*
X112746351Y-87984683D01*
X112751228Y-87971054D01*
X112757417Y-87957969D01*
X112764858Y-87945553D01*
X112773481Y-87933927D01*
X112783202Y-87923202D01*
X112793927Y-87913481D01*
X112805553Y-87904858D01*
X112817969Y-87897417D01*
X112831054Y-87891228D01*
X112844683Y-87886351D01*
X112858724Y-87882834D01*
X112873042Y-87880710D01*
X112887500Y-87880000D01*
X113182500Y-87880000D01*
X113196958Y-87880710D01*
G37*
G36*
X112226958Y-87880710D02*
G01*
X112241276Y-87882834D01*
X112255317Y-87886351D01*
X112268946Y-87891228D01*
X112282031Y-87897417D01*
X112294447Y-87904858D01*
X112306073Y-87913481D01*
X112316798Y-87923202D01*
X112326519Y-87933927D01*
X112335142Y-87945553D01*
X112342583Y-87957969D01*
X112348772Y-87971054D01*
X112353649Y-87984683D01*
X112357166Y-87998724D01*
X112359290Y-88013042D01*
X112360000Y-88027500D01*
X112360000Y-88372500D01*
X112359290Y-88386958D01*
X112357166Y-88401276D01*
X112353649Y-88415317D01*
X112348772Y-88428946D01*
X112342583Y-88442031D01*
X112335142Y-88454447D01*
X112326519Y-88466073D01*
X112316798Y-88476798D01*
X112306073Y-88486519D01*
X112294447Y-88495142D01*
X112282031Y-88502583D01*
X112268946Y-88508772D01*
X112255317Y-88513649D01*
X112241276Y-88517166D01*
X112226958Y-88519290D01*
X112212500Y-88520000D01*
X111917500Y-88520000D01*
X111903042Y-88519290D01*
X111888724Y-88517166D01*
X111874683Y-88513649D01*
X111861054Y-88508772D01*
X111847969Y-88502583D01*
X111835553Y-88495142D01*
X111823927Y-88486519D01*
X111813202Y-88476798D01*
X111803481Y-88466073D01*
X111794858Y-88454447D01*
X111787417Y-88442031D01*
X111781228Y-88428946D01*
X111776351Y-88415317D01*
X111772834Y-88401276D01*
X111770710Y-88386958D01*
X111770000Y-88372500D01*
X111770000Y-88027500D01*
X111770710Y-88013042D01*
X111772834Y-87998724D01*
X111776351Y-87984683D01*
X111781228Y-87971054D01*
X111787417Y-87957969D01*
X111794858Y-87945553D01*
X111803481Y-87933927D01*
X111813202Y-87923202D01*
X111823927Y-87913481D01*
X111835553Y-87904858D01*
X111847969Y-87897417D01*
X111861054Y-87891228D01*
X111874683Y-87886351D01*
X111888724Y-87882834D01*
X111903042Y-87880710D01*
X111917500Y-87880000D01*
X112212500Y-87880000D01*
X112226958Y-87880710D01*
G37*
G36*
X117336958Y-85290710D02*
G01*
X117351276Y-85292834D01*
X117365317Y-85296351D01*
X117378946Y-85301228D01*
X117392031Y-85307417D01*
X117404447Y-85314858D01*
X117416073Y-85323481D01*
X117426798Y-85333202D01*
X117436519Y-85343927D01*
X117445142Y-85355553D01*
X117452583Y-85367969D01*
X117458772Y-85381054D01*
X117463649Y-85394683D01*
X117467166Y-85408724D01*
X117469290Y-85423042D01*
X117470000Y-85437500D01*
X117470000Y-85732500D01*
X117469290Y-85746958D01*
X117467166Y-85761276D01*
X117463649Y-85775317D01*
X117458772Y-85788946D01*
X117452583Y-85802031D01*
X117445142Y-85814447D01*
X117436519Y-85826073D01*
X117426798Y-85836798D01*
X117416073Y-85846519D01*
X117404447Y-85855142D01*
X117392031Y-85862583D01*
X117378946Y-85868772D01*
X117365317Y-85873649D01*
X117351276Y-85877166D01*
X117336958Y-85879290D01*
X117322500Y-85880000D01*
X116977500Y-85880000D01*
X116963042Y-85879290D01*
X116948724Y-85877166D01*
X116934683Y-85873649D01*
X116921054Y-85868772D01*
X116907969Y-85862583D01*
X116895553Y-85855142D01*
X116883927Y-85846519D01*
X116873202Y-85836798D01*
X116863481Y-85826073D01*
X116854858Y-85814447D01*
X116847417Y-85802031D01*
X116841228Y-85788946D01*
X116836351Y-85775317D01*
X116832834Y-85761276D01*
X116830710Y-85746958D01*
X116830000Y-85732500D01*
X116830000Y-85437500D01*
X116830710Y-85423042D01*
X116832834Y-85408724D01*
X116836351Y-85394683D01*
X116841228Y-85381054D01*
X116847417Y-85367969D01*
X116854858Y-85355553D01*
X116863481Y-85343927D01*
X116873202Y-85333202D01*
X116883927Y-85323481D01*
X116895553Y-85314858D01*
X116907969Y-85307417D01*
X116921054Y-85301228D01*
X116934683Y-85296351D01*
X116948724Y-85292834D01*
X116963042Y-85290710D01*
X116977500Y-85290000D01*
X117322500Y-85290000D01*
X117336958Y-85290710D01*
G37*
G36*
X117336958Y-84320710D02*
G01*
X117351276Y-84322834D01*
X117365317Y-84326351D01*
X117378946Y-84331228D01*
X117392031Y-84337417D01*
X117404447Y-84344858D01*
X117416073Y-84353481D01*
X117426798Y-84363202D01*
X117436519Y-84373927D01*
X117445142Y-84385553D01*
X117452583Y-84397969D01*
X117458772Y-84411054D01*
X117463649Y-84424683D01*
X117467166Y-84438724D01*
X117469290Y-84453042D01*
X117470000Y-84467500D01*
X117470000Y-84762500D01*
X117469290Y-84776958D01*
X117467166Y-84791276D01*
X117463649Y-84805317D01*
X117458772Y-84818946D01*
X117452583Y-84832031D01*
X117445142Y-84844447D01*
X117436519Y-84856073D01*
X117426798Y-84866798D01*
X117416073Y-84876519D01*
X117404447Y-84885142D01*
X117392031Y-84892583D01*
X117378946Y-84898772D01*
X117365317Y-84903649D01*
X117351276Y-84907166D01*
X117336958Y-84909290D01*
X117322500Y-84910000D01*
X116977500Y-84910000D01*
X116963042Y-84909290D01*
X116948724Y-84907166D01*
X116934683Y-84903649D01*
X116921054Y-84898772D01*
X116907969Y-84892583D01*
X116895553Y-84885142D01*
X116883927Y-84876519D01*
X116873202Y-84866798D01*
X116863481Y-84856073D01*
X116854858Y-84844447D01*
X116847417Y-84832031D01*
X116841228Y-84818946D01*
X116836351Y-84805317D01*
X116832834Y-84791276D01*
X116830710Y-84776958D01*
X116830000Y-84762500D01*
X116830000Y-84467500D01*
X116830710Y-84453042D01*
X116832834Y-84438724D01*
X116836351Y-84424683D01*
X116841228Y-84411054D01*
X116847417Y-84397969D01*
X116854858Y-84385553D01*
X116863481Y-84373927D01*
X116873202Y-84363202D01*
X116883927Y-84353481D01*
X116895553Y-84344858D01*
X116907969Y-84337417D01*
X116921054Y-84331228D01*
X116934683Y-84326351D01*
X116948724Y-84322834D01*
X116963042Y-84320710D01*
X116977500Y-84320000D01*
X117322500Y-84320000D01*
X117336958Y-84320710D01*
G37*
G36*
X115939958Y-88517210D02*
G01*
X115954276Y-88519334D01*
X115968317Y-88522851D01*
X115981946Y-88527728D01*
X115995031Y-88533917D01*
X116007447Y-88541358D01*
X116019073Y-88549981D01*
X116029798Y-88559702D01*
X116039519Y-88570427D01*
X116048142Y-88582053D01*
X116055583Y-88594469D01*
X116061772Y-88607554D01*
X116066649Y-88621183D01*
X116070166Y-88635224D01*
X116072290Y-88649542D01*
X116073000Y-88664000D01*
X116073000Y-89009000D01*
X116072290Y-89023458D01*
X116070166Y-89037776D01*
X116066649Y-89051817D01*
X116061772Y-89065446D01*
X116055583Y-89078531D01*
X116048142Y-89090947D01*
X116039519Y-89102573D01*
X116029798Y-89113298D01*
X116019073Y-89123019D01*
X116007447Y-89131642D01*
X115995031Y-89139083D01*
X115981946Y-89145272D01*
X115968317Y-89150149D01*
X115954276Y-89153666D01*
X115939958Y-89155790D01*
X115925500Y-89156500D01*
X115630500Y-89156500D01*
X115616042Y-89155790D01*
X115601724Y-89153666D01*
X115587683Y-89150149D01*
X115574054Y-89145272D01*
X115560969Y-89139083D01*
X115548553Y-89131642D01*
X115536927Y-89123019D01*
X115526202Y-89113298D01*
X115516481Y-89102573D01*
X115507858Y-89090947D01*
X115500417Y-89078531D01*
X115494228Y-89065446D01*
X115489351Y-89051817D01*
X115485834Y-89037776D01*
X115483710Y-89023458D01*
X115483000Y-89009000D01*
X115483000Y-88664000D01*
X115483710Y-88649542D01*
X115485834Y-88635224D01*
X115489351Y-88621183D01*
X115494228Y-88607554D01*
X115500417Y-88594469D01*
X115507858Y-88582053D01*
X115516481Y-88570427D01*
X115526202Y-88559702D01*
X115536927Y-88549981D01*
X115548553Y-88541358D01*
X115560969Y-88533917D01*
X115574054Y-88527728D01*
X115587683Y-88522851D01*
X115601724Y-88519334D01*
X115616042Y-88517210D01*
X115630500Y-88516500D01*
X115925500Y-88516500D01*
X115939958Y-88517210D01*
G37*
G36*
X114969958Y-88517210D02*
G01*
X114984276Y-88519334D01*
X114998317Y-88522851D01*
X115011946Y-88527728D01*
X115025031Y-88533917D01*
X115037447Y-88541358D01*
X115049073Y-88549981D01*
X115059798Y-88559702D01*
X115069519Y-88570427D01*
X115078142Y-88582053D01*
X115085583Y-88594469D01*
X115091772Y-88607554D01*
X115096649Y-88621183D01*
X115100166Y-88635224D01*
X115102290Y-88649542D01*
X115103000Y-88664000D01*
X115103000Y-89009000D01*
X115102290Y-89023458D01*
X115100166Y-89037776D01*
X115096649Y-89051817D01*
X115091772Y-89065446D01*
X115085583Y-89078531D01*
X115078142Y-89090947D01*
X115069519Y-89102573D01*
X115059798Y-89113298D01*
X115049073Y-89123019D01*
X115037447Y-89131642D01*
X115025031Y-89139083D01*
X115011946Y-89145272D01*
X114998317Y-89150149D01*
X114984276Y-89153666D01*
X114969958Y-89155790D01*
X114955500Y-89156500D01*
X114660500Y-89156500D01*
X114646042Y-89155790D01*
X114631724Y-89153666D01*
X114617683Y-89150149D01*
X114604054Y-89145272D01*
X114590969Y-89139083D01*
X114578553Y-89131642D01*
X114566927Y-89123019D01*
X114556202Y-89113298D01*
X114546481Y-89102573D01*
X114537858Y-89090947D01*
X114530417Y-89078531D01*
X114524228Y-89065446D01*
X114519351Y-89051817D01*
X114515834Y-89037776D01*
X114513710Y-89023458D01*
X114513000Y-89009000D01*
X114513000Y-88664000D01*
X114513710Y-88649542D01*
X114515834Y-88635224D01*
X114519351Y-88621183D01*
X114524228Y-88607554D01*
X114530417Y-88594469D01*
X114537858Y-88582053D01*
X114546481Y-88570427D01*
X114556202Y-88559702D01*
X114566927Y-88549981D01*
X114578553Y-88541358D01*
X114590969Y-88533917D01*
X114604054Y-88527728D01*
X114617683Y-88522851D01*
X114631724Y-88519334D01*
X114646042Y-88517210D01*
X114660500Y-88516500D01*
X114955500Y-88516500D01*
X114969958Y-88517210D01*
G37*
G36*
X98251958Y-73594710D02*
G01*
X98266276Y-73596834D01*
X98280317Y-73600351D01*
X98293946Y-73605228D01*
X98307031Y-73611417D01*
X98319447Y-73618858D01*
X98331073Y-73627481D01*
X98341798Y-73637202D01*
X98351519Y-73647927D01*
X98360142Y-73659553D01*
X98367583Y-73671969D01*
X98373772Y-73685054D01*
X98378649Y-73698683D01*
X98382166Y-73712724D01*
X98384290Y-73727042D01*
X98385000Y-73741500D01*
X98385000Y-74086500D01*
X98384290Y-74100958D01*
X98382166Y-74115276D01*
X98378649Y-74129317D01*
X98373772Y-74142946D01*
X98367583Y-74156031D01*
X98360142Y-74168447D01*
X98351519Y-74180073D01*
X98341798Y-74190798D01*
X98331073Y-74200519D01*
X98319447Y-74209142D01*
X98307031Y-74216583D01*
X98293946Y-74222772D01*
X98280317Y-74227649D01*
X98266276Y-74231166D01*
X98251958Y-74233290D01*
X98237500Y-74234000D01*
X97942500Y-74234000D01*
X97928042Y-74233290D01*
X97913724Y-74231166D01*
X97899683Y-74227649D01*
X97886054Y-74222772D01*
X97872969Y-74216583D01*
X97860553Y-74209142D01*
X97848927Y-74200519D01*
X97838202Y-74190798D01*
X97828481Y-74180073D01*
X97819858Y-74168447D01*
X97812417Y-74156031D01*
X97806228Y-74142946D01*
X97801351Y-74129317D01*
X97797834Y-74115276D01*
X97795710Y-74100958D01*
X97795000Y-74086500D01*
X97795000Y-73741500D01*
X97795710Y-73727042D01*
X97797834Y-73712724D01*
X97801351Y-73698683D01*
X97806228Y-73685054D01*
X97812417Y-73671969D01*
X97819858Y-73659553D01*
X97828481Y-73647927D01*
X97838202Y-73637202D01*
X97848927Y-73627481D01*
X97860553Y-73618858D01*
X97872969Y-73611417D01*
X97886054Y-73605228D01*
X97899683Y-73600351D01*
X97913724Y-73596834D01*
X97928042Y-73594710D01*
X97942500Y-73594000D01*
X98237500Y-73594000D01*
X98251958Y-73594710D01*
G37*
G36*
X99221958Y-73594710D02*
G01*
X99236276Y-73596834D01*
X99250317Y-73600351D01*
X99263946Y-73605228D01*
X99277031Y-73611417D01*
X99289447Y-73618858D01*
X99301073Y-73627481D01*
X99311798Y-73637202D01*
X99321519Y-73647927D01*
X99330142Y-73659553D01*
X99337583Y-73671969D01*
X99343772Y-73685054D01*
X99348649Y-73698683D01*
X99352166Y-73712724D01*
X99354290Y-73727042D01*
X99355000Y-73741500D01*
X99355000Y-74086500D01*
X99354290Y-74100958D01*
X99352166Y-74115276D01*
X99348649Y-74129317D01*
X99343772Y-74142946D01*
X99337583Y-74156031D01*
X99330142Y-74168447D01*
X99321519Y-74180073D01*
X99311798Y-74190798D01*
X99301073Y-74200519D01*
X99289447Y-74209142D01*
X99277031Y-74216583D01*
X99263946Y-74222772D01*
X99250317Y-74227649D01*
X99236276Y-74231166D01*
X99221958Y-74233290D01*
X99207500Y-74234000D01*
X98912500Y-74234000D01*
X98898042Y-74233290D01*
X98883724Y-74231166D01*
X98869683Y-74227649D01*
X98856054Y-74222772D01*
X98842969Y-74216583D01*
X98830553Y-74209142D01*
X98818927Y-74200519D01*
X98808202Y-74190798D01*
X98798481Y-74180073D01*
X98789858Y-74168447D01*
X98782417Y-74156031D01*
X98776228Y-74142946D01*
X98771351Y-74129317D01*
X98767834Y-74115276D01*
X98765710Y-74100958D01*
X98765000Y-74086500D01*
X98765000Y-73741500D01*
X98765710Y-73727042D01*
X98767834Y-73712724D01*
X98771351Y-73698683D01*
X98776228Y-73685054D01*
X98782417Y-73671969D01*
X98789858Y-73659553D01*
X98798481Y-73647927D01*
X98808202Y-73637202D01*
X98818927Y-73627481D01*
X98830553Y-73618858D01*
X98842969Y-73611417D01*
X98856054Y-73605228D01*
X98869683Y-73600351D01*
X98883724Y-73596834D01*
X98898042Y-73594710D01*
X98912500Y-73594000D01*
X99207500Y-73594000D01*
X99221958Y-73594710D01*
G37*
G36*
X114476958Y-85280710D02*
G01*
X114491276Y-85282834D01*
X114505317Y-85286351D01*
X114518946Y-85291228D01*
X114532031Y-85297417D01*
X114544447Y-85304858D01*
X114556073Y-85313481D01*
X114566798Y-85323202D01*
X114576519Y-85333927D01*
X114585142Y-85345553D01*
X114592583Y-85357969D01*
X114598772Y-85371054D01*
X114603649Y-85384683D01*
X114607166Y-85398724D01*
X114609290Y-85413042D01*
X114610000Y-85427500D01*
X114610000Y-85772500D01*
X114609290Y-85786958D01*
X114607166Y-85801276D01*
X114603649Y-85815317D01*
X114598772Y-85828946D01*
X114592583Y-85842031D01*
X114585142Y-85854447D01*
X114576519Y-85866073D01*
X114566798Y-85876798D01*
X114556073Y-85886519D01*
X114544447Y-85895142D01*
X114532031Y-85902583D01*
X114518946Y-85908772D01*
X114505317Y-85913649D01*
X114491276Y-85917166D01*
X114476958Y-85919290D01*
X114462500Y-85920000D01*
X114167500Y-85920000D01*
X114153042Y-85919290D01*
X114138724Y-85917166D01*
X114124683Y-85913649D01*
X114111054Y-85908772D01*
X114097969Y-85902583D01*
X114085553Y-85895142D01*
X114073927Y-85886519D01*
X114063202Y-85876798D01*
X114053481Y-85866073D01*
X114044858Y-85854447D01*
X114037417Y-85842031D01*
X114031228Y-85828946D01*
X114026351Y-85815317D01*
X114022834Y-85801276D01*
X114020710Y-85786958D01*
X114020000Y-85772500D01*
X114020000Y-85427500D01*
X114020710Y-85413042D01*
X114022834Y-85398724D01*
X114026351Y-85384683D01*
X114031228Y-85371054D01*
X114037417Y-85357969D01*
X114044858Y-85345553D01*
X114053481Y-85333927D01*
X114063202Y-85323202D01*
X114073927Y-85313481D01*
X114085553Y-85304858D01*
X114097969Y-85297417D01*
X114111054Y-85291228D01*
X114124683Y-85286351D01*
X114138724Y-85282834D01*
X114153042Y-85280710D01*
X114167500Y-85280000D01*
X114462500Y-85280000D01*
X114476958Y-85280710D01*
G37*
G36*
X115446958Y-85280710D02*
G01*
X115461276Y-85282834D01*
X115475317Y-85286351D01*
X115488946Y-85291228D01*
X115502031Y-85297417D01*
X115514447Y-85304858D01*
X115526073Y-85313481D01*
X115536798Y-85323202D01*
X115546519Y-85333927D01*
X115555142Y-85345553D01*
X115562583Y-85357969D01*
X115568772Y-85371054D01*
X115573649Y-85384683D01*
X115577166Y-85398724D01*
X115579290Y-85413042D01*
X115580000Y-85427500D01*
X115580000Y-85772500D01*
X115579290Y-85786958D01*
X115577166Y-85801276D01*
X115573649Y-85815317D01*
X115568772Y-85828946D01*
X115562583Y-85842031D01*
X115555142Y-85854447D01*
X115546519Y-85866073D01*
X115536798Y-85876798D01*
X115526073Y-85886519D01*
X115514447Y-85895142D01*
X115502031Y-85902583D01*
X115488946Y-85908772D01*
X115475317Y-85913649D01*
X115461276Y-85917166D01*
X115446958Y-85919290D01*
X115432500Y-85920000D01*
X115137500Y-85920000D01*
X115123042Y-85919290D01*
X115108724Y-85917166D01*
X115094683Y-85913649D01*
X115081054Y-85908772D01*
X115067969Y-85902583D01*
X115055553Y-85895142D01*
X115043927Y-85886519D01*
X115033202Y-85876798D01*
X115023481Y-85866073D01*
X115014858Y-85854447D01*
X115007417Y-85842031D01*
X115001228Y-85828946D01*
X114996351Y-85815317D01*
X114992834Y-85801276D01*
X114990710Y-85786958D01*
X114990000Y-85772500D01*
X114990000Y-85427500D01*
X114990710Y-85413042D01*
X114992834Y-85398724D01*
X114996351Y-85384683D01*
X115001228Y-85371054D01*
X115007417Y-85357969D01*
X115014858Y-85345553D01*
X115023481Y-85333927D01*
X115033202Y-85323202D01*
X115043927Y-85313481D01*
X115055553Y-85304858D01*
X115067969Y-85297417D01*
X115081054Y-85291228D01*
X115094683Y-85286351D01*
X115108724Y-85282834D01*
X115123042Y-85280710D01*
X115137500Y-85280000D01*
X115432500Y-85280000D01*
X115446958Y-85280710D01*
G37*
G36*
X112346958Y-85880710D02*
G01*
X112361276Y-85882834D01*
X112375317Y-85886351D01*
X112388946Y-85891228D01*
X112402031Y-85897417D01*
X112414447Y-85904858D01*
X112426073Y-85913481D01*
X112436798Y-85923202D01*
X112446519Y-85933927D01*
X112455142Y-85945553D01*
X112462583Y-85957969D01*
X112468772Y-85971054D01*
X112473649Y-85984683D01*
X112477166Y-85998724D01*
X112479290Y-86013042D01*
X112480000Y-86027500D01*
X112480000Y-86372500D01*
X112479290Y-86386958D01*
X112477166Y-86401276D01*
X112473649Y-86415317D01*
X112468772Y-86428946D01*
X112462583Y-86442031D01*
X112455142Y-86454447D01*
X112446519Y-86466073D01*
X112436798Y-86476798D01*
X112426073Y-86486519D01*
X112414447Y-86495142D01*
X112402031Y-86502583D01*
X112388946Y-86508772D01*
X112375317Y-86513649D01*
X112361276Y-86517166D01*
X112346958Y-86519290D01*
X112332500Y-86520000D01*
X112037500Y-86520000D01*
X112023042Y-86519290D01*
X112008724Y-86517166D01*
X111994683Y-86513649D01*
X111981054Y-86508772D01*
X111967969Y-86502583D01*
X111955553Y-86495142D01*
X111943927Y-86486519D01*
X111933202Y-86476798D01*
X111923481Y-86466073D01*
X111914858Y-86454447D01*
X111907417Y-86442031D01*
X111901228Y-86428946D01*
X111896351Y-86415317D01*
X111892834Y-86401276D01*
X111890710Y-86386958D01*
X111890000Y-86372500D01*
X111890000Y-86027500D01*
X111890710Y-86013042D01*
X111892834Y-85998724D01*
X111896351Y-85984683D01*
X111901228Y-85971054D01*
X111907417Y-85957969D01*
X111914858Y-85945553D01*
X111923481Y-85933927D01*
X111933202Y-85923202D01*
X111943927Y-85913481D01*
X111955553Y-85904858D01*
X111967969Y-85897417D01*
X111981054Y-85891228D01*
X111994683Y-85886351D01*
X112008724Y-85882834D01*
X112023042Y-85880710D01*
X112037500Y-85880000D01*
X112332500Y-85880000D01*
X112346958Y-85880710D01*
G37*
G36*
X111376958Y-85880710D02*
G01*
X111391276Y-85882834D01*
X111405317Y-85886351D01*
X111418946Y-85891228D01*
X111432031Y-85897417D01*
X111444447Y-85904858D01*
X111456073Y-85913481D01*
X111466798Y-85923202D01*
X111476519Y-85933927D01*
X111485142Y-85945553D01*
X111492583Y-85957969D01*
X111498772Y-85971054D01*
X111503649Y-85984683D01*
X111507166Y-85998724D01*
X111509290Y-86013042D01*
X111510000Y-86027500D01*
X111510000Y-86372500D01*
X111509290Y-86386958D01*
X111507166Y-86401276D01*
X111503649Y-86415317D01*
X111498772Y-86428946D01*
X111492583Y-86442031D01*
X111485142Y-86454447D01*
X111476519Y-86466073D01*
X111466798Y-86476798D01*
X111456073Y-86486519D01*
X111444447Y-86495142D01*
X111432031Y-86502583D01*
X111418946Y-86508772D01*
X111405317Y-86513649D01*
X111391276Y-86517166D01*
X111376958Y-86519290D01*
X111362500Y-86520000D01*
X111067500Y-86520000D01*
X111053042Y-86519290D01*
X111038724Y-86517166D01*
X111024683Y-86513649D01*
X111011054Y-86508772D01*
X110997969Y-86502583D01*
X110985553Y-86495142D01*
X110973927Y-86486519D01*
X110963202Y-86476798D01*
X110953481Y-86466073D01*
X110944858Y-86454447D01*
X110937417Y-86442031D01*
X110931228Y-86428946D01*
X110926351Y-86415317D01*
X110922834Y-86401276D01*
X110920710Y-86386958D01*
X110920000Y-86372500D01*
X110920000Y-86027500D01*
X110920710Y-86013042D01*
X110922834Y-85998724D01*
X110926351Y-85984683D01*
X110931228Y-85971054D01*
X110937417Y-85957969D01*
X110944858Y-85945553D01*
X110953481Y-85933927D01*
X110963202Y-85923202D01*
X110973927Y-85913481D01*
X110985553Y-85904858D01*
X110997969Y-85897417D01*
X111011054Y-85891228D01*
X111024683Y-85886351D01*
X111038724Y-85882834D01*
X111053042Y-85880710D01*
X111067500Y-85880000D01*
X111362500Y-85880000D01*
X111376958Y-85880710D01*
G37*
G36*
X111326958Y-86880710D02*
G01*
X111341276Y-86882834D01*
X111355317Y-86886351D01*
X111368946Y-86891228D01*
X111382031Y-86897417D01*
X111394447Y-86904858D01*
X111406073Y-86913481D01*
X111416798Y-86923202D01*
X111426519Y-86933927D01*
X111435142Y-86945553D01*
X111442583Y-86957969D01*
X111448772Y-86971054D01*
X111453649Y-86984683D01*
X111457166Y-86998724D01*
X111459290Y-87013042D01*
X111460000Y-87027500D01*
X111460000Y-87372500D01*
X111459290Y-87386958D01*
X111457166Y-87401276D01*
X111453649Y-87415317D01*
X111448772Y-87428946D01*
X111442583Y-87442031D01*
X111435142Y-87454447D01*
X111426519Y-87466073D01*
X111416798Y-87476798D01*
X111406073Y-87486519D01*
X111394447Y-87495142D01*
X111382031Y-87502583D01*
X111368946Y-87508772D01*
X111355317Y-87513649D01*
X111341276Y-87517166D01*
X111326958Y-87519290D01*
X111312500Y-87520000D01*
X111017500Y-87520000D01*
X111003042Y-87519290D01*
X110988724Y-87517166D01*
X110974683Y-87513649D01*
X110961054Y-87508772D01*
X110947969Y-87502583D01*
X110935553Y-87495142D01*
X110923927Y-87486519D01*
X110913202Y-87476798D01*
X110903481Y-87466073D01*
X110894858Y-87454447D01*
X110887417Y-87442031D01*
X110881228Y-87428946D01*
X110876351Y-87415317D01*
X110872834Y-87401276D01*
X110870710Y-87386958D01*
X110870000Y-87372500D01*
X110870000Y-87027500D01*
X110870710Y-87013042D01*
X110872834Y-86998724D01*
X110876351Y-86984683D01*
X110881228Y-86971054D01*
X110887417Y-86957969D01*
X110894858Y-86945553D01*
X110903481Y-86933927D01*
X110913202Y-86923202D01*
X110923927Y-86913481D01*
X110935553Y-86904858D01*
X110947969Y-86897417D01*
X110961054Y-86891228D01*
X110974683Y-86886351D01*
X110988724Y-86882834D01*
X111003042Y-86880710D01*
X111017500Y-86880000D01*
X111312500Y-86880000D01*
X111326958Y-86880710D01*
G37*
G36*
X112296958Y-86880710D02*
G01*
X112311276Y-86882834D01*
X112325317Y-86886351D01*
X112338946Y-86891228D01*
X112352031Y-86897417D01*
X112364447Y-86904858D01*
X112376073Y-86913481D01*
X112386798Y-86923202D01*
X112396519Y-86933927D01*
X112405142Y-86945553D01*
X112412583Y-86957969D01*
X112418772Y-86971054D01*
X112423649Y-86984683D01*
X112427166Y-86998724D01*
X112429290Y-87013042D01*
X112430000Y-87027500D01*
X112430000Y-87372500D01*
X112429290Y-87386958D01*
X112427166Y-87401276D01*
X112423649Y-87415317D01*
X112418772Y-87428946D01*
X112412583Y-87442031D01*
X112405142Y-87454447D01*
X112396519Y-87466073D01*
X112386798Y-87476798D01*
X112376073Y-87486519D01*
X112364447Y-87495142D01*
X112352031Y-87502583D01*
X112338946Y-87508772D01*
X112325317Y-87513649D01*
X112311276Y-87517166D01*
X112296958Y-87519290D01*
X112282500Y-87520000D01*
X111987500Y-87520000D01*
X111973042Y-87519290D01*
X111958724Y-87517166D01*
X111944683Y-87513649D01*
X111931054Y-87508772D01*
X111917969Y-87502583D01*
X111905553Y-87495142D01*
X111893927Y-87486519D01*
X111883202Y-87476798D01*
X111873481Y-87466073D01*
X111864858Y-87454447D01*
X111857417Y-87442031D01*
X111851228Y-87428946D01*
X111846351Y-87415317D01*
X111842834Y-87401276D01*
X111840710Y-87386958D01*
X111840000Y-87372500D01*
X111840000Y-87027500D01*
X111840710Y-87013042D01*
X111842834Y-86998724D01*
X111846351Y-86984683D01*
X111851228Y-86971054D01*
X111857417Y-86957969D01*
X111864858Y-86945553D01*
X111873481Y-86933927D01*
X111883202Y-86923202D01*
X111893927Y-86913481D01*
X111905553Y-86904858D01*
X111917969Y-86897417D01*
X111931054Y-86891228D01*
X111944683Y-86886351D01*
X111958724Y-86882834D01*
X111973042Y-86880710D01*
X111987500Y-86880000D01*
X112282500Y-86880000D01*
X112296958Y-86880710D01*
G37*
G36*
X116386958Y-84335710D02*
G01*
X116401276Y-84337834D01*
X116415317Y-84341351D01*
X116428946Y-84346228D01*
X116442031Y-84352417D01*
X116454447Y-84359858D01*
X116466073Y-84368481D01*
X116476798Y-84378202D01*
X116486519Y-84388927D01*
X116495142Y-84400553D01*
X116502583Y-84412969D01*
X116508772Y-84426054D01*
X116513649Y-84439683D01*
X116517166Y-84453724D01*
X116519290Y-84468042D01*
X116520000Y-84482500D01*
X116520000Y-84777500D01*
X116519290Y-84791958D01*
X116517166Y-84806276D01*
X116513649Y-84820317D01*
X116508772Y-84833946D01*
X116502583Y-84847031D01*
X116495142Y-84859447D01*
X116486519Y-84871073D01*
X116476798Y-84881798D01*
X116466073Y-84891519D01*
X116454447Y-84900142D01*
X116442031Y-84907583D01*
X116428946Y-84913772D01*
X116415317Y-84918649D01*
X116401276Y-84922166D01*
X116386958Y-84924290D01*
X116372500Y-84925000D01*
X116027500Y-84925000D01*
X116013042Y-84924290D01*
X115998724Y-84922166D01*
X115984683Y-84918649D01*
X115971054Y-84913772D01*
X115957969Y-84907583D01*
X115945553Y-84900142D01*
X115933927Y-84891519D01*
X115923202Y-84881798D01*
X115913481Y-84871073D01*
X115904858Y-84859447D01*
X115897417Y-84847031D01*
X115891228Y-84833946D01*
X115886351Y-84820317D01*
X115882834Y-84806276D01*
X115880710Y-84791958D01*
X115880000Y-84777500D01*
X115880000Y-84482500D01*
X115880710Y-84468042D01*
X115882834Y-84453724D01*
X115886351Y-84439683D01*
X115891228Y-84426054D01*
X115897417Y-84412969D01*
X115904858Y-84400553D01*
X115913481Y-84388927D01*
X115923202Y-84378202D01*
X115933927Y-84368481D01*
X115945553Y-84359858D01*
X115957969Y-84352417D01*
X115971054Y-84346228D01*
X115984683Y-84341351D01*
X115998724Y-84337834D01*
X116013042Y-84335710D01*
X116027500Y-84335000D01*
X116372500Y-84335000D01*
X116386958Y-84335710D01*
G37*
G36*
X116386958Y-85305710D02*
G01*
X116401276Y-85307834D01*
X116415317Y-85311351D01*
X116428946Y-85316228D01*
X116442031Y-85322417D01*
X116454447Y-85329858D01*
X116466073Y-85338481D01*
X116476798Y-85348202D01*
X116486519Y-85358927D01*
X116495142Y-85370553D01*
X116502583Y-85382969D01*
X116508772Y-85396054D01*
X116513649Y-85409683D01*
X116517166Y-85423724D01*
X116519290Y-85438042D01*
X116520000Y-85452500D01*
X116520000Y-85747500D01*
X116519290Y-85761958D01*
X116517166Y-85776276D01*
X116513649Y-85790317D01*
X116508772Y-85803946D01*
X116502583Y-85817031D01*
X116495142Y-85829447D01*
X116486519Y-85841073D01*
X116476798Y-85851798D01*
X116466073Y-85861519D01*
X116454447Y-85870142D01*
X116442031Y-85877583D01*
X116428946Y-85883772D01*
X116415317Y-85888649D01*
X116401276Y-85892166D01*
X116386958Y-85894290D01*
X116372500Y-85895000D01*
X116027500Y-85895000D01*
X116013042Y-85894290D01*
X115998724Y-85892166D01*
X115984683Y-85888649D01*
X115971054Y-85883772D01*
X115957969Y-85877583D01*
X115945553Y-85870142D01*
X115933927Y-85861519D01*
X115923202Y-85851798D01*
X115913481Y-85841073D01*
X115904858Y-85829447D01*
X115897417Y-85817031D01*
X115891228Y-85803946D01*
X115886351Y-85790317D01*
X115882834Y-85776276D01*
X115880710Y-85761958D01*
X115880000Y-85747500D01*
X115880000Y-85452500D01*
X115880710Y-85438042D01*
X115882834Y-85423724D01*
X115886351Y-85409683D01*
X115891228Y-85396054D01*
X115897417Y-85382969D01*
X115904858Y-85370553D01*
X115913481Y-85358927D01*
X115923202Y-85348202D01*
X115933927Y-85338481D01*
X115945553Y-85329858D01*
X115957969Y-85322417D01*
X115971054Y-85316228D01*
X115984683Y-85311351D01*
X115998724Y-85307834D01*
X116013042Y-85305710D01*
X116027500Y-85305000D01*
X116372500Y-85305000D01*
X116386958Y-85305710D01*
G37*
G36*
X117946958Y-86930710D02*
G01*
X117961276Y-86932834D01*
X117975317Y-86936351D01*
X117988946Y-86941228D01*
X118002031Y-86947417D01*
X118014447Y-86954858D01*
X118026073Y-86963481D01*
X118036798Y-86973202D01*
X118046519Y-86983927D01*
X118055142Y-86995553D01*
X118062583Y-87007969D01*
X118068772Y-87021054D01*
X118073649Y-87034683D01*
X118077166Y-87048724D01*
X118079290Y-87063042D01*
X118080000Y-87077500D01*
X118080000Y-87422500D01*
X118079290Y-87436958D01*
X118077166Y-87451276D01*
X118073649Y-87465317D01*
X118068772Y-87478946D01*
X118062583Y-87492031D01*
X118055142Y-87504447D01*
X118046519Y-87516073D01*
X118036798Y-87526798D01*
X118026073Y-87536519D01*
X118014447Y-87545142D01*
X118002031Y-87552583D01*
X117988946Y-87558772D01*
X117975317Y-87563649D01*
X117961276Y-87567166D01*
X117946958Y-87569290D01*
X117932500Y-87570000D01*
X117637500Y-87570000D01*
X117623042Y-87569290D01*
X117608724Y-87567166D01*
X117594683Y-87563649D01*
X117581054Y-87558772D01*
X117567969Y-87552583D01*
X117555553Y-87545142D01*
X117543927Y-87536519D01*
X117533202Y-87526798D01*
X117523481Y-87516073D01*
X117514858Y-87504447D01*
X117507417Y-87492031D01*
X117501228Y-87478946D01*
X117496351Y-87465317D01*
X117492834Y-87451276D01*
X117490710Y-87436958D01*
X117490000Y-87422500D01*
X117490000Y-87077500D01*
X117490710Y-87063042D01*
X117492834Y-87048724D01*
X117496351Y-87034683D01*
X117501228Y-87021054D01*
X117507417Y-87007969D01*
X117514858Y-86995553D01*
X117523481Y-86983927D01*
X117533202Y-86973202D01*
X117543927Y-86963481D01*
X117555553Y-86954858D01*
X117567969Y-86947417D01*
X117581054Y-86941228D01*
X117594683Y-86936351D01*
X117608724Y-86932834D01*
X117623042Y-86930710D01*
X117637500Y-86930000D01*
X117932500Y-86930000D01*
X117946958Y-86930710D01*
G37*
G36*
X116976958Y-86930710D02*
G01*
X116991276Y-86932834D01*
X117005317Y-86936351D01*
X117018946Y-86941228D01*
X117032031Y-86947417D01*
X117044447Y-86954858D01*
X117056073Y-86963481D01*
X117066798Y-86973202D01*
X117076519Y-86983927D01*
X117085142Y-86995553D01*
X117092583Y-87007969D01*
X117098772Y-87021054D01*
X117103649Y-87034683D01*
X117107166Y-87048724D01*
X117109290Y-87063042D01*
X117110000Y-87077500D01*
X117110000Y-87422500D01*
X117109290Y-87436958D01*
X117107166Y-87451276D01*
X117103649Y-87465317D01*
X117098772Y-87478946D01*
X117092583Y-87492031D01*
X117085142Y-87504447D01*
X117076519Y-87516073D01*
X117066798Y-87526798D01*
X117056073Y-87536519D01*
X117044447Y-87545142D01*
X117032031Y-87552583D01*
X117018946Y-87558772D01*
X117005317Y-87563649D01*
X116991276Y-87567166D01*
X116976958Y-87569290D01*
X116962500Y-87570000D01*
X116667500Y-87570000D01*
X116653042Y-87569290D01*
X116638724Y-87567166D01*
X116624683Y-87563649D01*
X116611054Y-87558772D01*
X116597969Y-87552583D01*
X116585553Y-87545142D01*
X116573927Y-87536519D01*
X116563202Y-87526798D01*
X116553481Y-87516073D01*
X116544858Y-87504447D01*
X116537417Y-87492031D01*
X116531228Y-87478946D01*
X116526351Y-87465317D01*
X116522834Y-87451276D01*
X116520710Y-87436958D01*
X116520000Y-87422500D01*
X116520000Y-87077500D01*
X116520710Y-87063042D01*
X116522834Y-87048724D01*
X116526351Y-87034683D01*
X116531228Y-87021054D01*
X116537417Y-87007969D01*
X116544858Y-86995553D01*
X116553481Y-86983927D01*
X116563202Y-86973202D01*
X116573927Y-86963481D01*
X116585553Y-86954858D01*
X116597969Y-86947417D01*
X116611054Y-86941228D01*
X116624683Y-86936351D01*
X116638724Y-86932834D01*
X116653042Y-86930710D01*
X116667500Y-86930000D01*
X116962500Y-86930000D01*
X116976958Y-86930710D01*
G37*
G36*
X109851458Y-90828210D02*
G01*
X109865776Y-90830334D01*
X109879817Y-90833851D01*
X109893446Y-90838728D01*
X109906531Y-90844917D01*
X109918947Y-90852358D01*
X109930573Y-90860981D01*
X109941298Y-90870702D01*
X109951019Y-90881427D01*
X109959642Y-90893053D01*
X109967083Y-90905469D01*
X109973272Y-90918554D01*
X109978149Y-90932183D01*
X109981666Y-90946224D01*
X109983790Y-90960542D01*
X109984500Y-90975000D01*
X109984500Y-91270000D01*
X109983790Y-91284458D01*
X109981666Y-91298776D01*
X109978149Y-91312817D01*
X109973272Y-91326446D01*
X109967083Y-91339531D01*
X109959642Y-91351947D01*
X109951019Y-91363573D01*
X109941298Y-91374298D01*
X109930573Y-91384019D01*
X109918947Y-91392642D01*
X109906531Y-91400083D01*
X109893446Y-91406272D01*
X109879817Y-91411149D01*
X109865776Y-91414666D01*
X109851458Y-91416790D01*
X109837000Y-91417500D01*
X109492000Y-91417500D01*
X109477542Y-91416790D01*
X109463224Y-91414666D01*
X109449183Y-91411149D01*
X109435554Y-91406272D01*
X109422469Y-91400083D01*
X109410053Y-91392642D01*
X109398427Y-91384019D01*
X109387702Y-91374298D01*
X109377981Y-91363573D01*
X109369358Y-91351947D01*
X109361917Y-91339531D01*
X109355728Y-91326446D01*
X109350851Y-91312817D01*
X109347334Y-91298776D01*
X109345210Y-91284458D01*
X109344500Y-91270000D01*
X109344500Y-90975000D01*
X109345210Y-90960542D01*
X109347334Y-90946224D01*
X109350851Y-90932183D01*
X109355728Y-90918554D01*
X109361917Y-90905469D01*
X109369358Y-90893053D01*
X109377981Y-90881427D01*
X109387702Y-90870702D01*
X109398427Y-90860981D01*
X109410053Y-90852358D01*
X109422469Y-90844917D01*
X109435554Y-90838728D01*
X109449183Y-90833851D01*
X109463224Y-90830334D01*
X109477542Y-90828210D01*
X109492000Y-90827500D01*
X109837000Y-90827500D01*
X109851458Y-90828210D01*
G37*
G36*
X109851458Y-91798210D02*
G01*
X109865776Y-91800334D01*
X109879817Y-91803851D01*
X109893446Y-91808728D01*
X109906531Y-91814917D01*
X109918947Y-91822358D01*
X109930573Y-91830981D01*
X109941298Y-91840702D01*
X109951019Y-91851427D01*
X109959642Y-91863053D01*
X109967083Y-91875469D01*
X109973272Y-91888554D01*
X109978149Y-91902183D01*
X109981666Y-91916224D01*
X109983790Y-91930542D01*
X109984500Y-91945000D01*
X109984500Y-92240000D01*
X109983790Y-92254458D01*
X109981666Y-92268776D01*
X109978149Y-92282817D01*
X109973272Y-92296446D01*
X109967083Y-92309531D01*
X109959642Y-92321947D01*
X109951019Y-92333573D01*
X109941298Y-92344298D01*
X109930573Y-92354019D01*
X109918947Y-92362642D01*
X109906531Y-92370083D01*
X109893446Y-92376272D01*
X109879817Y-92381149D01*
X109865776Y-92384666D01*
X109851458Y-92386790D01*
X109837000Y-92387500D01*
X109492000Y-92387500D01*
X109477542Y-92386790D01*
X109463224Y-92384666D01*
X109449183Y-92381149D01*
X109435554Y-92376272D01*
X109422469Y-92370083D01*
X109410053Y-92362642D01*
X109398427Y-92354019D01*
X109387702Y-92344298D01*
X109377981Y-92333573D01*
X109369358Y-92321947D01*
X109361917Y-92309531D01*
X109355728Y-92296446D01*
X109350851Y-92282817D01*
X109347334Y-92268776D01*
X109345210Y-92254458D01*
X109344500Y-92240000D01*
X109344500Y-91945000D01*
X109345210Y-91930542D01*
X109347334Y-91916224D01*
X109350851Y-91902183D01*
X109355728Y-91888554D01*
X109361917Y-91875469D01*
X109369358Y-91863053D01*
X109377981Y-91851427D01*
X109387702Y-91840702D01*
X109398427Y-91830981D01*
X109410053Y-91822358D01*
X109422469Y-91814917D01*
X109435554Y-91808728D01*
X109449183Y-91803851D01*
X109463224Y-91800334D01*
X109477542Y-91798210D01*
X109492000Y-91797500D01*
X109837000Y-91797500D01*
X109851458Y-91798210D01*
G37*
G36*
X111376958Y-90780710D02*
G01*
X111391276Y-90782834D01*
X111405317Y-90786351D01*
X111418946Y-90791228D01*
X111432031Y-90797417D01*
X111444447Y-90804858D01*
X111456073Y-90813481D01*
X111466798Y-90823202D01*
X111476519Y-90833927D01*
X111485142Y-90845553D01*
X111492583Y-90857969D01*
X111498772Y-90871054D01*
X111503649Y-90884683D01*
X111507166Y-90898724D01*
X111509290Y-90913042D01*
X111510000Y-90927500D01*
X111510000Y-91272500D01*
X111509290Y-91286958D01*
X111507166Y-91301276D01*
X111503649Y-91315317D01*
X111498772Y-91328946D01*
X111492583Y-91342031D01*
X111485142Y-91354447D01*
X111476519Y-91366073D01*
X111466798Y-91376798D01*
X111456073Y-91386519D01*
X111444447Y-91395142D01*
X111432031Y-91402583D01*
X111418946Y-91408772D01*
X111405317Y-91413649D01*
X111391276Y-91417166D01*
X111376958Y-91419290D01*
X111362500Y-91420000D01*
X111067500Y-91420000D01*
X111053042Y-91419290D01*
X111038724Y-91417166D01*
X111024683Y-91413649D01*
X111011054Y-91408772D01*
X110997969Y-91402583D01*
X110985553Y-91395142D01*
X110973927Y-91386519D01*
X110963202Y-91376798D01*
X110953481Y-91366073D01*
X110944858Y-91354447D01*
X110937417Y-91342031D01*
X110931228Y-91328946D01*
X110926351Y-91315317D01*
X110922834Y-91301276D01*
X110920710Y-91286958D01*
X110920000Y-91272500D01*
X110920000Y-90927500D01*
X110920710Y-90913042D01*
X110922834Y-90898724D01*
X110926351Y-90884683D01*
X110931228Y-90871054D01*
X110937417Y-90857969D01*
X110944858Y-90845553D01*
X110953481Y-90833927D01*
X110963202Y-90823202D01*
X110973927Y-90813481D01*
X110985553Y-90804858D01*
X110997969Y-90797417D01*
X111011054Y-90791228D01*
X111024683Y-90786351D01*
X111038724Y-90782834D01*
X111053042Y-90780710D01*
X111067500Y-90780000D01*
X111362500Y-90780000D01*
X111376958Y-90780710D01*
G37*
G36*
X112346958Y-90780710D02*
G01*
X112361276Y-90782834D01*
X112375317Y-90786351D01*
X112388946Y-90791228D01*
X112402031Y-90797417D01*
X112414447Y-90804858D01*
X112426073Y-90813481D01*
X112436798Y-90823202D01*
X112446519Y-90833927D01*
X112455142Y-90845553D01*
X112462583Y-90857969D01*
X112468772Y-90871054D01*
X112473649Y-90884683D01*
X112477166Y-90898724D01*
X112479290Y-90913042D01*
X112480000Y-90927500D01*
X112480000Y-91272500D01*
X112479290Y-91286958D01*
X112477166Y-91301276D01*
X112473649Y-91315317D01*
X112468772Y-91328946D01*
X112462583Y-91342031D01*
X112455142Y-91354447D01*
X112446519Y-91366073D01*
X112436798Y-91376798D01*
X112426073Y-91386519D01*
X112414447Y-91395142D01*
X112402031Y-91402583D01*
X112388946Y-91408772D01*
X112375317Y-91413649D01*
X112361276Y-91417166D01*
X112346958Y-91419290D01*
X112332500Y-91420000D01*
X112037500Y-91420000D01*
X112023042Y-91419290D01*
X112008724Y-91417166D01*
X111994683Y-91413649D01*
X111981054Y-91408772D01*
X111967969Y-91402583D01*
X111955553Y-91395142D01*
X111943927Y-91386519D01*
X111933202Y-91376798D01*
X111923481Y-91366073D01*
X111914858Y-91354447D01*
X111907417Y-91342031D01*
X111901228Y-91328946D01*
X111896351Y-91315317D01*
X111892834Y-91301276D01*
X111890710Y-91286958D01*
X111890000Y-91272500D01*
X111890000Y-90927500D01*
X111890710Y-90913042D01*
X111892834Y-90898724D01*
X111896351Y-90884683D01*
X111901228Y-90871054D01*
X111907417Y-90857969D01*
X111914858Y-90845553D01*
X111923481Y-90833927D01*
X111933202Y-90823202D01*
X111943927Y-90813481D01*
X111955553Y-90804858D01*
X111967969Y-90797417D01*
X111981054Y-90791228D01*
X111994683Y-90786351D01*
X112008724Y-90782834D01*
X112023042Y-90780710D01*
X112037500Y-90780000D01*
X112332500Y-90780000D01*
X112346958Y-90780710D01*
G37*
G36*
X118724358Y-73645510D02*
G01*
X118738676Y-73647634D01*
X118752717Y-73651151D01*
X118766346Y-73656028D01*
X118779431Y-73662217D01*
X118791847Y-73669658D01*
X118803473Y-73678281D01*
X118814198Y-73688002D01*
X118823919Y-73698727D01*
X118832542Y-73710353D01*
X118839983Y-73722769D01*
X118846172Y-73735854D01*
X118851049Y-73749483D01*
X118854566Y-73763524D01*
X118856690Y-73777842D01*
X118857400Y-73792300D01*
X118857400Y-74137300D01*
X118856690Y-74151758D01*
X118854566Y-74166076D01*
X118851049Y-74180117D01*
X118846172Y-74193746D01*
X118839983Y-74206831D01*
X118832542Y-74219247D01*
X118823919Y-74230873D01*
X118814198Y-74241598D01*
X118803473Y-74251319D01*
X118791847Y-74259942D01*
X118779431Y-74267383D01*
X118766346Y-74273572D01*
X118752717Y-74278449D01*
X118738676Y-74281966D01*
X118724358Y-74284090D01*
X118709900Y-74284800D01*
X118414900Y-74284800D01*
X118400442Y-74284090D01*
X118386124Y-74281966D01*
X118372083Y-74278449D01*
X118358454Y-74273572D01*
X118345369Y-74267383D01*
X118332953Y-74259942D01*
X118321327Y-74251319D01*
X118310602Y-74241598D01*
X118300881Y-74230873D01*
X118292258Y-74219247D01*
X118284817Y-74206831D01*
X118278628Y-74193746D01*
X118273751Y-74180117D01*
X118270234Y-74166076D01*
X118268110Y-74151758D01*
X118267400Y-74137300D01*
X118267400Y-73792300D01*
X118268110Y-73777842D01*
X118270234Y-73763524D01*
X118273751Y-73749483D01*
X118278628Y-73735854D01*
X118284817Y-73722769D01*
X118292258Y-73710353D01*
X118300881Y-73698727D01*
X118310602Y-73688002D01*
X118321327Y-73678281D01*
X118332953Y-73669658D01*
X118345369Y-73662217D01*
X118358454Y-73656028D01*
X118372083Y-73651151D01*
X118386124Y-73647634D01*
X118400442Y-73645510D01*
X118414900Y-73644800D01*
X118709900Y-73644800D01*
X118724358Y-73645510D01*
G37*
G36*
X119694358Y-73645510D02*
G01*
X119708676Y-73647634D01*
X119722717Y-73651151D01*
X119736346Y-73656028D01*
X119749431Y-73662217D01*
X119761847Y-73669658D01*
X119773473Y-73678281D01*
X119784198Y-73688002D01*
X119793919Y-73698727D01*
X119802542Y-73710353D01*
X119809983Y-73722769D01*
X119816172Y-73735854D01*
X119821049Y-73749483D01*
X119824566Y-73763524D01*
X119826690Y-73777842D01*
X119827400Y-73792300D01*
X119827400Y-74137300D01*
X119826690Y-74151758D01*
X119824566Y-74166076D01*
X119821049Y-74180117D01*
X119816172Y-74193746D01*
X119809983Y-74206831D01*
X119802542Y-74219247D01*
X119793919Y-74230873D01*
X119784198Y-74241598D01*
X119773473Y-74251319D01*
X119761847Y-74259942D01*
X119749431Y-74267383D01*
X119736346Y-74273572D01*
X119722717Y-74278449D01*
X119708676Y-74281966D01*
X119694358Y-74284090D01*
X119679900Y-74284800D01*
X119384900Y-74284800D01*
X119370442Y-74284090D01*
X119356124Y-74281966D01*
X119342083Y-74278449D01*
X119328454Y-74273572D01*
X119315369Y-74267383D01*
X119302953Y-74259942D01*
X119291327Y-74251319D01*
X119280602Y-74241598D01*
X119270881Y-74230873D01*
X119262258Y-74219247D01*
X119254817Y-74206831D01*
X119248628Y-74193746D01*
X119243751Y-74180117D01*
X119240234Y-74166076D01*
X119238110Y-74151758D01*
X119237400Y-74137300D01*
X119237400Y-73792300D01*
X119238110Y-73777842D01*
X119240234Y-73763524D01*
X119243751Y-73749483D01*
X119248628Y-73735854D01*
X119254817Y-73722769D01*
X119262258Y-73710353D01*
X119270881Y-73698727D01*
X119280602Y-73688002D01*
X119291327Y-73678281D01*
X119302953Y-73669658D01*
X119315369Y-73662217D01*
X119328454Y-73656028D01*
X119342083Y-73651151D01*
X119356124Y-73647634D01*
X119370442Y-73645510D01*
X119384900Y-73644800D01*
X119679900Y-73644800D01*
X119694358Y-73645510D01*
G37*
G36*
X113946958Y-91780710D02*
G01*
X113961276Y-91782834D01*
X113975317Y-91786351D01*
X113988946Y-91791228D01*
X114002031Y-91797417D01*
X114014447Y-91804858D01*
X114026073Y-91813481D01*
X114036798Y-91823202D01*
X114046519Y-91833927D01*
X114055142Y-91845553D01*
X114062583Y-91857969D01*
X114068772Y-91871054D01*
X114073649Y-91884683D01*
X114077166Y-91898724D01*
X114079290Y-91913042D01*
X114080000Y-91927500D01*
X114080000Y-92272500D01*
X114079290Y-92286958D01*
X114077166Y-92301276D01*
X114073649Y-92315317D01*
X114068772Y-92328946D01*
X114062583Y-92342031D01*
X114055142Y-92354447D01*
X114046519Y-92366073D01*
X114036798Y-92376798D01*
X114026073Y-92386519D01*
X114014447Y-92395142D01*
X114002031Y-92402583D01*
X113988946Y-92408772D01*
X113975317Y-92413649D01*
X113961276Y-92417166D01*
X113946958Y-92419290D01*
X113932500Y-92420000D01*
X113637500Y-92420000D01*
X113623042Y-92419290D01*
X113608724Y-92417166D01*
X113594683Y-92413649D01*
X113581054Y-92408772D01*
X113567969Y-92402583D01*
X113555553Y-92395142D01*
X113543927Y-92386519D01*
X113533202Y-92376798D01*
X113523481Y-92366073D01*
X113514858Y-92354447D01*
X113507417Y-92342031D01*
X113501228Y-92328946D01*
X113496351Y-92315317D01*
X113492834Y-92301276D01*
X113490710Y-92286958D01*
X113490000Y-92272500D01*
X113490000Y-91927500D01*
X113490710Y-91913042D01*
X113492834Y-91898724D01*
X113496351Y-91884683D01*
X113501228Y-91871054D01*
X113507417Y-91857969D01*
X113514858Y-91845553D01*
X113523481Y-91833927D01*
X113533202Y-91823202D01*
X113543927Y-91813481D01*
X113555553Y-91804858D01*
X113567969Y-91797417D01*
X113581054Y-91791228D01*
X113594683Y-91786351D01*
X113608724Y-91782834D01*
X113623042Y-91780710D01*
X113637500Y-91780000D01*
X113932500Y-91780000D01*
X113946958Y-91780710D01*
G37*
G36*
X112976958Y-91780710D02*
G01*
X112991276Y-91782834D01*
X113005317Y-91786351D01*
X113018946Y-91791228D01*
X113032031Y-91797417D01*
X113044447Y-91804858D01*
X113056073Y-91813481D01*
X113066798Y-91823202D01*
X113076519Y-91833927D01*
X113085142Y-91845553D01*
X113092583Y-91857969D01*
X113098772Y-91871054D01*
X113103649Y-91884683D01*
X113107166Y-91898724D01*
X113109290Y-91913042D01*
X113110000Y-91927500D01*
X113110000Y-92272500D01*
X113109290Y-92286958D01*
X113107166Y-92301276D01*
X113103649Y-92315317D01*
X113098772Y-92328946D01*
X113092583Y-92342031D01*
X113085142Y-92354447D01*
X113076519Y-92366073D01*
X113066798Y-92376798D01*
X113056073Y-92386519D01*
X113044447Y-92395142D01*
X113032031Y-92402583D01*
X113018946Y-92408772D01*
X113005317Y-92413649D01*
X112991276Y-92417166D01*
X112976958Y-92419290D01*
X112962500Y-92420000D01*
X112667500Y-92420000D01*
X112653042Y-92419290D01*
X112638724Y-92417166D01*
X112624683Y-92413649D01*
X112611054Y-92408772D01*
X112597969Y-92402583D01*
X112585553Y-92395142D01*
X112573927Y-92386519D01*
X112563202Y-92376798D01*
X112553481Y-92366073D01*
X112544858Y-92354447D01*
X112537417Y-92342031D01*
X112531228Y-92328946D01*
X112526351Y-92315317D01*
X112522834Y-92301276D01*
X112520710Y-92286958D01*
X112520000Y-92272500D01*
X112520000Y-91927500D01*
X112520710Y-91913042D01*
X112522834Y-91898724D01*
X112526351Y-91884683D01*
X112531228Y-91871054D01*
X112537417Y-91857969D01*
X112544858Y-91845553D01*
X112553481Y-91833927D01*
X112563202Y-91823202D01*
X112573927Y-91813481D01*
X112585553Y-91804858D01*
X112597969Y-91797417D01*
X112611054Y-91791228D01*
X112624683Y-91786351D01*
X112638724Y-91782834D01*
X112653042Y-91780710D01*
X112667500Y-91780000D01*
X112962500Y-91780000D01*
X112976958Y-91780710D01*
G37*
G36*
X118296958Y-78295710D02*
G01*
X118311276Y-78297834D01*
X118325317Y-78301351D01*
X118338946Y-78306228D01*
X118352031Y-78312417D01*
X118364447Y-78319858D01*
X118376073Y-78328481D01*
X118386798Y-78338202D01*
X118396519Y-78348927D01*
X118405142Y-78360553D01*
X118412583Y-78372969D01*
X118418772Y-78386054D01*
X118423649Y-78399683D01*
X118427166Y-78413724D01*
X118429290Y-78428042D01*
X118430000Y-78442500D01*
X118430000Y-78737500D01*
X118429290Y-78751958D01*
X118427166Y-78766276D01*
X118423649Y-78780317D01*
X118418772Y-78793946D01*
X118412583Y-78807031D01*
X118405142Y-78819447D01*
X118396519Y-78831073D01*
X118386798Y-78841798D01*
X118376073Y-78851519D01*
X118364447Y-78860142D01*
X118352031Y-78867583D01*
X118338946Y-78873772D01*
X118325317Y-78878649D01*
X118311276Y-78882166D01*
X118296958Y-78884290D01*
X118282500Y-78885000D01*
X117937500Y-78885000D01*
X117923042Y-78884290D01*
X117908724Y-78882166D01*
X117894683Y-78878649D01*
X117881054Y-78873772D01*
X117867969Y-78867583D01*
X117855553Y-78860142D01*
X117843927Y-78851519D01*
X117833202Y-78841798D01*
X117823481Y-78831073D01*
X117814858Y-78819447D01*
X117807417Y-78807031D01*
X117801228Y-78793946D01*
X117796351Y-78780317D01*
X117792834Y-78766276D01*
X117790710Y-78751958D01*
X117790000Y-78737500D01*
X117790000Y-78442500D01*
X117790710Y-78428042D01*
X117792834Y-78413724D01*
X117796351Y-78399683D01*
X117801228Y-78386054D01*
X117807417Y-78372969D01*
X117814858Y-78360553D01*
X117823481Y-78348927D01*
X117833202Y-78338202D01*
X117843927Y-78328481D01*
X117855553Y-78319858D01*
X117867969Y-78312417D01*
X117881054Y-78306228D01*
X117894683Y-78301351D01*
X117908724Y-78297834D01*
X117923042Y-78295710D01*
X117937500Y-78295000D01*
X118282500Y-78295000D01*
X118296958Y-78295710D01*
G37*
G36*
X118296958Y-77325710D02*
G01*
X118311276Y-77327834D01*
X118325317Y-77331351D01*
X118338946Y-77336228D01*
X118352031Y-77342417D01*
X118364447Y-77349858D01*
X118376073Y-77358481D01*
X118386798Y-77368202D01*
X118396519Y-77378927D01*
X118405142Y-77390553D01*
X118412583Y-77402969D01*
X118418772Y-77416054D01*
X118423649Y-77429683D01*
X118427166Y-77443724D01*
X118429290Y-77458042D01*
X118430000Y-77472500D01*
X118430000Y-77767500D01*
X118429290Y-77781958D01*
X118427166Y-77796276D01*
X118423649Y-77810317D01*
X118418772Y-77823946D01*
X118412583Y-77837031D01*
X118405142Y-77849447D01*
X118396519Y-77861073D01*
X118386798Y-77871798D01*
X118376073Y-77881519D01*
X118364447Y-77890142D01*
X118352031Y-77897583D01*
X118338946Y-77903772D01*
X118325317Y-77908649D01*
X118311276Y-77912166D01*
X118296958Y-77914290D01*
X118282500Y-77915000D01*
X117937500Y-77915000D01*
X117923042Y-77914290D01*
X117908724Y-77912166D01*
X117894683Y-77908649D01*
X117881054Y-77903772D01*
X117867969Y-77897583D01*
X117855553Y-77890142D01*
X117843927Y-77881519D01*
X117833202Y-77871798D01*
X117823481Y-77861073D01*
X117814858Y-77849447D01*
X117807417Y-77837031D01*
X117801228Y-77823946D01*
X117796351Y-77810317D01*
X117792834Y-77796276D01*
X117790710Y-77781958D01*
X117790000Y-77767500D01*
X117790000Y-77472500D01*
X117790710Y-77458042D01*
X117792834Y-77443724D01*
X117796351Y-77429683D01*
X117801228Y-77416054D01*
X117807417Y-77402969D01*
X117814858Y-77390553D01*
X117823481Y-77378927D01*
X117833202Y-77368202D01*
X117843927Y-77358481D01*
X117855553Y-77349858D01*
X117867969Y-77342417D01*
X117881054Y-77336228D01*
X117894683Y-77331351D01*
X117908724Y-77327834D01*
X117923042Y-77325710D01*
X117937500Y-77325000D01*
X118282500Y-77325000D01*
X118296958Y-77325710D01*
G37*
G36*
X119896958Y-87691710D02*
G01*
X119911276Y-87693834D01*
X119925317Y-87697351D01*
X119938946Y-87702228D01*
X119952031Y-87708417D01*
X119964447Y-87715858D01*
X119976073Y-87724481D01*
X119986798Y-87734202D01*
X119996519Y-87744927D01*
X120005142Y-87756553D01*
X120012583Y-87768969D01*
X120018772Y-87782054D01*
X120023649Y-87795683D01*
X120027166Y-87809724D01*
X120029290Y-87824042D01*
X120030000Y-87838500D01*
X120030000Y-88183500D01*
X120029290Y-88197958D01*
X120027166Y-88212276D01*
X120023649Y-88226317D01*
X120018772Y-88239946D01*
X120012583Y-88253031D01*
X120005142Y-88265447D01*
X119996519Y-88277073D01*
X119986798Y-88287798D01*
X119976073Y-88297519D01*
X119964447Y-88306142D01*
X119952031Y-88313583D01*
X119938946Y-88319772D01*
X119925317Y-88324649D01*
X119911276Y-88328166D01*
X119896958Y-88330290D01*
X119882500Y-88331000D01*
X119587500Y-88331000D01*
X119573042Y-88330290D01*
X119558724Y-88328166D01*
X119544683Y-88324649D01*
X119531054Y-88319772D01*
X119517969Y-88313583D01*
X119505553Y-88306142D01*
X119493927Y-88297519D01*
X119483202Y-88287798D01*
X119473481Y-88277073D01*
X119464858Y-88265447D01*
X119457417Y-88253031D01*
X119451228Y-88239946D01*
X119446351Y-88226317D01*
X119442834Y-88212276D01*
X119440710Y-88197958D01*
X119440000Y-88183500D01*
X119440000Y-87838500D01*
X119440710Y-87824042D01*
X119442834Y-87809724D01*
X119446351Y-87795683D01*
X119451228Y-87782054D01*
X119457417Y-87768969D01*
X119464858Y-87756553D01*
X119473481Y-87744927D01*
X119483202Y-87734202D01*
X119493927Y-87724481D01*
X119505553Y-87715858D01*
X119517969Y-87708417D01*
X119531054Y-87702228D01*
X119544683Y-87697351D01*
X119558724Y-87693834D01*
X119573042Y-87691710D01*
X119587500Y-87691000D01*
X119882500Y-87691000D01*
X119896958Y-87691710D01*
G37*
G36*
X118926958Y-87691710D02*
G01*
X118941276Y-87693834D01*
X118955317Y-87697351D01*
X118968946Y-87702228D01*
X118982031Y-87708417D01*
X118994447Y-87715858D01*
X119006073Y-87724481D01*
X119016798Y-87734202D01*
X119026519Y-87744927D01*
X119035142Y-87756553D01*
X119042583Y-87768969D01*
X119048772Y-87782054D01*
X119053649Y-87795683D01*
X119057166Y-87809724D01*
X119059290Y-87824042D01*
X119060000Y-87838500D01*
X119060000Y-88183500D01*
X119059290Y-88197958D01*
X119057166Y-88212276D01*
X119053649Y-88226317D01*
X119048772Y-88239946D01*
X119042583Y-88253031D01*
X119035142Y-88265447D01*
X119026519Y-88277073D01*
X119016798Y-88287798D01*
X119006073Y-88297519D01*
X118994447Y-88306142D01*
X118982031Y-88313583D01*
X118968946Y-88319772D01*
X118955317Y-88324649D01*
X118941276Y-88328166D01*
X118926958Y-88330290D01*
X118912500Y-88331000D01*
X118617500Y-88331000D01*
X118603042Y-88330290D01*
X118588724Y-88328166D01*
X118574683Y-88324649D01*
X118561054Y-88319772D01*
X118547969Y-88313583D01*
X118535553Y-88306142D01*
X118523927Y-88297519D01*
X118513202Y-88287798D01*
X118503481Y-88277073D01*
X118494858Y-88265447D01*
X118487417Y-88253031D01*
X118481228Y-88239946D01*
X118476351Y-88226317D01*
X118472834Y-88212276D01*
X118470710Y-88197958D01*
X118470000Y-88183500D01*
X118470000Y-87838500D01*
X118470710Y-87824042D01*
X118472834Y-87809724D01*
X118476351Y-87795683D01*
X118481228Y-87782054D01*
X118487417Y-87768969D01*
X118494858Y-87756553D01*
X118503481Y-87744927D01*
X118513202Y-87734202D01*
X118523927Y-87724481D01*
X118535553Y-87715858D01*
X118547969Y-87708417D01*
X118561054Y-87702228D01*
X118574683Y-87697351D01*
X118588724Y-87693834D01*
X118603042Y-87691710D01*
X118617500Y-87691000D01*
X118912500Y-87691000D01*
X118926958Y-87691710D01*
G37*
G36*
X106968958Y-90485710D02*
G01*
X106983276Y-90487834D01*
X106997317Y-90491351D01*
X107010946Y-90496228D01*
X107024031Y-90502417D01*
X107036447Y-90509858D01*
X107048073Y-90518481D01*
X107058798Y-90528202D01*
X107068519Y-90538927D01*
X107077142Y-90550553D01*
X107084583Y-90562969D01*
X107090772Y-90576054D01*
X107095649Y-90589683D01*
X107099166Y-90603724D01*
X107101290Y-90618042D01*
X107102000Y-90632500D01*
X107102000Y-90977500D01*
X107101290Y-90991958D01*
X107099166Y-91006276D01*
X107095649Y-91020317D01*
X107090772Y-91033946D01*
X107084583Y-91047031D01*
X107077142Y-91059447D01*
X107068519Y-91071073D01*
X107058798Y-91081798D01*
X107048073Y-91091519D01*
X107036447Y-91100142D01*
X107024031Y-91107583D01*
X107010946Y-91113772D01*
X106997317Y-91118649D01*
X106983276Y-91122166D01*
X106968958Y-91124290D01*
X106954500Y-91125000D01*
X106659500Y-91125000D01*
X106645042Y-91124290D01*
X106630724Y-91122166D01*
X106616683Y-91118649D01*
X106603054Y-91113772D01*
X106589969Y-91107583D01*
X106577553Y-91100142D01*
X106565927Y-91091519D01*
X106555202Y-91081798D01*
X106545481Y-91071073D01*
X106536858Y-91059447D01*
X106529417Y-91047031D01*
X106523228Y-91033946D01*
X106518351Y-91020317D01*
X106514834Y-91006276D01*
X106512710Y-90991958D01*
X106512000Y-90977500D01*
X106512000Y-90632500D01*
X106512710Y-90618042D01*
X106514834Y-90603724D01*
X106518351Y-90589683D01*
X106523228Y-90576054D01*
X106529417Y-90562969D01*
X106536858Y-90550553D01*
X106545481Y-90538927D01*
X106555202Y-90528202D01*
X106565927Y-90518481D01*
X106577553Y-90509858D01*
X106589969Y-90502417D01*
X106603054Y-90496228D01*
X106616683Y-90491351D01*
X106630724Y-90487834D01*
X106645042Y-90485710D01*
X106659500Y-90485000D01*
X106954500Y-90485000D01*
X106968958Y-90485710D01*
G37*
G36*
X105998958Y-90485710D02*
G01*
X106013276Y-90487834D01*
X106027317Y-90491351D01*
X106040946Y-90496228D01*
X106054031Y-90502417D01*
X106066447Y-90509858D01*
X106078073Y-90518481D01*
X106088798Y-90528202D01*
X106098519Y-90538927D01*
X106107142Y-90550553D01*
X106114583Y-90562969D01*
X106120772Y-90576054D01*
X106125649Y-90589683D01*
X106129166Y-90603724D01*
X106131290Y-90618042D01*
X106132000Y-90632500D01*
X106132000Y-90977500D01*
X106131290Y-90991958D01*
X106129166Y-91006276D01*
X106125649Y-91020317D01*
X106120772Y-91033946D01*
X106114583Y-91047031D01*
X106107142Y-91059447D01*
X106098519Y-91071073D01*
X106088798Y-91081798D01*
X106078073Y-91091519D01*
X106066447Y-91100142D01*
X106054031Y-91107583D01*
X106040946Y-91113772D01*
X106027317Y-91118649D01*
X106013276Y-91122166D01*
X105998958Y-91124290D01*
X105984500Y-91125000D01*
X105689500Y-91125000D01*
X105675042Y-91124290D01*
X105660724Y-91122166D01*
X105646683Y-91118649D01*
X105633054Y-91113772D01*
X105619969Y-91107583D01*
X105607553Y-91100142D01*
X105595927Y-91091519D01*
X105585202Y-91081798D01*
X105575481Y-91071073D01*
X105566858Y-91059447D01*
X105559417Y-91047031D01*
X105553228Y-91033946D01*
X105548351Y-91020317D01*
X105544834Y-91006276D01*
X105542710Y-90991958D01*
X105542000Y-90977500D01*
X105542000Y-90632500D01*
X105542710Y-90618042D01*
X105544834Y-90603724D01*
X105548351Y-90589683D01*
X105553228Y-90576054D01*
X105559417Y-90562969D01*
X105566858Y-90550553D01*
X105575481Y-90538927D01*
X105585202Y-90528202D01*
X105595927Y-90518481D01*
X105607553Y-90509858D01*
X105619969Y-90502417D01*
X105633054Y-90496228D01*
X105646683Y-90491351D01*
X105660724Y-90487834D01*
X105675042Y-90485710D01*
X105689500Y-90485000D01*
X105984500Y-90485000D01*
X105998958Y-90485710D01*
G37*
G36*
X106999031Y-78438773D02*
G01*
X107020266Y-78441923D01*
X107041090Y-78447139D01*
X107061302Y-78454371D01*
X107080708Y-78463550D01*
X107099121Y-78474586D01*
X107116364Y-78487374D01*
X107132270Y-78501790D01*
X107146686Y-78517696D01*
X107159474Y-78534939D01*
X107170510Y-78553352D01*
X107179689Y-78572758D01*
X107186921Y-78592970D01*
X107192137Y-78613794D01*
X107195287Y-78635029D01*
X107196340Y-78656470D01*
X107196340Y-79168970D01*
X107195287Y-79190411D01*
X107192137Y-79211646D01*
X107186921Y-79232470D01*
X107179689Y-79252682D01*
X107170510Y-79272088D01*
X107159474Y-79290501D01*
X107146686Y-79307744D01*
X107132270Y-79323650D01*
X107116364Y-79338066D01*
X107099121Y-79350854D01*
X107080708Y-79361890D01*
X107061302Y-79371069D01*
X107041090Y-79378301D01*
X107020266Y-79383517D01*
X106999031Y-79386667D01*
X106977590Y-79387720D01*
X106540090Y-79387720D01*
X106518649Y-79386667D01*
X106497414Y-79383517D01*
X106476590Y-79378301D01*
X106456378Y-79371069D01*
X106436972Y-79361890D01*
X106418559Y-79350854D01*
X106401316Y-79338066D01*
X106385410Y-79323650D01*
X106370994Y-79307744D01*
X106358206Y-79290501D01*
X106347170Y-79272088D01*
X106337991Y-79252682D01*
X106330759Y-79232470D01*
X106325543Y-79211646D01*
X106322393Y-79190411D01*
X106321340Y-79168970D01*
X106321340Y-78656470D01*
X106322393Y-78635029D01*
X106325543Y-78613794D01*
X106330759Y-78592970D01*
X106337991Y-78572758D01*
X106347170Y-78553352D01*
X106358206Y-78534939D01*
X106370994Y-78517696D01*
X106385410Y-78501790D01*
X106401316Y-78487374D01*
X106418559Y-78474586D01*
X106436972Y-78463550D01*
X106456378Y-78454371D01*
X106476590Y-78447139D01*
X106497414Y-78441923D01*
X106518649Y-78438773D01*
X106540090Y-78437720D01*
X106977590Y-78437720D01*
X106999031Y-78438773D01*
G37*
G36*
X105424031Y-78438773D02*
G01*
X105445266Y-78441923D01*
X105466090Y-78447139D01*
X105486302Y-78454371D01*
X105505708Y-78463550D01*
X105524121Y-78474586D01*
X105541364Y-78487374D01*
X105557270Y-78501790D01*
X105571686Y-78517696D01*
X105584474Y-78534939D01*
X105595510Y-78553352D01*
X105604689Y-78572758D01*
X105611921Y-78592970D01*
X105617137Y-78613794D01*
X105620287Y-78635029D01*
X105621340Y-78656470D01*
X105621340Y-79168970D01*
X105620287Y-79190411D01*
X105617137Y-79211646D01*
X105611921Y-79232470D01*
X105604689Y-79252682D01*
X105595510Y-79272088D01*
X105584474Y-79290501D01*
X105571686Y-79307744D01*
X105557270Y-79323650D01*
X105541364Y-79338066D01*
X105524121Y-79350854D01*
X105505708Y-79361890D01*
X105486302Y-79371069D01*
X105466090Y-79378301D01*
X105445266Y-79383517D01*
X105424031Y-79386667D01*
X105402590Y-79387720D01*
X104965090Y-79387720D01*
X104943649Y-79386667D01*
X104922414Y-79383517D01*
X104901590Y-79378301D01*
X104881378Y-79371069D01*
X104861972Y-79361890D01*
X104843559Y-79350854D01*
X104826316Y-79338066D01*
X104810410Y-79323650D01*
X104795994Y-79307744D01*
X104783206Y-79290501D01*
X104772170Y-79272088D01*
X104762991Y-79252682D01*
X104755759Y-79232470D01*
X104750543Y-79211646D01*
X104747393Y-79190411D01*
X104746340Y-79168970D01*
X104746340Y-78656470D01*
X104747393Y-78635029D01*
X104750543Y-78613794D01*
X104755759Y-78592970D01*
X104762991Y-78572758D01*
X104772170Y-78553352D01*
X104783206Y-78534939D01*
X104795994Y-78517696D01*
X104810410Y-78501790D01*
X104826316Y-78487374D01*
X104843559Y-78474586D01*
X104861972Y-78463550D01*
X104881378Y-78454371D01*
X104901590Y-78447139D01*
X104922414Y-78441923D01*
X104943649Y-78438773D01*
X104965090Y-78437720D01*
X105402590Y-78437720D01*
X105424031Y-78438773D01*
G37*
G36*
X120296958Y-100580710D02*
G01*
X120311276Y-100582834D01*
X120325317Y-100586351D01*
X120338946Y-100591228D01*
X120352031Y-100597417D01*
X120364447Y-100604858D01*
X120376073Y-100613481D01*
X120386798Y-100623202D01*
X120396519Y-100633927D01*
X120405142Y-100645553D01*
X120412583Y-100657969D01*
X120418772Y-100671054D01*
X120423649Y-100684683D01*
X120427166Y-100698724D01*
X120429290Y-100713042D01*
X120430000Y-100727500D01*
X120430000Y-101072500D01*
X120429290Y-101086958D01*
X120427166Y-101101276D01*
X120423649Y-101115317D01*
X120418772Y-101128946D01*
X120412583Y-101142031D01*
X120405142Y-101154447D01*
X120396519Y-101166073D01*
X120386798Y-101176798D01*
X120376073Y-101186519D01*
X120364447Y-101195142D01*
X120352031Y-101202583D01*
X120338946Y-101208772D01*
X120325317Y-101213649D01*
X120311276Y-101217166D01*
X120296958Y-101219290D01*
X120282500Y-101220000D01*
X119987500Y-101220000D01*
X119973042Y-101219290D01*
X119958724Y-101217166D01*
X119944683Y-101213649D01*
X119931054Y-101208772D01*
X119917969Y-101202583D01*
X119905553Y-101195142D01*
X119893927Y-101186519D01*
X119883202Y-101176798D01*
X119873481Y-101166073D01*
X119864858Y-101154447D01*
X119857417Y-101142031D01*
X119851228Y-101128946D01*
X119846351Y-101115317D01*
X119842834Y-101101276D01*
X119840710Y-101086958D01*
X119840000Y-101072500D01*
X119840000Y-100727500D01*
X119840710Y-100713042D01*
X119842834Y-100698724D01*
X119846351Y-100684683D01*
X119851228Y-100671054D01*
X119857417Y-100657969D01*
X119864858Y-100645553D01*
X119873481Y-100633927D01*
X119883202Y-100623202D01*
X119893927Y-100613481D01*
X119905553Y-100604858D01*
X119917969Y-100597417D01*
X119931054Y-100591228D01*
X119944683Y-100586351D01*
X119958724Y-100582834D01*
X119973042Y-100580710D01*
X119987500Y-100580000D01*
X120282500Y-100580000D01*
X120296958Y-100580710D01*
G37*
G36*
X119326958Y-100580710D02*
G01*
X119341276Y-100582834D01*
X119355317Y-100586351D01*
X119368946Y-100591228D01*
X119382031Y-100597417D01*
X119394447Y-100604858D01*
X119406073Y-100613481D01*
X119416798Y-100623202D01*
X119426519Y-100633927D01*
X119435142Y-100645553D01*
X119442583Y-100657969D01*
X119448772Y-100671054D01*
X119453649Y-100684683D01*
X119457166Y-100698724D01*
X119459290Y-100713042D01*
X119460000Y-100727500D01*
X119460000Y-101072500D01*
X119459290Y-101086958D01*
X119457166Y-101101276D01*
X119453649Y-101115317D01*
X119448772Y-101128946D01*
X119442583Y-101142031D01*
X119435142Y-101154447D01*
X119426519Y-101166073D01*
X119416798Y-101176798D01*
X119406073Y-101186519D01*
X119394447Y-101195142D01*
X119382031Y-101202583D01*
X119368946Y-101208772D01*
X119355317Y-101213649D01*
X119341276Y-101217166D01*
X119326958Y-101219290D01*
X119312500Y-101220000D01*
X119017500Y-101220000D01*
X119003042Y-101219290D01*
X118988724Y-101217166D01*
X118974683Y-101213649D01*
X118961054Y-101208772D01*
X118947969Y-101202583D01*
X118935553Y-101195142D01*
X118923927Y-101186519D01*
X118913202Y-101176798D01*
X118903481Y-101166073D01*
X118894858Y-101154447D01*
X118887417Y-101142031D01*
X118881228Y-101128946D01*
X118876351Y-101115317D01*
X118872834Y-101101276D01*
X118870710Y-101086958D01*
X118870000Y-101072500D01*
X118870000Y-100727500D01*
X118870710Y-100713042D01*
X118872834Y-100698724D01*
X118876351Y-100684683D01*
X118881228Y-100671054D01*
X118887417Y-100657969D01*
X118894858Y-100645553D01*
X118903481Y-100633927D01*
X118913202Y-100623202D01*
X118923927Y-100613481D01*
X118935553Y-100604858D01*
X118947969Y-100597417D01*
X118961054Y-100591228D01*
X118974683Y-100586351D01*
X118988724Y-100582834D01*
X119003042Y-100580710D01*
X119017500Y-100580000D01*
X119312500Y-100580000D01*
X119326958Y-100580710D01*
G37*
G36*
X118675958Y-89723710D02*
G01*
X118690276Y-89725834D01*
X118704317Y-89729351D01*
X118717946Y-89734228D01*
X118731031Y-89740417D01*
X118743447Y-89747858D01*
X118755073Y-89756481D01*
X118765798Y-89766202D01*
X118775519Y-89776927D01*
X118784142Y-89788553D01*
X118791583Y-89800969D01*
X118797772Y-89814054D01*
X118802649Y-89827683D01*
X118806166Y-89841724D01*
X118808290Y-89856042D01*
X118809000Y-89870500D01*
X118809000Y-90215500D01*
X118808290Y-90229958D01*
X118806166Y-90244276D01*
X118802649Y-90258317D01*
X118797772Y-90271946D01*
X118791583Y-90285031D01*
X118784142Y-90297447D01*
X118775519Y-90309073D01*
X118765798Y-90319798D01*
X118755073Y-90329519D01*
X118743447Y-90338142D01*
X118731031Y-90345583D01*
X118717946Y-90351772D01*
X118704317Y-90356649D01*
X118690276Y-90360166D01*
X118675958Y-90362290D01*
X118661500Y-90363000D01*
X118366500Y-90363000D01*
X118352042Y-90362290D01*
X118337724Y-90360166D01*
X118323683Y-90356649D01*
X118310054Y-90351772D01*
X118296969Y-90345583D01*
X118284553Y-90338142D01*
X118272927Y-90329519D01*
X118262202Y-90319798D01*
X118252481Y-90309073D01*
X118243858Y-90297447D01*
X118236417Y-90285031D01*
X118230228Y-90271946D01*
X118225351Y-90258317D01*
X118221834Y-90244276D01*
X118219710Y-90229958D01*
X118219000Y-90215500D01*
X118219000Y-89870500D01*
X118219710Y-89856042D01*
X118221834Y-89841724D01*
X118225351Y-89827683D01*
X118230228Y-89814054D01*
X118236417Y-89800969D01*
X118243858Y-89788553D01*
X118252481Y-89776927D01*
X118262202Y-89766202D01*
X118272927Y-89756481D01*
X118284553Y-89747858D01*
X118296969Y-89740417D01*
X118310054Y-89734228D01*
X118323683Y-89729351D01*
X118337724Y-89725834D01*
X118352042Y-89723710D01*
X118366500Y-89723000D01*
X118661500Y-89723000D01*
X118675958Y-89723710D01*
G37*
G36*
X119645958Y-89723710D02*
G01*
X119660276Y-89725834D01*
X119674317Y-89729351D01*
X119687946Y-89734228D01*
X119701031Y-89740417D01*
X119713447Y-89747858D01*
X119725073Y-89756481D01*
X119735798Y-89766202D01*
X119745519Y-89776927D01*
X119754142Y-89788553D01*
X119761583Y-89800969D01*
X119767772Y-89814054D01*
X119772649Y-89827683D01*
X119776166Y-89841724D01*
X119778290Y-89856042D01*
X119779000Y-89870500D01*
X119779000Y-90215500D01*
X119778290Y-90229958D01*
X119776166Y-90244276D01*
X119772649Y-90258317D01*
X119767772Y-90271946D01*
X119761583Y-90285031D01*
X119754142Y-90297447D01*
X119745519Y-90309073D01*
X119735798Y-90319798D01*
X119725073Y-90329519D01*
X119713447Y-90338142D01*
X119701031Y-90345583D01*
X119687946Y-90351772D01*
X119674317Y-90356649D01*
X119660276Y-90360166D01*
X119645958Y-90362290D01*
X119631500Y-90363000D01*
X119336500Y-90363000D01*
X119322042Y-90362290D01*
X119307724Y-90360166D01*
X119293683Y-90356649D01*
X119280054Y-90351772D01*
X119266969Y-90345583D01*
X119254553Y-90338142D01*
X119242927Y-90329519D01*
X119232202Y-90319798D01*
X119222481Y-90309073D01*
X119213858Y-90297447D01*
X119206417Y-90285031D01*
X119200228Y-90271946D01*
X119195351Y-90258317D01*
X119191834Y-90244276D01*
X119189710Y-90229958D01*
X119189000Y-90215500D01*
X119189000Y-89870500D01*
X119189710Y-89856042D01*
X119191834Y-89841724D01*
X119195351Y-89827683D01*
X119200228Y-89814054D01*
X119206417Y-89800969D01*
X119213858Y-89788553D01*
X119222481Y-89776927D01*
X119232202Y-89766202D01*
X119242927Y-89756481D01*
X119254553Y-89747858D01*
X119266969Y-89740417D01*
X119280054Y-89734228D01*
X119293683Y-89729351D01*
X119307724Y-89725834D01*
X119322042Y-89723710D01*
X119336500Y-89723000D01*
X119631500Y-89723000D01*
X119645958Y-89723710D01*
G37*
G36*
X106926958Y-99630710D02*
G01*
X106941276Y-99632834D01*
X106955317Y-99636351D01*
X106968946Y-99641228D01*
X106982031Y-99647417D01*
X106994447Y-99654858D01*
X107006073Y-99663481D01*
X107016798Y-99673202D01*
X107026519Y-99683927D01*
X107035142Y-99695553D01*
X107042583Y-99707969D01*
X107048772Y-99721054D01*
X107053649Y-99734683D01*
X107057166Y-99748724D01*
X107059290Y-99763042D01*
X107060000Y-99777500D01*
X107060000Y-100122500D01*
X107059290Y-100136958D01*
X107057166Y-100151276D01*
X107053649Y-100165317D01*
X107048772Y-100178946D01*
X107042583Y-100192031D01*
X107035142Y-100204447D01*
X107026519Y-100216073D01*
X107016798Y-100226798D01*
X107006073Y-100236519D01*
X106994447Y-100245142D01*
X106982031Y-100252583D01*
X106968946Y-100258772D01*
X106955317Y-100263649D01*
X106941276Y-100267166D01*
X106926958Y-100269290D01*
X106912500Y-100270000D01*
X106617500Y-100270000D01*
X106603042Y-100269290D01*
X106588724Y-100267166D01*
X106574683Y-100263649D01*
X106561054Y-100258772D01*
X106547969Y-100252583D01*
X106535553Y-100245142D01*
X106523927Y-100236519D01*
X106513202Y-100226798D01*
X106503481Y-100216073D01*
X106494858Y-100204447D01*
X106487417Y-100192031D01*
X106481228Y-100178946D01*
X106476351Y-100165317D01*
X106472834Y-100151276D01*
X106470710Y-100136958D01*
X106470000Y-100122500D01*
X106470000Y-99777500D01*
X106470710Y-99763042D01*
X106472834Y-99748724D01*
X106476351Y-99734683D01*
X106481228Y-99721054D01*
X106487417Y-99707969D01*
X106494858Y-99695553D01*
X106503481Y-99683927D01*
X106513202Y-99673202D01*
X106523927Y-99663481D01*
X106535553Y-99654858D01*
X106547969Y-99647417D01*
X106561054Y-99641228D01*
X106574683Y-99636351D01*
X106588724Y-99632834D01*
X106603042Y-99630710D01*
X106617500Y-99630000D01*
X106912500Y-99630000D01*
X106926958Y-99630710D01*
G37*
G36*
X107896958Y-99630710D02*
G01*
X107911276Y-99632834D01*
X107925317Y-99636351D01*
X107938946Y-99641228D01*
X107952031Y-99647417D01*
X107964447Y-99654858D01*
X107976073Y-99663481D01*
X107986798Y-99673202D01*
X107996519Y-99683927D01*
X108005142Y-99695553D01*
X108012583Y-99707969D01*
X108018772Y-99721054D01*
X108023649Y-99734683D01*
X108027166Y-99748724D01*
X108029290Y-99763042D01*
X108030000Y-99777500D01*
X108030000Y-100122500D01*
X108029290Y-100136958D01*
X108027166Y-100151276D01*
X108023649Y-100165317D01*
X108018772Y-100178946D01*
X108012583Y-100192031D01*
X108005142Y-100204447D01*
X107996519Y-100216073D01*
X107986798Y-100226798D01*
X107976073Y-100236519D01*
X107964447Y-100245142D01*
X107952031Y-100252583D01*
X107938946Y-100258772D01*
X107925317Y-100263649D01*
X107911276Y-100267166D01*
X107896958Y-100269290D01*
X107882500Y-100270000D01*
X107587500Y-100270000D01*
X107573042Y-100269290D01*
X107558724Y-100267166D01*
X107544683Y-100263649D01*
X107531054Y-100258772D01*
X107517969Y-100252583D01*
X107505553Y-100245142D01*
X107493927Y-100236519D01*
X107483202Y-100226798D01*
X107473481Y-100216073D01*
X107464858Y-100204447D01*
X107457417Y-100192031D01*
X107451228Y-100178946D01*
X107446351Y-100165317D01*
X107442834Y-100151276D01*
X107440710Y-100136958D01*
X107440000Y-100122500D01*
X107440000Y-99777500D01*
X107440710Y-99763042D01*
X107442834Y-99748724D01*
X107446351Y-99734683D01*
X107451228Y-99721054D01*
X107457417Y-99707969D01*
X107464858Y-99695553D01*
X107473481Y-99683927D01*
X107483202Y-99673202D01*
X107493927Y-99663481D01*
X107505553Y-99654858D01*
X107517969Y-99647417D01*
X107531054Y-99641228D01*
X107544683Y-99636351D01*
X107558724Y-99632834D01*
X107573042Y-99630710D01*
X107587500Y-99630000D01*
X107882500Y-99630000D01*
X107896958Y-99630710D01*
G37*
G36*
X100265391Y-92134453D02*
G01*
X100286626Y-92137603D01*
X100307450Y-92142819D01*
X100327662Y-92150051D01*
X100347068Y-92159230D01*
X100365481Y-92170266D01*
X100382724Y-92183054D01*
X100398630Y-92197470D01*
X100413046Y-92213376D01*
X100425834Y-92230619D01*
X100436870Y-92249032D01*
X100446049Y-92268438D01*
X100453281Y-92288650D01*
X100458497Y-92309474D01*
X100461647Y-92330709D01*
X100462700Y-92352150D01*
X100462700Y-92864650D01*
X100461647Y-92886091D01*
X100458497Y-92907326D01*
X100453281Y-92928150D01*
X100446049Y-92948362D01*
X100436870Y-92967768D01*
X100425834Y-92986181D01*
X100413046Y-93003424D01*
X100398630Y-93019330D01*
X100382724Y-93033746D01*
X100365481Y-93046534D01*
X100347068Y-93057570D01*
X100327662Y-93066749D01*
X100307450Y-93073981D01*
X100286626Y-93079197D01*
X100265391Y-93082347D01*
X100243950Y-93083400D01*
X99806450Y-93083400D01*
X99785009Y-93082347D01*
X99763774Y-93079197D01*
X99742950Y-93073981D01*
X99722738Y-93066749D01*
X99703332Y-93057570D01*
X99684919Y-93046534D01*
X99667676Y-93033746D01*
X99651770Y-93019330D01*
X99637354Y-93003424D01*
X99624566Y-92986181D01*
X99613530Y-92967768D01*
X99604351Y-92948362D01*
X99597119Y-92928150D01*
X99591903Y-92907326D01*
X99588753Y-92886091D01*
X99587700Y-92864650D01*
X99587700Y-92352150D01*
X99588753Y-92330709D01*
X99591903Y-92309474D01*
X99597119Y-92288650D01*
X99604351Y-92268438D01*
X99613530Y-92249032D01*
X99624566Y-92230619D01*
X99637354Y-92213376D01*
X99651770Y-92197470D01*
X99667676Y-92183054D01*
X99684919Y-92170266D01*
X99703332Y-92159230D01*
X99722738Y-92150051D01*
X99742950Y-92142819D01*
X99763774Y-92137603D01*
X99785009Y-92134453D01*
X99806450Y-92133400D01*
X100243950Y-92133400D01*
X100265391Y-92134453D01*
G37*
G36*
X98690391Y-92134453D02*
G01*
X98711626Y-92137603D01*
X98732450Y-92142819D01*
X98752662Y-92150051D01*
X98772068Y-92159230D01*
X98790481Y-92170266D01*
X98807724Y-92183054D01*
X98823630Y-92197470D01*
X98838046Y-92213376D01*
X98850834Y-92230619D01*
X98861870Y-92249032D01*
X98871049Y-92268438D01*
X98878281Y-92288650D01*
X98883497Y-92309474D01*
X98886647Y-92330709D01*
X98887700Y-92352150D01*
X98887700Y-92864650D01*
X98886647Y-92886091D01*
X98883497Y-92907326D01*
X98878281Y-92928150D01*
X98871049Y-92948362D01*
X98861870Y-92967768D01*
X98850834Y-92986181D01*
X98838046Y-93003424D01*
X98823630Y-93019330D01*
X98807724Y-93033746D01*
X98790481Y-93046534D01*
X98772068Y-93057570D01*
X98752662Y-93066749D01*
X98732450Y-93073981D01*
X98711626Y-93079197D01*
X98690391Y-93082347D01*
X98668950Y-93083400D01*
X98231450Y-93083400D01*
X98210009Y-93082347D01*
X98188774Y-93079197D01*
X98167950Y-93073981D01*
X98147738Y-93066749D01*
X98128332Y-93057570D01*
X98109919Y-93046534D01*
X98092676Y-93033746D01*
X98076770Y-93019330D01*
X98062354Y-93003424D01*
X98049566Y-92986181D01*
X98038530Y-92967768D01*
X98029351Y-92948362D01*
X98022119Y-92928150D01*
X98016903Y-92907326D01*
X98013753Y-92886091D01*
X98012700Y-92864650D01*
X98012700Y-92352150D01*
X98013753Y-92330709D01*
X98016903Y-92309474D01*
X98022119Y-92288650D01*
X98029351Y-92268438D01*
X98038530Y-92249032D01*
X98049566Y-92230619D01*
X98062354Y-92213376D01*
X98076770Y-92197470D01*
X98092676Y-92183054D01*
X98109919Y-92170266D01*
X98128332Y-92159230D01*
X98147738Y-92150051D01*
X98167950Y-92142819D01*
X98188774Y-92137603D01*
X98210009Y-92134453D01*
X98231450Y-92133400D01*
X98668950Y-92133400D01*
X98690391Y-92134453D01*
G37*
G36*
X103109991Y-94979253D02*
G01*
X103131226Y-94982403D01*
X103152050Y-94987619D01*
X103172262Y-94994851D01*
X103191668Y-95004030D01*
X103210081Y-95015066D01*
X103227324Y-95027854D01*
X103243230Y-95042270D01*
X103257646Y-95058176D01*
X103270434Y-95075419D01*
X103281470Y-95093832D01*
X103290649Y-95113238D01*
X103297881Y-95133450D01*
X103303097Y-95154274D01*
X103306247Y-95175509D01*
X103307300Y-95196950D01*
X103307300Y-95709450D01*
X103306247Y-95730891D01*
X103303097Y-95752126D01*
X103297881Y-95772950D01*
X103290649Y-95793162D01*
X103281470Y-95812568D01*
X103270434Y-95830981D01*
X103257646Y-95848224D01*
X103243230Y-95864130D01*
X103227324Y-95878546D01*
X103210081Y-95891334D01*
X103191668Y-95902370D01*
X103172262Y-95911549D01*
X103152050Y-95918781D01*
X103131226Y-95923997D01*
X103109991Y-95927147D01*
X103088550Y-95928200D01*
X102651050Y-95928200D01*
X102629609Y-95927147D01*
X102608374Y-95923997D01*
X102587550Y-95918781D01*
X102567338Y-95911549D01*
X102547932Y-95902370D01*
X102529519Y-95891334D01*
X102512276Y-95878546D01*
X102496370Y-95864130D01*
X102481954Y-95848224D01*
X102469166Y-95830981D01*
X102458130Y-95812568D01*
X102448951Y-95793162D01*
X102441719Y-95772950D01*
X102436503Y-95752126D01*
X102433353Y-95730891D01*
X102432300Y-95709450D01*
X102432300Y-95196950D01*
X102433353Y-95175509D01*
X102436503Y-95154274D01*
X102441719Y-95133450D01*
X102448951Y-95113238D01*
X102458130Y-95093832D01*
X102469166Y-95075419D01*
X102481954Y-95058176D01*
X102496370Y-95042270D01*
X102512276Y-95027854D01*
X102529519Y-95015066D01*
X102547932Y-95004030D01*
X102567338Y-94994851D01*
X102587550Y-94987619D01*
X102608374Y-94982403D01*
X102629609Y-94979253D01*
X102651050Y-94978200D01*
X103088550Y-94978200D01*
X103109991Y-94979253D01*
G37*
G36*
X104684991Y-94979253D02*
G01*
X104706226Y-94982403D01*
X104727050Y-94987619D01*
X104747262Y-94994851D01*
X104766668Y-95004030D01*
X104785081Y-95015066D01*
X104802324Y-95027854D01*
X104818230Y-95042270D01*
X104832646Y-95058176D01*
X104845434Y-95075419D01*
X104856470Y-95093832D01*
X104865649Y-95113238D01*
X104872881Y-95133450D01*
X104878097Y-95154274D01*
X104881247Y-95175509D01*
X104882300Y-95196950D01*
X104882300Y-95709450D01*
X104881247Y-95730891D01*
X104878097Y-95752126D01*
X104872881Y-95772950D01*
X104865649Y-95793162D01*
X104856470Y-95812568D01*
X104845434Y-95830981D01*
X104832646Y-95848224D01*
X104818230Y-95864130D01*
X104802324Y-95878546D01*
X104785081Y-95891334D01*
X104766668Y-95902370D01*
X104747262Y-95911549D01*
X104727050Y-95918781D01*
X104706226Y-95923997D01*
X104684991Y-95927147D01*
X104663550Y-95928200D01*
X104226050Y-95928200D01*
X104204609Y-95927147D01*
X104183374Y-95923997D01*
X104162550Y-95918781D01*
X104142338Y-95911549D01*
X104122932Y-95902370D01*
X104104519Y-95891334D01*
X104087276Y-95878546D01*
X104071370Y-95864130D01*
X104056954Y-95848224D01*
X104044166Y-95830981D01*
X104033130Y-95812568D01*
X104023951Y-95793162D01*
X104016719Y-95772950D01*
X104011503Y-95752126D01*
X104008353Y-95730891D01*
X104007300Y-95709450D01*
X104007300Y-95196950D01*
X104008353Y-95175509D01*
X104011503Y-95154274D01*
X104016719Y-95133450D01*
X104023951Y-95113238D01*
X104033130Y-95093832D01*
X104044166Y-95075419D01*
X104056954Y-95058176D01*
X104071370Y-95042270D01*
X104087276Y-95027854D01*
X104104519Y-95015066D01*
X104122932Y-95004030D01*
X104142338Y-94994851D01*
X104162550Y-94987619D01*
X104183374Y-94982403D01*
X104204609Y-94979253D01*
X104226050Y-94978200D01*
X104663550Y-94978200D01*
X104684991Y-94979253D01*
G37*
G36*
X101659958Y-93073710D02*
G01*
X101674276Y-93075834D01*
X101688317Y-93079351D01*
X101701946Y-93084228D01*
X101715031Y-93090417D01*
X101727447Y-93097858D01*
X101739073Y-93106481D01*
X101749798Y-93116202D01*
X101759519Y-93126927D01*
X101768142Y-93138553D01*
X101775583Y-93150969D01*
X101781772Y-93164054D01*
X101786649Y-93177683D01*
X101790166Y-93191724D01*
X101792290Y-93206042D01*
X101793000Y-93220500D01*
X101793000Y-93515500D01*
X101792290Y-93529958D01*
X101790166Y-93544276D01*
X101786649Y-93558317D01*
X101781772Y-93571946D01*
X101775583Y-93585031D01*
X101768142Y-93597447D01*
X101759519Y-93609073D01*
X101749798Y-93619798D01*
X101739073Y-93629519D01*
X101727447Y-93638142D01*
X101715031Y-93645583D01*
X101701946Y-93651772D01*
X101688317Y-93656649D01*
X101674276Y-93660166D01*
X101659958Y-93662290D01*
X101645500Y-93663000D01*
X101300500Y-93663000D01*
X101286042Y-93662290D01*
X101271724Y-93660166D01*
X101257683Y-93656649D01*
X101244054Y-93651772D01*
X101230969Y-93645583D01*
X101218553Y-93638142D01*
X101206927Y-93629519D01*
X101196202Y-93619798D01*
X101186481Y-93609073D01*
X101177858Y-93597447D01*
X101170417Y-93585031D01*
X101164228Y-93571946D01*
X101159351Y-93558317D01*
X101155834Y-93544276D01*
X101153710Y-93529958D01*
X101153000Y-93515500D01*
X101153000Y-93220500D01*
X101153710Y-93206042D01*
X101155834Y-93191724D01*
X101159351Y-93177683D01*
X101164228Y-93164054D01*
X101170417Y-93150969D01*
X101177858Y-93138553D01*
X101186481Y-93126927D01*
X101196202Y-93116202D01*
X101206927Y-93106481D01*
X101218553Y-93097858D01*
X101230969Y-93090417D01*
X101244054Y-93084228D01*
X101257683Y-93079351D01*
X101271724Y-93075834D01*
X101286042Y-93073710D01*
X101300500Y-93073000D01*
X101645500Y-93073000D01*
X101659958Y-93073710D01*
G37*
G36*
X101659958Y-94043710D02*
G01*
X101674276Y-94045834D01*
X101688317Y-94049351D01*
X101701946Y-94054228D01*
X101715031Y-94060417D01*
X101727447Y-94067858D01*
X101739073Y-94076481D01*
X101749798Y-94086202D01*
X101759519Y-94096927D01*
X101768142Y-94108553D01*
X101775583Y-94120969D01*
X101781772Y-94134054D01*
X101786649Y-94147683D01*
X101790166Y-94161724D01*
X101792290Y-94176042D01*
X101793000Y-94190500D01*
X101793000Y-94485500D01*
X101792290Y-94499958D01*
X101790166Y-94514276D01*
X101786649Y-94528317D01*
X101781772Y-94541946D01*
X101775583Y-94555031D01*
X101768142Y-94567447D01*
X101759519Y-94579073D01*
X101749798Y-94589798D01*
X101739073Y-94599519D01*
X101727447Y-94608142D01*
X101715031Y-94615583D01*
X101701946Y-94621772D01*
X101688317Y-94626649D01*
X101674276Y-94630166D01*
X101659958Y-94632290D01*
X101645500Y-94633000D01*
X101300500Y-94633000D01*
X101286042Y-94632290D01*
X101271724Y-94630166D01*
X101257683Y-94626649D01*
X101244054Y-94621772D01*
X101230969Y-94615583D01*
X101218553Y-94608142D01*
X101206927Y-94599519D01*
X101196202Y-94589798D01*
X101186481Y-94579073D01*
X101177858Y-94567447D01*
X101170417Y-94555031D01*
X101164228Y-94541946D01*
X101159351Y-94528317D01*
X101155834Y-94514276D01*
X101153710Y-94499958D01*
X101153000Y-94485500D01*
X101153000Y-94190500D01*
X101153710Y-94176042D01*
X101155834Y-94161724D01*
X101159351Y-94147683D01*
X101164228Y-94134054D01*
X101170417Y-94120969D01*
X101177858Y-94108553D01*
X101186481Y-94096927D01*
X101196202Y-94086202D01*
X101206927Y-94076481D01*
X101218553Y-94067858D01*
X101230969Y-94060417D01*
X101244054Y-94054228D01*
X101257683Y-94049351D01*
X101271724Y-94045834D01*
X101286042Y-94043710D01*
X101300500Y-94043000D01*
X101645500Y-94043000D01*
X101659958Y-94043710D01*
G37*
G36*
X118675958Y-88707710D02*
G01*
X118690276Y-88709834D01*
X118704317Y-88713351D01*
X118717946Y-88718228D01*
X118731031Y-88724417D01*
X118743447Y-88731858D01*
X118755073Y-88740481D01*
X118765798Y-88750202D01*
X118775519Y-88760927D01*
X118784142Y-88772553D01*
X118791583Y-88784969D01*
X118797772Y-88798054D01*
X118802649Y-88811683D01*
X118806166Y-88825724D01*
X118808290Y-88840042D01*
X118809000Y-88854500D01*
X118809000Y-89199500D01*
X118808290Y-89213958D01*
X118806166Y-89228276D01*
X118802649Y-89242317D01*
X118797772Y-89255946D01*
X118791583Y-89269031D01*
X118784142Y-89281447D01*
X118775519Y-89293073D01*
X118765798Y-89303798D01*
X118755073Y-89313519D01*
X118743447Y-89322142D01*
X118731031Y-89329583D01*
X118717946Y-89335772D01*
X118704317Y-89340649D01*
X118690276Y-89344166D01*
X118675958Y-89346290D01*
X118661500Y-89347000D01*
X118366500Y-89347000D01*
X118352042Y-89346290D01*
X118337724Y-89344166D01*
X118323683Y-89340649D01*
X118310054Y-89335772D01*
X118296969Y-89329583D01*
X118284553Y-89322142D01*
X118272927Y-89313519D01*
X118262202Y-89303798D01*
X118252481Y-89293073D01*
X118243858Y-89281447D01*
X118236417Y-89269031D01*
X118230228Y-89255946D01*
X118225351Y-89242317D01*
X118221834Y-89228276D01*
X118219710Y-89213958D01*
X118219000Y-89199500D01*
X118219000Y-88854500D01*
X118219710Y-88840042D01*
X118221834Y-88825724D01*
X118225351Y-88811683D01*
X118230228Y-88798054D01*
X118236417Y-88784969D01*
X118243858Y-88772553D01*
X118252481Y-88760927D01*
X118262202Y-88750202D01*
X118272927Y-88740481D01*
X118284553Y-88731858D01*
X118296969Y-88724417D01*
X118310054Y-88718228D01*
X118323683Y-88713351D01*
X118337724Y-88709834D01*
X118352042Y-88707710D01*
X118366500Y-88707000D01*
X118661500Y-88707000D01*
X118675958Y-88707710D01*
G37*
G36*
X119645958Y-88707710D02*
G01*
X119660276Y-88709834D01*
X119674317Y-88713351D01*
X119687946Y-88718228D01*
X119701031Y-88724417D01*
X119713447Y-88731858D01*
X119725073Y-88740481D01*
X119735798Y-88750202D01*
X119745519Y-88760927D01*
X119754142Y-88772553D01*
X119761583Y-88784969D01*
X119767772Y-88798054D01*
X119772649Y-88811683D01*
X119776166Y-88825724D01*
X119778290Y-88840042D01*
X119779000Y-88854500D01*
X119779000Y-89199500D01*
X119778290Y-89213958D01*
X119776166Y-89228276D01*
X119772649Y-89242317D01*
X119767772Y-89255946D01*
X119761583Y-89269031D01*
X119754142Y-89281447D01*
X119745519Y-89293073D01*
X119735798Y-89303798D01*
X119725073Y-89313519D01*
X119713447Y-89322142D01*
X119701031Y-89329583D01*
X119687946Y-89335772D01*
X119674317Y-89340649D01*
X119660276Y-89344166D01*
X119645958Y-89346290D01*
X119631500Y-89347000D01*
X119336500Y-89347000D01*
X119322042Y-89346290D01*
X119307724Y-89344166D01*
X119293683Y-89340649D01*
X119280054Y-89335772D01*
X119266969Y-89329583D01*
X119254553Y-89322142D01*
X119242927Y-89313519D01*
X119232202Y-89303798D01*
X119222481Y-89293073D01*
X119213858Y-89281447D01*
X119206417Y-89269031D01*
X119200228Y-89255946D01*
X119195351Y-89242317D01*
X119191834Y-89228276D01*
X119189710Y-89213958D01*
X119189000Y-89199500D01*
X119189000Y-88854500D01*
X119189710Y-88840042D01*
X119191834Y-88825724D01*
X119195351Y-88811683D01*
X119200228Y-88798054D01*
X119206417Y-88784969D01*
X119213858Y-88772553D01*
X119222481Y-88760927D01*
X119232202Y-88750202D01*
X119242927Y-88740481D01*
X119254553Y-88731858D01*
X119266969Y-88724417D01*
X119280054Y-88718228D01*
X119293683Y-88713351D01*
X119307724Y-88709834D01*
X119322042Y-88707710D01*
X119336500Y-88707000D01*
X119631500Y-88707000D01*
X119645958Y-88707710D01*
G37*
G36*
X101176958Y-86130710D02*
G01*
X101191276Y-86132834D01*
X101205317Y-86136351D01*
X101218946Y-86141228D01*
X101232031Y-86147417D01*
X101244447Y-86154858D01*
X101256073Y-86163481D01*
X101266798Y-86173202D01*
X101276519Y-86183927D01*
X101285142Y-86195553D01*
X101292583Y-86207969D01*
X101298772Y-86221054D01*
X101303649Y-86234683D01*
X101307166Y-86248724D01*
X101309290Y-86263042D01*
X101310000Y-86277500D01*
X101310000Y-86622500D01*
X101309290Y-86636958D01*
X101307166Y-86651276D01*
X101303649Y-86665317D01*
X101298772Y-86678946D01*
X101292583Y-86692031D01*
X101285142Y-86704447D01*
X101276519Y-86716073D01*
X101266798Y-86726798D01*
X101256073Y-86736519D01*
X101244447Y-86745142D01*
X101232031Y-86752583D01*
X101218946Y-86758772D01*
X101205317Y-86763649D01*
X101191276Y-86767166D01*
X101176958Y-86769290D01*
X101162500Y-86770000D01*
X100867500Y-86770000D01*
X100853042Y-86769290D01*
X100838724Y-86767166D01*
X100824683Y-86763649D01*
X100811054Y-86758772D01*
X100797969Y-86752583D01*
X100785553Y-86745142D01*
X100773927Y-86736519D01*
X100763202Y-86726798D01*
X100753481Y-86716073D01*
X100744858Y-86704447D01*
X100737417Y-86692031D01*
X100731228Y-86678946D01*
X100726351Y-86665317D01*
X100722834Y-86651276D01*
X100720710Y-86636958D01*
X100720000Y-86622500D01*
X100720000Y-86277500D01*
X100720710Y-86263042D01*
X100722834Y-86248724D01*
X100726351Y-86234683D01*
X100731228Y-86221054D01*
X100737417Y-86207969D01*
X100744858Y-86195553D01*
X100753481Y-86183927D01*
X100763202Y-86173202D01*
X100773927Y-86163481D01*
X100785553Y-86154858D01*
X100797969Y-86147417D01*
X100811054Y-86141228D01*
X100824683Y-86136351D01*
X100838724Y-86132834D01*
X100853042Y-86130710D01*
X100867500Y-86130000D01*
X101162500Y-86130000D01*
X101176958Y-86130710D01*
G37*
G36*
X102146958Y-86130710D02*
G01*
X102161276Y-86132834D01*
X102175317Y-86136351D01*
X102188946Y-86141228D01*
X102202031Y-86147417D01*
X102214447Y-86154858D01*
X102226073Y-86163481D01*
X102236798Y-86173202D01*
X102246519Y-86183927D01*
X102255142Y-86195553D01*
X102262583Y-86207969D01*
X102268772Y-86221054D01*
X102273649Y-86234683D01*
X102277166Y-86248724D01*
X102279290Y-86263042D01*
X102280000Y-86277500D01*
X102280000Y-86622500D01*
X102279290Y-86636958D01*
X102277166Y-86651276D01*
X102273649Y-86665317D01*
X102268772Y-86678946D01*
X102262583Y-86692031D01*
X102255142Y-86704447D01*
X102246519Y-86716073D01*
X102236798Y-86726798D01*
X102226073Y-86736519D01*
X102214447Y-86745142D01*
X102202031Y-86752583D01*
X102188946Y-86758772D01*
X102175317Y-86763649D01*
X102161276Y-86767166D01*
X102146958Y-86769290D01*
X102132500Y-86770000D01*
X101837500Y-86770000D01*
X101823042Y-86769290D01*
X101808724Y-86767166D01*
X101794683Y-86763649D01*
X101781054Y-86758772D01*
X101767969Y-86752583D01*
X101755553Y-86745142D01*
X101743927Y-86736519D01*
X101733202Y-86726798D01*
X101723481Y-86716073D01*
X101714858Y-86704447D01*
X101707417Y-86692031D01*
X101701228Y-86678946D01*
X101696351Y-86665317D01*
X101692834Y-86651276D01*
X101690710Y-86636958D01*
X101690000Y-86622500D01*
X101690000Y-86277500D01*
X101690710Y-86263042D01*
X101692834Y-86248724D01*
X101696351Y-86234683D01*
X101701228Y-86221054D01*
X101707417Y-86207969D01*
X101714858Y-86195553D01*
X101723481Y-86183927D01*
X101733202Y-86173202D01*
X101743927Y-86163481D01*
X101755553Y-86154858D01*
X101767969Y-86147417D01*
X101781054Y-86141228D01*
X101794683Y-86136351D01*
X101808724Y-86132834D01*
X101823042Y-86130710D01*
X101837500Y-86130000D01*
X102132500Y-86130000D01*
X102146958Y-86130710D01*
G37*
G36*
X101522091Y-83180153D02*
G01*
X101543326Y-83183303D01*
X101564150Y-83188519D01*
X101584362Y-83195751D01*
X101603768Y-83204930D01*
X101622181Y-83215966D01*
X101639424Y-83228754D01*
X101655330Y-83243170D01*
X101669746Y-83259076D01*
X101682534Y-83276319D01*
X101693570Y-83294732D01*
X101702749Y-83314138D01*
X101709981Y-83334350D01*
X101715197Y-83355174D01*
X101718347Y-83376409D01*
X101719400Y-83397850D01*
X101719400Y-83835350D01*
X101718347Y-83856791D01*
X101715197Y-83878026D01*
X101709981Y-83898850D01*
X101702749Y-83919062D01*
X101693570Y-83938468D01*
X101682534Y-83956881D01*
X101669746Y-83974124D01*
X101655330Y-83990030D01*
X101639424Y-84004446D01*
X101622181Y-84017234D01*
X101603768Y-84028270D01*
X101584362Y-84037449D01*
X101564150Y-84044681D01*
X101543326Y-84049897D01*
X101522091Y-84053047D01*
X101500650Y-84054100D01*
X100988150Y-84054100D01*
X100966709Y-84053047D01*
X100945474Y-84049897D01*
X100924650Y-84044681D01*
X100904438Y-84037449D01*
X100885032Y-84028270D01*
X100866619Y-84017234D01*
X100849376Y-84004446D01*
X100833470Y-83990030D01*
X100819054Y-83974124D01*
X100806266Y-83956881D01*
X100795230Y-83938468D01*
X100786051Y-83919062D01*
X100778819Y-83898850D01*
X100773603Y-83878026D01*
X100770453Y-83856791D01*
X100769400Y-83835350D01*
X100769400Y-83397850D01*
X100770453Y-83376409D01*
X100773603Y-83355174D01*
X100778819Y-83334350D01*
X100786051Y-83314138D01*
X100795230Y-83294732D01*
X100806266Y-83276319D01*
X100819054Y-83259076D01*
X100833470Y-83243170D01*
X100849376Y-83228754D01*
X100866619Y-83215966D01*
X100885032Y-83204930D01*
X100904438Y-83195751D01*
X100924650Y-83188519D01*
X100945474Y-83183303D01*
X100966709Y-83180153D01*
X100988150Y-83179100D01*
X101500650Y-83179100D01*
X101522091Y-83180153D01*
G37*
G36*
X101522091Y-84755153D02*
G01*
X101543326Y-84758303D01*
X101564150Y-84763519D01*
X101584362Y-84770751D01*
X101603768Y-84779930D01*
X101622181Y-84790966D01*
X101639424Y-84803754D01*
X101655330Y-84818170D01*
X101669746Y-84834076D01*
X101682534Y-84851319D01*
X101693570Y-84869732D01*
X101702749Y-84889138D01*
X101709981Y-84909350D01*
X101715197Y-84930174D01*
X101718347Y-84951409D01*
X101719400Y-84972850D01*
X101719400Y-85410350D01*
X101718347Y-85431791D01*
X101715197Y-85453026D01*
X101709981Y-85473850D01*
X101702749Y-85494062D01*
X101693570Y-85513468D01*
X101682534Y-85531881D01*
X101669746Y-85549124D01*
X101655330Y-85565030D01*
X101639424Y-85579446D01*
X101622181Y-85592234D01*
X101603768Y-85603270D01*
X101584362Y-85612449D01*
X101564150Y-85619681D01*
X101543326Y-85624897D01*
X101522091Y-85628047D01*
X101500650Y-85629100D01*
X100988150Y-85629100D01*
X100966709Y-85628047D01*
X100945474Y-85624897D01*
X100924650Y-85619681D01*
X100904438Y-85612449D01*
X100885032Y-85603270D01*
X100866619Y-85592234D01*
X100849376Y-85579446D01*
X100833470Y-85565030D01*
X100819054Y-85549124D01*
X100806266Y-85531881D01*
X100795230Y-85513468D01*
X100786051Y-85494062D01*
X100778819Y-85473850D01*
X100773603Y-85453026D01*
X100770453Y-85431791D01*
X100769400Y-85410350D01*
X100769400Y-84972850D01*
X100770453Y-84951409D01*
X100773603Y-84930174D01*
X100778819Y-84909350D01*
X100786051Y-84889138D01*
X100795230Y-84869732D01*
X100806266Y-84851319D01*
X100819054Y-84834076D01*
X100833470Y-84818170D01*
X100849376Y-84803754D01*
X100866619Y-84790966D01*
X100885032Y-84779930D01*
X100904438Y-84770751D01*
X100924650Y-84763519D01*
X100945474Y-84758303D01*
X100966709Y-84755153D01*
X100988150Y-84754100D01*
X101500650Y-84754100D01*
X101522091Y-84755153D01*
G37*
G36*
X103746958Y-85030710D02*
G01*
X103761276Y-85032834D01*
X103775317Y-85036351D01*
X103788946Y-85041228D01*
X103802031Y-85047417D01*
X103814447Y-85054858D01*
X103826073Y-85063481D01*
X103836798Y-85073202D01*
X103846519Y-85083927D01*
X103855142Y-85095553D01*
X103862583Y-85107969D01*
X103868772Y-85121054D01*
X103873649Y-85134683D01*
X103877166Y-85148724D01*
X103879290Y-85163042D01*
X103880000Y-85177500D01*
X103880000Y-85522500D01*
X103879290Y-85536958D01*
X103877166Y-85551276D01*
X103873649Y-85565317D01*
X103868772Y-85578946D01*
X103862583Y-85592031D01*
X103855142Y-85604447D01*
X103846519Y-85616073D01*
X103836798Y-85626798D01*
X103826073Y-85636519D01*
X103814447Y-85645142D01*
X103802031Y-85652583D01*
X103788946Y-85658772D01*
X103775317Y-85663649D01*
X103761276Y-85667166D01*
X103746958Y-85669290D01*
X103732500Y-85670000D01*
X103437500Y-85670000D01*
X103423042Y-85669290D01*
X103408724Y-85667166D01*
X103394683Y-85663649D01*
X103381054Y-85658772D01*
X103367969Y-85652583D01*
X103355553Y-85645142D01*
X103343927Y-85636519D01*
X103333202Y-85626798D01*
X103323481Y-85616073D01*
X103314858Y-85604447D01*
X103307417Y-85592031D01*
X103301228Y-85578946D01*
X103296351Y-85565317D01*
X103292834Y-85551276D01*
X103290710Y-85536958D01*
X103290000Y-85522500D01*
X103290000Y-85177500D01*
X103290710Y-85163042D01*
X103292834Y-85148724D01*
X103296351Y-85134683D01*
X103301228Y-85121054D01*
X103307417Y-85107969D01*
X103314858Y-85095553D01*
X103323481Y-85083927D01*
X103333202Y-85073202D01*
X103343927Y-85063481D01*
X103355553Y-85054858D01*
X103367969Y-85047417D01*
X103381054Y-85041228D01*
X103394683Y-85036351D01*
X103408724Y-85032834D01*
X103423042Y-85030710D01*
X103437500Y-85030000D01*
X103732500Y-85030000D01*
X103746958Y-85030710D01*
G37*
G36*
X102776958Y-85030710D02*
G01*
X102791276Y-85032834D01*
X102805317Y-85036351D01*
X102818946Y-85041228D01*
X102832031Y-85047417D01*
X102844447Y-85054858D01*
X102856073Y-85063481D01*
X102866798Y-85073202D01*
X102876519Y-85083927D01*
X102885142Y-85095553D01*
X102892583Y-85107969D01*
X102898772Y-85121054D01*
X102903649Y-85134683D01*
X102907166Y-85148724D01*
X102909290Y-85163042D01*
X102910000Y-85177500D01*
X102910000Y-85522500D01*
X102909290Y-85536958D01*
X102907166Y-85551276D01*
X102903649Y-85565317D01*
X102898772Y-85578946D01*
X102892583Y-85592031D01*
X102885142Y-85604447D01*
X102876519Y-85616073D01*
X102866798Y-85626798D01*
X102856073Y-85636519D01*
X102844447Y-85645142D01*
X102832031Y-85652583D01*
X102818946Y-85658772D01*
X102805317Y-85663649D01*
X102791276Y-85667166D01*
X102776958Y-85669290D01*
X102762500Y-85670000D01*
X102467500Y-85670000D01*
X102453042Y-85669290D01*
X102438724Y-85667166D01*
X102424683Y-85663649D01*
X102411054Y-85658772D01*
X102397969Y-85652583D01*
X102385553Y-85645142D01*
X102373927Y-85636519D01*
X102363202Y-85626798D01*
X102353481Y-85616073D01*
X102344858Y-85604447D01*
X102337417Y-85592031D01*
X102331228Y-85578946D01*
X102326351Y-85565317D01*
X102322834Y-85551276D01*
X102320710Y-85536958D01*
X102320000Y-85522500D01*
X102320000Y-85177500D01*
X102320710Y-85163042D01*
X102322834Y-85148724D01*
X102326351Y-85134683D01*
X102331228Y-85121054D01*
X102337417Y-85107969D01*
X102344858Y-85095553D01*
X102353481Y-85083927D01*
X102363202Y-85073202D01*
X102373927Y-85063481D01*
X102385553Y-85054858D01*
X102397969Y-85047417D01*
X102411054Y-85041228D01*
X102424683Y-85036351D01*
X102438724Y-85032834D01*
X102453042Y-85030710D01*
X102467500Y-85030000D01*
X102762500Y-85030000D01*
X102776958Y-85030710D01*
G37*
G36*
X103127691Y-88026053D02*
G01*
X103148926Y-88029203D01*
X103169750Y-88034419D01*
X103189962Y-88041651D01*
X103209368Y-88050830D01*
X103227781Y-88061866D01*
X103245024Y-88074654D01*
X103260930Y-88089070D01*
X103275346Y-88104976D01*
X103288134Y-88122219D01*
X103299170Y-88140632D01*
X103308349Y-88160038D01*
X103315581Y-88180250D01*
X103320797Y-88201074D01*
X103323947Y-88222309D01*
X103325000Y-88243750D01*
X103325000Y-88756250D01*
X103323947Y-88777691D01*
X103320797Y-88798926D01*
X103315581Y-88819750D01*
X103308349Y-88839962D01*
X103299170Y-88859368D01*
X103288134Y-88877781D01*
X103275346Y-88895024D01*
X103260930Y-88910930D01*
X103245024Y-88925346D01*
X103227781Y-88938134D01*
X103209368Y-88949170D01*
X103189962Y-88958349D01*
X103169750Y-88965581D01*
X103148926Y-88970797D01*
X103127691Y-88973947D01*
X103106250Y-88975000D01*
X102668750Y-88975000D01*
X102647309Y-88973947D01*
X102626074Y-88970797D01*
X102605250Y-88965581D01*
X102585038Y-88958349D01*
X102565632Y-88949170D01*
X102547219Y-88938134D01*
X102529976Y-88925346D01*
X102514070Y-88910930D01*
X102499654Y-88895024D01*
X102486866Y-88877781D01*
X102475830Y-88859368D01*
X102466651Y-88839962D01*
X102459419Y-88819750D01*
X102454203Y-88798926D01*
X102451053Y-88777691D01*
X102450000Y-88756250D01*
X102450000Y-88243750D01*
X102451053Y-88222309D01*
X102454203Y-88201074D01*
X102459419Y-88180250D01*
X102466651Y-88160038D01*
X102475830Y-88140632D01*
X102486866Y-88122219D01*
X102499654Y-88104976D01*
X102514070Y-88089070D01*
X102529976Y-88074654D01*
X102547219Y-88061866D01*
X102565632Y-88050830D01*
X102585038Y-88041651D01*
X102605250Y-88034419D01*
X102626074Y-88029203D01*
X102647309Y-88026053D01*
X102668750Y-88025000D01*
X103106250Y-88025000D01*
X103127691Y-88026053D01*
G37*
G36*
X101552691Y-88026053D02*
G01*
X101573926Y-88029203D01*
X101594750Y-88034419D01*
X101614962Y-88041651D01*
X101634368Y-88050830D01*
X101652781Y-88061866D01*
X101670024Y-88074654D01*
X101685930Y-88089070D01*
X101700346Y-88104976D01*
X101713134Y-88122219D01*
X101724170Y-88140632D01*
X101733349Y-88160038D01*
X101740581Y-88180250D01*
X101745797Y-88201074D01*
X101748947Y-88222309D01*
X101750000Y-88243750D01*
X101750000Y-88756250D01*
X101748947Y-88777691D01*
X101745797Y-88798926D01*
X101740581Y-88819750D01*
X101733349Y-88839962D01*
X101724170Y-88859368D01*
X101713134Y-88877781D01*
X101700346Y-88895024D01*
X101685930Y-88910930D01*
X101670024Y-88925346D01*
X101652781Y-88938134D01*
X101634368Y-88949170D01*
X101614962Y-88958349D01*
X101594750Y-88965581D01*
X101573926Y-88970797D01*
X101552691Y-88973947D01*
X101531250Y-88975000D01*
X101093750Y-88975000D01*
X101072309Y-88973947D01*
X101051074Y-88970797D01*
X101030250Y-88965581D01*
X101010038Y-88958349D01*
X100990632Y-88949170D01*
X100972219Y-88938134D01*
X100954976Y-88925346D01*
X100939070Y-88910930D01*
X100924654Y-88895024D01*
X100911866Y-88877781D01*
X100900830Y-88859368D01*
X100891651Y-88839962D01*
X100884419Y-88819750D01*
X100879203Y-88798926D01*
X100876053Y-88777691D01*
X100875000Y-88756250D01*
X100875000Y-88243750D01*
X100876053Y-88222309D01*
X100879203Y-88201074D01*
X100884419Y-88180250D01*
X100891651Y-88160038D01*
X100900830Y-88140632D01*
X100911866Y-88122219D01*
X100924654Y-88104976D01*
X100939070Y-88089070D01*
X100954976Y-88074654D01*
X100972219Y-88061866D01*
X100990632Y-88050830D01*
X101010038Y-88041651D01*
X101030250Y-88034419D01*
X101051074Y-88029203D01*
X101072309Y-88026053D01*
X101093750Y-88025000D01*
X101531250Y-88025000D01*
X101552691Y-88026053D01*
G37*
G36*
X124344958Y-91692210D02*
G01*
X124359276Y-91694334D01*
X124373317Y-91697851D01*
X124386946Y-91702728D01*
X124400031Y-91708917D01*
X124412447Y-91716358D01*
X124424073Y-91724981D01*
X124434798Y-91734702D01*
X124444519Y-91745427D01*
X124453142Y-91757053D01*
X124460583Y-91769469D01*
X124466772Y-91782554D01*
X124471649Y-91796183D01*
X124475166Y-91810224D01*
X124477290Y-91824542D01*
X124478000Y-91839000D01*
X124478000Y-92184000D01*
X124477290Y-92198458D01*
X124475166Y-92212776D01*
X124471649Y-92226817D01*
X124466772Y-92240446D01*
X124460583Y-92253531D01*
X124453142Y-92265947D01*
X124444519Y-92277573D01*
X124434798Y-92288298D01*
X124424073Y-92298019D01*
X124412447Y-92306642D01*
X124400031Y-92314083D01*
X124386946Y-92320272D01*
X124373317Y-92325149D01*
X124359276Y-92328666D01*
X124344958Y-92330790D01*
X124330500Y-92331500D01*
X124035500Y-92331500D01*
X124021042Y-92330790D01*
X124006724Y-92328666D01*
X123992683Y-92325149D01*
X123979054Y-92320272D01*
X123965969Y-92314083D01*
X123953553Y-92306642D01*
X123941927Y-92298019D01*
X123931202Y-92288298D01*
X123921481Y-92277573D01*
X123912858Y-92265947D01*
X123905417Y-92253531D01*
X123899228Y-92240446D01*
X123894351Y-92226817D01*
X123890834Y-92212776D01*
X123888710Y-92198458D01*
X123888000Y-92184000D01*
X123888000Y-91839000D01*
X123888710Y-91824542D01*
X123890834Y-91810224D01*
X123894351Y-91796183D01*
X123899228Y-91782554D01*
X123905417Y-91769469D01*
X123912858Y-91757053D01*
X123921481Y-91745427D01*
X123931202Y-91734702D01*
X123941927Y-91724981D01*
X123953553Y-91716358D01*
X123965969Y-91708917D01*
X123979054Y-91702728D01*
X123992683Y-91697851D01*
X124006724Y-91694334D01*
X124021042Y-91692210D01*
X124035500Y-91691500D01*
X124330500Y-91691500D01*
X124344958Y-91692210D01*
G37*
G36*
X123374958Y-91692210D02*
G01*
X123389276Y-91694334D01*
X123403317Y-91697851D01*
X123416946Y-91702728D01*
X123430031Y-91708917D01*
X123442447Y-91716358D01*
X123454073Y-91724981D01*
X123464798Y-91734702D01*
X123474519Y-91745427D01*
X123483142Y-91757053D01*
X123490583Y-91769469D01*
X123496772Y-91782554D01*
X123501649Y-91796183D01*
X123505166Y-91810224D01*
X123507290Y-91824542D01*
X123508000Y-91839000D01*
X123508000Y-92184000D01*
X123507290Y-92198458D01*
X123505166Y-92212776D01*
X123501649Y-92226817D01*
X123496772Y-92240446D01*
X123490583Y-92253531D01*
X123483142Y-92265947D01*
X123474519Y-92277573D01*
X123464798Y-92288298D01*
X123454073Y-92298019D01*
X123442447Y-92306642D01*
X123430031Y-92314083D01*
X123416946Y-92320272D01*
X123403317Y-92325149D01*
X123389276Y-92328666D01*
X123374958Y-92330790D01*
X123360500Y-92331500D01*
X123065500Y-92331500D01*
X123051042Y-92330790D01*
X123036724Y-92328666D01*
X123022683Y-92325149D01*
X123009054Y-92320272D01*
X122995969Y-92314083D01*
X122983553Y-92306642D01*
X122971927Y-92298019D01*
X122961202Y-92288298D01*
X122951481Y-92277573D01*
X122942858Y-92265947D01*
X122935417Y-92253531D01*
X122929228Y-92240446D01*
X122924351Y-92226817D01*
X122920834Y-92212776D01*
X122918710Y-92198458D01*
X122918000Y-92184000D01*
X122918000Y-91839000D01*
X122918710Y-91824542D01*
X122920834Y-91810224D01*
X122924351Y-91796183D01*
X122929228Y-91782554D01*
X122935417Y-91769469D01*
X122942858Y-91757053D01*
X122951481Y-91745427D01*
X122961202Y-91734702D01*
X122971927Y-91724981D01*
X122983553Y-91716358D01*
X122995969Y-91708917D01*
X123009054Y-91702728D01*
X123022683Y-91697851D01*
X123036724Y-91694334D01*
X123051042Y-91692210D01*
X123065500Y-91691500D01*
X123360500Y-91691500D01*
X123374958Y-91692210D01*
G37*
G36*
X124344958Y-92835210D02*
G01*
X124359276Y-92837334D01*
X124373317Y-92840851D01*
X124386946Y-92845728D01*
X124400031Y-92851917D01*
X124412447Y-92859358D01*
X124424073Y-92867981D01*
X124434798Y-92877702D01*
X124444519Y-92888427D01*
X124453142Y-92900053D01*
X124460583Y-92912469D01*
X124466772Y-92925554D01*
X124471649Y-92939183D01*
X124475166Y-92953224D01*
X124477290Y-92967542D01*
X124478000Y-92982000D01*
X124478000Y-93327000D01*
X124477290Y-93341458D01*
X124475166Y-93355776D01*
X124471649Y-93369817D01*
X124466772Y-93383446D01*
X124460583Y-93396531D01*
X124453142Y-93408947D01*
X124444519Y-93420573D01*
X124434798Y-93431298D01*
X124424073Y-93441019D01*
X124412447Y-93449642D01*
X124400031Y-93457083D01*
X124386946Y-93463272D01*
X124373317Y-93468149D01*
X124359276Y-93471666D01*
X124344958Y-93473790D01*
X124330500Y-93474500D01*
X124035500Y-93474500D01*
X124021042Y-93473790D01*
X124006724Y-93471666D01*
X123992683Y-93468149D01*
X123979054Y-93463272D01*
X123965969Y-93457083D01*
X123953553Y-93449642D01*
X123941927Y-93441019D01*
X123931202Y-93431298D01*
X123921481Y-93420573D01*
X123912858Y-93408947D01*
X123905417Y-93396531D01*
X123899228Y-93383446D01*
X123894351Y-93369817D01*
X123890834Y-93355776D01*
X123888710Y-93341458D01*
X123888000Y-93327000D01*
X123888000Y-92982000D01*
X123888710Y-92967542D01*
X123890834Y-92953224D01*
X123894351Y-92939183D01*
X123899228Y-92925554D01*
X123905417Y-92912469D01*
X123912858Y-92900053D01*
X123921481Y-92888427D01*
X123931202Y-92877702D01*
X123941927Y-92867981D01*
X123953553Y-92859358D01*
X123965969Y-92851917D01*
X123979054Y-92845728D01*
X123992683Y-92840851D01*
X124006724Y-92837334D01*
X124021042Y-92835210D01*
X124035500Y-92834500D01*
X124330500Y-92834500D01*
X124344958Y-92835210D01*
G37*
G36*
X123374958Y-92835210D02*
G01*
X123389276Y-92837334D01*
X123403317Y-92840851D01*
X123416946Y-92845728D01*
X123430031Y-92851917D01*
X123442447Y-92859358D01*
X123454073Y-92867981D01*
X123464798Y-92877702D01*
X123474519Y-92888427D01*
X123483142Y-92900053D01*
X123490583Y-92912469D01*
X123496772Y-92925554D01*
X123501649Y-92939183D01*
X123505166Y-92953224D01*
X123507290Y-92967542D01*
X123508000Y-92982000D01*
X123508000Y-93327000D01*
X123507290Y-93341458D01*
X123505166Y-93355776D01*
X123501649Y-93369817D01*
X123496772Y-93383446D01*
X123490583Y-93396531D01*
X123483142Y-93408947D01*
X123474519Y-93420573D01*
X123464798Y-93431298D01*
X123454073Y-93441019D01*
X123442447Y-93449642D01*
X123430031Y-93457083D01*
X123416946Y-93463272D01*
X123403317Y-93468149D01*
X123389276Y-93471666D01*
X123374958Y-93473790D01*
X123360500Y-93474500D01*
X123065500Y-93474500D01*
X123051042Y-93473790D01*
X123036724Y-93471666D01*
X123022683Y-93468149D01*
X123009054Y-93463272D01*
X122995969Y-93457083D01*
X122983553Y-93449642D01*
X122971927Y-93441019D01*
X122961202Y-93431298D01*
X122951481Y-93420573D01*
X122942858Y-93408947D01*
X122935417Y-93396531D01*
X122929228Y-93383446D01*
X122924351Y-93369817D01*
X122920834Y-93355776D01*
X122918710Y-93341458D01*
X122918000Y-93327000D01*
X122918000Y-92982000D01*
X122918710Y-92967542D01*
X122920834Y-92953224D01*
X122924351Y-92939183D01*
X122929228Y-92925554D01*
X122935417Y-92912469D01*
X122942858Y-92900053D01*
X122951481Y-92888427D01*
X122961202Y-92877702D01*
X122971927Y-92867981D01*
X122983553Y-92859358D01*
X122995969Y-92851917D01*
X123009054Y-92845728D01*
X123022683Y-92840851D01*
X123036724Y-92837334D01*
X123051042Y-92835210D01*
X123065500Y-92834500D01*
X123360500Y-92834500D01*
X123374958Y-92835210D01*
G37*
G36*
X124344958Y-93978210D02*
G01*
X124359276Y-93980334D01*
X124373317Y-93983851D01*
X124386946Y-93988728D01*
X124400031Y-93994917D01*
X124412447Y-94002358D01*
X124424073Y-94010981D01*
X124434798Y-94020702D01*
X124444519Y-94031427D01*
X124453142Y-94043053D01*
X124460583Y-94055469D01*
X124466772Y-94068554D01*
X124471649Y-94082183D01*
X124475166Y-94096224D01*
X124477290Y-94110542D01*
X124478000Y-94125000D01*
X124478000Y-94470000D01*
X124477290Y-94484458D01*
X124475166Y-94498776D01*
X124471649Y-94512817D01*
X124466772Y-94526446D01*
X124460583Y-94539531D01*
X124453142Y-94551947D01*
X124444519Y-94563573D01*
X124434798Y-94574298D01*
X124424073Y-94584019D01*
X124412447Y-94592642D01*
X124400031Y-94600083D01*
X124386946Y-94606272D01*
X124373317Y-94611149D01*
X124359276Y-94614666D01*
X124344958Y-94616790D01*
X124330500Y-94617500D01*
X124035500Y-94617500D01*
X124021042Y-94616790D01*
X124006724Y-94614666D01*
X123992683Y-94611149D01*
X123979054Y-94606272D01*
X123965969Y-94600083D01*
X123953553Y-94592642D01*
X123941927Y-94584019D01*
X123931202Y-94574298D01*
X123921481Y-94563573D01*
X123912858Y-94551947D01*
X123905417Y-94539531D01*
X123899228Y-94526446D01*
X123894351Y-94512817D01*
X123890834Y-94498776D01*
X123888710Y-94484458D01*
X123888000Y-94470000D01*
X123888000Y-94125000D01*
X123888710Y-94110542D01*
X123890834Y-94096224D01*
X123894351Y-94082183D01*
X123899228Y-94068554D01*
X123905417Y-94055469D01*
X123912858Y-94043053D01*
X123921481Y-94031427D01*
X123931202Y-94020702D01*
X123941927Y-94010981D01*
X123953553Y-94002358D01*
X123965969Y-93994917D01*
X123979054Y-93988728D01*
X123992683Y-93983851D01*
X124006724Y-93980334D01*
X124021042Y-93978210D01*
X124035500Y-93977500D01*
X124330500Y-93977500D01*
X124344958Y-93978210D01*
G37*
G36*
X123374958Y-93978210D02*
G01*
X123389276Y-93980334D01*
X123403317Y-93983851D01*
X123416946Y-93988728D01*
X123430031Y-93994917D01*
X123442447Y-94002358D01*
X123454073Y-94010981D01*
X123464798Y-94020702D01*
X123474519Y-94031427D01*
X123483142Y-94043053D01*
X123490583Y-94055469D01*
X123496772Y-94068554D01*
X123501649Y-94082183D01*
X123505166Y-94096224D01*
X123507290Y-94110542D01*
X123508000Y-94125000D01*
X123508000Y-94470000D01*
X123507290Y-94484458D01*
X123505166Y-94498776D01*
X123501649Y-94512817D01*
X123496772Y-94526446D01*
X123490583Y-94539531D01*
X123483142Y-94551947D01*
X123474519Y-94563573D01*
X123464798Y-94574298D01*
X123454073Y-94584019D01*
X123442447Y-94592642D01*
X123430031Y-94600083D01*
X123416946Y-94606272D01*
X123403317Y-94611149D01*
X123389276Y-94614666D01*
X123374958Y-94616790D01*
X123360500Y-94617500D01*
X123065500Y-94617500D01*
X123051042Y-94616790D01*
X123036724Y-94614666D01*
X123022683Y-94611149D01*
X123009054Y-94606272D01*
X122995969Y-94600083D01*
X122983553Y-94592642D01*
X122971927Y-94584019D01*
X122961202Y-94574298D01*
X122951481Y-94563573D01*
X122942858Y-94551947D01*
X122935417Y-94539531D01*
X122929228Y-94526446D01*
X122924351Y-94512817D01*
X122920834Y-94498776D01*
X122918710Y-94484458D01*
X122918000Y-94470000D01*
X122918000Y-94125000D01*
X122918710Y-94110542D01*
X122920834Y-94096224D01*
X122924351Y-94082183D01*
X122929228Y-94068554D01*
X122935417Y-94055469D01*
X122942858Y-94043053D01*
X122951481Y-94031427D01*
X122961202Y-94020702D01*
X122971927Y-94010981D01*
X122983553Y-94002358D01*
X122995969Y-93994917D01*
X123009054Y-93988728D01*
X123022683Y-93983851D01*
X123036724Y-93980334D01*
X123051042Y-93978210D01*
X123065500Y-93977500D01*
X123360500Y-93977500D01*
X123374958Y-93978210D01*
G37*
M02*
