G04 #@! TF.GenerationSoftware,KiCad,Pcbnew,5.1.5-52549c5~84~ubuntu18.04.1*
G04 #@! TF.CreationDate,2020-04-23T07:07:29+01:00*
G04 #@! TF.ProjectId,amalthea_rev0,616d616c-7468-4656-915f-726576302e6b,rev?*
G04 #@! TF.SameCoordinates,Original*
G04 #@! TF.FileFunction,Legend,Bot*
G04 #@! TF.FilePolarity,Positive*
%FSLAX46Y46*%
G04 Gerber Fmt 4.6, Leading zero omitted, Abs format (unit mm)*
G04 Created by KiCad (PCBNEW 5.1.5-52549c5~84~ubuntu18.04.1) date 2020-04-23 07:07:29*
%MOMM*%
%LPD*%
G04 APERTURE LIST*
%ADD10C,0.203200*%
%ADD11C,0.150000*%
%ADD12C,0.750000*%
%ADD13C,0.120000*%
G04 APERTURE END LIST*
D10*
X110250000Y-73700000D02*
X110100000Y-73550000D01*
X109950000Y-73700000D02*
X110250000Y-73700000D01*
X110100000Y-73550000D02*
X109950000Y-73700000D01*
X110100000Y-73600000D02*
X110100000Y-74050000D01*
D11*
X138770809Y-77065714D02*
X138770809Y-78065714D01*
X138770809Y-77113333D02*
X138675571Y-77065714D01*
X138485095Y-77065714D01*
X138389857Y-77113333D01*
X138342238Y-77160952D01*
X138294619Y-77256190D01*
X138294619Y-77541904D01*
X138342238Y-77637142D01*
X138389857Y-77684761D01*
X138485095Y-77732380D01*
X138675571Y-77732380D01*
X138770809Y-77684761D01*
X137723190Y-77732380D02*
X137818428Y-77684761D01*
X137866047Y-77637142D01*
X137913666Y-77541904D01*
X137913666Y-77256190D01*
X137866047Y-77160952D01*
X137818428Y-77113333D01*
X137723190Y-77065714D01*
X137580333Y-77065714D01*
X137485095Y-77113333D01*
X137437476Y-77160952D01*
X137389857Y-77256190D01*
X137389857Y-77541904D01*
X137437476Y-77637142D01*
X137485095Y-77684761D01*
X137580333Y-77732380D01*
X137723190Y-77732380D01*
X137056523Y-77065714D02*
X136866047Y-77732380D01*
X136675571Y-77256190D01*
X136485095Y-77732380D01*
X136294619Y-77065714D01*
X135532714Y-77684761D02*
X135627952Y-77732380D01*
X135818428Y-77732380D01*
X135913666Y-77684761D01*
X135961285Y-77589523D01*
X135961285Y-77208571D01*
X135913666Y-77113333D01*
X135818428Y-77065714D01*
X135627952Y-77065714D01*
X135532714Y-77113333D01*
X135485095Y-77208571D01*
X135485095Y-77303809D01*
X135961285Y-77399047D01*
X135056523Y-77732380D02*
X135056523Y-77065714D01*
X135056523Y-77256190D02*
X135008904Y-77160952D01*
X134961285Y-77113333D01*
X134866047Y-77065714D01*
X134770809Y-77065714D01*
X134056523Y-77684761D02*
X134151761Y-77732380D01*
X134342238Y-77732380D01*
X134437476Y-77684761D01*
X134485095Y-77589523D01*
X134485095Y-77208571D01*
X134437476Y-77113333D01*
X134342238Y-77065714D01*
X134151761Y-77065714D01*
X134056523Y-77113333D01*
X134008904Y-77208571D01*
X134008904Y-77303809D01*
X134485095Y-77399047D01*
X133151761Y-77732380D02*
X133151761Y-76732380D01*
X133151761Y-77684761D02*
X133247000Y-77732380D01*
X133437476Y-77732380D01*
X133532714Y-77684761D01*
X133580333Y-77637142D01*
X133627952Y-77541904D01*
X133627952Y-77256190D01*
X133580333Y-77160952D01*
X133532714Y-77113333D01*
X133437476Y-77065714D01*
X133247000Y-77065714D01*
X133151761Y-77113333D01*
X131913666Y-77732380D02*
X131913666Y-76732380D01*
X131913666Y-77113333D02*
X131818428Y-77065714D01*
X131627952Y-77065714D01*
X131532714Y-77113333D01*
X131485095Y-77160952D01*
X131437476Y-77256190D01*
X131437476Y-77541904D01*
X131485095Y-77637142D01*
X131532714Y-77684761D01*
X131627952Y-77732380D01*
X131818428Y-77732380D01*
X131913666Y-77684761D01*
X131104142Y-77065714D02*
X130866047Y-77732380D01*
X130627952Y-77065714D02*
X130866047Y-77732380D01*
X130961285Y-77970476D01*
X131008904Y-78018095D01*
X131104142Y-78065714D01*
X137104142Y-78715714D02*
X137104142Y-79382380D01*
X137104142Y-78810952D02*
X137056523Y-78763333D01*
X136961285Y-78715714D01*
X136818428Y-78715714D01*
X136723190Y-78763333D01*
X136675571Y-78858571D01*
X136675571Y-79382380D01*
X136199380Y-79382380D02*
X136199380Y-78382380D01*
X135866047Y-79096666D01*
X135532714Y-78382380D01*
X135532714Y-79382380D01*
X135056523Y-79382380D02*
X135056523Y-78715714D01*
X135056523Y-78382380D02*
X135104142Y-78430000D01*
X135056523Y-78477619D01*
X135008904Y-78430000D01*
X135056523Y-78382380D01*
X135056523Y-78477619D01*
X134151761Y-78715714D02*
X134151761Y-79525238D01*
X134199380Y-79620476D01*
X134247000Y-79668095D01*
X134342238Y-79715714D01*
X134485095Y-79715714D01*
X134580333Y-79668095D01*
X134151761Y-79334761D02*
X134247000Y-79382380D01*
X134437476Y-79382380D01*
X134532714Y-79334761D01*
X134580333Y-79287142D01*
X134627952Y-79191904D01*
X134627952Y-78906190D01*
X134580333Y-78810952D01*
X134532714Y-78763333D01*
X134437476Y-78715714D01*
X134247000Y-78715714D01*
X134151761Y-78763333D01*
X133294619Y-79334761D02*
X133389857Y-79382380D01*
X133580333Y-79382380D01*
X133675571Y-79334761D01*
X133723190Y-79239523D01*
X133723190Y-78858571D01*
X133675571Y-78763333D01*
X133580333Y-78715714D01*
X133389857Y-78715714D01*
X133294619Y-78763333D01*
X133247000Y-78858571D01*
X133247000Y-78953809D01*
X133723190Y-79049047D01*
X132818428Y-78715714D02*
X132818428Y-79382380D01*
X132818428Y-78810952D02*
X132770809Y-78763333D01*
X132675571Y-78715714D01*
X132532714Y-78715714D01*
X132437476Y-78763333D01*
X132389857Y-78858571D01*
X132389857Y-79382380D01*
D10*
X106172000Y-76200000D02*
X106299000Y-76327000D01*
X106172000Y-76200000D02*
X106299000Y-76073000D01*
X106807000Y-76200000D02*
X106172000Y-76200000D01*
X106807000Y-75946000D02*
X106807000Y-76200000D01*
D11*
X107235476Y-74858619D02*
X107187857Y-74811000D01*
X107092619Y-74763380D01*
X106854523Y-74763380D01*
X106759285Y-74811000D01*
X106711666Y-74858619D01*
X106664047Y-74953857D01*
X106664047Y-75049095D01*
X106711666Y-75191952D01*
X107283095Y-75763380D01*
X106664047Y-75763380D01*
X106378333Y-74763380D02*
X106045000Y-75763380D01*
X105711666Y-74763380D01*
X104902142Y-74763380D02*
X105378333Y-74763380D01*
X105425952Y-75239571D01*
X105378333Y-75191952D01*
X105283095Y-75144333D01*
X105045000Y-75144333D01*
X104949761Y-75191952D01*
X104902142Y-75239571D01*
X104854523Y-75334809D01*
X104854523Y-75572904D01*
X104902142Y-75668142D01*
X104949761Y-75715761D01*
X105045000Y-75763380D01*
X105283095Y-75763380D01*
X105378333Y-75715761D01*
X105425952Y-75668142D01*
X110788095Y-74352380D02*
X110169047Y-74352380D01*
X110502380Y-74733333D01*
X110359523Y-74733333D01*
X110264285Y-74780952D01*
X110216666Y-74828571D01*
X110169047Y-74923809D01*
X110169047Y-75161904D01*
X110216666Y-75257142D01*
X110264285Y-75304761D01*
X110359523Y-75352380D01*
X110645238Y-75352380D01*
X110740476Y-75304761D01*
X110788095Y-75257142D01*
X109883333Y-74352380D02*
X109550000Y-75352380D01*
X109216666Y-74352380D01*
X108978571Y-74352380D02*
X108359523Y-74352380D01*
X108692857Y-74733333D01*
X108550000Y-74733333D01*
X108454761Y-74780952D01*
X108407142Y-74828571D01*
X108359523Y-74923809D01*
X108359523Y-75161904D01*
X108407142Y-75257142D01*
X108454761Y-75304761D01*
X108550000Y-75352380D01*
X108835714Y-75352380D01*
X108930952Y-75304761D01*
X108978571Y-75257142D01*
X111769047Y-78652380D02*
X112340476Y-78652380D01*
X112054761Y-78652380D02*
X112054761Y-77652380D01*
X112150000Y-77795238D01*
X112245238Y-77890476D01*
X112340476Y-77938095D01*
X111483333Y-77652380D02*
X111150000Y-78652380D01*
X110816666Y-77652380D01*
X109959523Y-78652380D02*
X110530952Y-78652380D01*
X110245238Y-78652380D02*
X110245238Y-77652380D01*
X110340476Y-77795238D01*
X110435714Y-77890476D01*
X110530952Y-77938095D01*
X118645238Y-76907142D02*
X118692857Y-76954761D01*
X118835714Y-77002380D01*
X118930952Y-77002380D01*
X119073809Y-76954761D01*
X119169047Y-76859523D01*
X119216666Y-76764285D01*
X119264285Y-76573809D01*
X119264285Y-76430952D01*
X119216666Y-76240476D01*
X119169047Y-76145238D01*
X119073809Y-76050000D01*
X118930952Y-76002380D01*
X118835714Y-76002380D01*
X118692857Y-76050000D01*
X118645238Y-76097619D01*
X117740476Y-77002380D02*
X118216666Y-77002380D01*
X118216666Y-76002380D01*
X117407142Y-77002380D02*
X117407142Y-76002380D01*
X116835714Y-77002380D02*
X117264285Y-76430952D01*
X116835714Y-76002380D02*
X117407142Y-76573809D01*
D10*
X112141000Y-76835000D02*
X112014000Y-76708000D01*
X111887000Y-76835000D02*
X111633000Y-76835000D01*
X112141000Y-76835000D02*
X112014000Y-76962000D01*
X111887000Y-76835000D02*
X112141000Y-76835000D01*
X111633000Y-76835000D02*
X111633000Y-77300000D01*
X115951000Y-76662000D02*
X116078000Y-76789000D01*
X116078000Y-76535000D02*
X115951000Y-76662000D01*
X115951000Y-76662000D02*
X116078000Y-76535000D01*
X116586000Y-76662000D02*
X115951000Y-76662000D01*
D11*
X102470976Y-78271642D02*
X102518595Y-78319261D01*
X102661452Y-78366880D01*
X102756690Y-78366880D01*
X102899547Y-78319261D01*
X102994785Y-78224023D01*
X103042404Y-78128785D01*
X103090023Y-77938309D01*
X103090023Y-77795452D01*
X103042404Y-77604976D01*
X102994785Y-77509738D01*
X102899547Y-77414500D01*
X102756690Y-77366880D01*
X102661452Y-77366880D01*
X102518595Y-77414500D01*
X102470976Y-77462119D01*
X101899547Y-78366880D02*
X101994785Y-78319261D01*
X102042404Y-78271642D01*
X102090023Y-78176404D01*
X102090023Y-77890690D01*
X102042404Y-77795452D01*
X101994785Y-77747833D01*
X101899547Y-77700214D01*
X101756690Y-77700214D01*
X101661452Y-77747833D01*
X101613833Y-77795452D01*
X101566214Y-77890690D01*
X101566214Y-78176404D01*
X101613833Y-78271642D01*
X101661452Y-78319261D01*
X101756690Y-78366880D01*
X101899547Y-78366880D01*
X101137642Y-77700214D02*
X101137642Y-78366880D01*
X101137642Y-77795452D02*
X101090023Y-77747833D01*
X100994785Y-77700214D01*
X100851928Y-77700214D01*
X100756690Y-77747833D01*
X100709071Y-77843071D01*
X100709071Y-78366880D01*
X100375738Y-77700214D02*
X99994785Y-77700214D01*
X100232880Y-77366880D02*
X100232880Y-78224023D01*
X100185261Y-78319261D01*
X100090023Y-78366880D01*
X99994785Y-78366880D01*
X99661452Y-78366880D02*
X99661452Y-77700214D01*
X99661452Y-77890690D02*
X99613833Y-77795452D01*
X99566214Y-77747833D01*
X99470976Y-77700214D01*
X99375738Y-77700214D01*
X98899547Y-78366880D02*
X98994785Y-78319261D01*
X99042404Y-78271642D01*
X99090023Y-78176404D01*
X99090023Y-77890690D01*
X99042404Y-77795452D01*
X98994785Y-77747833D01*
X98899547Y-77700214D01*
X98756690Y-77700214D01*
X98661452Y-77747833D01*
X98613833Y-77795452D01*
X98566214Y-77890690D01*
X98566214Y-78176404D01*
X98613833Y-78271642D01*
X98661452Y-78319261D01*
X98756690Y-78366880D01*
X98899547Y-78366880D01*
X97994785Y-78366880D02*
X98090023Y-78319261D01*
X98137642Y-78224023D01*
X98137642Y-77366880D01*
X96851928Y-78366880D02*
X96851928Y-77366880D01*
X96851928Y-77843071D02*
X96280500Y-77843071D01*
X96280500Y-78366880D02*
X96280500Y-77366880D01*
X95661452Y-78366880D02*
X95756690Y-78319261D01*
X95804309Y-78271642D01*
X95851928Y-78176404D01*
X95851928Y-77890690D01*
X95804309Y-77795452D01*
X95756690Y-77747833D01*
X95661452Y-77700214D01*
X95518595Y-77700214D01*
X95423357Y-77747833D01*
X95375738Y-77795452D01*
X95328119Y-77890690D01*
X95328119Y-78176404D01*
X95375738Y-78271642D01*
X95423357Y-78319261D01*
X95518595Y-78366880D01*
X95661452Y-78366880D01*
X94947166Y-78319261D02*
X94851928Y-78366880D01*
X94661452Y-78366880D01*
X94566214Y-78319261D01*
X94518595Y-78224023D01*
X94518595Y-78176404D01*
X94566214Y-78081166D01*
X94661452Y-78033547D01*
X94804309Y-78033547D01*
X94899547Y-77985928D01*
X94947166Y-77890690D01*
X94947166Y-77843071D01*
X94899547Y-77747833D01*
X94804309Y-77700214D01*
X94661452Y-77700214D01*
X94566214Y-77747833D01*
X94232880Y-77700214D02*
X93851928Y-77700214D01*
X94090023Y-77366880D02*
X94090023Y-78224023D01*
X94042404Y-78319261D01*
X93947166Y-78366880D01*
X93851928Y-78366880D01*
D10*
X94107000Y-103505000D02*
X128841500Y-103505000D01*
X98425000Y-81915000D02*
X98742500Y-82232500D01*
X98425000Y-81915000D02*
X98742500Y-81597500D01*
X99060000Y-81915000D02*
X98425000Y-81915000D01*
X100965000Y-81915000D02*
X99060000Y-81915000D01*
X100965000Y-78740000D02*
X100965000Y-81915000D01*
X98425000Y-100330000D02*
X98742500Y-100647500D01*
X98425000Y-100330000D02*
X98742500Y-100012500D01*
X99695000Y-100330000D02*
X98425000Y-100330000D01*
X99695000Y-102235000D02*
X99695000Y-100330000D01*
X101600000Y-102235000D02*
X99695000Y-102235000D01*
X128841500Y-111061500D02*
X128841500Y-103505000D01*
X94107000Y-111061500D02*
X128841500Y-111061500D01*
X94107000Y-103505000D02*
X94107000Y-111061500D01*
D12*
X124152380Y-108253500D02*
X122247619Y-108253500D01*
X124533333Y-109753500D02*
X123200000Y-104503500D01*
X121866666Y-109753500D01*
X120533333Y-109753500D02*
X120533333Y-106253500D01*
X120533333Y-106753500D02*
X120342857Y-106503500D01*
X119961904Y-106253500D01*
X119390476Y-106253500D01*
X119009523Y-106503500D01*
X118819047Y-107003500D01*
X118819047Y-109753500D01*
X118819047Y-107003500D02*
X118628571Y-106503500D01*
X118247619Y-106253500D01*
X117676190Y-106253500D01*
X117295238Y-106503500D01*
X117104761Y-107003500D01*
X117104761Y-109753500D01*
X113485714Y-109753500D02*
X113485714Y-107003500D01*
X113676190Y-106503500D01*
X114057142Y-106253500D01*
X114819047Y-106253500D01*
X115200000Y-106503500D01*
X113485714Y-109503500D02*
X113866666Y-109753500D01*
X114819047Y-109753500D01*
X115200000Y-109503500D01*
X115390476Y-109003500D01*
X115390476Y-108503500D01*
X115200000Y-108003500D01*
X114819047Y-107753500D01*
X113866666Y-107753500D01*
X113485714Y-107503500D01*
X111009523Y-109753500D02*
X111390476Y-109503500D01*
X111580952Y-109003500D01*
X111580952Y-104503500D01*
X110057142Y-106253500D02*
X108533333Y-106253500D01*
X109485714Y-104503500D02*
X109485714Y-109003500D01*
X109295238Y-109503500D01*
X108914285Y-109753500D01*
X108533333Y-109753500D01*
X107200000Y-109753500D02*
X107200000Y-104503500D01*
X105485714Y-109753500D02*
X105485714Y-107003500D01*
X105676190Y-106503500D01*
X106057142Y-106253500D01*
X106628571Y-106253500D01*
X107009523Y-106503500D01*
X107200000Y-106753500D01*
X102057142Y-109503500D02*
X102438095Y-109753500D01*
X103200000Y-109753500D01*
X103580952Y-109503500D01*
X103771428Y-109003500D01*
X103771428Y-107003500D01*
X103580952Y-106503500D01*
X103200000Y-106253500D01*
X102438095Y-106253500D01*
X102057142Y-106503500D01*
X101866666Y-107003500D01*
X101866666Y-107503500D01*
X103771428Y-108003500D01*
X98438095Y-109753500D02*
X98438095Y-107003500D01*
X98628571Y-106503500D01*
X99009523Y-106253500D01*
X99771428Y-106253500D01*
X100152380Y-106503500D01*
X98438095Y-109503500D02*
X98819047Y-109753500D01*
X99771428Y-109753500D01*
X100152380Y-109503500D01*
X100342857Y-109003500D01*
X100342857Y-108503500D01*
X100152380Y-108003500D01*
X99771428Y-107753500D01*
X98819047Y-107753500D01*
X98438095Y-107503500D01*
D11*
X113456404Y-102814380D02*
X113456404Y-101814380D01*
X113218309Y-101814380D01*
X113075452Y-101862000D01*
X112980214Y-101957238D01*
X112932595Y-102052476D01*
X112884976Y-102242952D01*
X112884976Y-102385809D01*
X112932595Y-102576285D01*
X112980214Y-102671523D01*
X113075452Y-102766761D01*
X113218309Y-102814380D01*
X113456404Y-102814380D01*
X112075452Y-102766761D02*
X112170690Y-102814380D01*
X112361166Y-102814380D01*
X112456404Y-102766761D01*
X112504023Y-102671523D01*
X112504023Y-102290571D01*
X112456404Y-102195333D01*
X112361166Y-102147714D01*
X112170690Y-102147714D01*
X112075452Y-102195333D01*
X112027833Y-102290571D01*
X112027833Y-102385809D01*
X112504023Y-102481047D01*
X111599261Y-102814380D02*
X111599261Y-101814380D01*
X111599261Y-102195333D02*
X111504023Y-102147714D01*
X111313547Y-102147714D01*
X111218309Y-102195333D01*
X111170690Y-102242952D01*
X111123071Y-102338190D01*
X111123071Y-102623904D01*
X111170690Y-102719142D01*
X111218309Y-102766761D01*
X111313547Y-102814380D01*
X111504023Y-102814380D01*
X111599261Y-102766761D01*
X110265928Y-102147714D02*
X110265928Y-102814380D01*
X110694500Y-102147714D02*
X110694500Y-102671523D01*
X110646880Y-102766761D01*
X110551642Y-102814380D01*
X110408785Y-102814380D01*
X110313547Y-102766761D01*
X110265928Y-102719142D01*
X109361166Y-102147714D02*
X109361166Y-102957238D01*
X109408785Y-103052476D01*
X109456404Y-103100095D01*
X109551642Y-103147714D01*
X109694500Y-103147714D01*
X109789738Y-103100095D01*
X109361166Y-102766761D02*
X109456404Y-102814380D01*
X109646880Y-102814380D01*
X109742119Y-102766761D01*
X109789738Y-102719142D01*
X109837357Y-102623904D01*
X109837357Y-102338190D01*
X109789738Y-102242952D01*
X109742119Y-102195333D01*
X109646880Y-102147714D01*
X109456404Y-102147714D01*
X109361166Y-102195333D01*
X108170690Y-101766761D02*
X109027833Y-103052476D01*
X107884976Y-102528666D02*
X107408785Y-102528666D01*
X107980214Y-102814380D02*
X107646880Y-101814380D01*
X107313547Y-102814380D01*
X106837357Y-102814380D02*
X106932595Y-102766761D01*
X106980214Y-102671523D01*
X106980214Y-101814380D01*
X106599261Y-102147714D02*
X106218309Y-102147714D01*
X106456404Y-101814380D02*
X106456404Y-102671523D01*
X106408785Y-102766761D01*
X106313547Y-102814380D01*
X106218309Y-102814380D01*
X105123071Y-102814380D02*
X105123071Y-101814380D01*
X104742119Y-101814380D01*
X104646880Y-101862000D01*
X104599261Y-101909619D01*
X104551642Y-102004857D01*
X104551642Y-102147714D01*
X104599261Y-102242952D01*
X104646880Y-102290571D01*
X104742119Y-102338190D01*
X105123071Y-102338190D01*
X103980214Y-102814380D02*
X104075452Y-102766761D01*
X104123071Y-102719142D01*
X104170690Y-102623904D01*
X104170690Y-102338190D01*
X104123071Y-102242952D01*
X104075452Y-102195333D01*
X103980214Y-102147714D01*
X103837357Y-102147714D01*
X103742119Y-102195333D01*
X103694500Y-102242952D01*
X103646880Y-102338190D01*
X103646880Y-102623904D01*
X103694500Y-102719142D01*
X103742119Y-102766761D01*
X103837357Y-102814380D01*
X103980214Y-102814380D01*
X103218309Y-102814380D02*
X103218309Y-102147714D01*
X103218309Y-102338190D02*
X103170690Y-102242952D01*
X103123071Y-102195333D01*
X103027833Y-102147714D01*
X102932595Y-102147714D01*
X102742119Y-102147714D02*
X102361166Y-102147714D01*
X102599261Y-101814380D02*
X102599261Y-102671523D01*
X102551642Y-102766761D01*
X102456404Y-102814380D01*
X102361166Y-102814380D01*
D10*
X97790000Y-102108000D02*
X92075000Y-102108000D01*
X97790000Y-93853000D02*
X97790000Y-102108000D01*
X92075000Y-93853000D02*
X97790000Y-93853000D01*
X97917000Y-89027000D02*
X92075000Y-89027000D01*
X97917000Y-80772000D02*
X97917000Y-89027000D01*
X92075000Y-80772000D02*
X97917000Y-80772000D01*
D13*
X106110000Y-76835000D02*
G75*
G03X106110000Y-76835000I-700000J0D01*
G01*
X113730000Y-76835000D02*
G75*
G03X113730000Y-76835000I-700000J0D01*
G01*
X110809000Y-72644000D02*
G75*
G03X110809000Y-72644000I-700000J0D01*
G01*
X114302000Y-80553779D02*
X114302000Y-80228221D01*
X113282000Y-80553779D02*
X113282000Y-80228221D01*
X108739400Y-90921621D02*
X108739400Y-91247179D01*
X107719400Y-90921621D02*
X107719400Y-91247179D01*
X98943279Y-74674000D02*
X98617721Y-74674000D01*
X98943279Y-75694000D02*
X98617721Y-75694000D01*
X106134119Y-78402720D02*
X105808561Y-78402720D01*
X106134119Y-79422720D02*
X105808561Y-79422720D01*
X115635000Y-76835000D02*
G75*
G03X115635000Y-76835000I-700000J0D01*
G01*
X99400479Y-92098400D02*
X99074921Y-92098400D01*
X99400479Y-93118400D02*
X99074921Y-93118400D01*
X103820079Y-95963200D02*
X103494521Y-95963200D01*
X103820079Y-94943200D02*
X103494521Y-94943200D01*
X100734400Y-84566879D02*
X100734400Y-84241321D01*
X101754400Y-84566879D02*
X101754400Y-84241321D01*
X102262779Y-87990000D02*
X101937221Y-87990000D01*
X102262779Y-89010000D02*
X101937221Y-89010000D01*
M02*
